<?xml version="1.0" encoding="utf-8"?>
<!-- Generator: Adobe Illustrator 18.1.1, SVG Export Plug-In . SVG Version: 6.00 Build 0)  -->
<svg version="1.1" id="Ebene_1" xmlns="http://www.w3.org/2000/svg" xmlns:xlink="http://www.w3.org/1999/xlink" x="0px" y="0px"
	 viewBox="0 0 4252 2834.6" enable-background="new 0 0 4252 2834.6" xml:space="preserve">
<g>
	<g>
		<defs>
			<rect id="SVGID_1_" x="186.4" y="702" width="6477.2" height="1967"/>
		</defs>
		<clipPath id="SVGID_2_">
			<use xlink:href="#SVGID_1_"  overflow="visible"/>
		</clipPath>
		<g clip-path="url(#SVGID_2_)">
			<path fill="#867E7A" d="M2457.7,1925.7c-92.2,0-178.9-36.2-244.1-102c-65.2-65.8-101.2-153.4-101.2-246.6
				c0-192.8,154.9-349.6,345.3-349.6s345.3,156.8,345.3,349.6c0,93.2-35.9,180.8-101.2,246.6
				C2636.7,1889.5,2550,1925.7,2457.7,1925.7z M2457.7,1231.4c-188.3,0-341.4,155.1-341.4,345.8c0,190.1,153.2,344.7,341.4,344.7
				s341.4-154.6,341.4-344.7C2799.2,1386.5,2646,1231.4,2457.7,1231.4z"/>
			<g>
				<path fill="#867E7A" d="M2457.7,1895.7c-15.6,0-31.2-1.1-46.6-3.1c2.7,0.4,5.3,0.7,8,1.1c-29.9-4.1-59.2-12.1-87-23.8
					c2.4,1,4.8,2,7.2,3c-15.6-6.6-30.6-14.3-45.1-23.2c-7.3-4.4-14.3-9.2-21.2-14.1c-1.7-1.2-3.5-2.5-5.2-3.8
					c-0.8-0.6-1.7-1.3-2.6-1.9c6.7,4.6,3.8,3,2.3,1.7c-3.6-2.8-7.1-5.7-10.6-8.7c-13.2-11.2-25.5-23.4-36.9-36.4
					c-2.7-3-5.3-6.1-7.8-9.2c-1.4-1.7-2.7-3.3-4-5c-1.2-1.5-3-4.5,1.7,2.3c-0.8-1.1-1.6-2.1-2.4-3.2c-5.1-6.8-9.9-13.8-14.5-21
					c-10.4-16.3-19.4-33.4-26.9-51.2c1,2.4,2,4.8,3,7.2c-12.2-28.9-20.4-59.3-24.6-90.4c0.4,2.7,0.7,5.3,1.1,8
					c-4.1-31.3-4-63,0.1-94.3c-0.4,2.7-0.7,5.3-1.1,8c4.2-31,12.5-61.2,24.7-90c-1,2.4-2,4.8-3,7.2c6.9-16.1,14.9-31.7,24-46.6
					c4.5-7.3,9.2-14.4,14.3-21.4c1.3-1.8,2.6-3.5,3.9-5.3c0.5-0.7,1.1-1.4,1.6-2.1c3.2-4.3-4.8,6.1-1.5,1.9
					c2.7-3.4,5.5-6.8,8.3-10.2c11-13,23-25.2,35.8-36.5c3.3-2.9,6.6-5.7,10-8.5c1.4-1.1,2.7-2.2,4.1-3.3c1.7-1.4,6-4.5-1.9,1.5
					c1.1-0.8,2.1-1.6,3.1-2.4c6.8-5.1,13.8-10,21-14.6c16.5-10.6,33.9-19.7,51.9-27.3c-2.4,1-4.8,2-7.2,3
					c27.7-11.6,56.8-19.5,86.6-23.6c-2.7,0.4-5.3,0.7-8,1.1c30.2-4,60.9-4,91.1,0c-2.7-0.4-5.3-0.7-8-1.1
					c29.8,4.1,58.9,12,86.6,23.6c-2.4-1-4.8-2-7.2-3c16,6.8,31.5,14.7,46.3,23.8c7.3,4.5,14.4,9.2,21.3,14.2
					c1.8,1.3,3.5,2.6,5.3,3.9c0.7,0.5,1.4,1.1,2.1,1.6c4.3,3.2-6.1-4.8-1.9-1.5c3.4,2.7,6.8,5.5,10.2,8.3c13,11,25.2,23,36.5,35.8
					c2.9,3.3,5.7,6.6,8.5,10c1.1,1.4,2.2,2.7,3.3,4.1c1.4,1.7,4.5,6.1-1.5-1.9c0.8,1.1,1.6,2.1,2.4,3.1c5.1,6.9,10,13.9,14.6,21.1
					c10.6,16.6,19.8,34.1,27.5,52.2c-1-2.4-2-4.8-3-7.2c12.1,28.8,20.4,59,24.7,90c-0.4-2.7-0.7-5.3-1.1-8c4.2,31.3,4.2,63,0.1,94.3
					c0.4-2.7,0.7-5.3,1.1-8c-4.2,31.1-12.4,61.4-24.6,90.4c1-2.4,2-4.8,3-7.2c-6.6,15.6-14.3,30.7-23.1,45.1
					c-4.4,7.3-9.1,14.3-14.1,21.3c-1.2,1.7-2.5,3.5-3.8,5.2c-0.6,0.9-1.3,1.7-1.9,2.6c-2.9,3.8,1.6-2,1.8-2.3
					c-2.6,3.7-5.7,7.1-8.6,10.6c-11.2,13.2-23.3,25.6-36.2,37c-3,2.7-6.1,5.3-9.2,7.9c-1.7,1.4-3.3,2.7-5,4c-0.8,0.6-1.7,1.4-2.5,2
					c1.6-1,5.5-4.2,1.6-1.3c-6.8,5.1-13.8,10-21,14.6c-16.3,10.4-33.4,19.4-51.1,27c2.4-1,4.8-2,7.2-3c-27.9,11.7-57.1,19.7-87,23.8
					c2.7-0.4,5.3-0.7,8-1.1C2488.9,1894.6,2473.4,1895.7,2457.7,1895.7c-15.7,0-30.7,13.8-30,30c0.7,16.2,13.2,30,30,30
					c41.7-0.1,83.9-6.8,123.2-20.8c41.2-14.7,78.6-36,112.6-63.4c64.7-52,111.4-127.1,129.7-208c16.7-74,12-153.6-16.1-224.4
					c-13-32.8-29.6-63.5-51-91.6c-22.6-29.6-48.4-55.1-78.2-77.4c-56.4-42.3-125-66.6-195.1-71.7c-71.2-5.2-143.8,11.6-206.1,46.3
					c-60.4,33.7-111.5,84.9-145.3,145.2c-35.6,63.5-52.8,137.3-48.2,210c5.4,85.9,39.2,167.2,96.5,231.4
					c55.2,61.8,132.1,105.3,214,118.7c21.2,3.5,42.6,5.6,64.1,5.6c15.7,0,30.7-13.8,30-30C2487,1909.4,2474.6,1895.8,2457.7,1895.7z
					"/>
				<path fill="#867E7A" d="M2457.7,1201.4c-75.8,0.2-151.7,23.8-213.2,68.3c-62.7,45.4-110,107.8-136.4,180.6
					c-26.3,72.7-28.8,154.5-7.8,228.9c20.1,71.6,62.3,137.7,119.5,185.3c60.2,50,133.3,80.2,211.4,86.3
					c75.8,5.9,153.6-13.2,218.3-52.9c62.9-38.6,114.9-96.2,145.2-163.6c16.8-37.4,27.3-75.9,32.1-116.6c4.6-39.2,2.2-79.1-5.6-117.8
					c-14.8-73.2-52.9-142-106.6-193.9c-53.5-51.7-122.9-88-196.6-99.5C2498.1,1203.4,2478,1201.5,2457.7,1201.4
					c-15.7,0-30.7,13.8-30,30c0.7,16.3,13.2,30,30,30c15.3,0,30.5,1,45.6,3.1c-2.7-0.4-5.3-0.7-8-1.1c29.4,4,58,11.9,85.4,23.4
					c-2.4-1-4.8-2-7.2-3c15.8,6.7,31.1,14.6,45.8,23.6c7.5,4.6,14.8,9.5,21.9,14.6c1.4,1,2.8,2.1,4.2,3.1c1,0.7,2.4,1.5,3.1,2.4
					c0.1,0.1-6.4-5.1-3-2.3c3.4,2.7,6.8,5.5,10.2,8.3c13,11.1,25.2,23.1,36.4,35.9c2.6,3,5.1,6,7.6,9c1.4,1.7,2.7,3.4,4.1,5.1
					c2.8,3.5-2.3-3-2.3-3c1.1,0.9,1.9,2.5,2.8,3.7c5.1,6.9,10,13.9,14.6,21.2c10.5,16.5,19.5,33.8,27.1,51.7c-1-2.4-2-4.8-3-7.2
					c11.7,28,19.8,57.4,23.9,87.5c-0.4-2.7-0.7-5.3-1.1-8c4.2,31,4.2,62.5,0.2,93.6c0.4-2.7,0.7-5.3,1.1-8
					c-4.1,30.5-12.2,60.3-24.1,88.6c1-2.4,2-4.8,3-7.2c-6.7,15.9-14.6,31.3-23.6,46c-4.6,7.5-9.5,14.8-14.6,21.9
					c-1,1.4-2.1,2.8-3.1,4.2c-1.5,2-6.8,8.5-0.1,0.2c-2.8,3.4-5.5,6.8-8.3,10.2c-11,13-23,25.2-35.8,36.5c-3,2.6-5.9,5.1-9,7.6
					c-1.7,1.4-3.4,2.8-5.1,4.1c-0.7,0.5-1.4,1.1-2.1,1.6c7.9-6.3,3.2-2.5,1.4-1.1c-6.8,5.1-13.8,10-21,14.6
					c-16.3,10.4-33.5,19.4-51.3,27c2.4-1,4.8-2,7.2-3c-27.3,11.4-56,19.3-85.4,23.3c2.7-0.4,5.3-0.7,8-1.1c-30.3,4-60.9,4-91.2,0
					c2.7,0.4,5.3,0.7,8,1.1c-29.3-4-58-11.9-85.4-23.3c2.4,1,4.8,2,7.2,3c-15.8-6.7-31.1-14.5-45.8-23.5
					c-7.5-4.6-14.8-9.4-21.9-14.6c-1.4-1-2.8-2.1-4.2-3.1c-0.9-0.7-2.5-1.5-3.1-2.4c-0.1-0.1,6.4,5.1,3,2.3
					c-3.4-2.7-6.8-5.5-10.2-8.3c-13-11-25.2-23-36.4-35.8c-2.6-3-5.1-6-7.6-9c-1.4-1.7-2.7-3.4-4.1-5.1c-2.8-3.5,2.3,3,2.3,3
					c-1.1-1-1.9-2.5-2.8-3.7c-5.1-6.9-10-13.9-14.6-21.1c-10.5-16.4-19.5-33.7-27.1-51.6c1,2.4,2,4.8,3,7.2
					c-11.9-28.4-20-58.2-24.1-88.6c0.4,2.7,0.7,5.3,1.1,8c-4.1-31.1-4-62.5,0.2-93.6c-0.4,2.7-0.7,5.3-1.1,8
					c4.2-30.1,12.2-59.5,23.9-87.5c-1,2.4-2,4.8-3,7.2c6.7-15.9,14.6-31.4,23.6-46.1c4.6-7.5,9.5-14.9,14.6-22
					c1-1.4,2.1-2.8,3.1-4.3c1.5-2,6.8-8.6,0.1-0.2c2.7-3.4,5.5-6.9,8.3-10.2c11-13.1,23-25.3,35.8-36.6c3-2.6,5.9-5.2,9-7.7
					c1.7-1.4,3.4-2.8,5.1-4.1c0.7-0.5,1.4-1.1,2.1-1.6c-7.9,6.4-3.2,2.5-1.4,1.1c6.8-5.1,13.8-10,21-14.6
					c16.3-10.5,33.5-19.5,51.3-27.1c-2.4,1-4.8,2-7.2,3c27.3-11.5,56-19.3,85.4-23.4c-2.7,0.4-5.3,0.7-8,1.1c15.1-2,30.3-3,45.6-3.1
					c15.7,0,30.7-13.8,30-30C2487,1215.2,2474.6,1201.4,2457.7,1201.4z"/>
			</g>
		</g>
	</g>
	<g>
		<defs>
			<rect id="SVGID_3_" x="186.4" y="702" width="6477.2" height="1967"/>
		</defs>
		<clipPath id="SVGID_4_">
			<use xlink:href="#SVGID_3_"  overflow="visible"/>
		</clipPath>
		<g clip-path="url(#SVGID_4_)">
			<path fill="#867E7A" d="M2854.2,1827.8c-83.4,0-161.6-33-220.3-93c-58.7-59.9-91-139.8-91-224.8c0-85.5,32.3-165.7,91-225.7
				c58.7-60.1,136.9-93.2,220.3-93.2c83.9,0,162.5,33.1,221.3,93.2c58.8,60,91.1,140.2,91.1,225.7c0,85.1-32.4,164.9-91.1,224.8
				C3016.6,1794.8,2938,1827.8,2854.2,1827.8z M2854.2,1192c-171.2,0-310.4,142.7-310.4,318c0,174.7,139.3,316.9,310.4,316.9
				c171.8,0,311.5-142.2,311.5-316.9C3165.7,1334.7,3025.9,1192,2854.2,1192z"/>
			<g>
				<path fill="#867E7A" d="M2854.2,1817.8c-62.4-0.2-123.3-19.7-174-56.1c-50.7-36.4-89.7-89.2-110.1-148.2
					c-20.7-60-22.8-125.9-6.3-187.1c16.4-60.8,51.4-115.4,99.5-155.9c47.1-39.8,106.8-64.1,168.4-68.6
					c62.5-4.5,125.4,10.3,178.8,43.1c53.6,32.9,96,82.6,120.8,140.3c24.8,57.5,31.5,123.2,19.6,184.6
					c-11.9,61.6-42.3,118.5-87.2,162.4c-44.8,43.8-102.4,72.6-164.3,82.2C2884.5,1816.8,2869.3,1817.8,2854.2,1817.8
					c-12.9,0-12.9,20,0,20c66.5-0.2,132.3-20.7,186.2-59.8c54.2-39.2,95.5-94.4,117.6-157.6c22.2-63.1,24.4-133.3,7.2-197.9
					c-17.1-64.4-54.1-123.3-105.2-166.3c-51.1-43-114.3-69-180.9-74.2c-65.8-5.2-132.9,10.5-189.3,44.8
					c-56.8,34.6-102.7,87.2-129.1,148.3c-26.9,62.2-34.4,131.5-22,198c12.3,65.5,45,126.6,92.5,173.2c47.2,46.3,108.5,77.7,174,87.6
					c16.2,2.4,32.5,3.7,48.8,3.8C2867.1,1837.9,2867.1,1817.9,2854.2,1817.8z"/>
				<path fill="#867E7A" d="M2854.2,1182c-66.1,0.1-131.5,21.3-184.9,60.3c-53.2,38.9-93.7,93.2-116.1,155.2
					c-23.2,64.3-25.6,135.9-7.3,201.7c17.6,63,54.3,120.7,104.4,162.8c50.9,42.7,113.9,68.9,180.3,74c66.4,5.1,134-11.6,190.6-46.8
					c55.4-34.4,100-85.7,126.2-145.4c27.7-63,35.1-133.5,21.5-201c-13-64.4-45.9-124.5-93-170.2c-46.8-45.4-107.2-76.6-171.8-86.6
					C2887.6,1183.5,2870.9,1182.1,2854.2,1182c-12.9,0-12.9,20,0,20c62.7,0.1,123.7,20.2,174.5,56.9
					c49.4,35.7,87.7,86.9,108.3,144.2c21.8,60.5,24.7,127.2,7.7,189.3c-16.4,59.8-50.8,113.6-98,153.7
					c-46.8,39.8-106.2,64.8-167.5,69.8c-62.8,5.1-125.8-9.8-179.5-42.8c-52.5-32.2-94.1-80.5-119.3-136.6
					c-26.2-58.3-33.2-125.2-20.7-187.8c12.2-60.9,42.4-117.4,86.8-161c44.1-43.3,100.8-72.3,161.8-82.1c15.2-2.4,30.5-3.5,45.9-3.5
					C2867,1202,2867.1,1182,2854.2,1182z"/>
			</g>
		</g>
	</g>
	<g>
		<defs>
			<rect id="SVGID_5_" x="186.4" y="702" width="6477.2" height="1967"/>
		</defs>
		<clipPath id="SVGID_6_">
			<use xlink:href="#SVGID_5_"  overflow="visible"/>
		</clipPath>
		<g clip-path="url(#SVGID_6_)">
			<path fill="#DF2E69" d="M3409.8,2157.1c-186,0-337.3-153.7-337.3-342.7c0-189,151.3-342.7,337.3-342.7
				c90.3,0,175,35.6,238.6,100.2c63.6,64.6,98.7,150.8,98.7,242.5c0,91.8-35.1,177.9-98.7,242.5
				C3584.8,2121.5,3500.1,2157.1,3409.8,2157.1z M3409.8,1472.6c-185.5,0-336.4,153.3-336.4,341.8c0,188.5,150.9,341.8,336.4,341.8
				s336.4-153.3,336.4-341.8C3746.2,1625.9,3595.3,1472.6,3409.8,1472.6z"/>
			<g>
				<path fill="#DF2E69" d="M3409.8,2147.1c-62.7-0.1-124.1-18.5-176.6-52.7c-51.3-33.4-92.5-81.3-118.7-136.6
					c-27.4-57.7-37.2-123-29.4-186.3c7.5-61,32.8-120.2,71.5-167.9c38.5-47.4,89.8-84.3,147.6-104.3c64.4-22.2,135.2-23.5,200.4-3.7
					c70.7,21.5,132.8,67.9,174.4,128.9c42.1,61.8,62,136.5,57.5,211c-4.4,74-33.7,145.8-83,201.3c-49.6,55.8-116.7,93.6-190.5,106
					C3445.5,2145.8,3427.7,2147.1,3409.8,2147.1c-12.9,0-12.9,20,0,20c79-0.2,155.6-27.4,217-77.1c60.6-49,103.8-118.5,121.2-194.5
					c17.6-77.3,9.4-159.4-23.7-231.4c-32.5-70.9-89.7-130.5-159.4-165.6c-67.2-33.9-144.7-44.6-218.7-30.8
					c-64.1,11.9-124,43-171.6,87.4c-47.5,44.4-82.3,102.1-99.5,164.8c-18,65.8-16.8,137,3.8,202.1c19.6,61.9,56.3,118.2,105.4,160.6
					c49.4,42.7,110.5,71.5,175.2,80.8c16.6,2.4,33.4,3.7,50.2,3.7C3422.7,2167.1,3422.7,2147.1,3409.8,2147.1z"/>
				<path fill="#DF2E69" d="M3409.8,1462.6c-71.7,0.1-142.6,23-200.6,65.2c-57.2,41.7-100.8,99.8-124.9,166.3
					c-24.9,68.9-27.5,145.6-7.8,216.1c19,68.1,58.8,130.2,113.1,175.5c54.8,45.8,122.6,73.8,193.9,79.5
					c71.5,5.7,144.2-12,205.2-49.6c59.8-36.8,108.2-91.9,136.7-156.2c30-67.5,38.3-143.2,23.8-215.7
					c-13.8-69.2-49.1-133.9-99.7-183.1c-50.6-49.3-116.3-83-186.2-93.8C3445.6,1464.1,3427.8,1462.6,3409.8,1462.6
					c-12.9,0-12.9,20,0,20c68,0.1,134.4,21.9,189.5,61.7c53.4,38.6,94.7,93.9,117,155.8c23.6,65.5,26.3,137.7,7.6,204.8
					c-18,64.6-55.7,122.7-107,165.8c-50.9,42.8-115.1,69.4-181.4,74.5c-68,5.2-136.3-11.1-194.4-46.9
					c-56.7-34.9-101.8-87.1-129-147.8c-28.1-62.8-35.8-134.7-22.2-202.1c13.3-65.8,46.3-126.8,94.4-173.6
					c48-46.8,109.8-77.9,176-88.5c16.4-2.6,33-3.7,49.6-3.8C3422.7,1482.5,3422.7,1462.5,3409.8,1462.6z"/>
			</g>
		</g>
	</g>
	<g>
		<defs>
			<rect id="SVGID_7_" x="186.4" y="702" width="6477.2" height="1967"/>
		</defs>
		<clipPath id="SVGID_8_">
			<use xlink:href="#SVGID_7_"  overflow="visible"/>
		</clipPath>
		<g clip-path="url(#SVGID_8_)">
			<path fill="#DF2E69" d="M3408.8,2262c-59.9,0-118-11.8-172.7-35.2c-52.8-22.5-100.2-54.8-140.9-95.9
				c-40.7-41.1-72.6-89-94.9-142.3c-23.1-55.2-34.8-113.8-34.8-174.2c0-60.4,11.7-119.1,34.8-174.2c22.3-53.3,54.3-101.2,94.9-142.3
				c40.7-41.1,88.1-73.4,140.9-95.9c54.7-23.3,112.8-35.2,172.7-35.2s118,11.8,172.7,35.2c52.8,22.5,100.2,54.8,140.9,95.9
				c40.7,41.1,72.6,89,94.9,142.3c23.1,55.2,34.8,113.8,34.8,174.2c0,60.4-11.7,119.1-34.8,174.2c-22.3,53.3-54.3,101.2-94.9,142.3
				c-40.7,41.1-88.1,73.4-140.9,95.9C3526.7,2250.2,3468.7,2262,3408.8,2262z M3408.8,1371.7c-241.7,0-438.4,198.6-438.4,442.7
				c0,244.1,196.7,442.7,438.4,442.7s438.4-198.6,438.4-442.7C3847.1,1570.3,3650.5,1371.7,3408.8,1371.7z"/>
			<g>
				<path fill="#DF2E69" d="M3408.8,2232c-19.6,0-39.2-1.3-58.6-3.9c2.7,0.4,5.3,0.7,8,1.1c-38.6-5.2-76.4-15.5-112.3-30.6
					c2.4,1,4.8,2,7.2,3c-20.3-8.6-40.1-18.7-58.9-30.2c-9.6-5.9-19-12.2-28.1-18.8c-1.8-1.3-3.6-2.7-5.5-4c-1.4-1-2.7-2-4.1-3.1
					c0.3,0.3,5.9,4.6,2.1,1.6c-4.4-3.5-8.8-7.1-13.2-10.7c-17-14.4-32.8-30-47.5-46.7c-3.4-3.8-6.7-7.7-9.9-11.7
					c-1.8-2.2-3.6-4.4-5.3-6.6c-3-3.8,1.3,1.7,1.6,2c-1.2-1.6-2.4-3.2-3.6-4.7c-6.6-8.8-12.9-17.9-18.8-27.2
					c-13.4-21.1-25-43.3-34.8-66.3c1,2.4,2,4.8,3,7.2c-15.5-36.9-26.1-75.7-31.5-115.4c0.4,2.7,0.7,5.3,1.1,8
					c-5.2-40.1-5.2-80.7,0-120.7c-0.4,2.7-0.7,5.3-1.1,8c5.4-39.7,16-78.5,31.5-115.4c-1,2.4-2,4.8-3,7.2
					c8.7-20.4,18.8-40.2,30.3-59.1c5.9-9.7,12.2-19.1,18.8-28.3c1.3-1.8,2.7-3.7,4-5.5c1.3-1.8,7.6-9.5,1.5-2
					c3.6-4.4,7.1-8.9,10.7-13.2c14.3-17,29.9-32.9,46.6-47.6c3.8-3.4,7.7-6.7,11.7-9.9c2.2-1.8,4.4-3.6,6.6-5.3
					c0.9-0.7,1.8-1.4,2.7-2.1c-7,5.9-1.7,1.3,0,0.1c8.8-6.6,17.8-12.9,27.1-18.8c21-13.4,43.1-25,66.1-34.7c-2.4,1-4.8,2-7.2,3
					c36-15.1,73.7-25.4,112.3-30.6c-2.7,0.4-5.3,0.7-8,1.1c38.9-5.1,78.4-5.1,117.3,0c-2.7-0.4-5.3-0.7-8-1.1
					c38.6,5.2,76.4,15.5,112.3,30.6c-2.4-1-4.8-2-7.2-3c20.3,8.6,40.1,18.7,58.9,30.2c9.6,5.9,19,12.2,28.1,18.8
					c1.8,1.3,3.6,2.7,5.5,4c1.4,1,2.7,2,4.1,3.1c-0.3-0.3-5.9-4.6-2.1-1.6c4.4,3.5,8.8,7.1,13.2,10.7c17,14.4,32.8,30,47.5,46.7
					c3.4,3.8,6.7,7.7,9.9,11.7c1.8,2.2,3.6,4.4,5.3,6.6c3,3.8-1.3-1.7-1.6-2c1.2,1.6,2.4,3.2,3.6,4.7c6.6,8.8,12.9,17.9,18.8,27.2
					c13.4,21.1,25,43.3,34.8,66.3c-1-2.4-2-4.8-3-7.2c15.5,36.9,26.1,75.7,31.5,115.4c-0.4-2.7-0.7-5.3-1.1-8
					c5.2,40.1,5.2,80.7,0,120.7c0.4-2.7,0.7-5.3,1.1-8c-5.4,39.7-16,78.5-31.5,115.4c1-2.4,2-4.8,3-7.2
					c-8.7,20.4-18.8,40.2-30.3,59.1c-5.9,9.7-12.2,19.1-18.8,28.3c-1.3,1.8-2.7,3.7-4,5.5c-1.3,1.8-7.6,9.5-1.5,2
					c-3.6,4.4-7.1,8.9-10.7,13.2c-14.3,17-29.9,32.9-46.6,47.6c-3.8,3.4-7.7,6.7-11.7,9.9c-2.2,1.8-4.4,3.6-6.6,5.3
					c-0.9,0.7-1.8,1.4-2.7,2.1c7-5.9,1.7-1.3,0-0.1c-8.8,6.6-17.8,12.9-27.1,18.8c-21,13.4-43.1,25-66.1,34.7c2.4-1,4.8-2,7.2-3
					c-36,15.1-73.7,25.4-112.3,30.6c2.7-0.4,5.3-0.7,8-1.1C3447.9,2230.7,3428.4,2232,3408.8,2232c-15.7,0-30.7,13.8-30,30
					c0.7,16.2,13.2,30,30,30c97.8-0.2,195.4-30.8,274.5-88.6c78-56.9,136.9-134.9,170.2-225.6c34.3-93.3,37.6-198.5,10.7-294.1
					c-25.7-91.3-79.2-175.1-152.1-236c-76.1-63.5-169.5-101.9-268.4-109.6c-97.8-7.7-198,16.8-281.5,68.3
					c-79.5,49.1-144.8,122.2-183.2,207.6c-21.2,47.1-34.6,96-40.6,147.2c-5.8,50-3.1,100.9,6.7,150.2
					c18.6,93.2,66.7,180.5,134.8,246.7c68.7,66.8,158.1,113,253,127.6c25.1,3.9,50.3,6.2,75.6,6.2c15.7,0,30.7-13.8,30-30
					C3438,2245.7,3425.6,2232.1,3408.8,2232z"/>
				<path fill="#DF2E69" d="M3408.8,1341.7c-48.5,0.1-97.5,7.6-143.6,22.8c-44.7,14.7-87.4,36-125.6,63.5
					c-40,28.8-74.6,62.8-104.4,102c-28.5,37.5-50.6,79.4-66.8,123.6c-16.7,45.8-25.8,94.5-27.7,143.2c-1.9,49.1,4,99.1,17.3,146.4
					c12.8,45.6,32.6,89.7,58.5,129.3c25.5,39.1,56.6,74.9,92.6,104.8c38.1,31.7,79.8,56.7,125.5,75.7c44.6,18.5,92,29,140.1,32.8
					c48.6,3.8,98.1-0.6,145.5-12.2c45.8-11.2,90.3-29.9,130.5-54.5c39.7-24.4,76.3-54.8,107.1-89.8c31.1-35.3,57.3-74.9,76.6-117.8
					c20.8-46.5,34-94.7,39.9-145.3c5.7-49.3,2.9-99.5-6.9-148.2c-9.4-46.7-26.5-92.2-49.6-133.9c-22.5-40.7-51.4-78.4-84.9-110.7
					c-33.6-32.4-72.2-60.3-113.8-81.3c-42.6-21.4-88.3-36.9-135.4-44.2C3458.8,1344,3433.8,1341.7,3408.8,1341.7
					c-15.7,0-30.7,13.8-30,30c0.7,16.3,13.2,30,30,30c19.4,0,38.8,1.3,58,3.9c-2.7-0.4-5.3-0.7-8-1.1c37.8,5.1,74.8,15.2,110,29.9
					c-2.4-1-4.8-2-7.2-3c20.3,8.6,39.9,18.6,58.7,30.1c9.3,5.7,18.5,11.8,27.3,18.2c2.1,1.5,4.2,3.1,6.3,4.7
					c1.1,0.8,2.1,1.6,3.1,2.4c3.5,2.7-6-4.8-1.4-1.1c4.3,3.4,8.5,6.8,12.7,10.3c16.9,14.3,32.7,29.8,47.2,46.4
					c3.6,4.1,7.1,8.3,10.6,12.5c1.7,2,3.3,4.1,4.9,6.2c0.4,0.5,0.8,1,1.2,1.6c1.9,2.4-3.2-3.9-2.7-3.5c1.1,0.8,2,2.6,2.8,3.7
					c6.6,8.8,12.8,17.8,18.8,27.1c13.5,21.1,25.1,43.2,34.9,66.2c-1-2.4-2-4.8-3-7.2c15.3,36.3,25.7,74.4,31,113.4
					c-0.4-2.7-0.7-5.3-1.1-8c5.3,39.8,5.3,80.2,0,120c0.4-2.7,0.7-5.3,1.1-8c-5.3,39-15.7,77.1-31,113.4c1-2.4,2-4.8,3-7.2
					c-8.7,20.4-18.8,40.1-30.3,59c-5.7,9.4-11.8,18.5-18.3,27.4c-1.5,2.1-3.1,4.3-4.7,6.4c-0.8,1.1-1.6,2.1-2.4,3.2
					c-2.7,3.5,4.7-6,1.1-1.4c-3.4,4.3-6.8,8.6-10.4,12.7c-14.2,16.9-29.7,32.7-46.3,47.3c-4.1,3.6-8.3,7.1-12.5,10.6
					c-2,1.7-4.1,3.3-6.1,4.9c-0.5,0.4-1,0.8-1.6,1.2c-2.4,1.9,3.9-3.2,3.5-2.7c-0.8,1.1-2.6,2-3.7,2.8c-8.8,6.6-17.8,12.8-27,18.7
					c-20.9,13.4-43,25-65.9,34.7c2.4-1,4.8-2,7.2-3c-35.2,14.7-72.2,24.8-110,29.9c2.7-0.4,5.3-0.7,8-1.1
					c-38.5,5.1-77.6,5.1-116.1,0c2.7,0.4,5.3,0.7,8,1.1c-37.8-5.1-74.8-15.2-110-29.9c2.4,1,4.8,2,7.2,3
					c-20.3-8.6-39.9-18.6-58.7-30.1c-9.3-5.7-18.5-11.8-27.3-18.2c-2.1-1.5-4.2-3.1-6.3-4.7c-1.1-0.8-2.1-1.6-3.1-2.4
					c-3.5-2.7,6,4.8,1.4,1.1c-4.3-3.4-8.5-6.8-12.7-10.3c-16.9-14.3-32.7-29.8-47.2-46.4c-3.6-4.1-7.1-8.3-10.6-12.5
					c-1.7-2-3.3-4.1-4.9-6.2c-0.4-0.5-0.8-1-1.2-1.6c-1.9-2.4,3.2,3.9,2.7,3.5c-1.1-0.8-2-2.6-2.8-3.7c-6.6-8.8-12.8-17.8-18.8-27.1
					c-13.5-21.1-25.1-43.2-34.9-66.2c1,2.4,2,4.8,3,7.2c-15.3-36.3-25.7-74.4-31-113.4c0.4,2.7,0.7,5.3,1.1,8
					c-5.3-39.8-5.3-80.2,0-120c-0.4,2.7-0.7,5.3-1.1,8c5.3-39,15.7-77.1,31-113.4c-1,2.4-2,4.8-3,7.2c8.7-20.4,18.8-40.1,30.3-59
					c5.7-9.4,11.8-18.5,18.3-27.4c1.5-2.1,3.1-4.3,4.7-6.4c0.8-1.1,1.6-2.1,2.4-3.2c2.7-3.5-4.7,6-1.1,1.4
					c3.4-4.3,6.8-8.6,10.4-12.7c14.2-16.9,29.7-32.7,46.3-47.3c4.1-3.6,8.3-7.1,12.5-10.6c2-1.7,4.1-3.3,6.1-4.9
					c0.5-0.4,1-0.8,1.6-1.2c2.4-1.9-3.9,3.2-3.5,2.7c0.8-1.1,2.6-2,3.7-2.8c8.8-6.6,17.8-12.8,27-18.7c20.9-13.4,43-25,65.9-34.7
					c-2.4,1-4.8,2-7.2,3c35.2-14.7,72.2-24.8,110-29.9c-2.7,0.4-5.3,0.7-8,1.1c19.3-2.6,38.6-3.8,58-3.9c15.7,0,30.7-13.8,30-30
					C3438,1355.4,3425.6,1341.7,3408.8,1341.7z"/>
			</g>
		</g>
	</g>
	<g>
		<defs>
			<rect id="SVGID_9_" x="186.4" y="702" width="6477.2" height="1967"/>
		</defs>
		<clipPath id="SVGID_10_">
			<use xlink:href="#SVGID_9_"  overflow="visible"/>
		</clipPath>
		<polygon clip-path="url(#SVGID_10_)" fill="#FBBA00" points="3386,1765.7 3254.9,1901 3386,2036.4 3501.9,2036.4 3414.2,1946.5 
			3603.7,1946.5 3603.7,1855.6 3414.2,1855.6 3501.9,1765.7 		"/>
	</g>
	<g>
		<defs>
			<rect id="SVGID_11_" x="186.4" y="702" width="6477.2" height="1967"/>
		</defs>
		<clipPath id="SVGID_12_">
			<use xlink:href="#SVGID_11_"  overflow="visible"/>
		</clipPath>
		<g clip-path="url(#SVGID_12_)">
			<path fill="#867E7A" d="M1670.3,1841.9c-90.3,0-175-35.6-238.6-100.2c-63.6-64.6-98.7-150.8-98.7-242.5
				c0-189,151.3-342.7,337.3-342.7s337.3,153.7,337.3,342.7c0,91.8-35.1,177.9-98.7,242.5
				C1845.3,1806.3,1760.6,1841.9,1670.3,1841.9z M1670.3,1157.4c-185.5,0-336.4,153.3-336.4,341.8c0,188.5,150.9,341.8,336.4,341.8
				c185.5,0,336.4-153.3,336.4-341.8C2006.7,1310.7,1855.8,1157.4,1670.3,1157.4z"/>
			<g>
				<path fill="#867E7A" d="M1670.3,1831.9c-73.9-0.2-146.7-25.4-204.1-72.2c-58-47.4-98.8-113.2-115.1-186.2
					c-14.7-66-9.2-135.8,15.6-198.7c22.1-56.2,60.4-106.6,108.8-142.8c49.6-37.2,109.3-60.3,171.2-64.6
					c62.8-4.4,126.1,9.4,181.1,40.3c53.2,29.8,97.3,74.3,127.2,127.5c31.6,56.3,45.9,121,42.1,185.3c-4.4,74-33.7,145.8-83,201.3
					c-49.6,55.8-116.7,93.6-190.5,106C1705.9,1830.6,1688.1,1831.9,1670.3,1831.9c-12.9,0-12.9,20,0,20c79-0.2,155.6-27.4,217-77.1
					c60.6-49,103.8-118.5,121.2-194.5c15.9-69.7,11-144.2-15.2-210.8c-24.1-61.1-64.5-114.4-116.9-154
					c-52.5-39.7-116.1-63.3-181.7-68.1c-66.5-4.8-133.8,10.4-191.9,43c-56.2,31.5-103.3,79-134.7,135.2
					c-33.5,60-48.9,129.5-44.2,198.1c5.4,78.4,36.4,153.4,88.7,212.2c51.8,58.3,123,98.5,200.1,111.2c19.1,3.2,38.4,4.8,57.8,4.9
					C1683.2,1852,1683.2,1832,1670.3,1831.9z"/>
				<path fill="#867E7A" d="M1670.3,1147.4c-71.7,0.1-142.6,23-200.6,65.2c-57.2,41.7-100.8,99.8-124.9,166.3
					c-24.9,68.9-27.5,145.6-7.8,216.1c19,68.1,58.8,130.2,113.1,175.5c54.8,45.8,122.6,73.8,193.9,79.5
					c71.5,5.7,144.2-12,205.2-49.6c59.8-36.8,108.2-91.9,136.7-156.2c30-67.5,38.3-143.2,23.8-215.7
					c-13.8-69.2-49.1-133.9-99.7-183.1c-50.6-49.3-116.3-83-186.2-93.8C1706.1,1148.9,1688.2,1147.4,1670.3,1147.4
					c-12.9,0-12.9,20,0,20c68,0.1,134.4,21.9,189.5,61.7c53.4,38.6,94.7,93.9,117,155.8c23.6,65.5,26.3,137.7,7.6,204.8
					c-18,64.6-55.7,122.7-107,165.8c-50.9,42.8-115.1,69.4-181.4,74.5c-68,5.2-136.3-11.1-194.4-46.9
					c-56.7-34.9-101.8-87.1-129-147.8c-28.1-62.8-35.8-134.7-22.2-202.1c13.3-65.8,46.3-126.8,94.4-173.6
					c48-46.8,109.8-77.9,176-88.5c16.4-2.6,33-3.7,49.6-3.8C1683.2,1167.3,1683.2,1147.3,1670.3,1147.4z"/>
			</g>
		</g>
		<g clip-path="url(#SVGID_12_)">
			<path fill="#867E7A" d="M1669.2,1946.8c-59.9,0-118-11.8-172.7-35.2c-52.8-22.5-100.2-54.8-140.9-95.9
				c-40.7-41.1-72.6-89-94.9-142.3c-23.1-55.2-34.8-113.8-34.8-174.2c0-60.4,11.7-119,34.8-174.1c22.3-53.2,54.2-100.9,94.9-141.9
				c40.7-41,88.1-73.1,140.9-95.6c54.6-23.2,112.7-35,172.7-35c59.7,0,117.5,11.8,172,35c52.7,22.5,100,54.6,140.6,95.6
				c40.6,41,72.5,88.7,94.8,141.9c23.1,55.1,34.8,113.7,34.8,174.1c0,60.4-11.7,119-34.8,174.2c-22.3,53.3-54.2,101.2-94.8,142.3
				c-40.6,41.1-87.9,73.4-140.6,95.9C1786.7,1935,1728.9,1946.8,1669.2,1946.8z M1669.2,1057.6c-241.7,0-438.4,198.1-438.4,441.6
				c0,244.1,196.7,442.7,438.4,442.7c241.1,0,437.3-198.6,437.3-442.7C2106.5,1255.7,1910.3,1057.6,1669.2,1057.6z"/>
			<g>
				<path fill="#867E7A" d="M1669.2,1916.8c-19.6,0-39.2-1.3-58.6-3.9c2.7,0.4,5.3,0.7,8,1.1c-38.6-5.2-76.4-15.5-112.3-30.6
					c2.4,1,4.8,2,7.2,3c-20.3-8.6-40.1-18.7-58.9-30.2c-9.6-5.9-19-12.2-28.1-18.8c-1.8-1.3-3.6-2.7-5.5-4c-1.4-1-2.7-2-4.1-3.1
					c0.3,0.3,5.9,4.6,2.1,1.6c-4.4-3.5-8.8-7.1-13.2-10.7c-17-14.4-32.8-30-47.5-46.7c-3.4-3.8-6.7-7.7-9.9-11.7
					c-1.8-2.2-3.6-4.4-5.3-6.6c-3-3.8,1.3,1.7,1.6,2c-1.2-1.6-2.4-3.2-3.6-4.7c-6.6-8.8-12.9-17.9-18.8-27.2
					c-13.4-21.1-25-43.3-34.8-66.3c1,2.4,2,4.8,3,7.2c-15.5-36.9-26.1-75.7-31.5-115.4c0.4,2.7,0.7,5.3,1.1,8
					c-5.2-40.1-5.2-80.7,0-120.7c-0.4,2.7-0.7,5.3-1.1,8c5.4-39.7,15.9-78.4,31.5-115.3c-1,2.4-2,4.8-3,7.2
					c8.7-20.4,18.8-40.1,30.3-59c5.9-9.6,12.2-19,18.8-28.2c1.3-1.8,2.7-3.7,4-5.5c1-1.4,2-2.8,3.1-4.1c-0.3,0.3-4.6,5.9-1.6,2
					c3.5-4.4,7.1-8.9,10.7-13.2c14.3-16.9,29.9-32.8,46.6-47.5c3.8-3.4,7.7-6.7,11.7-9.9c2.2-1.8,4.4-3.5,6.6-5.3
					c3.8-3-1.8,1.3-2.1,1.6c1.5-1.2,3.1-2.4,4.7-3.6c8.8-6.6,17.8-12.8,27.1-18.7c21-13.4,43.2-24.9,66.1-34.6c-2.4,1-4.8,2-7.2,3
					c35.4-14.8,72.5-25,110.5-30.2c-2.7,0.4-5.3,0.7-8,1.1c39.4-5.3,79.4-5.4,118.9-0.2c-2.7-0.4-5.3-0.7-8-1.1
					c38.5,5.2,76.1,15.4,111.9,30.5c-2.4-1-4.8-2-7.2-3c20.3,8.6,40,18.6,58.8,30.1c9.6,5.9,19,12.1,28.1,18.7
					c1.8,1.3,3.6,2.7,5.4,4c1.3,1,2.7,2,4,3.1c-0.3-0.2-5.9-4.6-2.1-1.6c4.4,3.5,8.8,7,13.1,10.7c16.9,14.3,32.8,29.9,47.4,46.6
					c3.4,3.8,6.7,7.7,9.9,11.7c1.8,2.2,3.6,4.4,5.3,6.6c0.7,0.9,1.4,1.8,2.1,2.7c-5.8-7.1-1.3-1.7-0.1,0
					c6.6,8.8,12.9,17.9,18.8,27.2c13.4,21,25,43.2,34.8,66.2c-1-2.4-2-4.8-3-7.2c15.5,36.9,26.1,75.6,31.5,115.3
					c-0.4-2.7-0.7-5.3-1.1-8c5.2,40,5.2,80.7,0,120.7c0.4-2.7,0.7-5.3,1.1-8c-5.4,39.7-15.9,78.5-31.5,115.5c1-2.4,2-4.8,3-7.2
					c-8.7,20.4-18.7,40.2-30.3,59.1c-5.9,9.7-12.2,19.1-18.8,28.3c-1.3,1.8-2.7,3.7-4,5.5c-1.3,1.8-7.6,9.6-1.5,2
					c-3.6,4.4-7.1,8.9-10.7,13.2c-14.3,17-29.9,32.9-46.6,47.6c-3.8,3.4-7.7,6.7-11.6,9.9c-2.2,1.8-4.4,3.6-6.6,5.3
					c-0.9,0.7-1.8,1.4-2.7,2.1c6.9-6,1.7-1.4,0-0.1c-8.8,6.6-17.8,12.9-27,18.8c-21,13.4-43,25-65.9,34.7c2.4-1,4.8-2,7.2-3
					c-35.8,15.1-73.4,25.4-112,30.6c2.7-0.4,5.3-0.7,8-1.1C1708.2,1915.5,1688.8,1916.8,1669.2,1916.8c-15.7,0-30.7,13.8-30,30
					c0.7,16.2,13.2,30,30,30c97.5-0.2,194.9-30.9,273.7-88.6c77.9-57,136.8-134.9,170-225.6c34.2-93.3,37.6-198.5,10.6-294
					c-25.7-91.2-79.1-174.8-151.9-235.5c-75.9-63.3-169-101.5-267.6-109.2c-97.7-7.6-197.8,16.7-281.3,68
					c-79.5,48.9-144.8,121.8-183.1,207c-21.2,47-34.6,95.8-40.6,147.1c-5.8,50-3.1,100.8,6.7,150.2
					c18.6,93.2,66.7,180.5,134.8,246.7c68.7,66.8,158.1,113,253,127.6c25.1,3.9,50.3,6.2,75.6,6.2c15.7,0,30.7-13.8,30-30
					C1698.5,1930.6,1686,1916.9,1669.2,1916.8z"/>
				<path fill="#867E7A" d="M1669.2,1027.6c-48.6,0.1-97.7,7.6-143.9,22.8c-44.5,14.7-87.2,35.8-125.2,63.2
					c-40.1,28.8-74.7,62.8-104.6,102c-28.6,37.5-50.7,79.4-66.8,123.6c-16.7,45.8-25.7,94.5-27.6,143.2
					c-1.8,48.9,4.1,98.6,17.3,145.7c12.8,45.6,32.6,89.7,58.5,129.3c25.5,39.1,56.6,74.9,92.6,104.8c37.9,31.5,79.4,56.5,124.9,75.4
					c44.6,18.5,91.9,29.2,140,33c48.6,3.9,98.1-0.4,145.4-12c45.8-11.2,90.3-29.9,130.5-54.5c39.6-24.3,75.9-54.6,106.6-89.4
					c31.1-35.3,57.4-75,76.7-118c20.8-46.4,33.9-94.4,39.8-144.9c5.8-49.4,3.1-99.5-6.7-148.2c-9.4-46.7-26.4-92.2-49.5-133.9
					c-22.5-40.7-51.4-78.4-84.8-110.6c-33.5-32.4-72.1-60.3-113.8-81.2c-42.4-21.3-87.8-36.6-134.7-43.9
					C1719.2,1029.9,1694.3,1027.6,1669.2,1027.6c-15.7,0-30.7,13.8-30,30c0.7,16.3,13.2,30,30,30c19.4,0,38.8,1.3,58,3.9
					c-2.7-0.4-5.3-0.7-8-1.1c37.8,5.1,74.7,15.2,109.9,30c-2.4-1-4.8-2-7.2-3c20.3,8.6,39.9,18.6,58.6,30.2
					c9.3,5.7,18.4,11.8,27.3,18.2c2.1,1.5,4.2,3.1,6.3,4.7c1,0.8,2.1,1.6,3.1,2.4c3.5,2.7-6-4.8-1.4-1.1c4.3,3.4,8.5,6.8,12.7,10.4
					c16.8,14.3,32.6,29.8,47.1,46.4c3.6,4.1,7.1,8.3,10.6,12.6c1.7,2,3.3,4.1,4.9,6.2c3,3.8-4.4-5.7-1.5-1.9
					c0.9,1.2,1.9,2.4,2.8,3.7c6.6,8.8,12.8,17.8,18.7,27.1c13.4,21.1,25,43.3,34.7,66.3c-1-2.4-2-4.8-3-7.2
					c15,35.9,25.3,73.6,30.5,112.1c-0.4-2.7-0.7-5.3-1.1-8c5.3,39.8,5.3,80.2,0,120.1c0.4-2.7,0.7-5.3,1.1-8
					c-5.3,39.1-15.8,77.3-31.1,113.6c1-2.4,2-4.8,3-7.2c-8.7,20.4-18.8,40.2-30.4,59c-5.7,9.4-11.8,18.5-18.3,27.5
					c-1.5,2.1-3.1,4.3-4.7,6.4c-0.8,1.1-1.6,2.1-2.4,3.2c-3.2,4.3,4.8-6.1,1.5-1.9c-3.5,4.5-7.1,8.9-10.8,13.3
					c-14.1,16.7-29.5,32.4-45.9,46.9c-3.9,3.5-7.9,6.9-12,10.2c-2,1.7-4.1,3.3-6.1,4.9c-1,0.8-2.1,1.6-3.1,2.4
					c8.2-6.5,2.7-2.1,0.9-0.7c-8.8,6.6-17.7,12.8-27,18.7c-20.8,13.3-42.6,24.8-65.3,34.4c2.4-1,4.8-2,7.2-3
					c-35.2,14.8-72.1,24.9-109.9,30.1c2.7-0.4,5.3-0.7,8-1.1c-38.5,5.1-77.6,5.1-116.1,0c2.7,0.4,5.3,0.7,8,1.1
					c-37.8-5.1-74.8-15.2-110-29.9c2.4,1,4.8,2,7.2,3c-20.3-8.6-39.9-18.6-58.7-30.1c-9.3-5.7-18.5-11.8-27.3-18.2
					c-2.1-1.5-4.2-3.1-6.3-4.7c-1.1-0.8-2.1-1.6-3.1-2.4c-3.5-2.7,6,4.8,1.4,1.1c-4.3-3.4-8.5-6.8-12.7-10.3
					c-16.9-14.3-32.7-29.8-47.2-46.4c-3.6-4.1-7.1-8.3-10.6-12.5c-1.7-2-3.3-4.1-4.9-6.2c-0.4-0.5-0.8-1-1.2-1.6
					c-1.9-2.4,3.2,3.9,2.7,3.5c-1.1-0.8-2-2.6-2.8-3.7c-6.6-8.8-12.8-17.8-18.8-27.1c-13.5-21.1-25.1-43.2-34.9-66.2
					c1,2.4,2,4.8,3,7.2c-15.3-36.3-25.7-74.4-31-113.4c0.4,2.7,0.7,5.3,1.1,8c-5.3-39.8-5.3-80.2,0-120c-0.4,2.7-0.7,5.3-1.1,8
					c5.3-38.5,15.6-76.2,30.6-112.1c-1,2.4-2,4.8-3,7.2c8.6-20.4,18.7-40.1,30.3-59c5.7-9.4,11.8-18.5,18.2-27.5
					c1.5-2.1,3.1-4.3,4.7-6.4c0.8-1.1,1.6-2.1,2.4-3.2c0.4-0.5,0.8-1,1.2-1.6c2.1-2.8-4.5,5.7-2.3,3c3.4-4.3,6.8-8.6,10.4-12.8
					c14.2-16.9,29.8-32.7,46.4-47.3c4.1-3.6,8.3-7.1,12.5-10.6c2-1.7,4.1-3.3,6.2-4.9c0.5-0.4,1-0.8,1.6-1.2
					c2.4-1.9-3.9,3.2-3.5,2.7c0.8-1.1,2.6-2,3.7-2.8c8.8-6.6,17.8-12.8,27-18.7c21-13.4,43.1-25,66-34.7c-2.4,1-4.8,2-7.2,3
					c35.3-14.8,72.3-24.8,110.2-30c-2.7,0.4-5.3,0.7-8,1.1c19.3-2.6,38.7-3.8,58.2-3.9c15.7,0,30.7-13.8,30-30
					C1698.5,1041.3,1686,1027.5,1669.2,1027.6z"/>
			</g>
		</g>
	</g>
	<g>
		<defs>
			<rect id="SVGID_13_" x="186.4" y="702" width="6477.2" height="1967"/>
		</defs>
		<clipPath id="SVGID_14_">
			<use xlink:href="#SVGID_13_"  overflow="visible"/>
		</clipPath>
		<g clip-path="url(#SVGID_14_)">
			<path fill="#DF2E69" d="M1114.6,1600.4c-172.3,0-312.4-143.1-312.4-318.9c0-85,32.5-164.8,91.5-224.8c59-60,137.4-93,220.9-93
				s161.9,33,220.9,93c59,60,91.5,139.8,91.5,224.8C1427,1457.3,1286.9,1600.4,1114.6,1600.4z M1114.6,964.6
				c-171.8,0-311.5,142.2-311.5,316.9c0,175.3,139.7,318,311.5,318s311.5-142.7,311.5-318C1426.1,1106.7,1286.4,964.6,1114.6,964.6z
				"/>
			<g>
				<path fill="#DF2E69" d="M1114.6,1590.4c-58-0.1-114.7-17.2-163.2-49c-47.3-31-85.2-75.3-109.4-126.3
					c-26-54.8-35.3-117.7-26.8-177.7c9.8-68.4,42.2-132,92-179.9c49.1-47.2,113.8-77.2,181.8-82.8c68.9-5.6,137.8,12.4,194.8,51.4
					c56.5,38.7,99.1,96.9,119.3,162.3c18.9,61.1,18.5,127.5-0.8,188.5c-17.2,54.2-49.6,103.1-92.5,140.4
					c-42.9,37.3-96.3,61.7-152.5,70.1C1143.1,1589.5,1128.9,1590.3,1114.6,1590.4c-12.9,0-12.9,20,0,20
					c61.5-0.1,122.5-18.2,173.9-52.1c50.4-33.2,91.3-80.3,116.9-134.9c27.9-59.6,37.3-126.2,27.9-191.3
					c-10.3-71.8-45.3-139.2-97.7-189.3c-52.8-50.6-121.7-81.8-194.6-88c-72.2-6.1-145.9,13.1-205.7,54.1
					c-60.2,41.3-105.7,102.3-127.8,172c-20.5,64.7-20.5,136-0.1,200.7c18.2,57.8,52.4,110.6,98.3,150.3
					c45.7,39.6,102.3,66.4,162.2,75c15.4,2.2,31,3.5,46.6,3.5C1127.5,1610.4,1127.5,1590.4,1114.6,1590.4z"/>
				<path fill="#DF2E69" d="M1114.6,954.6c-66.5,0.1-132.3,21.3-186,60.5c-53.4,38.9-94.1,93.3-116.4,155.5
					c-23,64.2-25.1,135.7-6.7,201.2c17.7,62.9,54.4,120.3,104.4,162.4c50.8,42.7,113.6,68.9,179.8,74.3
					c66.5,5.4,134.2-11.1,191-46.2c55.4-34.3,100.1-85.4,126.5-145c27.9-62.9,35.8-133.3,22.5-200.9
					c-12.7-64.5-45.5-124.7-92.5-170.6c-46.9-45.8-107.7-77.1-172.6-87.2C1148.1,956,1131.4,954.6,1114.6,954.6
					c-12.9,0-12.9,20,0,20c63,0.1,124.4,20.4,175.4,57.4c49.2,35.7,87.3,86.8,107.7,144c21.9,61,24.2,128.2,6.7,190.6
					c-16.7,59.4-51.2,112.8-98.3,152.7c-47,39.8-106.5,64.6-168,69.4c-62.8,4.8-125.9-10.4-179.5-43.6
					c-52.3-32.4-93.7-80.6-118.8-136.6c-26.1-58.1-33.3-124.9-20.9-187.4c12.2-61.1,42.6-117.6,87.2-161.1
					c44.3-43.2,101.3-72,162.4-81.9c15.2-2.4,30.7-3.5,46.1-3.5C1127.5,974.5,1127.5,954.5,1114.6,954.6z"/>
			</g>
		</g>
	</g>
	<g>
		<defs>
			<rect id="SVGID_15_" x="186.4" y="702" width="6477.2" height="1967"/>
		</defs>
		<clipPath id="SVGID_16_">
			<use xlink:href="#SVGID_15_"  overflow="visible"/>
		</clipPath>
		<polygon clip-path="url(#SVGID_16_)" fill="#FBBA00" points="914.3,1233.8 1025.8,1233.8 969.5,1286.9 1039.9,1286.9 
			1123.3,1207.8 1039.9,1128.8 969.5,1128.8 1025.8,1181.8 914.3,1181.8 		"/>
	</g>
	<g>
		<defs>
			<rect id="SVGID_17_" x="186.4" y="702" width="6477.2" height="1967"/>
		</defs>
		<clipPath id="SVGID_18_">
			<use xlink:href="#SVGID_17_"  overflow="visible"/>
		</clipPath>
		<path clip-path="url(#SVGID_18_)" d="M2861.8,1387.6c0,2.2,1.1,17.3,0,27.1c0,3.3,1.1,6.5-1.1,6.5s-4.3-3.3-3.2-6.5
			c1.1,0,2.2-2.2,2.2-3.2c-1.1-1.1-1.1-1.1-2.2,1.1c-3.2,3.3-2.2,9.7,3.2,10.8c1.1,1.1,1.1,1.1,1.1,5.4c0,2.2,0,3.3,0,5.4h-1.1
			c-1.1,1.1-1.1,2.2-1.1,4.3c0,1.1,1.1,3.2,2.2,4.3c0,0,0,0,0,1.1c0,2.2-6.5,14.1-6.5,14.1s-144.1,231.8-146.2,247
			c-2.2,16.2,8.7,17.3,13,21.7l-1.1,960.8h295.7c0-276.2-1.1-619.6-6.5-960.8c4.3-4.3,13-9.7,10.8-21.7
			c-2.2-10.8-149.5-248-149.5-248s-5.4-6.5-5.4-13c-1.1-1.1,0-1.1,0-1.1c1.1-1.1,2.2-3.3,2.2-4.3c0-2.2-1.1-4.3-3.2-5.4
			c0-1.1,0-2.2,0-2.2c0-2.2-1.1-5.4,3.2-6.5c4.3-1.1,9.7-4.3,10.8-6.5c1.1-2.2-6.5,3.3-9.7,4.3c-1.1,0-3.2,0-3.2-3.2
			c0-3.3,2.2-3.3,5.4-3.3c1.1,0,3.2-14.1,0-14.1c-2.2,1.1-7.6-1.1-7.6-4.3l-1.1-4.3l6.5,2.2l1.1-4.3L2861.8,1387.6L2861.8,1387.6z
			 M2860.7,1655.2c66.1,0,104,9.7,124.6,20.6c20.6,9.7,24.9,20.6,26,22.7c2.2,6.5,2.2,11.9,1.1,16.2c0,3.3-1.1,5.4-1.1,5.4
			c-1.1,1.1-2.2,2.2-3.2,1.1c-1.1-1.1-1.1-2.2,0-3.3c0,0,0-1.1,1.1-4.3c0-3.3,0-7.6-2.2-13c0-1.1-3.2-11.9-23.8-21.7
			c-19.5-9.7-56.3-19.5-122.4-19.5c-55.2,0-89.9,9.7-110.5,19.5c-9.7,5.4-17.3,9.7-21.7,14.1c-2.2,2.2-3.2,3.3-5.4,4.3
			c-1.1,1.1-1.1,2.2-2.2,3.3c-3.2,4.3-3.2,8.7-3.2,11.9c1.1,3.3,3.2,6.5,3.2,6.5c0,1.1,0,2.2,0,3.2c-1.1,1.1-3.2,0-3.2-1.1
			c0,0-2.2-3.3-3.2-7.6c-1.1-4.3-1.1-10.8,4.3-16.2c0,0,1.1-1.1,2.2-3.2c1.1-1.1,3.2-3.3,5.4-4.3c4.3-4.3,11.9-9.7,22.7-15.2
			C2770.8,1664.9,2805.4,1655.2,2860.7,1655.2L2860.7,1655.2z M2976.6,1729.9l8.7,1.1v39l-8.7-1.1V1729.9L2976.6,1729.9z
			 M2738.3,1865.3v36.8l-6.5,4.3v-35.7v-1.1L2738.3,1865.3L2738.3,1865.3z M2884.5,1946.5h20.6l-1.1,37.9l-19.5-1.1V1946.5
			L2884.5,1946.5z M2978.7,2055.9l9.7,1.1v40.1l-9.7-2.2V2055.9L2978.7,2055.9z M2740.4,2065.7v35.7l-6.5,4.3V2070l0,0
			L2740.4,2065.7L2740.4,2065.7z M2885.6,2237.9h20.6l-1.1,37.9l-19.5-1.1V2237.9L2885.6,2237.9z M2984.2,2357.1l9.7,1.1v40.1
			l-9.7-2.2V2357.1L2984.2,2357.1z M2836.8,2483.8h22.7v40.1h-22.7V2483.8L2836.8,2483.8z M2722,2613.8h147.3h145.1
			c0,0-98.6,3.3-145.1,3.3C2820.6,2617,2722,2613.8,2722,2613.8L2722,2613.8z"/>
	</g>
	<g>
		<defs>
			<rect id="SVGID_19_" x="186.4" y="702" width="6477.2" height="1967"/>
		</defs>
		<clipPath id="SVGID_20_">
			<use xlink:href="#SVGID_19_"  overflow="visible"/>
		</clipPath>
		<path clip-path="url(#SVGID_20_)" d="M1038.8,1306.4c-3.2,0-7.6,3.3-7.6,7.6c0,3.3,2.2,5.4,3.2,7.6v6.5l-2.2-1.1l1.1,2.2l-1.1,2.2
			h1.1v5.4h-1.1v2.2l-1.1,1.1l0,0l2.2,1.1l-1.1,5.4h-1.1l1.1,2.2l-1.1,1.1l1.1,1.1v5.4h-2.2l1.1,2.2l-1.1,1.1l0,0h1.1v6.5h-2.2
			l1.1,1.1l-1.1,2.2h1.1v4.3l-5.4,23.8h3.2v31.4v54.2v317.4h-60.7v-84.5h3.2l-5.4-23.8v-4.3h1.1l0,0l-1.1-1.1l1.1-2.2h-1.1l-1.1-5.4
			l2.2-1.1l-1.1-1.1v-2.2h-1.1v-5.4h1.1v-1.1l-1.1-1.1l1.1-2.2H963v-5.4h1.1l-1.1-2.2l1.1-2.2l-1.1,1.1l-1.1-6.5h2.2l0,0l-1.1-1.1
			l1.1-2.2h-2.2v-6.5c1.1-1.1,3.2-4.3,3.2-6.5l0,0c0-4.3-4.3-8.7-7.6-8.7c-4.3,0-7.6,4.3-7.6,8.7c0,2.2,1.1,5.4,3.2,6.5l-1.1,6.5
			h-1.1v2.2l-1.1,1.1l0,0h2.2l-1.1,6.5H950l1.1,2.2l-2.2,1.1l0,0h2.2v6.5l-2.2-1.1l1.1,2.2l-1.1,2.2l0,0h1.1v5.4h-2.2l1.1,2.2
			l-1.1,1.1v1.1h1.1v5.4h-1.1v2.2l-1.1,1.1l2.2,1.1l-1.1,4.3l-5.4,22.7h3.2v84.5v2.2v161.4h-61.7v-84.5h3.2l-5.4-23.8v-4.3h1.1
			l-1.1-2.2l1.1-2.2h-2.2v-5.4h1.1l0,0l-1.1-2.2l1.1-2.2l-1.1,1.1l-1.1-6.5h2.2l-1.1-1.1v-2.2h-1.1v-6.5h1.1l0,0l-1.1-1.1l1.1-2.2
			h-2.2v-5.4l2.2-1.1l-1.1-1.1v-2.2h-1.1l-1.1-5.4c2.2-2.2,3.2-4.3,3.2-7.6l0,0c0-4.3-3.2-8.7-7.6-8.7c-4.3,0-7.6,4.3-7.6,8.7
			c0,3.3,1.1,5.4,3.2,7.6v5.4h-2.2l1.1,2.2l-1.1,1.1v1.1h1.1v5.4h-2.2l1.1,2.2l-1.1,1.1l0,0l2.2,1.1l-1.1,5.4h-1.1l1.1,2.2l-1.1,1.1
			l0,0h1.1l-1.1,6.5h-1.1l1.1,1.1l-1.1,2.2h1.1v6.5l-2.2-1.1l1.1,2.2l-1.1,2.2l0,0h1.1v4.3l-5.4,23.8h3.2v85.6l0,0v145.1h-11.9
			v257.8h-7.6v305.4l0,0H885h5.4v-28.2l-3.2-4.3H885v-56.3c2.2-1.1,3.2-3.3,3.2-6.5v-18.4c0-2.2-1.1-4.3-2.2-5.4
			c5.4-62.8,19.5-75.8,57.4-99.6c36.8,24.9,49.8,35.7,55.2,99.6c-2.2,1.1-3.2,3.3-3.2,5.4v18.4c0,3.2,1.1,5.4,4.3,6.5v56.3h-3.2
			l-3.2,4.3v28.2h6.5h35.7h5.4v-28.2l-3.2-4.3h-2.2v-56.3c2.2-1.1,3.2-3.3,3.2-6.5v-18.4c0-2.2-1.1-4.3-2.2-5.4
			c5.4-62.8,19.5-75.8,57.4-99.6c36.8,24.9,48.7,35.7,55.2,99.6c-2.2,1.1-3.2,3.3-3.2,5.4v18.4c0,3.2,1.1,5.4,3.2,6.5v56.3h-2.2
			l-3.2,4.3v28.2h47.7v-28.2l-3.2-4.3h-3.2v-56.3c2.2,0,4.3-3.3,4.3-6.5v-18.4c0-2.2-1.1-4.3-3.2-5.4c6.5-62.8,19.5-75.8,57.4-99.6
			c36.8,24.9,49.8,35.7,55.2,98.6c-2.2,1.1-4.3,3.3-4.3,6.5v18.4c0,4.3,2.2,6.5,5.4,7.6v55.2h-4.3l-3.2,4.3v28.2h47.7v-28.2
			l-3.2-4.3h-5.4v-55.2l0,0c3.2,0,6.5-3.3,6.5-7.6v-18.4c0-3.2-2.2-6.5-5.4-6.5c5.4-61.7,19.5-74.7,57.4-98.6
			c36.8,24.9,48.7,35.7,55.2,99.6c-2.2,1.1-3.2,3.3-3.2,5.4v18.4c0,3.2,2.2,5.4,4.3,6.5v56.3h-2.2l-4.3,4.3v28.2h47.7v-28.2v-1.1
			v-276.2h-7.6v-257.8h-11.9V1965v-1.1v-84.5h3.2l-5.4-23.8v-4.3h1.1l-1.1-2.2l1.1-2.2h-1.1l-1.1-5.4h2.2l0,0l-1.1-2.2v-2.2
			l-1.1,1.1v-6.5h1.1l-1.1-1.1l1.1-2.2h-2.2v-6.5h1.1l0,0l-1.1-1.1l1.1-2.2h-1.1l-1.1-5.4l2.2-1.1l-1.1-1.1l1.1-2.2h-2.2v-5.4
			c2.2-2.2,3.2-4.3,3.2-7.6l0,0c0-4.3-3.2-8.7-7.6-8.7c-4.3,0-7.6,4.3-7.6,8.7c0,3.3,1.1,5.4,3.2,7.6l-1.1,5.4h-1.1v2.2l-1.1,1.1
			v1.1h2.2l-1.1,5.4h-1.1l1.1,2.2l-1.1,1.1l0,0l1.1,1.1v5.4h-2.2l1.1,2.2l-1.1,1.1l0,0h1.1v6.5h-1.1v1.1l-1.1,2.2h2.2l-1.1,6.5
			l-1.1-1.1l1.1,2.2l-1.1,2.2h-1.1h2.2l-1.1,4.3l-5.4,23.8h3.2v84.5h-61.7v-161.4v-2.2v-84.5h3.2l-5.4-23.8v-4.3h1.1l0,0l-1.1-1.1
			l1.1-2.2h-2.2v-5.4l1.1-1.1l-1.1-1.1l1.1-2.2h-1.1l-1.1-5.4h2.2v-1.1l-1.1-1.1v-2.2h-1.1v-5.4h1.1l-1.1-2.2l1.1-2.2l-1.1,1.1
			l-1.1-6.5h2.2l0,0l-1.1-1.1v-2.2h-1.1l-1.1-6.5c2.2-1.1,3.2-4.3,3.2-6.5l0,0c0-4.3-3.2-8.7-7.6-8.7c-3.2,0-7.6,4.3-7.6,8.7
			c0,2.2,2.2,5.4,3.2,6.5v6.5h-2.2l1.1,2.2l-1.1,1.1l0,0h2.2l-1.1,6.5h-1.1v2.2l-1.1,1.1l0,0h2.2l-1.1,6.5l-1.1-1.1l1.1,2.2
			l-1.1,2.2l0,0h1.1v5.4h-2.2l1.1,2.2l-1.1,1.1v1.1h1.1v5.4h-1.1v2.2l-1.1,1.1l2.2,1.1l-1.1,4.3l-5.4,22.7h3.2v84.5H1302V1483v-54.2
			v-31.4h4.3l-6.5-23.8v-4.3h2.2h-1.1l-1.1-2.2l1.1-2.2l-1.1,1.1l-1.1-6.5h2.2l-1.1-2.2v-1.1h-1.1v-6.5h1.1l0,0l-1.1-1.1l1.1-2.2
			h-2.2v-5.4l1.1-1.1l-1.1-1.1l1.1-2.2h-1.1l-1.1-5.4h2.2v-1.1l-1.1-1.1l1.1-2.2h-2.2v-5.4c2.2-2.2,3.2-4.3,3.2-7.6l0,0
			c0-4.3-3.2-7.6-7.6-7.6c-4.3,0-7.6,3.3-7.6,7.6c0,3.3,1.1,5.4,3.2,7.6l-1.1,6.5l-1.1-1.1v2.2l-1.1,2.2h2.2l-1.1,5.4h-1.1l1.1,2.2
			l-1.1,1.1l0,0l1.1,1.1v5.4h-2.2l1.1,2.2l-1.1,1.1l1.1,1.1v5.4h-1.1v2.2l-1.1,1.1l0,0h2.2l-1.1,6.5h-1.1l1.1,1.1l-1.1,2.2h1.1
			l-1.1,4.3l-5.4,23.8h4.3v48.7h-29.2v-3.3c2.2-1.1,3.2-2.2,3.2-4.3c0-2.2-1.1-3.3-3.2-4.3v-2.2c3.2-1.1,5.4-3.3,5.4-6.5l0,0
			c0-2.2-2.2-5.4-5.4-5.4v-3.2l-2.2-4.3l-3.2,4.3v3.2c-3.2,0-5.4,3.3-5.4,5.4c0,3.2,2.2,5.4,5.4,6.5v2.2c-2.2,1.1-3.2,2.2-3.2,4.3
			c0,2.2,1.1,3.2,3.2,4.3v3.3h-28.2v-48.7h3.2l-5.4-23.8l-1.1-4.3h2.2l0,0l-1.1-2.2v-2.2l-1.1,1.1v-6.5h1.1l-1.1-2.2l1.1-1.1h-2.2
			v-6.5h1.1l0,0l-1.1-1.1l1.1-2.2h-1.1l-1.1-5.4l2.2-1.1l-1.1-1.1v-2.2h-1.1v-5.4h1.1v-1.1l-1.1-1.1l1.1-2.2h-2.2v-5.4
			c2.2-2.2,3.2-4.3,3.2-7.6l0,0c0-4.3-3.2-7.6-7.6-7.6s-7.6,3.3-7.6,7.6c0,3.3,1.1,5.4,3.2,7.6l-1.1,6.5l-1.1-1.1l1.1,2.2l-1.1,2.2
			h1.1v5.4h-2.2l1.1,2.2l-1.1,1.1l0,0l1.1,1.1v5.4h-1.1v2.2l-1.1,1.1l2.2,1.1l-1.1,5.4h-1.1l1.1,2.2l-1.1,1.1l0,0h1.1l-1.1,6.5h-1.1
			l1.1,1.1l-1.1,2.2h1.1v4.3l-5.4,23.8h3.2v31.4h-62.8v-31.4h3.2l-5.4-23.8v-4.3h1.1l0,0l-1.1-2.2l1.1-2.2l-2.2,1.1v-6.5h1.1
			l-1.1-2.2l1.1-1.1h-1.1l-1.1-6.5h2.2h-1.1v-1.1v-2.2h-1.1v-5.4l1.1-1.1l-1.1-1.1l1.1-2.2h-2.2v-5.4h1.1v-1.1l-1.1-1.1l1.1-2.2
			h-1.1l-1.1-5.4c2.2-2.2,3.2-4.3,3.2-7.6l0,0c0-4.3-3.2-7.6-7.6-7.6s-7.6,3.3-7.6,7.6c0,3.3,1.1,5.4,3.2,7.6v6.5l-2.2-1.1l1.1,2.2
			l-1.1,2.2h1.1v5.4h-2.2l1.1,2.2l-1.1,1.1l0,0l2.2,1.1l-1.1,5.4h-1.1l1.1,2.2l-1.1,1.1l1.1,1.1l-1.1,5.4h-1.1l1.1,2.2l-1.1,1.1l0,0
			h1.1v6.5h-2.2l1.1,1.1l-1.1,2.2h1.1v4.3l-5.4,23.8h3.2v48.7h-28.2v-3.3c1.1-1.1,2.2-2.2,2.2-4.3c0-2.2-1.1-3.3-2.2-4.3v-2.2
			c2.2-1.1,4.3-3.3,4.3-6.5l0,0c0-2.2-2.2-5.4-4.3-5.4v-3.2l-3.2-4.3l-3.2,4.3v3.2c-2.2,0-4.3,3.3-4.3,5.4c0,3.2,2.2,5.4,4.3,6.5
			v2.2c-1.1,1.1-2.2,2.2-2.2,4.3c0,2.2,1.1,3.2,2.2,4.3v3.3h-28.2v-48.7h3.2l-5.4-23.8v-4.3h1.1l0,0l-1.1-2.2l1.1-2.2l-2.2,1.1v-6.5
			h1.1l-1.1-2.2l1.1-1.1h-1.1l-1.1-6.5h2.2l0,0l-1.1-1.1v-2.2h-1.1v-5.4l1.1-1.1l-1.1-1.1l1.1-2.2h-1.1l-1.1-5.4h2.2v-1.1l-1.1-1.1
			v-2.2h-1.1v-5.4c1.1-2.2,2.2-4.3,2.2-7.6l0,0C1046.4,1309.6,1043.2,1306.4,1038.8,1306.4L1038.8,1306.4L1038.8,1306.4z
			 M1054,1455.9c2.2,0,3.2,2.2,4.3,4.3h1.1v40.1l-9.7,20.6v-60.7h1.1C1051.8,1458,1052.9,1455.9,1054,1455.9L1054,1455.9z
			 M1072.4,1455.9c1.1,0,3.2,2.2,3.2,4.3h2.2v2.2l-11.9,23.8v-26h2.2C1069.1,1458,1070.2,1455.9,1072.4,1455.9L1072.4,1455.9z
			 M1089.7,1455.9c2.2,0,3.2,2.2,3.2,5.4h2.2v22.7l-10.8-21.7v-2.2h2.2C1086.5,1458,1087.6,1455.9,1089.7,1455.9L1089.7,1455.9z
			 M1107.1,1455.9c2.2,0,3.2,2.2,4.3,5.4h1.1v59.6l-10.8-23.8v-35.7h2.2C1103.8,1458,1106,1455.9,1107.1,1455.9L1107.1,1455.9z
			 M1223,1455.9c2.2,0,3.2,2.2,4.3,4.3h1.1v39l-10.8,21.7v-60.7h2.2C1219.7,1458,1221.9,1455.9,1223,1455.9L1223,1455.9z
			 M1240.3,1455.9c2.2,0,3.2,2.2,4.3,4.3h2.2v2.2l-11.9,23.8v-26h2.2C1238.1,1458,1239.2,1455.9,1240.3,1455.9L1240.3,1455.9z
			 M1258.7,1455.9c1.1,0,3.2,2.2,3.2,5.4h2.2v23.8l-11.9-22.7v-2.2h2.2C1255.5,1458,1256.5,1455.9,1258.7,1455.9L1258.7,1455.9z
			 M1276,1455.9c2.2,0,3.2,2.2,4.3,5.4h1.1v59.6l-10.8-22.7v-36.8h2.2C1272.8,1458,1273.9,1455.9,1276,1455.9L1276,1455.9z
			 M1080,1855.6c16.2,10.8,20.6,15.2,22.7,44.4v47.7h-46.6v-45.5C1058.3,1870.7,1063.7,1866.4,1080,1855.6L1080,1855.6z
			 M1253.3,1855.6c16.2,10.8,20.6,15.2,22.7,44.4v47.7h-46.6v-45.5C1231.6,1870.7,1237,1866.4,1253.3,1855.6L1253.3,1855.6z
			 M994.4,1978c16.2,10.8,20.6,15.2,22.7,44.4v48.7h-46.6v-46.6C972.7,1993.1,978.2,1988.8,994.4,1978L994.4,1978z M1083.2,1978
			c16.2,10.8,20.6,15.2,22.7,44.4v48.7h-46.6v-46.6C1061.6,1993.1,1067,1988.8,1083.2,1978L1083.2,1978z M1256.5,1978
			c16.2,10.8,20.6,15.2,22.7,44.4v48.7h-46.6v-46.6C1234.9,1993.1,1240.3,1988.8,1256.5,1978L1256.5,1978z M1336.7,1978
			c16.2,10.8,21.7,15.2,23.8,44.4v48.7h-47.7v-46.6C1315,1993.1,1320.4,1988.8,1336.7,1978L1336.7,1978z M943.5,2110.1
			c28.2,18.4,36.8,27.1,41.2,78v124.6h-83.4v-121.3C905.6,2137.2,914.3,2128.5,943.5,2110.1L943.5,2110.1z M1093,2110.1
			c28.2,18.4,36.8,27.1,40.1,78v124.6h-82.3v-121.3C1054,2137.2,1063.7,2128.5,1093,2110.1L1093,2110.1z M1243.5,2110.1
			c28.2,18.4,36.8,27.1,41.2,78v124.6h-83.4v-121.3C1205.6,2137.2,1214.3,2128.5,1243.5,2110.1L1243.5,2110.1z M1388.7,2110.1
			c28.2,18.4,36.8,27.1,40.1,78v124.6h-82.3v-121.3C1349.7,2137.2,1359.4,2128.5,1388.7,2110.1L1388.7,2110.1z"/>
		<path clip-path="url(#SVGID_20_)" fill="#010202" d="M1038.8,1675.8c0,0-5.4,8.7-10.8,18.4c-3.2,4.3-6.5,8.7-9.7,13
			c-3.2,3.2-6.5,5.4-8.7,6.5c-7.6,2.2-11.9,2.2-16.2,2.2c-3.2,0-6.5,1.1-11.9,3.3c-6.5,3.2-10.8,10.8-15.2,17.3
			c-3.2,6.5-5.4,11.9-5.4,11.9l4.3,2.2c0,0,1.1-2.2,2.2-5.4c0,2.2,0,3.3,0,4.3v56.3h4.3v-5.4h2.2v-39l0,0c0,0,0-4.3,1.1-8.7
			c1.1-1.1,1.1-3.3,2.2-4.3c1.1,1.1,2.2,1.1,3.2,2.2c1.1,1.1,2.2,2.2,2.2,3.2c1.1,2.2,1.1,47.7,1.1,48.7l0,0v1.1l0,0l0,0h3.2v-1.1
			l0,0l0,0c0-1.1-1.1-46.6,0-48.7c1.1-1.1,1.1-2.2,2.2-3.2c1.1-1.1,2.2-2.2,4.3-2.2c0,1.1,1.1,3.2,1.1,4.3c1.1,3.2,1.1,6.5,1.1,7.6
			v1.1l0,0l0,0v39h4.3v-39l0,0v-1.1c0-1.1,0-4.3,1.1-7.6c0-1.1,1.1-3.3,1.1-4.3c2.2,1.1,3.2,1.1,3.2,2.2c1.1,1.1,2.2,2.2,3.2,3.2
			c0,2.2,0,47.7,0,48.7l0,0v1.1l0,0l0,0h3.2v-1.1l0,0l0,0c0-1.1,0-46.6,1.1-48.7c0-1.1,1.1-2.2,2.2-3.2c1.1-1.1,2.2-2.2,3.2-2.2
			c1.1,1.1,1.1,3.2,2.2,4.3c1.1,4.3,1.1,8.7,1.1,8.7l0,0v39h2.2v5.4h4.3v-56.3c0-14.1-7.6-26-18.4-31.4h1.1
			c3.2-1.1,7.6-4.3,10.8-7.6c3.2-4.3,6.5-8.7,9.7-14.1c6.5-8.7,10.8-17.3,10.8-17.3L1038.8,1675.8L1038.8,1675.8z M995.5,1721.2
			L995.5,1721.2c0,2.2,0,8.7-1.1,11.9c0,2.2-1.1,3.3-3.2,5.4c-1.1,1.1-2.2,2.2-4.3,2.2c0,0,0-1.1,1.1-1.1c0-1.1,1.1-3.2,0-4.3
			c0-2.2,0-3.2,0-4.3c0-1.1,0-2.2,0-3.2c1.1-1.1,2.2-3.3,3.2-4.3c1.1-1.1,1.1-2.2,2.2-2.2C993.3,1721.2,994.4,1721.2,995.5,1721.2
			L995.5,1721.2z M999.8,1721.2c0,0,1.1,0,2.2,0c1.1,1.1,1.1,1.1,2.2,2.2c1.1,1.1,2.2,3.2,3.2,4.3c0,1.1,0,2.2,0,3.2
			c0,1.1,0,2.2,0,4.3c-1.1,2.2,0,3.3,0,4.3c0,1.1,1.1,1.1,1.1,1.1c-2.2,0-3.2-1.1-4.3-2.2c-2.2-2.2-3.2-3.3-3.2-5.4
			C999.8,1729.9,999.8,1723.4,999.8,1721.2L999.8,1721.2z M1007.4,1723.4c8.7,3.2,15.2,13,16.2,23.8v3.3c-1.1-2.2-2.2-4.3-4.3-6.5
			c-2.2-1.1-3.2-2.2-6.5-3.3c0,0,0,0-1.1,0c-1.1-1.1-1.1-2.2-2.2-2.2c0-1.1,0-1.1,0-2.2c1.1-2.2,1.1-3.3,1.1-5.4
			c0-1.1-1.1-2.2-1.1-4.3C1009.6,1725.6,1008.5,1724.5,1007.4,1723.4L1007.4,1723.4z M987.9,1723.4c-1.1,1.1-2.2,2.2-2.2,3.2
			c0,1.1-1.1,2.2-1.1,4.3c0,1.1,0,3.3,1.1,5.4v1.1c-1.1,1.1-1.1,2.2-2.2,2.2c-1.1,1.1-2.2,1.1-2.2,2.2c-2.2,0-4.3,1.1-5.4,2.2
			c-2.2,2.2-3.2,4.3-4.3,6.5v-3.3l0,0C972.7,1736.4,979.2,1727.7,987.9,1723.4L987.9,1723.4z M997.7,1734.2c1.1,3.2,2.2,5.4,4.3,6.5
			c0,1.1,1.1,1.1,2.2,2.2c-1.1,0-2.2,1.1-2.2,1.1c-2.2,2.2-3.2,4.3-4.3,6.5c-1.1-2.2-2.2-4.3-4.3-6.5c0,0-1.1-1.1-2.2-1.1
			c1.1-1.1,2.2-1.1,2.2-2.2C995.5,1739.7,996.6,1737.5,997.7,1734.2L997.7,1734.2z M984.7,1745.1c3.2,0,4.3,0,6.5,1.1
			c-2.2,1.1-2.2,1.1-3.2,2.2c-2.2,1.1-2.2,3.2-3.2,4.3c-1.1-1.1-1.1-3.3-3.2-4.3c0-1.1-1.1-1.1-2.2-2.2
			C980.3,1745.1,982.5,1745.1,984.7,1745.1L984.7,1745.1z M1010.7,1745.1c2.2,0,4.3,0,5.4,1.1c-1.1,1.1-2.2,1.1-3.2,2.2
			c-1.1,1.1-2.2,3.2-2.2,4.3c-1.1-1.1-2.2-3.3-3.2-4.3c-1.1-1.1-2.2-1.1-3.2-2.2C1006.3,1745.1,1007.4,1745.1,1010.7,1745.1
			L1010.7,1745.1z"/>
		<path clip-path="url(#SVGID_20_)" fill="#010202" d="M956.5,1839.3c0,0-4.3,8.7-10.8,18.4c-3.2,4.3-6.5,8.7-9.7,11.9
			c-3.2,4.3-6.5,6.5-8.7,7.6c-7.6,1.1-13,2.2-16.2,2.2c-4.3,0-7.6,1.1-11.9,3.2c-7.6,3.3-11.9,10.8-16.2,17.3
			c-3.2,6.5-5.4,11.9-5.4,11.9l4.3,2.2c0,0,1.1-2.2,2.2-5.4c0,1.1,0,3.2,0,4.3v56.3h4.3v-5.4h2.2v-39l0,0c0,0,0-4.3,1.1-8.7
			c1.1-1.1,1.1-3.2,2.2-4.3c1.1,0,2.2,1.1,3.2,2.2c1.1,1.1,2.2,1.1,2.2,3.3c1.1,2.2,1.1,47.7,1.1,48.7l0,0l0,0l0,0v1.1h3.2v-1.1l0,0
			v-1.1c0-1.1,0-45.5,0-47.7c1.1-2.2,2.2-2.2,3.2-3.3c1.1-1.1,2.2-2.2,3.2-2.2c1.1,1.1,1.1,3.3,2.2,4.3c1.1,3.3,1.1,6.5,1.1,7.6v1.1
			l0,0l0,0v39h3.2v-39l0,0v-1.1c0-1.1,0-4.3,1.1-7.6c1.1-1.1,1.1-3.2,2.2-4.3c1.1,0,2.2,1.1,3.2,2.2c1.1,1.1,2.2,1.1,2.2,3.3
			c1.1,2.2,1.1,47.7,1.1,48.7l0,0l0,0l0,0v1.1h3.2v-1.1l0,0v-1.1c0-1.1,0-45.5,0-47.7c1.1-2.2,2.2-2.2,3.2-3.3
			c1.1-1.1,2.2-2.2,3.2-2.2c1.1,1.1,1.1,3.3,2.2,4.3c1.1,4.3,1.1,8.7,1.1,8.7l0,0v39h2.2v5.4h4.3V1913c0-14.1-7.6-26-18.4-31.4
			c0,0,0,0,1.1,0c3.2-1.1,6.5-4.3,10.8-7.6c3.2-4.3,6.5-8.7,9.7-14.1c6.5-8.7,11.9-18.4,11.9-18.4L956.5,1839.3L956.5,1839.3z
			 M912.1,1884.8h1.1c0,2.2,0,8.7-1.1,10.8c-1.1,2.2-2.2,4.3-3.2,6.5c-1.1,1.1-3.2,2.2-5.4,2.2c0-1.1,1.1-1.1,1.1-1.1
			c1.1-1.1,1.1-3.3,1.1-4.3c-1.1-2.2-1.1-3.3-1.1-4.3c0-1.1,0-2.2,1.1-4.3c0-1.1,1.1-2.2,3.2-4.3l1.1-1.1
			C911,1884.8,911,1884.8,912.1,1884.8L912.1,1884.8z M916.4,1884.8c1.1,0,2.2,0,3.2,0c0,0,1.1,1.1,1.1,2.2c2.2,1.1,3.2,3.3,3.2,4.3
			c1.1,1.1,1.1,2.2,1.1,3.3c0,1.1,0,2.2-1.1,4.3c0,1.1,0,3.2,1.1,4.3v1.1c-1.1-1.1-3.2-1.1-4.3-2.2c-1.1-2.2-2.2-4.3-3.2-6.5
			C916.4,1893.5,916.4,1887,916.4,1884.8L916.4,1884.8z M925.1,1887c8.7,3.3,15.2,13,16.2,23.8v3.2c-1.1-2.2-2.2-4.3-4.3-6.5
			c-2.2-1.1-3.2-2.2-6.5-3.3c0,0-1.1,0-1.1-1.1c-1.1,0-1.1-1.1-2.2-2.2c0,0,0,0,0-1.1c0-2.2,1.1-4.3,1.1-5.4
			c-1.1-1.1-1.1-3.3-1.1-4.3C926.2,1889.1,926.2,1888.1,925.1,1887L925.1,1887z M904.5,1887c-1.1,1.1-1.1,2.2-2.2,3.3
			c0,1.1,0,2.2-1.1,4.3c0,1.1,1.1,3.2,1.1,5.4c1.1,0,0,1.1,0,1.1c0,1.1-1.1,2.2-2.2,2.2c-1.1,1.1-2.2,1.1-2.2,1.1
			c-2.2,1.1-4.3,2.2-5.4,3.3c-2.2,2.2-3.2,4.3-4.3,6.5v-3.2l0,0C889.3,1900,895.8,1890.2,904.5,1887L904.5,1887z M914.3,1897.8
			c1.1,2.2,2.2,4.3,4.3,6.5c1.1,1.1,1.1,1.1,2.2,2.2c-1.1,0-1.1,1.1-2.2,1.1c-2.2,2.2-3.2,4.3-4.3,6.5c0-2.2-1.1-4.3-3.2-6.5
			c-1.1,0-1.1-1.1-2.2-1.1c1.1-1.1,1.1-1.1,2.2-2.2C913.2,1902.1,914.3,1900,914.3,1897.8L914.3,1897.8z M901.3,1907.5
			c3.2,0,5.4,1.1,6.5,2.2c-1.1,0-2.2,1.1-3.2,2.2c-1.1,1.1-2.2,3.3-3.2,4.3c0-1.1-1.1-3.2-3.2-4.3c0-1.1-1.1-2.2-2.2-2.2
			C896.9,1908.6,899.1,1907.5,901.3,1907.5L901.3,1907.5z M928.3,1907.5c2.2,0,4.3,1.1,5.4,2.2c-1.1,0-2.2,1.1-3.2,2.2
			c-1.1,1.1-2.2,3.3-3.2,4.3c0-1.1-1.1-3.2-3.2-4.3c0-1.1-1.1-2.2-2.2-2.2C922.9,1908.6,925.1,1907.5,928.3,1907.5L928.3,1907.5z"/>
		<path clip-path="url(#SVGID_20_)" fill="#010202" d="M1292.3,1675.8c0,0,4.3,8.7,9.7,18.4c3.2,4.3,6.5,8.7,9.7,13
			c3.2,3.2,6.5,5.4,8.7,6.5c7.6,2.2,11.9,2.2,16.2,2.2c4.3,0,7.6,1.1,11.9,3.3c6.5,3.2,11.9,10.8,15.2,17.3
			c3.2,6.5,5.4,11.9,5.4,11.9l-4.3,2.2c0,0-1.1-2.2-2.2-5.4c0,2.2,1.1,3.3,1.1,4.3v56.3h-5.4v-5.4h-2.2v-39l0,0c0,0,0-4.3-1.1-8.7
			c0-1.1-1.1-3.3-2.2-4.3c-1.1,1.1-2.2,1.1-3.2,2.2c-1.1,1.1-1.1,2.2-2.2,3.2c0,2.2,0,47.7,0,48.7l0,0v1.1l0,0l0,0h-3.2v-1.1l0,0
			l0,0c0-1.1,0-46.6-1.1-48.7c0-1.1-1.1-2.2-2.2-3.2c-1.1-1.1-2.2-2.2-3.2-2.2c-1.1,1.1-2.2,3.2-2.2,4.3c-1.1,3.2-1.1,6.5-1.1,7.6
			v1.1l0,0l0,0v39h-3.2v-39l0,0v-1.1c0-1.1,0-4.3-1.1-7.6c-1.1-1.1-1.1-3.3-2.2-4.3c-1.1,1.1-2.2,1.1-3.2,2.2
			c-1.1,1.1-2.2,2.2-2.2,3.2c-1.1,2.2-1.1,47.7-1.1,48.7l0,0v1.1l0,0l0,0h-3.2v-1.1l0,0l0,0c0-1.1,0-46.6,0-48.7
			c-1.1-1.1-2.2-2.2-3.2-3.2c0-1.1-1.1-2.2-3.2-2.2c-1.1,1.1-1.1,3.2-2.2,4.3c-1.1,4.3-1.1,8.7-1.1,8.7l0,0v39h-1.1v5.4h-5.4v-56.3
			c0-14.1,7.6-26,18.4-31.4c0,0,0,0-1.1,0c-3.2-1.1-6.5-4.3-10.8-7.6c-3.2-4.3-6.5-8.7-9.7-14.1c-6.5-8.7-10.8-17.3-10.8-17.3
			L1292.3,1675.8L1292.3,1675.8z M1335.6,1721.2c-1.1,0-1.1,0-1.1,0c0,2.2,0,8.7,1.1,11.9c1.1,2.2,1.1,3.3,3.2,5.4
			c1.1,1.1,2.2,2.2,4.3,2.2v-1.1c-1.1-1.1-2.2-3.2-1.1-4.3c1.1-2.2,1.1-3.2,1.1-4.3c-1.1-1.1-1.1-2.2-1.1-3.2c0-1.1-2.2-3.3-3.2-4.3
			c-1.1-1.1-1.1-1.1-2.2-2.2H1335.6L1335.6,1721.2z M1331.3,1721.2c-1.1,0-2.2,0-3.2,0c0,1.1-1.1,1.1-2.2,2.2
			c-1.1,1.1-2.2,3.2-2.2,4.3c-1.1,1.1-1.1,3.2-1.1,3.2c0,1.1,0,2.2,1.1,4.3c0,2.2,0,3.3-1.1,4.3c0,1.1,0,1.1,0,1.1
			c1.1,0,3.2-1.1,4.3-2.2c1.1-2.2,2.2-3.3,3.2-5.4C1330.2,1729.9,1331.3,1723.4,1331.3,1721.2L1331.3,1721.2z M1322.6,1723.4
			c-8.7,3.2-14.1,13-15.2,23.8v3.3c0-2.2,2.2-4.3,3.2-6.5c2.2-1.1,4.3-2.2,6.5-3.3h1.1c1.1-1.1,2.2-2.2,2.2-2.2c0-1.1,0-1.1,0-2.2
			c0-2.2-1.1-3.3-1.1-5.4c1.1-1.1,1.1-2.2,1.1-4.3C1321.5,1725.6,1321.5,1724.5,1322.6,1723.4L1322.6,1723.4z M1343.2,1723.4
			c0,1.1,1.1,2.2,1.1,3.2c0,1.1,1.1,2.2,1.1,4.3c0,1.1,0,3.3-1.1,5.4v1.1c1.1,1.1,2.2,2.2,3.2,2.2c0,1.1,1.1,1.1,2.2,2.2
			c1.1,0,3.2,1.1,4.3,2.2c2.2,2.2,3.2,4.3,4.3,6.5v-3.3l0,0C1357.3,1736.4,1350.8,1727.7,1343.2,1723.4L1343.2,1723.4z
			 M1332.4,1734.2c0,3.2-2.2,5.4-3.2,6.5c-1.1,1.1-2.2,1.1-2.2,2.2c0,0,1.1,1.1,2.2,1.1c1.1,2.2,3.2,4.3,3.2,6.5
			c1.1-2.2,2.2-4.3,4.3-6.5c0,0,1.1-1.1,2.2-1.1c-1.1-1.1-2.2-1.1-2.2-2.2C1334.5,1739.7,1333.4,1737.5,1332.4,1734.2L1332.4,1734.2
			z M1345.4,1745.1c-2.2,0-4.3,0-5.4,1.1c1.1,1.1,2.2,1.1,2.2,2.2c2.2,1.1,3.2,3.2,3.2,4.3c1.1-1.1,2.2-3.3,3.2-4.3
			c1.1-1.1,2.2-1.1,2.2-2.2C1349.7,1745.1,1347.5,1745.1,1345.4,1745.1L1345.4,1745.1z M1319.4,1745.1c-2.2,0-3.2,0-5.4,1.1
			c1.1,1.1,2.2,1.1,3.2,2.2c1.1,1.1,2.2,3.2,3.2,4.3c0-1.1,1.1-3.3,3.2-4.3c0-1.1,1.1-1.1,2.2-2.2
			C1324.8,1745.1,1322.6,1745.1,1319.4,1745.1L1319.4,1745.1z"/>
		<path clip-path="url(#SVGID_20_)" fill="#010202" d="M1373.5,1839.3c0,0,5.4,8.7,11.9,18.4c2.2,4.3,6.5,8.7,9.7,11.9
			c3.2,4.3,6.5,6.5,7.6,7.6c8.7,1.1,13,2.2,17.3,2.2c3.2,0,7.6,1.1,11.9,3.2c6.5,3.3,11.9,10.8,15.2,17.3c3.2,6.5,5.4,11.9,5.4,11.9
			l-4.3,2.2c0,0,0-2.2-1.1-5.4c0,1.1,0,3.2,0,4.3v56.3h-5.4v-5.4h-2.2v-39l0,0c0,0,1.1-4.3-1.1-8.7c0-1.1-1.1-3.2-2.2-4.3
			c-1.1,0-2.2,1.1-3.2,2.2c-1.1,1.1-1.1,1.1-2.2,3.3s0,47.7,0,48.7l0,0l0,0l0,0v1.1h-4.3v-1.1l0,0v-1.1c0-1.1,1.1-45.5,0-47.7
			c0-2.2-1.1-2.2-2.2-3.3c-1.1-1.1-2.2-2.2-4.3-2.2c0,1.1-1.1,3.3-1.1,4.3c-1.1,3.3-1.1,6.5-2.2,7.6v1.1l0,0l0,0v39h-3.2v-39l0,0
			v-1.1c0-1.1,0-4.3-1.1-7.6c0-1.1-1.1-3.2-2.2-4.3c-1.1,0-2.2,1.1-3.2,2.2c-1.1,1.1-1.1,1.1-2.2,3.3c-1.1,2.2-1.1,47.7-1.1,48.7
			l0,0l0,0l0,0v1.1h-3.2v-1.1l0,0v-1.1c0-1.1,1.1-45.5,0-47.7c0-2.2-1.1-2.2-2.2-3.3c-1.1-1.1-2.2-2.2-4.3-2.2
			c0,1.1-1.1,3.3-1.1,4.3c-2.2,4.3-2.2,8.7-2.2,8.7l0,0v39h-1.1v5.4h-5.4V1913c0-14.1,7.6-26,19.5-31.4c-1.1,0-1.1,0-1.1,0
			c-4.3-1.1-7.6-4.3-10.8-7.6c-4.3-4.3-7.6-8.7-10.8-14.1c-6.5-8.7-10.8-18.4-10.8-18.4L1373.5,1839.3L1373.5,1839.3z
			 M1417.9,1884.8L1417.9,1884.8c0,2.2,0,8.7,1.1,10.8c0,2.2,1.1,4.3,3.2,6.5c1.1,1.1,2.2,2.2,4.3,2.2c0-1.1,0-1.1-1.1-1.1
			c0-1.1-1.1-3.3,0-4.3c0-2.2,0-3.3,0-4.3c0-1.1,0-2.2,0-4.3c-1.1-1.1-2.2-2.2-3.2-4.3c-1.1,0-1.1-1.1-2.2-1.1
			C1420.1,1884.8,1419,1884.8,1417.9,1884.8L1417.9,1884.8z M1413.6,1884.8c-1.1,0-1.1,0-2.2,0c-1.1,0-1.1,1.1-2.2,2.2
			c-1.1,1.1-3.2,3.3-3.2,4.3c0,1.1-1.1,2.2-1.1,3.3c0,1.1,0,2.2,1.1,4.3c1.1,1.1,0,3.2-1.1,4.3v1.1c2.2-1.1,3.2-1.1,4.3-2.2
			c2.2-2.2,3.2-4.3,3.2-6.5C1413.6,1893.5,1413.6,1887,1413.6,1884.8L1413.6,1884.8z M1406,1887c-9.7,3.3-15.2,13-16.2,23.8v3.2
			c1.1-2.2,2.2-4.3,4.3-6.5c1.1-1.1,3.2-2.2,5.4-3.3c1.1,0,1.1,0,1.1-1.1c1.1,0,2.2-1.1,2.2-2.2c1.1,0,1.1,0,1.1-1.1
			c-1.1-2.2-1.1-4.3-1.1-5.4c0-1.1,0-3.3,1.1-4.3C1403.8,1889.1,1404.9,1888.1,1406,1887L1406,1887z M1425.5,1887
			c1.1,1.1,2.2,2.2,2.2,3.3c0,1.1,1.1,2.2,1.1,4.3c0,1.1,0,3.2-1.1,5.4v1.1c1.1,1.1,2.2,2.2,2.2,2.2c1.1,1.1,2.2,1.1,3.2,1.1
			c1.1,1.1,3.2,2.2,4.3,3.3c2.2,2.2,3.2,4.3,4.3,6.5v-3.2l0,0C1440.7,1900,1434.2,1890.2,1425.5,1887L1425.5,1887z M1415.8,1897.8
			c-1.1,2.2-2.2,4.3-4.3,6.5c0,1.1-1.1,1.1-2.2,2.2c1.1,0,2.2,1.1,2.2,1.1c2.2,2.2,3.2,4.3,4.3,6.5c1.1-2.2,2.2-4.3,4.3-6.5
			c0,0,1.1-1.1,2.2-1.1c-1.1-1.1-2.2-1.1-2.2-2.2C1417.9,1902.1,1416.8,1900,1415.8,1897.8L1415.8,1897.8z M1428.8,1907.5
			c-2.2,0-4.3,1.1-5.4,2.2c1.1,0,2.2,1.1,2.2,2.2c2.2,1.1,3.2,3.3,3.2,4.3c1.1-1.1,2.2-3.2,3.2-4.3c1.1-1.1,2.2-2.2,2.2-2.2
			C1433.1,1908.6,1430.9,1907.5,1428.8,1907.5L1428.8,1907.5z M1402.8,1907.5c-2.2,0-4.3,1.1-6.5,2.2c2.2,0,3.2,1.1,3.2,2.2
			c2.2,1.1,3.2,3.3,3.2,4.3c1.1-1.1,2.2-3.2,3.2-4.3c1.1-1.1,1.1-2.2,2.2-2.2C1407.1,1908.6,1404.9,1907.5,1402.8,1907.5
			L1402.8,1907.5z"/>
	</g>
	<g>
		<defs>
			<rect id="SVGID_21_" x="186.4" y="702" width="6477.2" height="1967"/>
		</defs>
		<clipPath id="SVGID_22_">
			<use xlink:href="#SVGID_21_"  overflow="visible"/>
		</clipPath>
		<path clip-path="url(#SVGID_22_)" d="M1598.8,1554.4l19.5,10.8v67.2h-24.9l10.8,18.4L1480.7,1940h-21.7v4.3l8.7,13v799.4h386.7
			v-799.4l0,0l8.7-11.9v-5.4h-19.5l-123.5-289.2l10.8-18.4h-23.8v-67.2l16.2-10.8H1598.8L1598.8,1554.4z M1662.7,1747.2
			c9.7,0,17.3,9.7,17.3,20.6c0,11.9-7.6,20.6-17.3,20.6c-10.8,0-18.4-8.7-18.4-20.6C1644.3,1757,1651.9,1747.2,1662.7,1747.2
			L1662.7,1747.2z M1584.7,1910.8h60.7v97.5h-60.7V1910.8z M1683.3,1910.8h60.7v97.5h-60.7V1910.8z M1516.5,2092.8h63.9V2239h-63.9
			V2092.8z M1630.2,2092.8h63.9V2239h-63.9V2092.8z M1744,2092.8h63.9V2239H1744V2092.8z M1516.5,2319.1h63.9v146.2h-63.9V2319.1z
			 M1630.2,2319.1h63.9v146.2h-63.9V2319.1z M1744,2319.1h63.9v146.2H1744V2319.1z"/>
		<path clip-path="url(#SVGID_22_)" d="M2044,1601c-32.5,0-59.6,30.3-60.7,68.2h-15.2v5.4h6.5v14.1h-6.5v6.5h4.3
			c-1.1,5.4-4.3,8.7-7.6,11.9c-2.2,2.2-4.3,4.3-7.6,5.4c-19.5,1.1-34.7,16.2-37.9,35.7h-6.5v6.5h5.4c0,1.1,0,2.2,0,3.2v10.8h-5.4
			v6.5h5.4v19.5c0,0,0,0,0,1.1c-2.2,19.5-4.3,28.2-11.9,41.2c-7.6,14.1-14.1,19.5-18.4,22.7c-18.4,4.3-32.5,21.7-32.5,44.4v17.3
			h-10.8v6.5h6.5v834h386.7v-834h6.5v-6.5h-10.8v-17.3c0-20.6-11.9-36.8-28.2-43.3c-3.2-2.2-10.8-8.7-18.4-22.7
			c-6.5-10.8-8.7-19.5-10.8-36.8v-26h3.2v-6.5h-3.2v-10.8c0-1.1,0-2.2,0-3.2h3.2v-6.5h-4.3c-3.2-19.5-19.5-35.7-39-35.7
			c-2.2-1.1-9.7-4.3-13-7.6c-3.2-3.3-5.4-5.4-7.6-9.7h4.3v-6.5h-6.5c0,0,0,0,0-1.1v-13h6.5v-5.4h-16.2
			C2102.5,1631.3,2076.5,1601,2044,1601L2044,1601z M2027.7,1754.8h29.2v32.5h-29.2V1754.8z M1974.7,1913h52V2031h-52V1913z
			 M2059.1,1913h52V2031h-52V1913z M1906.4,2106.8h61.7v124.6h-61.7V2106.8z M2012.6,2106.8h60.7v124.6h-60.7V2106.8z
			 M2117.6,2106.8h61.7v124.6h-61.7V2106.8z M1905.3,2315.9h76.9v147.3h-76.9V2315.9z M2002.8,2315.9h75.8v147.3h-75.8V2315.9z
			 M2099.2,2315.9h76.9v147.3h-76.9V2315.9z"/>
		<path clip-path="url(#SVGID_22_)" d="M2441.5,1528.4c-20.6,1.1-29.2,27.1-40.1,24.9h-11.9l3.2,10.8v66.1l-147.3,305.4h-22.7v4.3
			l8.7,11.9v794h413.8V1953l0,0l9.7-13v-4.3h-21.7l-145.1-305.4v-66.1l3.2-10.8h-13C2467.5,1554.4,2462.1,1528.4,2441.5,1528.4
			L2441.5,1528.4z M2419.8,1708.2h37.9v55.2h-37.9V1708.2z M2337.5,1894.5h53.1v98.6h-53.1V1894.5z M2412.3,1894.5h53.1v98.6h-53.1
			V1894.5z M2487,1894.5h53.1v98.6H2487V1894.5z M2268.2,2077.6h60.7v114.8h-60.7V2077.6z M2338.6,2077.6h60.7v114.8h-60.7V2077.6z
			 M2409,2077.6h60.7v114.8H2409V2077.6z M2478.3,2077.6h60.7v114.8h-60.7V2077.6z M2548.7,2077.6h60.7v114.8h-60.7V2077.6z
			 M2268.2,2263.9h60.7v113.7h-60.7V2263.9z M2338.6,2263.9h60.7v113.7h-60.7V2263.9z M2409,2263.9h60.7v113.7H2409V2263.9z
			 M2478.3,2263.9h60.7v113.7h-60.7V2263.9z M2548.7,2263.9h60.7v113.7h-60.7V2263.9z"/>
	</g>
	<g>
		<defs>
			<rect id="SVGID_23_" x="186.4" y="702" width="6477.2" height="1967"/>
		</defs>
		<clipPath id="SVGID_24_">
			<use xlink:href="#SVGID_23_"  overflow="visible"/>
		</clipPath>
		<path clip-path="url(#SVGID_24_)" d="M3365.4,2084.1c-31.4,0-54.2,2.2-62.8,6.5c-24.9,14.1-171.1,305.4-171.1,305.4
			s-39-7.6-57.4-3.3c0,0-3.2,303.3-1.1,396.4c0,9.7,92.1,30.3,238.3,36.8v-284.9c0,0,39-24.9,83.4-23.8c30.3,0,76.9,19.5,76.9,19.5
			v290.3c29.2-1.1,58.5-2.2,89.9-4.3c291.4-20.6,484.2-45.5,496.1-60.7c2.2-123.5-1.1-451.7,0-575.2
			c40.1-71.5-108.3-85.6-493.9-98.6c-7.6,0-16.2,0-23.8,0C3486.7,2088.4,3416.3,2084.1,3365.4,2084.1L3365.4,2084.1z M3381.7,2099.3
			c32.5,0,73.7,0,114.8,1.1c153.8,5.4,337.9,4.3,475.5,28.2c24.9,4.3,48.7,9.7,65,17.3c7.6,4.3,13,9.7,15.2,16.2
			c3.2,6.5,1.1,14.1-5.4,21.7c-1.1,1.1-2.2,1.1-3.2,0c-1.1-1.1-1.1-2.2,0-3.3c5.4-7.6,6.5-13,5.4-17.3c-2.2-4.3-6.5-8.7-14.1-11.9
			c-15.2-8.7-39-13-62.8-18.4c-137.6-23.8-321.7-21.7-475.5-28.2c-83.4-1.1-160.3,0-183.1,0c0,0-1.1,0-1.1,1.1
			c-1.1,1.1-2.2,2.2-3.2,4.3c-3.2,4.3-7.6,10.8-14.1,19.5c-10.8,18.4-27.1,45.5-47.7,83.4c-36.8,68.2-97.5,187.4-102.9,198.2
			c0,1.1-1.1,1.1-1.1,1.1c-1.1,0-1.1,0-1.1,0s0,0-1.1,0c0,0,0,0-1.1,0c-1.1,0-3.2-1.1-5.4-1.1c-5.4-1.1-14.1-3.3-27.1-4.3
			c-15.2-1.1-28.2,0-28.2,0c-1.1,0-2.2-2.2-2.2-3.3c0-1.1,1.1-2.2,2.2-2.2c0,0,13,0,28.2,1.1c14.1,1.1,22.7,2.2,28.2,3.2
			c2.2,1.1,4.3,1.1,5.4,1.1c6.5-11.9,65-128.9,102.9-197.1c20.6-36.8,36.8-65,47.7-82.3c5.4-8.7,9.7-16.2,13-20.6
			c2.2-2.2,3.2-3.3,4.3-4.3c0-1.1,1.1-1.1,1.1-2.2c1.1,0,1.1-1.1,2.2-1.1C3323.2,2099.3,3349.2,2099.3,3381.7,2099.3L3381.7,2099.3z
			 M3617.8,2157.8c19.5,0,35.7,16.2,35.7,16.2l2.2,94.2h-78v-93.2C3577.7,2175.1,3594,2157.8,3617.8,2157.8L3617.8,2157.8z
			 M4003.4,2205.4c1.1,0,1.1,1.1,2.2,1.1c4.3,1.1,9.7,11.9,9.7,11.9v75.8l-23.8-5.4l1.1-79.1
			C3992.6,2209.7,3999.1,2206.5,4003.4,2205.4L4003.4,2205.4z M3610.2,2349.5c19.5,0,37.9,7.6,37.9,7.6l-1.1,109.4l-76.9-3.2
			l-2.2-102.9C3568,2360.3,3596.1,2349.5,3610.2,2349.5L3610.2,2349.5z M4002.3,2376.6c1.1,0,1.1,0,2.2,0c4.3,1.1,9.7,7.6,9.7,7.6
			l-1.1,56.3l-22.7-2.2l1.1-58.5C3991.5,2379.8,3998,2376.6,4002.3,2376.6L4002.3,2376.6z M4003.4,2522.8c1.1,0,1.1,0,2.2,0
			c4.3,1.1,8.7,7.6,8.7,7.6v45.5l-20.6-1.1V2526C3993.7,2526,3999.1,2522.8,4003.4,2522.8L4003.4,2522.8z"/>
	</g>
	<g>
		<defs>
			<polygon id="SVGID_25_" points="186.4,702 4692.3,702 4716.4,2669 186.4,2669 			"/>
		</defs>
		<clipPath id="SVGID_26_">
			<use xlink:href="#SVGID_25_"  overflow="visible"/>
		</clipPath>
		<path clip-path="url(#SVGID_26_)" d="M497.2,2721c-13-5.4-21.7-9.7-32.5-17.3c-5.4-3.2-14.1-9.7-17.3-11.9l-1.1-1.1h-58.5h-59.6
			l-7.6-4.3c-16.2-7.6-30.3-17.3-43.3-30.3c-26-24.9-43.3-57.4-52-94.2c-1.1-5.4-3.2-19.5-3.2-21.7c0,0,1.1,0,8.7,1.1
			c19.5,4.3,47.7,7.6,74.7,9.7c28.2,1.1,46.6,2.2,81.2,2.2c46.6,0,79.1-1.1,114.8-5.4c26-3.2,49.8-7.6,56.3-10.8
			c2.2,0,2.2,0,36.8-1.1c41.2,0,68.2-1.1,100.7-3.3c40.1-3.2,79.1-8.7,104-14.1l4.3-1.1v1.1c0,3.3-3.2,24.9-5.4,33.6
			c-18.4,76.9-68.2,139.7-135.4,170.1l-4.3,1.1h-79.1h-78L497.2,2721L497.2,2721z M362.9,2508.7c-55.2-1.1-97.5-5.4-132.1-13
			c-2.2,0-5.4,0-6.5,0h-2.2v-2.2c6.5-54.2,34.7-102.9,75.8-131.1c21.7-15.2,45.5-24.9,71.5-28.2c6.5,0,24.9-1.1,30.3,0h2.2l2.2-2.2
			c13-18.4,33.6-39,53.1-53.1c44.4-32.5,97.5-45.5,151.6-39c28.2,4.3,56.3,15.2,82.3,31.4c54.2,33.6,94.2,93.1,108.3,160.3
			c1.1,6.5,3.2,17.3,4.3,21.7c0,1.1,0,3.3,0,4.3v1.1h-3.2c-2.2,0-5.4,0-10.8,1.1c-32.5,7.6-76.9,13-128.9,15.2
			c-26,2.2-42.2,2.2-76.9,2.2c-31.4,0-35.7,0-34.7,1.1c0,1.1,2.2,14.1,2.2,15.2c0,1.1,0,2.2-2.2,2.2c-1.1,0-3.2,0-4.3,0
			c-31.4,6.5-62.8,10.8-108.3,13C422.5,2508.7,377,2509.8,362.9,2508.7L362.9,2508.7z"/>
	</g>
</g>
<g>
	<path d="M236.8,714.9V275h163.7v61.1h-75.8v101.4h74v63.5h-74v213.9H236.8z"/>
	<path d="M421.4,714.9V363h76.4v29.5h1.2c6.6-12.3,14.4-21.4,23.6-27.3c9.1-5.9,19.8-8.8,31.9-8.8c16.9,0,29.6,5,38,15.1
		c8.5,10,12.7,25,12.7,44.9v136H527V442c0-8.2-1-13.7-3.1-16.6c-2.1-2.9-5.7-4.3-10.9-4.3c-4.8,0-8.3,1.7-10.6,5.1
		c-2.3,3.4-3.4,8.6-3.4,15.8v272.9H421.4z"/>
	<path d="M711.3,643.9c0,7.8,1.1,13.3,3.3,16.6c2.2,3.3,5.8,4.9,10.7,4.9c5,0,8.5-1.6,10.7-4.9c2.2-3.3,3.3-8.8,3.3-16.6V578h77.5
		v65.3c0,25.5-8,45.2-24,59.2c-16,14-38.5,21-67.6,21c-32.8,0-56.3-7.6-70.4-22.7c-14.1-15.1-21.2-41-21.2-77.5V454.8
		c0-37,7-62.9,20.9-77.8c13.9-14.9,37.3-22.4,70.1-22.4c28.8,0,51.4,6.7,67.7,20.1c16.3,13.4,24.5,32,24.5,55.6V550H711.3V643.9z
		 M711.3,431v66.5h28V431c0-7.8-1.1-13.3-3.3-16.6c-2.2-3.3-5.8-4.9-10.7-4.9c-5,0-8.6,1.6-10.7,4.9
		C712.4,417.7,711.3,423.2,711.3,431z"/>
	<path d="M841.4,341.8V275h77.5v66.8H841.4z M841.4,714.9V363h77.5v352H841.4z"/>
	<path d="M956.8,714.9V418.8h-19.1V363h19.1v-33.4c0-17.1,5.2-30.5,15.5-40.1c10.3-9.6,24.8-14.5,43.2-14.5h43.8v55.2
		c-9.1,0-15.6,1-19.4,3.1c-3.8,2.1-5.7,5.7-5.7,10.9V363h25.1v55.8h-25.1v296.2H956.8z"/>
	<path d="M1257.1,363v352h-76.4v-29.2h-1.8c-6.6,12.1-14.3,21-23.1,26.7c-8.8,5.7-19.4,8.5-31.8,8.5c-16.9,0-29.6-4.9-38-14.8
		c-8.5-9.8-12.7-24.6-12.7-44.3V363h77.5v273.2c0,7.8,1.1,13.1,3.4,16.1c2.3,3,6,4.5,11.2,4.5c4.8,0,8.2-1.6,10.3-4.8
		c2.1-3.2,3.1-8.5,3.1-15.8V363H1257.1z"/>
	<path d="M1281.6,714.9V363h76.4v29.5h1.2c6.6-12.3,14.4-21.4,23.6-27.3c9.1-5.9,19.8-8.8,31.9-8.8c16.9,0,29.6,5,38,15.1
		c8.5,10,12.7,25,12.7,44.9v298.6h-78.1V442c0-8.2-1-13.7-3.1-16.6c-2.1-2.9-5.7-4.3-10.9-4.3c-4.8,0-8.3,1.7-10.6,5.1
		c-2.3,3.4-3.4,8.6-3.4,15.8v272.9H1281.6z"/>
	<path d="M1489.8,714.9V275h77.5v241.3h1.2l33.1-153.3h79.3l-38.5,152.1l38.5,199.8h-81.7l-30.7-184.3h-1.2v184.3H1489.8z"/>
	<path d="M1808.6,714.9V275h125.9l28.6,229.7c2.4,17.9,4.7,42.5,6.9,73.7c0.2,2.6,0.4,4.6,0.6,6l3-0.3c1-13.9,2.2-27.6,3.7-41
		c1.5-13.4,3.5-28.2,6.1-44.3l34.3-223.7h120.2v439.9H2058V482.3c0-12.1,0.1-26.1,0.4-41.9c0.3-15.8,0.7-33.6,1.3-53.2l-2.4-0.3
		c-1.2,25.8-4,50.9-8.4,75.2c-0.2,1-0.3,1.6-0.3,1.8l-42.7,251.1h-74.6l-40.9-238.6c-1.4-7.9-2.8-19.6-4.3-35
		c-1.5-15.4-2.9-33.5-4.3-54.1l-3-0.3c0,0.8,0,4.2,0,10.1c0.4,92.1,0.6,198,0.6,318H1808.6z"/>
	<path d="M2348.5,363v352h-76.4v-29.2h-1.8c-6.6,12.1-14.3,21-23.1,26.7c-8.8,5.7-19.4,8.5-31.8,8.5c-16.9,0-29.6-4.9-38-14.8
		c-8.5-9.8-12.7-24.6-12.7-44.3V363h77.5v273.2c0,7.8,1.1,13.1,3.4,16.1c2.3,3,6,4.5,11.2,4.5c4.8,0,8.2-1.6,10.3-4.8
		c2.1-3.2,3.1-8.5,3.1-15.8V363H2348.5z M2188.6,338.5v-60h54.3v60H2188.6z M2269.2,338.5v-60h54.3v60H2269.2z"/>
	<path d="M2372.9,714.9V363h76.4v29.5h1.2c6.6-12.3,14.4-21.4,23.6-27.3c9.1-5.9,19.8-8.8,31.9-8.8c16.9,0,29.6,5,38,15.1
		c8.5,10,12.7,25,12.7,44.9v298.6h-78.1V442c0-8.2-1-13.7-3.1-16.6c-2.1-2.9-5.7-4.3-10.9-4.3c-4.8,0-8.3,1.7-10.6,5.1
		c-2.3,3.4-3.4,8.6-3.4,15.8v272.9H2372.9z"/>
	<path d="M2762.5,642.2c0,26.2-7.9,46.4-23.6,60.4c-15.7,14-38.4,21-68,21c-29,0-51.6-7.1-67.9-21.2c-16.2-14.1-24.3-33.8-24.3-59.1
		V578h78.1v65.9c0,7.8,1.1,13.3,3.3,16.6c2.2,3.3,5.8,4.9,10.7,4.9c5,0,8.5-1.6,10.7-4.9c2.2-3.3,3.3-8.8,3.3-16.6v-31.6
		c0-14.3-12.9-31.8-38.8-52.5c-5.6-4.4-9.9-7.9-13.1-10.4l-0.6-0.6c-35.8-29.6-53.7-59.4-53.7-89.2v-31.3c0-23.3,8.1-41.4,24.2-54.3
		c16.1-12.9,38.6-19.4,67.4-19.4c29.2,0,51.9,6.8,68,20.3c16.1,13.5,24.2,32.6,24.2,57.3v53.7h-77.5V431c0-7.8-1.1-13.3-3.3-16.6
		c-2.2-3.3-5.8-4.9-10.7-4.9c-5,0-8.6,1.6-10.7,4.9c-2.2,3.3-3.3,8.8-3.3,16.6v18.8c0,15.9,12.4,33.4,37.3,52.5
		c5.8,4.4,10.2,7.9,13.4,10.4c24.5,19.7,39.7,35,45.8,46.1c6.1,11,9.1,25.4,9.1,43.1V642.2z"/>
	<path d="M2772.3,419.3V363h19.7v-65.3h78.1V363h22.7v56.4h-22.7v213.9c0,10.9,1.3,17.9,4,20.7c2.7,2.9,8,4.3,16,4.3h2.7v56.7h-48.9
		c-18.9,0-32.3-4.3-40.1-13c-7.9-8.6-11.8-24.9-11.8-48.8V419.3H2772.3z"/>
	<path d="M2982.6,643.9c0,7.8,1.1,13.3,3.3,16.6c2.2,3.3,5.8,4.9,10.7,4.9c5,0,8.5-1.6,10.7-4.9c2.2-3.3,3.3-8.8,3.3-16.6V578h77.5
		v65.3c0,25.5-8,45.2-24,59.2c-16,14-38.5,21-67.6,21c-32.8,0-56.3-7.6-70.4-22.7c-14.1-15.1-21.2-41-21.2-77.5V454.8
		c0-37,7-62.9,20.9-77.8c13.9-14.9,37.3-22.4,70.1-22.4c28.8,0,51.4,6.7,67.7,20.1c16.3,13.4,24.5,32,24.5,55.6V550h-105.6V643.9z
		 M2982.6,431v66.5h28V431c0-7.8-1.1-13.3-3.3-16.6c-2.2-3.3-5.8-4.9-10.7-4.9c-5,0-8.6,1.6-10.7,4.9
		C2983.7,417.7,2982.6,423.2,2982.6,431z"/>
	<path d="M3112.6,714.9V363h76.4v29.5h1.2c6.6-12.3,14.4-21.4,23.6-27.3c9.1-5.9,19.8-8.8,31.9-8.8c16.9,0,29.6,5,38,15.1
		c8.5,10,12.7,25,12.7,44.9v136h-78.1V442c0-8.2-1-13.7-3.1-16.6c-2.1-2.9-5.7-4.3-10.9-4.3c-4.8,0-8.3,1.7-10.6,5.1
		c-2.3,3.4-3.4,8.6-3.4,15.8v272.9H3112.6z"/>
	<path d="M3314.9,714.9V275h77.5v439.9H3314.9z"/>
	<path d="M3416.9,435.2c0-26.6,7.7-46.7,23.1-60.2c15.4-13.5,38.2-20.3,68.5-20.3c33,0,56.5,7.5,70.5,22.5c14,15,21,40.9,21,77.7
		V669c0,9.3,0.4,17.6,1.3,24.9c0.9,7.3,2.3,14.3,4.3,21h-78.7c-1-4.2-1.8-8.4-2.4-12.7c-0.6-4.3-0.9-8.2-0.9-11.8v-5.4h-1.2
		c-5.6,11.5-13.1,20.4-22.5,26.5c-9.4,6.2-20.4,9.2-33,9.2c-16.5,0-29-5-37.4-14.9c-8.5-9.9-12.7-24.7-12.7-44.1v-74.6
		c0-18.5,3.3-33.6,10-45.2c6.7-11.6,17.3-21.4,32.1-29.4c4.8-2.6,11.5-6.1,20.3-10.4c29.2-14.9,43.8-29.1,43.8-42.7v-25.1
		c0-7.6-1.1-13-3.4-16.4c-2.3-3.4-6-5.1-11.2-5.1c-4.8,0-8.2,1.7-10.3,5.1c-2.1,3.4-3.1,8.8-3.1,16.4v51.3h-78.1V435.2z
		 M3523.1,635.6v-93.4c-1.2,0.8-2.8,2-4.8,3.6c-15.5,11.9-23.3,22.5-23.3,31.6v58.2c0,8,1,13.4,3.1,16.3c2.1,2.9,5.7,4.3,10.9,4.3
		c4.8,0,8.3-1.6,10.6-4.9C3521.9,648,3523.1,642.7,3523.1,635.6z"/>
	<path d="M3625.1,714.9V363h76.4v29.5h1.2c6.6-12.3,14.4-21.4,23.6-27.3c9.1-5.9,19.8-8.8,31.9-8.8c16.9,0,29.6,5,38,15.1
		c8.5,10,12.7,25,12.7,44.9v298.6h-78.1V442c0-8.2-1-13.7-3.1-16.6c-2.1-2.9-5.7-4.3-10.9-4.3c-4.8,0-8.3,1.7-10.6,5.1
		c-2.3,3.4-3.4,8.6-3.4,15.8v272.9H3625.1z"/>
	<path d="M4015.2,714.9h-76.4v-30.4h-1.2c-5.2,12.9-12.4,22.7-21.6,29.2c-9.2,6.6-20.5,9.8-33.9,9.8c-16.9,0-29.5-4.9-37.7-14.8
		c-8.3-9.8-12.4-24.7-12.4-44.6V416.4c0-20.1,4.2-35.1,12.5-45c8.4-9.9,20.9-14.9,37.6-14.9c12.3,0,23,3,31.9,8.9
		c8.9,6,16.4,15,22.4,27.1h1.2V275h77.5V714.9z M3909.6,638c0,8.2,1,13.8,3.1,16.9c2.1,3.1,5.7,4.6,10.9,4.6c4.8,0,8.3-1.8,10.6-5.4
		c2.3-3.6,3.4-8.9,3.4-16.1V442c0-7.2-1.1-12.4-3.4-15.8c-2.3-3.4-5.8-5.1-10.6-5.1c-5.2,0-8.8,1.4-10.9,4.3
		c-2.1,2.9-3.1,8.4-3.1,16.6V638z"/>
</g>
</svg>
