<?xml version="1.0" encoding="utf-8"?>
<!-- Generator: Adobe Illustrator 17.0.0, SVG Export Plug-In . SVG Version: 6.00 Build 0)  -->
<!DOCTYPE svg PUBLIC "-//W3C//DTD SVG 1.1//EN" "http://www.w3.org/Graphics/SVG/1.1/DTD/svg11.dtd">
<svg version="1.1" id="Ebene_1" xmlns="http://www.w3.org/2000/svg" xmlns:xlink="http://www.w3.org/1999/xlink" x="0px" y="0px"
	 width="311.455px" height="222.301px" viewBox="0 0 311.455 222.301" enable-background="new 0 0 311.455 222.301"
	 xml:space="preserve">
<g>
	<path fill="#DD2D69" d="M302.659,107.828c-0.008,49.738-34.552,92.835-83.295,103.02c-32.866,6.868-62.654-0.576-89.01-21.468
		c-1.422-1.127-1.401-1.144-2.617,0.189c-12.475,13.673-27.949,21.525-46.324,23.404c-27.748,2.837-55.343-10.884-69.497-36.26
		C5.413,165.056,2.42,152.51,2.929,139.18c0.513-13.448,4.438-25.835,11.921-37.065c6.514-9.775,14.973-17.419,25.227-23.101
		c7.863-4.357,16.334-6.841,25.188-8.142c10.573-1.554,20.883-0.236,31.019,2.871c0.853,0.261,1.132,0.125,1.428-0.716
		c12.76-36.266,43.954-62.602,81.766-69.067c45.938-7.854,91.846,15.564,112.339,57.328c6.296,12.831,9.888,26.38,10.677,40.666
		C302.602,103.913,302.636,105.869,302.659,107.828z M227.805,189.086c3.542-1.226,6.942-2.763,10.18-4.654
		c3.569-1.699,6.871-3.826,9.984-6.254c0.331-0.221,0.672-0.429,0.99-0.666c24.391-18.15,37.524-48.657,34.076-78.424
		c-2.279-19.671-10.011-36.891-24.004-50.869c-21.698-21.673-47.94-29.994-78.207-24.635c-30.537,5.407-56.507,28.441-65.924,57.977
		c-0.251,0.787-0.149,1.204,0.55,1.674c2.29,1.54,4.449,3.259,6.519,5.087c0.977,0.863,0.969,0.865,1.316-0.424
		c5.409-20.063,17.053-35.548,34.798-46.201c15.59-9.359,32.561-12.891,50.659-10.186c10.792,1.613,20.953,5.07,30.133,11.065
		c21.941,14.327,33.843,34.713,35.82,60.726c1.064,14-2.053,27.343-8.453,39.845c-4.568,8.922-10.737,16.63-18.325,23.192
		c-1.842,1.386-3.67,2.792-5.531,4.152c-1.506,1.101-3.051,2.147-4.579,3.217c-3.271,1.83-6.569,3.606-10.016,5.089
		c-0.746,0.262-1.507,0.488-2.236,0.791c-2.56,1.066-5.283,1.635-7.865,2.63c-0.663,0.138-1.332,0.255-1.99,0.417
		c-9.22,2.279-18.527,2.853-27.952,1.552c-3.49-0.482-6.885-1.383-10.331-2.054c-3.365-1.16-6.729-2.321-10.094-3.481
		c-3.405-1.502-6.701-3.215-9.896-5.123c-3.503-2.396-6.983-4.823-10.252-7.538c-1.369-1.239-2.739-2.478-4.186-3.788
		c-1.005,3.428-2.179,6.605-3.613,9.68c-0.248,0.532-0.04,0.8,0.321,1.115c2.376,2.075,4.786,4.106,7.431,5.839
		c3.134,2.364,6.446,4.437,10.007,6.1c3.247,1.833,6.661,3.291,10.178,4.515c3.255,1.34,6.624,2.307,10.06,3.05
		c13.475,3.116,26.933,3.056,40.371-0.227C221.184,191.482,224.575,190.537,227.805,189.086z M177.401,177.278
		c5.117,1.623,10.374,2.472,15.719,2.811c8.352,0.53,16.557-0.317,24.593-2.69c3.597-0.876,7.037-2.177,10.34-3.844
		c2.281-0.984,4.506-2.073,6.556-3.49c1.146-0.314,2.029-1.093,2.985-1.728c3.724-2.477,7.319-5.118,10.388-8.405
		c0.24-0.206,0.494-0.399,0.719-0.621c21.691-21.333,27.936-54.42,14.794-81.874c-12.278-25.65-33.075-39.688-61.375-41.955
		c-16.87-1.351-32.408,3.296-46.238,13.102c-15.035,10.661-24.56,25.115-28.882,43.02c-0.224,0.93-0.095,1.574,0.591,2.338
		c5.497,6.118,9.976,12.926,12.994,20.585c5.01,12.715,6.961,25.847,4.268,39.378c-0.498,2.502,0.08,4.019,1.883,5.419
		c0.125,0.097,0.252,0.19,0.379,0.284c1.69,1.985,3.746,3.568,5.776,5.167c2.471,1.945,4.985,3.843,7.83,5.236
		c1.992,1.342,4.111,2.445,6.333,3.354C170.335,175.111,173.783,176.419,177.401,177.278z M73.737,74.743
		c-3.471,0.044-7.563,0.402-11.628,1.138c-32.627,5.909-56.29,35.574-54.716,68.731c0.874,18.408,8.012,34.067,21.594,46.498
		c14.913,13.649,32.665,19.439,52.781,17.307c17.147-1.817,31.429-9.449,42.99-22.23c0.741-0.819,0.597-1.198-0.129-1.875
		c-3.454-3.224-6.651-6.693-9.601-10.385c-14.201-17.771-21.817-38.093-23.207-60.726c-0.702-11.421,0.762-22.667,3.837-33.689
		c0.269-0.963,0.097-1.31-0.845-1.606C88.162,75.816,81.358,74.769,73.737,74.743z M110.668,107.735
		c-0.045,9.87,1.418,18.905,4.328,27.704c4.12,12.461,10.759,23.408,19.816,32.904c0.767,0.804,0.992,0.629,1.371-0.293
		c1.171-2.851,2.166-5.757,3.022-8.716c0.207-0.717,0.132-1.239-0.376-1.841c-1.236-1.464-2.428-2.974-3.54-4.534
		c-12.361-17.338-16.725-36.58-13.632-57.576c0.112-0.757-0.039-1.263-0.595-1.791c-2.149-2.041-4.417-3.932-6.766-5.736
		c-0.854-0.656-1.094-0.502-1.324,0.512C111.477,94.942,110.61,101.581,110.668,107.735z M140.551,152.173
		c1.601-9.53,1.105-18.944-1.474-28.239c-2.575-9.277-6.933-17.613-13.223-24.938C123.62,118.689,128.49,136.404,140.551,152.173z"
		/>
	<path fill="#FEB300" d="M228.053,173.556c-3.303,1.667-6.743,2.968-10.34,3.844c0.001-4.195-0.004-8.39,0.007-12.585
		c0.003-1.041-0.068-2.072-0.21-3.104c-1.431-10.378-10.807-17.837-21.56-17.139c-10.191,0.662-18.537,9.61-18.543,19.881
		c-0.003,4.275-0.004,8.55-0.006,12.825c-3.618-0.859-7.066-2.167-10.348-3.913c-0.933-2.846-3.592-4.253-6.333-3.354
		c-2.845-1.393-5.359-3.291-7.83-5.236c-2.03-1.599-4.087-3.181-5.776-5.167c0.012-0.48,0.034-0.959,0.034-1.439
		c0.002-24.355,0.001-48.711,0.001-73.066c0-0.638,0.014-1.253,0.28-1.872c4.786-11.124,9.553-22.257,14.337-33.383
		c0.125-0.29,0.105-0.736,0.602-0.81c0.074,0.146,0.153,0.282,0.215,0.425c4.839,11.276,9.674,22.553,14.52,33.826
		c0.245,0.569,0.312,1.141,0.311,1.748c-0.01,4.319,0.02,8.639-0.027,12.957c-0.01,0.919,0.197,1.219,1.175,1.216
		c12.678-0.034,25.355-0.031,38.033-0.003c0.879,0.002,1.156-0.203,1.145-1.122c-0.051-4.359-0.018-8.718-0.029-13.077
		c-0.001-0.569,0.083-1.096,0.311-1.626c4.814-11.2,9.615-22.404,14.429-33.604c0.112-0.262,0.091-0.658,0.551-0.722
		c0.147,0.32,0.303,0.642,0.444,0.97c4.678,10.91,9.35,21.822,14.043,32.726c0.342,0.794,0.471,1.58,0.47,2.435
		c-0.012,24.395-0.01,48.791-0.008,73.186c0,0.519,0.021,1.039,0.033,1.558c-3.069,3.288-6.665,5.929-10.388,8.405
		c-0.956,0.636-1.839,1.414-2.985,1.728C231.53,169.178,228.823,170.619,228.053,173.556z"/>
	<path fill="#FEB300" d="M147.175,165.992c3.269,2.715,6.749,5.142,10.252,7.538c-0.333,0.675-0.222,1.403-0.23,2.11
		c-0.033,3.099-0.044,6.199-0.062,9.298c-3.561-1.663-6.873-3.736-10.007-6.1C147.144,174.556,147.16,170.274,147.175,165.992z"/>
	<path fill="#FEB300" d="M247.916,166.34c0.017,3.946,0.035,7.891,0.052,11.837c-3.113,2.428-6.414,4.555-9.984,6.254
		c-0.018-0.595-0.039-1.19-0.054-1.785c-0.07-2.979,0.146-5.961-0.125-8.937c1.528-1.07,3.073-2.116,4.579-3.217
		C244.246,169.132,246.074,167.727,247.916,166.34z"/>
	<path fill="#FEB300" d="M167.313,189.453c0.003-3.6,0.006-7.2,0.009-10.8c3.365,1.161,6.73,2.321,10.094,3.481
		c-0.014,3.456-0.029,6.913-0.043,10.369C173.937,191.76,170.569,190.793,167.313,189.453z"/>
	<path fill="#FEB300" d="M227.79,178.798c0.005,3.429,0.01,6.857,0.015,10.287c-3.23,1.452-6.621,2.397-10.06,3.191
		c-0.018-3.352-0.037-6.704-0.056-10.056c2.582-0.996,5.305-1.565,7.865-2.631C226.283,179.286,227.044,179.06,227.79,178.798z"/>
	<path fill="#FEB300" d="M46.18,142.799c3.5-3.379,7-6.757,10.529-10.164c-0.526-0.471-0.938-0.307-1.305-0.308
		c-6.318-0.013-12.636-0.033-18.954,0.015c-0.97,0.007-1.186-0.281-1.167-1.197c0.058-2.798,0.066-5.599-0.003-8.396
		c-0.024-0.978,0.203-1.269,1.227-1.261c6.278,0.052,12.556,0.026,18.834,0.026c0.384,0,0.767,0,1.151,0
		c0.058-0.093,0.116-0.187,0.175-0.28c-3.515-3.389-7.031-6.778-10.546-10.168c0.075-0.117,0.15-0.235,0.224-0.352
		c1.978,0,3.956,0,5.934,0c2.639,0,5.278,0.014,7.917-0.01c0.595-0.005,1.046,0.127,1.482,0.57
		c4.934,5.018,9.878,10.026,14.853,15.003c0.547,0.547,0.466,0.798-0.029,1.294c-4.968,4.985-9.91,9.995-14.855,15.001
		c-0.316,0.32-0.62,0.555-1.125,0.553c-4.715-0.02-9.431-0.012-14.146-0.012C46.311,143.009,46.245,142.904,46.18,142.799z"/>
</g>
</svg>
