<?xml version="1.0" standalone="no"?>
<!DOCTYPE svg PUBLIC "-//W3C//DTD SVG 1.1//EN" "http://www.w3.org/Graphics/SVG/1.1/DTD/svg11.dtd">
<svg width="100%" height="100%" viewBox="0 0 140 100" version="1.1" xmlns="http://www.w3.org/2000/svg" xmlns:xlink="http://www.w3.org/1999/xlink" xml:space="preserve" style="fill-rule:evenodd;clip-rule:evenodd;stroke-miterlimit:1.41421;">
    <g id="g8" transform="matrix(1,0,0,1,0,-65)">
        <g id="circle10" transform="matrix(1.41683,0,0,1.44453,-17.1436,53.1988)">
            <circle cx="36" cy="54" r="22" style="fill:none;stroke-width:1.15px;stroke:rgb(222,44,104);"/>
        </g>
        <g id="polygon16" transform="matrix(1.38974,0,0,1.31728,-16.739,57.9349)">
            <path d="M31,44L26,44L30,48L22,48L22,52L30,52L26,56L31,56L37,50L31,44Z" style="fill:rgb(255,204,51);fill-rule:nonzero;"/>
        </g>
        <g id="path34" transform="matrix(0.95886,0,0,0.95886,9.3137,1.23209)">
            <rect x="60.57" y="112.36" width="4.901" height="45.549" style="fill:rgb(255,204,51);fill-rule:nonzero;"/>
        </g>
        <g id="path341" transform="matrix(0.95886,0,0,0.95886,48.0578,1.23209)">
            <rect x="60.57" y="112.36" width="4.901" height="45.549" style="fill:rgb(255,204,51);fill-rule:nonzero;"/>
        </g>
        <g id="path36" transform="matrix(0.95886,0,0,0.95886,9.28495,1.23209)">
            <rect x="67.334" y="100.429" width="4.901" height="60.93" style="fill:rgb(255,204,51);fill-rule:nonzero;"/>
        </g>
        <g id="path38" transform="matrix(0.95886,0,0,0.95886,9.2561,1.23209)">
            <rect x="74.099" y="86.795" width="4.901" height="74.609" style="fill:rgb(255,204,51);fill-rule:nonzero;"/>
        </g>
        <g id="path40" transform="matrix(0.95886,0,0,0.95886,9.22754,1.23209)">
            <rect x="80.863" y="86.795" width="4.9" height="74.565" style="fill:rgb(255,204,51);fill-rule:nonzero;"/>
        </g>
        <g id="path42" transform="matrix(0.95886,0,0,0.95886,9.19878,1.23209)">
            <rect x="87.628" y="86.795" width="4.9" height="74.609" style="fill:rgb(255,204,51);fill-rule:nonzero;"/>
        </g>
        <g id="path44" transform="matrix(0.95886,0,0,0.95886,9.16984,1.23209)">
            <rect x="94.392" y="100.429" width="4.901" height="58.134" style="fill:rgb(255,204,51);fill-rule:nonzero;"/>
        </g>
        <g id="circle12" transform="matrix(1.52943,0,0,1.55558,-23.8077,46.7334)">
            <circle cx="74" cy="44" r="22" style="fill:none;stroke-width:1.06px;stroke:rgb(222,44,104);"/>
        </g>
        <g id="circle14" transform="matrix(1.518,0,0,1.53288,-23.1054,47.7323)">
            <path d="M74.206,12.109L74.412,12.111L74.618,12.114L74.823,12.119L75.028,12.124L75.232,12.132L75.437,12.14L75.641,12.15L75.845,12.161L76.048,12.173L76.251,12.186L76.454,12.201L76.656,12.217L76.858,12.235L77.06,12.253L77.262,12.273L77.463,12.294L77.663,12.316L77.864,12.34L78.064,12.365L78.263,12.391L78.462,12.418L78.661,12.447L78.86,12.476L79.058,12.507L79.255,12.539L79.453,12.573L79.65,12.607L79.846,12.643L80.042,12.68L80.238,12.718L80.433,12.758L80.628,12.798L80.822,12.84L81.016,12.883L81.21,12.927L81.403,12.972L81.595,13.019L81.787,13.066L81.979,13.115L82.17,13.165L82.361,13.216L82.551,13.268L82.741,13.321L82.93,13.376L83.119,13.431L83.308,13.488L83.496,13.546L83.683,13.605L83.87,13.665L84.056,13.726L84.242,13.788L84.427,13.852L84.612,13.916L84.797,13.982L84.98,14.049L85.164,14.117L85.346,14.185L85.529,14.255L85.71,14.326L85.891,14.399L86.072,14.472L86.252,14.546L86.431,14.621L86.61,14.698L86.789,14.775L86.966,14.854L87.143,14.933L87.32,15.014L87.496,15.095L87.672,15.178L87.846,15.261L88.021,15.346L88.194,15.432L88.367,15.519L88.54,15.606L88.712,15.695L88.883,15.785L89.053,15.875L89.223,15.967L89.393,16.06L89.562,16.154L89.73,16.248L89.897,16.344L90.064,16.441L90.23,16.538L90.396,16.637L90.561,16.736L90.725,16.837L90.888,16.938L91.051,17.041L91.213,17.144L91.375,17.248L91.536,17.354L91.696,17.46L91.856,17.567L92.014,17.675L92.173,17.784L92.33,17.894L92.487,18.005L92.643,18.116L92.798,18.229L92.953,18.342L93.107,18.457L93.26,18.572L93.412,18.688L93.564,18.806L93.715,18.924L93.866,19.042L94.015,19.162L94.164,19.283L94.312,19.404L94.459,19.527L94.606,19.65L94.752,19.774L94.897,19.899L95.041,20.025L95.185,20.151L95.327,20.279L95.469,20.407L95.611,20.536L95.751,20.666L95.891,20.797L96.03,20.928L96.168,21.061L96.305,21.194L96.441,21.328L96.577,21.463L96.712,21.599L96.846,21.735L96.979,21.872L97.112,22.01L97.243,22.149L97.374,22.289L97.504,22.429L97.633,22.571L97.761,22.712L97.889,22.855L98.015,22.999L98.141,23.143L98.266,23.288L98.39,23.434L98.513,23.58L98.635,23.728L98.757,23.876L98.877,24.024L98.997,24.174L99.116,24.324L99.234,24.475L99.351,24.627L99.467,24.779L99.582,24.932L99.696,25.086L99.81,25.24L99.922,25.396L100.034,25.551L100.145,25.708L100.255,25.865L100.363,26.023L100.471,26.182L100.578,26.341L100.684,26.501L100.79,26.662L100.894,26.824L100.997,26.986L101.099,27.148L101.201,27.312L101.301,27.476L101.4,27.64L101.499,27.806L101.596,27.972L101.693,28.138L101.788,28.306L101.883,28.473L101.977,28.642L102.069,28.811L102.161,28.981L102.251,29.151L102.341,29.322L102.429,29.494L102.517,29.666L102.604,29.839L102.689,30.012L102.774,30.186L102.857,30.36L102.94,30.536L103.021,30.711L103.102,30.888L103.181,31.064L103.259,31.242L103.337,31.42L103.413,31.598L103.488,31.778L103.562,31.957L103.635,32.137L103.707,32.318L103.778,32.5L103.848,32.681L103.917,32.864L103.984,33.047L104.051,33.23L104.116,33.414L104.181,33.598L104.244,33.783L104.306,33.969L104.367,34.155L104.427,34.341L104.486,34.528L104.544,34.716L104.6,34.904L104.656,35.092L104.71,35.281L104.763,35.47L104.815,35.66L104.866,35.851L104.916,36.041L104.965,36.233L105.012,36.424L105.058,36.616L105.104,36.809L105.147,37.002L105.19,37.195L105.232,37.389L105.272,37.584L105.312,37.778L105.35,37.973L105.387,38.169L105.422,38.365L105.457,38.561L105.49,38.758L105.522,38.955L105.553,39.153L105.583,39.351L105.611,39.549L105.638,39.748L105.664,39.947L105.689,40.146L105.712,40.346L105.735,40.546L105.756,40.747L105.776,40.948L105.794,41.149L105.811,41.351L105.827,41.553L105.842,41.755L105.856,41.957L105.868,42.16L105.879,42.363L105.888,42.567L105.897,42.771L105.904,42.975L105.91,43.179L105.914,43.384L105.918,43.589L105.92,43.794L105.92,44L105.92,44.206L105.918,44.411L105.914,44.616L105.91,44.821L105.904,45.025L105.897,45.229L105.888,45.433L105.879,45.637L105.868,45.84L105.856,46.043L105.842,46.245L105.827,46.447L105.811,46.649L105.794,46.851L105.776,47.052L105.756,47.253L105.735,47.454L105.712,47.654L105.689,47.854L105.664,48.053L105.638,48.252L105.611,48.451L105.583,48.649L105.553,48.847L105.522,49.045L105.49,49.242L105.457,49.439L105.422,49.635L105.387,49.831L105.35,50.027L105.312,50.222L105.272,50.416L105.232,50.611L105.19,50.805L105.147,50.998L105.104,51.191L105.058,51.384L105.012,51.576L104.965,51.767L104.916,51.959L104.866,52.149L104.815,52.34L104.763,52.53L104.71,52.719L104.656,52.908L104.6,53.096L104.544,53.284L104.486,53.472L104.427,53.659L104.367,53.845L104.306,54.031L104.244,54.217L104.181,54.402L104.116,54.586L104.051,54.77L103.984,54.953L103.917,55.136L103.848,55.319L103.778,55.5L103.707,55.682L103.635,55.863L103.562,56.043L103.488,56.222L103.413,56.402L103.337,56.58L103.259,56.758L103.181,56.936L103.102,57.112L103.021,57.289L102.94,57.464L102.857,57.64L102.774,57.814L102.689,57.988L102.604,58.161L102.517,58.334L102.429,58.506L102.341,58.678L102.251,58.849L102.161,59.019L102.069,59.189L101.977,59.358L101.883,59.527L101.788,59.694L101.693,59.862L101.596,60.028L101.499,60.194L101.4,60.36L101.301,60.524L101.201,60.688L101.099,60.852L100.997,61.014L100.894,61.176L100.79,61.338L100.684,61.499L100.578,61.659L100.471,61.818L100.363,61.977L100.255,62.135L100.145,62.292L100.034,62.449L99.922,62.604L99.81,62.76L99.696,62.914L99.582,63.068L99.467,63.221L99.351,63.373L99.234,63.525L99.116,63.676L98.997,63.826L98.877,63.976L98.757,64.124L98.635,64.272L98.513,64.42L98.39,64.566L98.266,64.712L98.141,64.857L98.015,65.001L97.889,65.145L97.761,65.287L97.633,65.429L97.504,65.571L97.374,65.711L97.243,65.851L97.112,65.99L96.979,66.128L96.846,66.265L96.712,66.401L96.577,66.537L96.441,66.672L96.305,66.806L96.168,66.939L96.03,67.072L95.891,67.203L95.751,67.334L95.611,67.464L95.469,67.593L95.327,67.721L95.185,67.849L95.041,67.975L94.897,68.101L94.752,68.226L94.606,68.35L94.459,68.473L94.312,68.596L94.164,68.717L94.015,68.838L93.866,68.958L93.715,69.076L93.564,69.195L93.412,69.312L93.26,69.428L93.107,69.543L92.953,69.658L92.798,69.771L92.643,69.884L92.487,69.995L92.33,70.106L92.173,70.216L92.014,70.325L91.856,70.433L91.696,70.54L91.536,70.646L91.375,70.752L91.213,70.856L91.051,70.959L90.888,71.062L90.725,71.163L90.561,71.264L90.396,71.363L90.23,71.462L90.064,71.559L89.897,71.656L89.73,71.752L89.562,71.846L89.393,71.94L89.223,72.033L89.053,72.125L88.883,72.215L88.712,72.305L88.54,72.394L88.367,72.482L88.194,72.568L88.021,72.654L87.846,72.739L87.671,72.822L87.496,72.905L87.32,72.986L87.143,73.067L86.966,73.146L86.789,73.225L86.61,73.302L86.431,73.379L86.252,73.454L86.072,73.528L85.891,73.601L85.71,73.674L85.528,73.745L85.346,73.815L85.164,73.883L84.98,73.951L84.797,74.018L84.612,74.084L84.427,74.148L84.242,74.212L84.056,74.274L83.87,74.335L83.683,74.395L83.496,74.454L83.308,74.512L83.119,74.569L82.93,74.624L82.741,74.679L82.551,74.732L82.361,74.784L82.17,74.835L81.979,74.885L81.787,74.934L81.595,74.981L81.403,75.028L81.21,75.073L81.016,75.117L80.822,75.16L80.628,75.202L80.433,75.242L80.238,75.282L80.042,75.32L79.846,75.357L79.65,75.393L79.453,75.427L79.256,75.461L79.058,75.493L78.86,75.524L78.661,75.553L78.462,75.582L78.263,75.609L78.064,75.635L77.864,75.66L77.663,75.684L77.463,75.706L77.262,75.727L77.06,75.747L76.858,75.765L76.656,75.783L76.454,75.799L76.251,75.814L76.048,75.827L75.845,75.839L75.641,75.85L75.437,75.86L75.232,75.868L75.028,75.876L74.823,75.881L74.618,75.886L74.412,75.889L74.206,75.891L74,75.892L73.794,75.891L73.588,75.889L73.382,75.886L73.177,75.881L72.972,75.876L72.768,75.868L72.563,75.86L72.359,75.85L72.155,75.839L71.952,75.827L71.749,75.814L71.546,75.799L71.344,75.783L71.142,75.765L70.94,75.747L70.738,75.727L70.537,75.706L70.337,75.684L70.136,75.66L69.936,75.635L69.737,75.609L69.538,75.582L69.339,75.553L69.14,75.524L68.942,75.493L68.744,75.461L68.547,75.427L68.35,75.393L68.154,75.357L67.958,75.32L67.762,75.282L67.567,75.242L67.372,75.202L67.178,75.16L66.984,75.117L66.79,75.073L66.597,75.028L66.405,74.981L66.213,74.934L66.021,74.885L65.83,74.835L65.639,74.784L65.449,74.732L65.259,74.679L65.07,74.624L64.881,74.569L64.692,74.512L64.504,74.454L64.317,74.395L64.13,74.335L63.944,74.274L63.758,74.212L63.573,74.148L63.388,74.084L63.203,74.018L63.02,73.951L62.836,73.883L62.654,73.815L62.471,73.745L62.29,73.674L62.109,73.601L61.928,73.528L61.748,73.454L61.569,73.379L61.39,73.302L61.211,73.225L61.034,73.146L60.857,73.067L60.68,72.986L60.504,72.905L60.329,72.822L60.154,72.739L59.979,72.654L59.806,72.568L59.633,72.481L59.46,72.394L59.288,72.305L59.117,72.215L58.947,72.125L58.777,72.033L58.607,71.94L58.438,71.846L58.27,71.752L58.103,71.656L57.936,71.559L57.77,71.462L57.604,71.363L57.439,71.264L57.275,71.163L57.112,71.062L56.949,70.959L56.787,70.856L56.625,70.752L56.464,70.646L56.304,70.54L56.144,70.433L55.986,70.325L55.827,70.216L55.67,70.106L55.513,69.995L55.357,69.884L55.202,69.771L55.047,69.658L54.893,69.543L54.74,69.428L54.588,69.312L54.436,69.194L54.285,69.076L54.134,68.958L53.985,68.838L53.836,68.717L53.688,68.596L53.541,68.473L53.394,68.35L53.248,68.226L53.103,68.101L52.959,67.975L52.815,67.849L52.673,67.721L52.531,67.593L52.389,67.464L52.249,67.334L52.109,67.203L51.97,67.072L51.832,66.939L51.695,66.806L51.559,66.672L51.423,66.537L51.288,66.401L51.154,66.265L51.021,66.128L50.888,65.99L50.757,65.851L50.626,65.711L50.496,65.571L50.367,65.429L50.239,65.287L50.111,65.145L49.985,65.001L49.859,64.857L49.734,64.712L49.61,64.566L49.487,64.42L49.365,64.272L49.243,64.124L49.123,63.976L49.003,63.826L48.884,63.676L48.766,63.525L48.649,63.373L48.533,63.221L48.418,63.068L48.304,62.914L48.19,62.76L48.078,62.604L47.966,62.449L47.855,62.292L47.745,62.135L47.637,61.977L47.529,61.818L47.422,61.659L47.316,61.499L47.21,61.338L47.106,61.176L47.003,61.014L46.901,60.852L46.799,60.688L46.699,60.524L46.6,60.36L46.501,60.194L46.404,60.028L46.307,59.862L46.212,59.694L46.117,59.527L46.023,59.358L45.931,59.189L45.839,59.019L45.749,58.849L45.659,58.678L45.57,58.506L45.483,58.334L45.396,58.161L45.311,57.988L45.226,57.814L45.143,57.64L45.06,57.464L44.979,57.289L44.898,57.112L44.819,56.936L44.741,56.758L44.663,56.58L44.587,56.402L44.512,56.222L44.438,56.043L44.365,55.863L44.293,55.682L44.222,55.5L44.152,55.319L44.083,55.136L44.016,54.953L43.949,54.77L43.884,54.586L43.819,54.402L43.756,54.217L43.694,54.031L43.633,53.845L43.573,53.659L43.514,53.472L43.456,53.284L43.4,53.096L43.344,52.908L43.29,52.719L43.237,52.53L43.185,52.34L43.134,52.149L43.084,51.959L43.035,51.767L42.988,51.576L42.942,51.384L42.896,51.191L42.853,50.998L42.81,50.805L42.768,50.611L42.728,50.416L42.688,50.222L42.65,50.027L42.613,49.831L42.578,49.635L42.543,49.439L42.51,49.242L42.478,49.045L42.447,48.847L42.417,48.649L42.389,48.451L42.362,48.252L42.336,48.053L42.311,47.854L42.288,47.654L42.265,47.454L42.244,47.253L42.224,47.052L42.206,46.851L42.189,46.649L42.173,46.447L42.158,46.245L42.144,46.043L42.132,45.84L42.121,45.637L42.112,45.433L42.103,45.229L42.096,45.025L42.09,44.821L42.086,44.616L42.082,44.411L42.08,44.206L42.08,44L42.08,43.794L42.082,43.589L42.086,43.384L42.09,43.179L42.096,42.975L42.103,42.771L42.112,42.567L42.121,42.363L42.132,42.16L42.144,41.957L42.158,41.755L42.173,41.553L42.189,41.351L42.206,41.149L42.224,40.948L42.244,40.747L42.265,40.546L42.288,40.346L42.311,40.146L42.336,39.947L42.362,39.748L42.389,39.549L42.417,39.351L42.447,39.153L42.478,38.955L42.51,38.758L42.543,38.561L42.578,38.365L42.613,38.169L42.65,37.973L42.688,37.778L42.728,37.584L42.768,37.389L42.81,37.195L42.853,37.002L42.896,36.809L42.942,36.616L42.988,36.424L43.035,36.233L43.084,36.041L43.134,35.851L43.185,35.66L43.237,35.47L43.29,35.281L43.344,35.092L43.4,34.904L43.456,34.716L43.514,34.528L43.573,34.341L43.633,34.155L43.694,33.969L43.756,33.783L43.819,33.598L43.884,33.414L43.949,33.23L44.016,33.047L44.083,32.864L44.152,32.681L44.222,32.5L44.293,32.318L44.365,32.137L44.438,31.957L44.512,31.778L44.587,31.598L44.663,31.42L44.741,31.242L44.819,31.064L44.898,30.888L44.979,30.711L45.06,30.536L45.143,30.36L45.226,30.186L45.311,30.012L45.396,29.839L45.483,29.666L45.57,29.494L45.659,29.322L45.749,29.151L45.839,28.981L45.931,28.811L46.023,28.642L46.117,28.473L46.212,28.306L46.307,28.138L46.404,27.972L46.501,27.806L46.6,27.64L46.699,27.476L46.799,27.312L46.901,27.148L47.003,26.986L47.106,26.824L47.21,26.662L47.316,26.501L47.422,26.341L47.529,26.182L47.637,26.023L47.745,25.865L47.855,25.708L47.966,25.551L48.078,25.396L48.19,25.24L48.304,25.086L48.418,24.932L48.533,24.779L48.649,24.627L48.766,24.475L48.884,24.324L49.003,24.174L49.123,24.024L49.243,23.876L49.365,23.728L49.487,23.58L49.61,23.434L49.734,23.288L49.859,23.143L49.985,22.999L50.111,22.855L50.239,22.713L50.367,22.571L50.496,22.429L50.626,22.289L50.757,22.149L50.888,22.011L51.021,21.872L51.154,21.735L51.288,21.599L51.423,21.463L51.559,21.328L51.695,21.194L51.832,21.061L51.97,20.928L52.109,20.797L52.249,20.666L52.389,20.536L52.531,20.407L52.673,20.279L52.815,20.151L52.959,20.025L53.103,19.899L53.248,19.774L53.394,19.65L53.541,19.527L53.688,19.404L53.836,19.283L53.985,19.162L54.134,19.042L54.285,18.924L54.436,18.806L54.588,18.688L54.74,18.572L54.893,18.457L55.047,18.342L55.202,18.229L55.357,18.116L55.513,18.005L55.67,17.894L55.827,17.784L55.986,17.675L56.144,17.567L56.304,17.46L56.464,17.354L56.625,17.248L56.787,17.144L56.949,17.041L57.112,16.938L57.275,16.837L57.44,16.736L57.604,16.637L57.77,16.538L57.936,16.441L58.103,16.344L58.27,16.248L58.438,16.154L58.607,16.06L58.777,15.967L58.947,15.875L59.117,15.785L59.288,15.695L59.46,15.606L59.633,15.519L59.806,15.432L59.979,15.346L60.154,15.261L60.328,15.178L60.504,15.095L60.68,15.014L60.857,14.933L61.034,14.854L61.211,14.775L61.39,14.698L61.569,14.621L61.748,14.546L61.928,14.472L62.109,14.399L62.29,14.326L62.471,14.255L62.654,14.185L62.836,14.117L63.02,14.049L63.203,13.982L63.388,13.916L63.573,13.852L63.758,13.788L63.944,13.726L64.13,13.665L64.317,13.605L64.505,13.546L64.692,13.488L64.881,13.431L65.07,13.376L65.259,13.321L65.449,13.268L65.639,13.216L65.83,13.165L66.021,13.115L66.213,13.066L66.405,13.019L66.597,12.972L66.79,12.927L66.984,12.883L67.178,12.84L67.372,12.798L67.567,12.758L67.762,12.718L67.958,12.68L68.154,12.643L68.35,12.607L68.547,12.573L68.744,12.539L68.942,12.507L69.14,12.476L69.339,12.447L69.538,12.418L69.737,12.391L69.936,12.365L70.136,12.34L70.337,12.316L70.537,12.294L70.738,12.273L70.94,12.253L71.142,12.235L71.344,12.217L71.546,12.201L71.749,12.186L71.952,12.173L72.155,12.161L72.359,12.15L72.563,12.14L72.768,12.132L72.972,12.124L73.177,12.119L73.382,12.114L73.588,12.111L73.794,12.109L74,12.108L74.206,12.109ZM73.831,17.892L73.663,17.894L73.495,17.897L73.327,17.9L73.159,17.905L72.992,17.911L72.825,17.918L72.658,17.926L72.492,17.935L72.326,17.945L72.16,17.956L71.994,17.968L71.829,17.981L71.664,17.995L71.499,18.01L71.335,18.027L71.171,18.044L71.007,18.062L70.844,18.081L70.681,18.101L70.518,18.123L70.356,18.145L70.194,18.168L70.032,18.192L69.87,18.218L69.709,18.244L69.549,18.271L69.388,18.299L69.228,18.328L69.068,18.358L68.909,18.39L68.75,18.422L68.591,18.455L68.433,18.489L68.275,18.524L68.118,18.559L67.96,18.596L67.804,18.634L67.647,18.673L67.491,18.712L67.335,18.753L67.18,18.795L67.025,18.837L66.87,18.881L66.716,18.925L66.562,18.97L66.409,19.016L66.256,19.064L66.103,19.112L65.951,19.16L65.799,19.21L65.648,19.261L65.497,19.313L65.346,19.365L65.196,19.419L65.047,19.473L64.897,19.528L64.748,19.584L64.6,19.641L64.452,19.699L64.304,19.758L64.157,19.818L64.01,19.878L63.864,19.94L63.718,20.002L63.573,20.065L63.428,20.129L63.284,20.194L63.14,20.26L62.996,20.326L62.853,20.393L62.71,20.462L62.568,20.531L62.427,20.601L62.285,20.671L62.145,20.743L62.004,20.815L61.865,20.889L61.725,20.963L61.587,21.037L61.448,21.113L61.311,21.19L61.173,21.267L61.037,21.345L60.9,21.424L60.765,21.504L60.63,21.584L60.495,21.666L60.361,21.748L60.227,21.831L60.094,21.914L59.962,21.999L59.829,22.084L59.698,22.17L59.567,22.257L59.437,22.344L59.307,22.433L59.178,22.522L59.049,22.611L58.921,22.702L58.793,22.793L58.666,22.886L58.54,22.978L58.414,23.072L58.288,23.166L58.164,23.261L58.039,23.357L57.916,23.454L57.793,23.551L57.67,23.649L57.549,23.748L57.427,23.847L57.307,23.947L57.187,24.048L57.068,24.15L56.949,24.252L56.831,24.355L56.713,24.459L56.596,24.563L56.48,24.668L56.364,24.774L56.249,24.88L56.135,24.987L56.021,25.095L55.908,25.203L55.796,25.313L55.684,25.422L55.573,25.533L55.462,25.644L55.353,25.756L55.243,25.868L55.135,25.981L55.027,26.095L54.92,26.209L54.814,26.324L54.708,26.44L54.603,26.556L54.498,26.673L54.395,26.791L54.292,26.909L54.189,27.028L54.088,27.147L53.987,27.267L53.887,27.388L53.787,27.509L53.688,27.631L53.59,27.754L53.493,27.877L53.396,28L53.301,28.125L53.205,28.249L53.111,28.375L53.017,28.501L52.924,28.627L52.832,28.755L52.741,28.882L52.65,29.011L52.56,29.14L52.471,29.269L52.382,29.399L52.295,29.53L52.208,29.661L52.122,29.792L52.036,29.925L51.952,30.057L51.868,30.191L51.785,30.324L51.703,30.459L51.621,30.594L51.541,30.729L51.461,30.865L51.382,31.001L51.304,31.138L51.226,31.276L51.15,31.414L51.074,31.552L50.999,31.691L50.925,31.831L50.851,31.971L50.779,32.111L50.707,32.252L50.636,32.394L50.566,32.536L50.497,32.678L50.428,32.821L50.361,32.964L50.294,33.108L50.228,33.252L50.163,33.397L50.099,33.542L50.036,33.688L49.974,33.834L49.912,33.981L49.852,34.128L49.792,34.276L49.733,34.423L49.675,34.572L49.618,34.721L49.561,34.87L49.506,35.02L49.452,35.17L49.398,35.32L49.345,35.471L49.293,35.623L49.243,35.774L49.193,35.927L49.144,36.079L49.095,36.232L49.048,36.386L49.002,36.54L48.956,36.694L48.912,36.848L48.868,37.003L48.826,37.159L48.784,37.315L48.743,37.471L48.704,37.627L48.665,37.784L48.627,37.941L48.59,38.099L48.554,38.257L48.519,38.416L48.485,38.574L48.452,38.734L48.419,38.893L48.388,39.053L48.358,39.213L48.329,39.374L48.301,39.534L48.273,39.696L48.247,39.857L48.222,40.019L48.197,40.181L48.174,40.344L48.152,40.507L48.131,40.67L48.11,40.834L48.091,40.998L48.073,41.162L48.055,41.326L48.039,41.491L48.024,41.656L48.01,41.822L47.997,41.988L47.984,42.154L47.973,42.32L47.963,42.487L47.954,42.654L47.946,42.821L47.939,42.989L47.934,43.156L47.929,43.325L47.925,43.493L47.922,43.662L47.921,43.831L47.92,44L47.921,44.169L47.922,44.338L47.925,44.507L47.929,44.675L47.934,44.844L47.939,45.011L47.946,45.179L47.954,45.346L47.963,45.513L47.973,45.68L47.984,45.846L47.997,46.012L48.01,46.178L48.024,46.344L48.039,46.509L48.055,46.674L48.073,46.838L48.091,47.002L48.11,47.166L48.131,47.33L48.152,47.493L48.174,47.656L48.197,47.819L48.222,47.981L48.247,48.143L48.273,48.304L48.301,48.466L48.329,48.626L48.358,48.787L48.388,48.947L48.419,49.107L48.452,49.266L48.485,49.426L48.519,49.584L48.554,49.743L48.59,49.901L48.627,50.058L48.665,50.216L48.704,50.373L48.743,50.529L48.784,50.685L48.826,50.841L48.868,50.997L48.912,51.152L48.956,51.306L49.002,51.46L49.048,51.614L49.095,51.768L49.144,51.921L49.193,52.073L49.243,52.226L49.293,52.377L49.345,52.529L49.398,52.68L49.452,52.83L49.506,52.98L49.561,53.13L49.618,53.279L49.675,53.428L49.733,53.577L49.792,53.724L49.852,53.872L49.912,54.019L49.974,54.166L50.036,54.312L50.099,54.458L50.163,54.603L50.228,54.748L50.294,54.892L50.361,55.036L50.428,55.179L50.497,55.322L50.566,55.464L50.636,55.606L50.707,55.748L50.779,55.889L50.851,56.029L50.925,56.169L50.999,56.309L51.074,56.448L51.15,56.586L51.226,56.724L51.304,56.862L51.382,56.999L51.461,57.135L51.541,57.271L51.621,57.406L51.703,57.541L51.785,57.676L51.868,57.809L51.952,57.943L52.036,58.075L52.122,58.208L52.208,58.339L52.295,58.47L52.382,58.601L52.471,58.731L52.56,58.86L52.65,58.989L52.741,59.118L52.832,59.245L52.924,59.373L53.017,59.499L53.111,59.625L53.205,59.751L53.301,59.875L53.396,60L53.493,60.123L53.59,60.246L53.688,60.369L53.787,60.491L53.887,60.612L53.987,60.733L54.088,60.853L54.189,60.972L54.292,61.091L54.395,61.209L54.498,61.327L54.603,61.444L54.708,61.56L54.814,61.676L54.92,61.791L55.027,61.905L55.135,62.019L55.243,62.132L55.353,62.244L55.462,62.356L55.573,62.467L55.684,62.578L55.796,62.687L55.908,62.797L56.021,62.905L56.135,63.013L56.249,63.12L56.364,63.226L56.48,63.332L56.596,63.437L56.713,63.541L56.831,63.645L56.949,63.748L57.068,63.85L57.187,63.952L57.307,64.053L57.428,64.153L57.549,64.252L57.67,64.351L57.793,64.449L57.916,64.546L58.039,64.643L58.164,64.739L58.288,64.834L58.414,64.928L58.54,65.022L58.666,65.114L58.793,65.207L58.921,65.298L59.049,65.389L59.178,65.478L59.307,65.567L59.437,65.656L59.567,65.743L59.698,65.83L59.829,65.916L59.962,66.001L60.094,66.086L60.227,66.169L60.361,66.252L60.495,66.334L60.63,66.416L60.765,66.496L60.9,66.576L61.037,66.655L61.173,66.733L61.311,66.81L61.448,66.887L61.587,66.963L61.725,67.037L61.865,67.111L62.004,67.185L62.145,67.257L62.285,67.329L62.426,67.399L62.568,67.469L62.71,67.538L62.853,67.607L62.996,67.674L63.14,67.741L63.284,67.806L63.428,67.871L63.573,67.935L63.718,67.998L63.864,68.06L64.01,68.122L64.157,68.182L64.304,68.242L64.452,68.301L64.6,68.359L64.748,68.416L64.897,68.472L65.047,68.527L65.196,68.581L65.346,68.635L65.497,68.687L65.648,68.739L65.799,68.79L65.951,68.84L66.103,68.888L66.256,68.937L66.409,68.984L66.562,69.03L66.716,69.075L66.87,69.119L67.025,69.163L67.18,69.205L67.335,69.247L67.491,69.288L67.647,69.327L67.804,69.366L67.96,69.404L68.118,69.441L68.275,69.476L68.433,69.511L68.591,69.545L68.75,69.578L68.909,69.61L69.069,69.642L69.228,69.672L69.388,69.701L69.549,69.729L69.709,69.756L69.87,69.782L70.032,69.808L70.194,69.832L70.356,69.855L70.518,69.877L70.681,69.899L70.844,69.919L71.007,69.938L71.171,69.956L71.335,69.973L71.499,69.99L71.664,70.005L71.829,70.019L71.994,70.032L72.16,70.044L72.325,70.055L72.492,70.065L72.658,70.074L72.825,70.082L72.992,70.089L73.159,70.095L73.327,70.1L73.495,70.103L73.663,70.106L73.831,70.108L74,70.108L74.169,70.108L74.337,70.106L74.505,70.103L74.673,70.1L74.841,70.095L75.008,70.089L75.175,70.082L75.342,70.074L75.508,70.065L75.675,70.055L75.84,70.044L76.006,70.032L76.171,70.019L76.336,70.005L76.501,69.99L76.665,69.973L76.829,69.956L76.993,69.938L77.156,69.919L77.319,69.899L77.482,69.877L77.644,69.855L77.806,69.832L77.968,69.808L78.13,69.782L78.291,69.756L78.451,69.729L78.612,69.701L78.772,69.672L78.931,69.642L79.091,69.61L79.25,69.578L79.409,69.545L79.567,69.511L79.725,69.476L79.882,69.441L80.04,69.404L80.196,69.366L80.353,69.327L80.509,69.288L80.665,69.247L80.82,69.205L80.975,69.163L81.13,69.119L81.284,69.075L81.438,69.03L81.591,68.984L81.744,68.937L81.897,68.888L82.049,68.84L82.201,68.79L82.352,68.739L82.503,68.687L82.654,68.635L82.804,68.581L82.953,68.527L83.103,68.472L83.252,68.416L83.4,68.359L83.548,68.301L83.696,68.242L83.843,68.182L83.99,68.122L84.136,68.06L84.282,67.998L84.427,67.935L84.572,67.871L84.716,67.806L84.86,67.74L85.004,67.674L85.147,67.607L85.29,67.538L85.432,67.469L85.574,67.399L85.715,67.329L85.855,67.257L85.996,67.185L86.135,67.111L86.275,67.037L86.413,66.963L86.552,66.887L86.689,66.81L86.827,66.733L86.963,66.655L87.1,66.576L87.235,66.496L87.37,66.416L87.505,66.334L87.639,66.252L87.773,66.169L87.906,66.086L88.039,66.001L88.171,65.916L88.302,65.83L88.433,65.743L88.563,65.656L88.693,65.567L88.822,65.478L88.951,65.389L89.079,65.298L89.207,65.207L89.334,65.114L89.46,65.022L89.586,64.928L89.712,64.834L89.836,64.739L89.961,64.643L90.084,64.546L90.207,64.449L90.33,64.351L90.451,64.252L90.572,64.153L90.693,64.053L90.813,63.952L90.932,63.85L91.051,63.748L91.169,63.645L91.287,63.541L91.404,63.437L91.52,63.332L91.636,63.226L91.751,63.12L91.865,63.013L91.979,62.905L92.092,62.797L92.204,62.687L92.316,62.578L92.427,62.467L92.538,62.356L92.647,62.244L92.757,62.132L92.865,62.019L92.973,61.905L93.08,61.791L93.186,61.676L93.292,61.56L93.397,61.444L93.502,61.327L93.605,61.209L93.708,61.091L93.811,60.972L93.912,60.853L94.013,60.733L94.113,60.612L94.213,60.491L94.312,60.369L94.41,60.246L94.507,60.123L94.604,60L94.699,59.875L94.795,59.751L94.889,59.625L94.983,59.499L95.076,59.373L95.168,59.245L95.259,59.118L95.35,58.989L95.44,58.86L95.529,58.731L95.618,58.601L95.705,58.47L95.792,58.339L95.878,58.208L95.964,58.075L96.048,57.943L96.132,57.809L96.215,57.676L96.297,57.541L96.379,57.406L96.459,57.271L96.539,57.135L96.618,56.999L96.696,56.862L96.774,56.724L96.85,56.586L96.926,56.448L97.001,56.309L97.075,56.169L97.149,56.029L97.221,55.889L97.293,55.748L97.364,55.606L97.434,55.464L97.503,55.322L97.572,55.179L97.639,55.036L97.706,54.892L97.772,54.748L97.837,54.603L97.901,54.458L97.964,54.312L98.026,54.166L98.088,54.019L98.148,53.872L98.208,53.724L98.267,53.577L98.325,53.428L98.382,53.279L98.439,53.13L98.494,52.98L98.548,52.83L98.602,52.68L98.655,52.529L98.707,52.377L98.757,52.226L98.807,52.073L98.856,51.921L98.905,51.768L98.952,51.614L98.998,51.46L99.044,51.306L99.088,51.152L99.132,50.997L99.174,50.841L99.216,50.685L99.257,50.529L99.296,50.373L99.335,50.216L99.373,50.059L99.41,49.901L99.446,49.743L99.481,49.584L99.515,49.426L99.548,49.266L99.581,49.107L99.612,48.947L99.642,48.787L99.671,48.626L99.699,48.465L99.727,48.304L99.753,48.143L99.778,47.981L99.803,47.819L99.826,47.656L99.848,47.493L99.869,47.33L99.89,47.166L99.909,47.002L99.927,46.838L99.945,46.674L99.961,46.509L99.976,46.344L99.99,46.178L100.003,46.012L100.016,45.846L100.027,45.68L100.037,45.513L100.046,45.346L100.054,45.179L100.061,45.011L100.066,44.844L100.071,44.675L100.075,44.507L100.078,44.338L100.079,44.169L100.08,44L100.079,43.831L100.078,43.662L100.075,43.493L100.071,43.325L100.066,43.156L100.061,42.989L100.054,42.821L100.046,42.654L100.037,42.487L100.027,42.32L100.016,42.154L100.003,41.988L99.99,41.822L99.976,41.656L99.961,41.491L99.945,41.326L99.927,41.162L99.909,40.998L99.89,40.834L99.869,40.67L99.848,40.507L99.826,40.344L99.803,40.181L99.778,40.019L99.753,39.857L99.727,39.696L99.699,39.535L99.671,39.374L99.642,39.213L99.612,39.053L99.581,38.893L99.548,38.734L99.515,38.574L99.481,38.416L99.446,38.257L99.41,38.099L99.373,37.941L99.335,37.784L99.296,37.627L99.257,37.471L99.216,37.315L99.174,37.159L99.132,37.003L99.088,36.848L99.044,36.694L98.998,36.54L98.952,36.386L98.905,36.232L98.856,36.079L98.807,35.927L98.757,35.774L98.707,35.623L98.655,35.471L98.602,35.32L98.548,35.17L98.494,35.02L98.439,34.87L98.382,34.721L98.325,34.572L98.267,34.423L98.208,34.276L98.148,34.128L98.088,33.981L98.026,33.834L97.964,33.688L97.901,33.542L97.837,33.397L97.772,33.252L97.706,33.108L97.639,32.964L97.572,32.821L97.503,32.678L97.434,32.536L97.364,32.394L97.293,32.252L97.221,32.111L97.149,31.971L97.075,31.831L97.001,31.691L96.926,31.552L96.85,31.414L96.774,31.276L96.696,31.138L96.618,31.001L96.539,30.865L96.459,30.729L96.379,30.594L96.297,30.459L96.215,30.324L96.132,30.191L96.048,30.057L95.964,29.925L95.878,29.792L95.792,29.661L95.705,29.53L95.618,29.399L95.529,29.269L95.44,29.14L95.35,29.011L95.259,28.882L95.168,28.755L95.076,28.627L94.983,28.501L94.889,28.375L94.795,28.249L94.699,28.125L94.604,28L94.507,27.877L94.41,27.754L94.312,27.631L94.213,27.509L94.113,27.388L94.013,27.267L93.912,27.147L93.811,27.028L93.708,26.909L93.605,26.791L93.502,26.673L93.397,26.556L93.292,26.44L93.186,26.324L93.08,26.209L92.973,26.095L92.865,25.981L92.757,25.868L92.647,25.756L92.538,25.644L92.427,25.533L92.316,25.422L92.204,25.313L92.092,25.203L91.979,25.095L91.865,24.987L91.751,24.88L91.636,24.774L91.52,24.668L91.404,24.563L91.287,24.459L91.169,24.355L91.051,24.252L90.932,24.15L90.813,24.048L90.693,23.947L90.573,23.847L90.451,23.748L90.33,23.649L90.207,23.551L90.084,23.454L89.961,23.357L89.836,23.261L89.712,23.166L89.586,23.072L89.46,22.978L89.334,22.886L89.207,22.793L89.079,22.702L88.951,22.611L88.822,22.522L88.693,22.433L88.563,22.344L88.433,22.257L88.302,22.17L88.171,22.084L88.039,21.999L87.906,21.914L87.773,21.831L87.639,21.748L87.505,21.666L87.37,21.584L87.235,21.504L87.099,21.424L86.963,21.345L86.827,21.267L86.689,21.19L86.552,21.113L86.413,21.037L86.275,20.963L86.135,20.889L85.996,20.815L85.855,20.743L85.715,20.671L85.573,20.601L85.432,20.531L85.29,20.462L85.147,20.393L85.004,20.326L84.86,20.26L84.716,20.194L84.572,20.129L84.427,20.065L84.282,20.002L84.136,19.94L83.99,19.878L83.843,19.818L83.696,19.758L83.548,19.699L83.4,19.641L83.252,19.584L83.103,19.528L82.953,19.473L82.804,19.419L82.654,19.365L82.503,19.313L82.352,19.261L82.201,19.21L82.049,19.16L81.897,19.112L81.744,19.064L81.591,19.016L81.438,18.97L81.284,18.925L81.13,18.881L80.975,18.837L80.82,18.795L80.665,18.753L80.509,18.712L80.353,18.673L80.196,18.634L80.04,18.596L79.882,18.559L79.725,18.524L79.567,18.489L79.409,18.455L79.25,18.422L79.091,18.39L78.932,18.358L78.772,18.328L78.612,18.299L78.451,18.271L78.291,18.244L78.13,18.218L77.968,18.192L77.806,18.168L77.644,18.145L77.482,18.123L77.319,18.101L77.156,18.081L76.993,18.062L76.829,18.044L76.665,18.027L76.501,18.01L76.336,17.995L76.171,17.981L76.006,17.968L75.84,17.956L75.674,17.945L75.508,17.935L75.342,17.926L75.175,17.918L75.008,17.911L74.841,17.905L74.673,17.9L74.505,17.897L74.337,17.894L74.169,17.892L74,17.892L73.831,17.892Z" style="fill:rgb(222,44,104);"/>
        </g>
    </g>
</svg>
