<?xml version="1.0" encoding="UTF-8" standalone="no"?>
<svg
   xmlns:dc="http://purl.org/dc/elements/1.1/"
   xmlns:cc="http://creativecommons.org/ns#"
   xmlns:rdf="http://www.w3.org/1999/02/22-rdf-syntax-ns#"
   xmlns:svg="http://www.w3.org/2000/svg"
   xmlns="http://www.w3.org/2000/svg"
   xmlns:sodipodi="http://sodipodi.sourceforge.net/DTD/sodipodi-0.dtd"
   xmlns:inkscape="http://www.inkscape.org/namespaces/inkscape"
   version="1.2"
   width="140"
   height="100"
   viewBox="0 0 140 100"
   preserveAspectRatio="none"
   id="svg2"
   inkscape:version="0.48.4 r9939"
   sodipodi:docname="freifunk-muenster.svg">
  <metadata
     id="metadata50">
    <rdf:RDF>
      <cc:Work
         rdf:about="">
        <dc:format>image/svg+xml</dc:format>
        <dc:type
           rdf:resource="http://purl.org/dc/dcmitype/StillImage" />
        <dc:title></dc:title>
      </cc:Work>
    </rdf:RDF>
  </metadata>
  <defs
     id="defs48" />
  <sodipodi:namedview
     pagecolor="#ffffff"
     bordercolor="#666666"
     borderopacity="1"
     objecttolerance="10"
     gridtolerance="10"
     guidetolerance="10"
     inkscape:pageopacity="0"
     inkscape:pageshadow="2"
     inkscape:window-width="1366"
     inkscape:window-height="723"
     id="namedview46"
     showgrid="false"
     inkscape:zoom="1.430303"
     inkscape:cx="70.158898"
     inkscape:cy="82.5"
     inkscape:window-x="-4"
     inkscape:window-y="-1"
     inkscape:window-maximized="1"
     inkscape:current-layer="g8" />
  <!-- Designed by Monic Meisel and hand-coded as SVG by Alina Friedrichsen -->
  <g
     id="g8"
     transform="translate(0,-65)">
    <g
       id="g3820"
       transform="translate(24.470339,-56.631356)" />
    <g
       id="g3857"
       transform="matrix(0.95886022,0,0,0.95886022,-14.149933,55.533649)">
      <circle
         id="circle10"
         stroke-miterlimit="4"
         transform="matrix(1.477616,0,0,1.5065066,-3.122124,-2.4350016)"
         r="22"
         cy="54"
         cx="36"
         sodipodi:cx="36"
         sodipodi:cy="54"
         sodipodi:rx="22"
         sodipodi:ry="22"
         style="fill:none;stroke:#de2c68;stroke-width:1.14544892;stroke-miterlimit:4;stroke-opacity:1;stroke-dasharray:none"
         d="M 58,54 C 58,66.150264 48.150264,76 36,76 23.849736,76 14,66.150264 14,54 14,41.849736 23.849736,32 36,32 c 12.150264,0 22,9.849736 22,22 z" />
      <polygon
         id="polygon16"
         transform="matrix(1.4493674,0,0,1.3737988,-2.70016,2.5042672)"
         points="31,44 26,44 30,48 22,48 22,52 30,52 26,56 31,56 37,50 "
         style="fill:#ffcc33;fill-opacity:1" />
      <path
         d="m 60.570008,157.90847 4.900716,0 0,-45.5488 -4.900716,0 0,45.5488 z"
         style="fill:#ffcc33;fill-opacity:1;fill-rule:nonzero;stroke:none"
         id="path34"
         inkscape:connector-curvature="0"
         transform="translate(24.470339,-56.631356)" />
      <path
         d="m 67.33439,161.35961 4.900718,0 0,-60.93016 -4.900718,0 0,60.93016 z"
         style="fill:#ffcc33;fill-opacity:1;fill-rule:nonzero;stroke:none"
         id="path36"
         inkscape:connector-curvature="0"
         transform="translate(24.470339,-56.631356)" />
      <path
         d="m 74.098876,161.40424 4.900716,0 0,-74.609324 -4.900716,0 0,74.609324 z"
         style="fill:#ffcc33;fill-opacity:1;fill-rule:nonzero;stroke:none"
         id="path38"
         inkscape:connector-curvature="0"
         transform="translate(24.470339,-56.631356)" />
      <path
         d="m 80.863258,161.35961 4.900314,0 0,-74.564694 -4.900314,0 0,74.564694 z"
         style="fill:#ffcc33;fill-opacity:1;fill-rule:nonzero;stroke:none"
         id="path40"
         inkscape:connector-curvature="0"
         transform="translate(24.470339,-56.631356)" />
      <path
         d="m 87.62764,161.40424 4.900314,0 0,-74.609324 -4.900314,0 0,74.609324 z"
         style="fill:#ffcc33;fill-opacity:1;fill-rule:nonzero;stroke:none"
         id="path42"
         inkscape:connector-curvature="0"
         transform="translate(24.470339,-56.631356)" />
      <path
         d="m 94.39202,158.563 4.900715,0 0,-58.13355 -4.900715,0 0,58.13355 z"
         style="fill:#ffcc33;fill-opacity:1;fill-rule:nonzero;stroke:none"
         id="path44"
         inkscape:connector-curvature="0"
         transform="translate(24.470339,-56.631356)" />
      <a
         transform="matrix(1,0,0,0.75903225,24.470339,-29.556299)"
         id="a3817">
        <path
           inkscape:connector-curvature="0"
           id="path46"
           style="fill:#ffcc33;fill-opacity:1;fill-rule:nonzero;stroke:none"
           d="m 101.15651,173.28983 4.90031,0 0,-60.93016 -4.90031,0 0,60.93016 z" />
      </a>
      <circle
         id="circle12"
         stroke-miterlimit="4"
         transform="matrix(1.5950476,0,0,1.6223254,-10.072136,-9.1778182)"
         r="22"
         cy="44"
         cx="74"
         sodipodi:cx="74"
         sodipodi:cy="44"
         sodipodi:rx="22"
         sodipodi:ry="22"
         style="fill:none;stroke:#de2c68;stroke-width:1.06239557;stroke-miterlimit:4;stroke-opacity:1;stroke-dasharray:none"
         d="M 96,44 C 96,56.150264 86.150264,66 74,66 61.849736,66 52,56.150264 52,44 52,31.849736 61.849736,22 74,22 c 12.150264,0 22,9.849736 22,22 z" />
      <circle
         id="circle14"
         stroke-miterlimit="4"
         transform="matrix(1.5831269,0,0,1.5986441,-9.3397104,-8.1360194)"
         r="29"
         cy="44"
         cx="74"
         sodipodi:cx="74"
         sodipodi:cy="44"
         sodipodi:rx="29"
         sodipodi:ry="29"
         style="fill:none;stroke:#de2c68;stroke-width:5.81192684;stroke-miterlimit:4;stroke-opacity:1;stroke-dasharray:none"
         d="M 103,44 C 103,60.016258 90.016258,73 74,73 57.983742,73 45,60.016258 45,44 45,27.983742 57.983742,15 74,15 c 16.016258,0 29,12.983742 29,29 z" />
    </g>
  </g>
</svg>
