<?xml version="1.0" encoding="UTF-8" ?>
<!DOCTYPE svg PUBLIC "-//W3C//DTD SVG 1.1//EN" "http://www.w3.org/Graphics/SVG/1.1/DTD/svg11.dtd">
<svg width="1000pt" height="1000pt" viewBox="0 0 1000 1000" version="1.1" xmlns="http://www.w3.org/2000/svg">
<path fill="#ffffff" d=" M 0.00 0.00 L 482.44 0.00 C 404.40 2.54 327.02 23.81 258.69 61.63 C 212.71 86.98 170.76 119.63 134.91 157.98 C 80.14 216.19 39.67 287.77 18.20 364.77 C 7.48 403.07 1.34 442.67 0.00 482.42 L 0.00 0.00 Z" />
<path fill="#df0168" d=" M 482.44 0.00 L 517.58 0.00 C 602.44 2.75 686.50 27.71 759.03 71.88 C 798.89 96.02 835.35 125.79 867.01 159.97 C 913.91 210.47 950.25 270.76 972.78 335.90 C 989.16 383.02 998.35 432.65 1000.00 482.50 L 1000.00 517.56 C 997.13 606.10 970.04 693.72 922.32 768.38 C 882.52 830.94 828.69 884.47 765.89 923.89 C 730.89 945.89 693.16 963.58 653.79 976.19 C 610.49 990.35 565.18 997.98 519.71 1000.00 L 480.02 1000.00 C 451.30 998.54 422.63 995.32 394.51 989.16 C 338.26 977.11 284.16 955.17 235.38 924.69 C 176.91 888.21 126.14 839.54 87.17 782.71 C 33.76 705.30 3.23 612.45 0.00 518.47 L 0.00 482.42 C 1.34 442.67 7.48 403.07 18.20 364.77 C 39.67 287.77 80.14 216.19 134.91 157.98 C 170.76 119.63 212.71 86.98 258.69 61.63 C 327.02 23.81 404.40 2.54 482.44 0.00 Z" />
<path fill="#ffffff" d=" M 517.58 0.00 L 1000.00 0.00 L 1000.00 482.50 C 998.35 432.65 989.16 383.02 972.78 335.90 C 950.25 270.76 913.91 210.47 867.01 159.97 C 835.35 125.79 798.89 96.02 759.03 71.88 C 686.50 27.71 602.44 2.75 517.58 0.00 Z" />
<path fill="#ffffff" d=" M 486.38 19.52 C 577.24 16.77 668.75 40.50 746.64 87.41 C 811.86 126.33 867.51 181.00 907.74 245.40 C 942.95 301.66 966.37 365.29 975.72 431.01 C 984.03 488.42 981.87 547.32 969.36 603.98 C 951.89 683.61 913.49 758.46 859.26 819.31 C 806.02 879.40 737.39 925.72 661.79 952.73 C 614.28 969.74 564.05 979.08 513.62 980.48 C 447.67 982.37 381.32 970.63 320.15 945.84 C 253.43 918.92 192.88 876.76 144.52 823.50 C 91.78 765.69 53.44 694.81 34.20 618.95 C 11.77 531.13 14.74 436.96 42.99 350.82 C 65.07 282.78 102.86 220.02 152.17 168.25 C 196.78 121.53 250.82 83.82 310.18 58.31 C 365.74 34.34 425.91 21.18 486.38 19.52 Z" />
<path fill="#df0168" d=" M 489.32 48.38 C 556.16 46.70 623.40 60.07 684.41 87.50 C 766.42 123.94 836.71 185.82 883.78 262.17 C 918.03 317.61 939.99 380.59 947.61 445.31 C 953.43 494.83 951.21 545.31 940.73 594.09 C 930.80 640.55 913.36 685.39 889.44 726.43 C 848.77 796.12 789.06 854.53 718.42 893.56 C 677.61 916.09 633.30 932.33 587.54 941.27 C 541.09 950.44 493.23 952.13 446.23 946.60 C 350.31 935.38 258.32 892.27 188.79 825.18 C 181.88 819.44 176.08 812.56 169.88 806.10 C 114.65 747.19 76.08 672.94 59.25 593.98 C 41.06 509.20 47.68 419.18 78.74 338.17 C 93.23 300.08 112.90 263.95 137.17 231.20 C 151.33 211.94 167.24 194.01 184.08 177.06 C 190.47 171.46 196.35 165.30 202.87 159.84 C 254.40 114.41 316.62 81.29 382.97 63.55 C 417.65 54.28 453.44 49.16 489.32 48.38 Z" />
<path fill="#ffffff" d=" M 485.11 99.91 C 557.75 97.06 631.09 114.75 694.55 150.25 C 747.22 179.54 793.11 220.92 827.48 270.44 C 869.03 329.80 893.86 400.68 898.56 472.97 C 901.92 523.46 895.39 574.59 879.70 622.71 C 865.22 667.21 842.84 709.12 813.92 745.90 C 785.38 782.34 750.32 813.58 711.06 838.07 C 665.44 866.39 614.11 885.50 561.03 893.67 C 491.70 904.54 419.58 896.49 354.27 870.81 C 291.72 846.42 235.58 805.84 192.74 754.16 C 138.21 688.62 105.31 605.25 101.27 520.03 C 99.74 498.41 100.84 476.69 103.04 455.15 C 110.87 383.85 138.35 314.81 181.78 257.71 C 210.04 220.21 245.13 187.93 284.71 162.66 C 344.32 124.38 414.31 102.46 485.11 99.91 Z" />
<path fill="#ffcb05" d=" M 444.13 114.20 C 462.38 115.03 480.44 118.52 498.17 122.83 C 548.78 135.60 596.18 161.02 634.61 196.36 C 645.89 207.46 657.32 218.47 667.02 231.02 C 703.37 276.23 725.95 332.74 728.68 390.83 C 722.47 390.84 716.26 391.33 710.06 390.94 C 702.28 391.01 694.49 391.45 686.72 390.75 C 684.85 348.20 670.52 306.49 646.90 271.13 C 602.18 203.46 524.80 159.53 444.17 153.39 C 443.79 140.34 444.30 127.27 444.13 114.20 Z" />
<path fill="#ffcb05" d=" M 444.14 191.44 C 485.03 195.05 524.90 209.79 558.18 233.84 C 587.42 255.00 611.82 283.18 627.29 315.88 C 636.02 334.26 642.11 353.94 644.74 374.13 C 645.58 379.63 645.74 385.21 646.41 390.73 C 632.43 391.29 618.42 391.27 604.44 390.87 C 602.64 351.24 585.24 312.72 557.15 284.79 C 532.64 259.24 500.15 241.75 465.62 234.27 C 458.58 232.72 451.45 231.50 444.24 231.12 C 443.60 217.90 444.31 204.67 444.14 191.44 Z" />
<path fill="#ffcb05" d=" M 444.15 269.25 C 478.06 272.65 510.36 289.55 532.78 315.17 C 551.21 336.02 563.04 363.18 563.64 391.16 C 549.68 390.21 535.68 391.86 521.73 390.74 C 521.37 362.48 504.18 336.06 480.31 321.62 C 469.35 314.71 456.83 310.60 444.10 308.46 C 443.66 295.39 444.07 282.32 444.15 269.25 Z" />
<path fill="#000000" d=" M 319.13 326.17 C 322.92 320.65 332.14 320.74 336.12 325.98 C 338.12 328.47 339.95 331.79 338.91 335.06 C 335.38 349.78 330.89 364.26 327.09 378.91 C 344.45 378.43 361.64 374.26 379.06 375.67 C 381.89 375.94 385.13 376.85 386.28 379.77 C 387.45 383.99 386.80 389.33 382.86 391.91 C 377.30 395.54 370.33 395.06 363.99 395.56 C 352.26 396.54 340.53 397.66 328.90 399.50 C 325.87 399.92 322.87 400.63 320.00 401.71 C 316.27 414.61 313.52 427.77 310.62 440.88 C 308.52 451.49 305.89 462.12 305.69 472.98 C 306.15 478.87 306.01 485.44 309.68 490.43 C 313.50 495.12 320.29 495.52 325.79 494.31 C 334.23 491.85 341.47 486.55 348.31 481.20 C 352.69 477.82 356.58 473.52 361.90 471.60 C 364.24 471.06 367.28 471.29 368.54 473.67 C 370.55 477.27 368.85 481.59 367.00 484.89 C 362.41 492.42 355.60 498.26 348.74 503.67 C 338.34 511.76 325.33 517.20 311.97 516.44 C 303.37 516.16 294.42 512.72 289.46 505.36 C 282.54 495.36 282.70 482.53 283.47 470.88 C 285.70 449.80 292.13 429.47 295.45 408.56 C 295.70 406.58 295.67 404.58 295.57 402.60 C 287.03 401.68 278.17 405.42 269.90 401.95 C 263.70 399.81 260.93 391.96 263.36 386.14 C 264.43 383.57 267.46 382.63 270.03 382.63 C 279.04 382.50 288.06 382.68 297.07 382.57 C 300.72 382.75 302.86 379.16 303.91 376.15 C 307.77 365.51 310.47 354.49 313.23 343.52 C 314.81 337.64 315.47 331.23 319.13 326.17 Z" />
<path fill="#000000" d=" M 197.73 371.78 C 208.51 365.91 220.48 360.59 233.05 361.71 C 237.49 362.23 242.39 363.11 245.53 366.60 C 248.68 370.44 249.21 375.82 248.41 380.56 C 247.15 383.76 244.22 386.13 241.10 387.41 C 236.41 387.94 232.59 383.57 227.91 383.85 C 222.36 384.67 217.14 386.85 212.01 389.03 C 204.20 392.50 196.10 395.84 189.56 401.51 C 185.42 405.11 182.13 410.35 182.60 416.03 C 183.04 421.46 186.75 425.97 190.97 429.11 C 202.97 438.16 217.65 442.60 229.97 451.13 C 235.74 455.15 241.77 459.52 244.83 466.09 C 248.99 474.59 247.41 485.25 241.56 492.57 C 236.11 499.52 228.22 503.98 220.21 507.36 C 201.93 514.86 182.18 519.74 162.31 518.57 C 157.70 518.14 152.77 516.94 149.44 513.52 C 146.36 510.44 145.64 505.61 146.69 501.52 C 148.33 497.85 152.45 496.24 156.12 495.43 C 163.20 493.49 169.93 497.94 177.01 497.46 C 185.78 497.21 194.50 495.71 202.97 493.45 C 211.57 490.94 221.57 488.38 226.59 480.23 C 225.60 477.25 224.06 474.45 221.72 472.32 C 214.89 465.76 206.11 461.88 197.89 457.44 C 188.89 452.58 179.87 447.63 171.74 441.40 C 166.19 437.10 161.33 431.15 160.58 423.94 C 159.52 410.78 165.08 397.57 174.43 388.41 C 181.08 381.45 189.45 376.52 197.73 371.78 Z" />
<path fill="#000000" d=" M 418.91 447.95 C 423.09 442.20 431.47 442.38 437.48 444.78 C 437.67 446.88 437.70 449.00 437.62 451.13 C 433.53 450.39 427.77 448.09 425.19 452.76 C 423.75 456.67 423.57 461.09 424.25 465.21 C 427.92 465.16 431.61 465.04 435.27 465.45 C 435.33 467.45 435.32 469.46 435.25 471.47 C 431.45 471.79 427.64 471.67 423.83 471.71 C 423.73 484.97 424.01 498.23 423.69 511.49 C 421.23 511.71 418.77 511.71 416.32 511.57 C 415.48 507.77 415.83 503.87 415.78 500.02 C 415.76 490.58 415.81 481.14 415.75 471.70 C 413.31 471.69 410.87 471.68 408.43 471.56 C 408.29 469.49 408.28 467.41 408.41 465.34 C 410.83 465.18 413.26 465.15 415.70 465.15 C 415.97 459.37 415.47 452.95 418.91 447.95 Z" />
<path fill="#000000" d=" M 556.75 446.65 C 561.38 442.24 568.77 442.54 574.34 444.84 C 574.51 447.02 574.53 449.21 574.40 451.39 C 571.32 450.71 568.09 449.06 564.94 450.25 C 563.14 450.66 561.94 452.31 561.49 454.01 C 560.44 457.52 560.71 461.22 560.67 464.85 C 564.30 465.29 567.96 465.13 571.62 465.28 C 572.29 467.35 572.21 469.52 571.63 471.61 C 567.99 471.72 564.34 471.68 560.70 471.70 C 560.59 484.95 560.85 498.20 560.56 511.45 C 557.94 511.75 555.30 511.74 552.69 511.39 C 552.46 498.16 552.68 484.92 552.57 471.69 C 550.17 471.69 547.78 471.68 545.39 471.62 C 544.91 469.51 544.80 467.35 545.40 465.25 C 547.77 465.18 550.14 465.16 552.53 465.17 C 552.71 458.89 552.16 451.61 556.75 446.65 Z" />
<path fill="#000000" d=" M 686.37 511.48 C 686.15 488.90 686.05 466.29 686.42 443.71 C 688.88 443.99 692.60 442.31 694.15 444.92 C 694.47 458.18 694.10 471.45 694.33 484.71 C 699.75 478.64 705.25 472.64 710.74 466.63 C 713.21 463.94 717.24 464.71 720.41 465.43 C 720.41 465.92 720.40 466.90 720.39 467.39 C 714.81 473.35 708.84 478.93 703.18 484.82 C 709.66 493.18 716.26 501.46 722.48 510.02 C 722.20 510.42 721.62 511.21 721.33 511.60 C 718.34 511.45 714.27 512.81 712.38 509.71 C 706.31 501.88 700.31 493.98 694.34 486.07 C 694.12 494.16 694.44 502.26 694.18 510.35 C 692.67 512.98 688.82 511.19 686.37 511.48 Z" />
<path fill="#000000" d=" M 527.48 447.52 C 530.31 446.67 534.58 445.67 536.32 448.85 C 536.69 451.38 537.20 455.31 533.98 456.16 C 531.55 456.63 527.73 456.84 526.86 453.88 C 526.13 451.76 526.89 449.57 527.48 447.52 Z" />
<path fill="#000000" d=" M 860.60 453.51 C 863.19 453.14 865.83 453.14 868.44 453.50 C 868.60 457.36 868.52 461.22 868.57 465.09 C 872.81 465.25 877.07 465.01 881.31 465.42 C 881.37 467.43 881.35 469.45 881.27 471.48 C 877.04 471.82 872.80 471.65 868.57 471.69 C 868.56 480.45 868.47 489.22 868.60 497.98 C 868.68 500.88 869.71 504.40 872.83 505.31 C 875.69 505.87 878.45 504.58 881.23 504.11 C 881.33 505.80 881.41 507.49 881.48 509.19 C 881.13 509.69 880.42 510.70 880.07 511.21 C 875.35 512.63 869.90 513.09 865.52 510.41 C 861.75 508.02 860.68 503.25 860.55 499.08 C 860.41 489.95 860.56 480.82 860.48 471.69 C 858.10 471.68 855.73 471.68 853.36 471.64 C 852.59 469.54 852.64 467.34 853.36 465.24 C 855.72 465.17 858.08 465.16 860.46 465.17 C 860.52 461.28 860.45 457.39 860.60 453.51 Z" />
<path fill="#000000" d=" M 444.60 464.80 C 446.91 464.74 449.22 464.86 451.48 465.35 C 451.53 467.75 451.55 470.15 451.58 472.56 C 453.96 469.62 456.33 466.38 459.90 464.81 C 463.13 463.80 466.66 464.22 469.75 465.52 C 469.84 467.99 469.82 470.48 469.62 472.96 C 467.06 472.64 464.56 471.65 461.97 471.81 C 457.44 473.20 454.70 477.53 452.49 481.42 C 452.12 491.41 452.55 501.42 452.29 511.42 C 449.68 511.73 447.06 511.74 444.46 511.48 C 444.30 495.93 444.03 480.34 444.60 464.80 Z" />
<path fill="#000000" d=" M 481.60 469.69 C 487.09 464.18 495.65 463.14 502.90 465.09 C 512.80 468.04 517.43 480.26 514.41 489.57 C 504.06 490.14 493.68 489.68 483.31 489.83 C 483.27 494.52 484.10 499.86 487.98 502.99 C 491.56 506.00 496.50 505.95 500.91 505.67 C 505.22 505.42 509.11 503.38 513.25 502.38 C 513.36 504.26 513.56 506.16 513.30 508.05 C 511.15 510.24 508.00 510.85 505.13 511.52 C 497.62 513.19 489.07 512.87 482.60 508.32 C 477.95 504.69 475.63 498.80 475.24 493.04 C 474.30 484.93 475.62 475.72 481.60 469.69 Z" />
<path fill="#000000" d=" M 527.60 465.48 C 530.19 464.67 532.93 464.64 535.55 465.43 C 535.58 480.77 535.70 496.11 535.49 511.45 C 532.88 511.75 530.25 511.74 527.65 511.41 C 527.45 496.10 527.54 480.79 527.60 465.48 Z" />
<path fill="#000000" d=" M 610.59 465.47 C 613.20 464.66 615.96 464.62 618.59 465.42 C 618.62 480.78 618.77 496.15 618.51 511.51 C 616.18 511.69 613.85 511.70 611.53 511.51 C 611.42 509.23 611.39 506.95 611.36 504.67 C 607.49 508.58 602.73 512.35 596.96 512.43 C 592.15 512.70 587.05 510.84 584.21 506.83 C 581.33 502.83 580.95 497.71 580.74 492.96 C 580.73 483.81 580.71 474.67 580.76 465.52 C 583.37 464.65 586.12 464.61 588.77 465.40 C 588.94 474.27 588.72 483.14 588.87 492.01 C 589.18 495.36 589.16 498.99 591.11 501.90 C 593.31 505.38 598.25 506.45 601.87 504.67 C 605.44 503.14 607.95 500.04 610.54 497.27 C 610.57 486.67 610.48 476.07 610.59 465.47 Z" />
<path fill="#000000" d=" M 640.82 472.01 C 644.67 468.22 649.31 464.27 655.03 464.28 C 659.27 464.02 663.78 465.17 666.76 468.36 C 670.61 472.15 671.39 477.89 671.44 483.05 C 671.42 492.51 671.56 501.97 671.36 511.43 C 668.75 511.73 666.13 511.75 663.54 511.46 C 663.14 501.29 663.70 491.09 663.24 480.92 C 662.92 476.46 660.09 471.25 655.05 471.27 C 649.15 470.55 645.12 475.71 641.58 479.58 C 641.55 490.20 641.71 500.82 641.49 511.44 C 638.88 511.75 636.25 511.74 633.65 511.41 C 633.45 496.09 633.54 480.76 633.60 465.43 C 635.93 464.74 638.35 464.65 640.71 465.32 C 640.77 467.55 640.78 469.77 640.82 472.01 Z" />
<path fill="#000000" d=" M 764.23 471.91 C 768.54 467.33 774.43 463.27 781.05 464.35 C 788.71 464.47 794.25 471.69 794.43 478.98 C 794.82 489.79 794.66 500.63 794.52 511.46 C 791.90 511.74 789.28 511.75 786.68 511.40 C 786.47 502.03 786.68 492.65 786.57 483.28 C 786.55 480.04 785.93 476.66 783.94 474.03 C 781.61 471.04 777.25 470.64 773.89 471.81 C 770.22 473.59 766.96 476.45 764.90 479.98 C 764.53 490.47 765.02 500.98 764.66 511.47 C 762.19 511.70 759.72 511.72 757.27 511.57 C 756.87 509.72 756.65 507.85 756.71 505.97 C 756.78 492.47 756.68 478.98 756.77 465.49 C 759.20 464.67 761.75 464.66 764.19 465.51 C 764.20 467.64 764.22 469.77 764.23 471.91 Z" />
<path fill="#000000" d=" M 810.24 473.42 C 816.45 462.60 833.70 460.84 842.04 470.02 C 846.59 475.28 847.41 482.73 846.37 489.38 C 836.25 490.47 826.02 489.37 815.88 489.97 C 815.58 490.12 814.97 490.41 814.67 490.56 C 814.95 495.74 816.35 501.78 821.46 504.26 C 828.93 507.65 837.30 505.03 844.56 502.35 C 844.88 504.55 844.88 506.79 844.49 508.99 C 836.36 512.44 826.87 513.87 818.44 510.66 C 812.60 508.51 808.48 502.92 807.39 496.89 C 805.70 489.10 806.09 480.41 810.24 473.42 Z" />
<path fill="#ffffff" d=" M 487.97 473.12 C 492.66 469.26 500.72 469.39 504.58 474.39 C 506.75 477.00 506.91 480.53 507.46 483.73 C 499.40 484.15 491.32 483.91 483.25 484.12 C 483.50 480.08 484.78 475.82 487.97 473.12 Z" />
<path fill="#ffffff" d=" M 814.70 483.75 C 815.15 478.06 818.27 472.58 823.86 470.61 C 827.23 470.42 830.91 470.21 833.85 472.22 C 837.71 474.67 838.77 479.56 838.81 483.83 C 830.76 483.69 822.73 484.51 814.70 483.75 Z" />
<path fill="#000000" d=" M 391.65 501.62 C 393.49 500.23 395.88 500.64 398.03 500.59 C 398.61 500.95 399.76 501.67 400.34 502.03 C 400.69 504.69 401.14 507.49 400.27 510.10 C 398.34 512.88 394.45 511.58 391.61 511.45 C 390.28 508.42 389.56 504.44 391.65 501.62 Z" />
<path fill="#000000" d=" M 732.46 501.48 C 735.36 500.25 738.55 500.30 741.39 501.70 C 741.61 504.83 742.98 509.05 740.18 511.37 C 737.74 512.19 735.15 511.71 732.67 511.41 C 731.19 508.27 731.14 504.69 732.46 501.48 Z" />
<path fill="#ffffff" d=" M 922.32 768.38 C 970.04 693.72 997.13 606.10 1000.00 517.56 L 1000.00 1000.00 L 519.71 1000.00 C 565.18 997.98 610.49 990.35 653.79 976.19 C 693.16 963.58 730.89 945.89 765.89 923.89 C 828.69 884.47 882.52 830.94 922.32 768.38 Z" />
<path fill="#ffffff" d=" M 0.00 518.47 C 3.23 612.45 33.76 705.30 87.17 782.71 C 126.14 839.54 176.91 888.21 235.38 924.69 C 284.16 955.17 338.26 977.11 394.51 989.16 C 422.63 995.32 451.30 998.54 480.02 1000.00 L 0.00 1000.00 L 0.00 518.47 Z" />
<path fill="#df0168" d=" M 493.89 535.05 C 500.82 527.01 511.34 521.97 522.03 522.35 C 530.18 522.35 538.18 525.56 544.45 530.70 C 552.31 537.21 557.31 546.91 558.40 557.02 C 558.67 560.69 558.48 564.38 558.31 568.06 C 609.16 582.41 659.91 597.08 710.74 611.45 C 716.31 596.08 732.53 585.01 749.00 586.96 C 762.54 588.27 774.53 597.90 779.56 610.41 C 785.68 624.94 782.39 643.02 771.07 654.10 C 763.83 661.50 753.34 665.61 743.00 664.79 C 736.59 664.63 730.62 661.96 725.11 658.91 C 708.51 679.37 691.95 699.88 675.16 720.20 C 686.19 731.13 694.69 744.82 698.00 760.10 C 701.58 775.90 700.19 792.84 693.86 807.78 C 687.61 822.63 676.63 835.44 662.90 843.88 C 649.54 852.11 633.67 856.22 618.00 855.42 C 601.90 854.51 586.06 848.62 573.49 838.49 C 558.27 826.53 547.86 808.66 544.99 789.52 C 518.83 791.43 492.67 793.45 466.51 795.52 C 467.14 804.87 464.56 814.43 459.00 822.01 C 452.24 831.59 440.70 837.58 428.97 837.49 C 420.66 837.31 412.43 834.23 406.09 828.84 C 396.30 820.68 391.12 807.54 392.32 794.89 C 392.91 786.04 396.84 777.68 402.62 771.04 C 376.25 739.59 349.89 708.12 323.72 676.51 C 314.75 683.15 304.96 688.94 294.04 691.70 C 276.04 696.83 256.29 694.80 239.49 686.66 C 222.99 678.64 209.44 664.65 202.10 647.83 C 196.43 634.74 194.15 620.09 196.24 605.94 C 198.56 589.02 206.56 572.89 218.84 560.99 C 232.32 547.47 251.01 539.45 270.04 538.56 C 288.28 537.75 306.74 543.59 321.15 554.80 C 334.23 564.84 343.68 579.13 348.56 594.82 C 350.74 594.80 352.88 594.30 354.98 593.78 C 397.99 583.52 441.12 573.70 484.10 563.31 C 483.82 553.12 487.05 542.72 493.89 535.05 Z" />
<path fill="#ffffff" d=" M 510.15 527.29 C 520.60 523.41 532.91 525.40 541.67 532.27 C 552.22 540.17 557.17 554.03 555.45 566.94 C 554.03 566.68 552.60 566.40 551.20 566.16 C 551.86 556.82 549.78 546.79 543.15 539.83 C 536.50 532.04 525.45 528.10 515.43 530.53 C 506.33 532.42 498.65 539.15 494.76 547.47 C 492.63 551.88 492.02 556.79 491.59 561.60 C 490.08 561.99 488.58 562.37 487.09 562.75 C 486.23 547.63 495.73 532.36 510.15 527.29 Z" />
<path fill="#fffefe" d=" M 500.43 540.47 C 505.75 534.27 513.84 530.66 521.99 530.66 C 529.54 530.98 536.98 534.26 542.06 539.91 C 548.61 546.61 551.04 556.37 550.35 565.54 C 549.67 565.44 548.31 565.24 547.63 565.15 C 548.30 558.58 547.43 551.69 543.90 546.01 C 538.94 537.46 528.90 532.02 518.99 533.26 C 505.47 534.32 495.02 547.36 495.36 560.65 C 494.63 560.87 493.16 561.32 492.42 561.54 C 492.85 553.93 495.10 546.13 500.43 540.47 Z" />
<path fill="#ffffff" d=" M 242.57 551.53 C 255.71 545.34 270.79 542.94 285.15 545.51 C 302.94 548.35 319.50 558.21 330.44 572.53 C 336.07 579.62 339.95 587.92 342.76 596.49 C 339.77 597.31 336.75 598.04 333.74 598.76 C 329.76 585.61 321.71 573.64 310.53 565.57 C 297.33 555.84 280.15 551.60 263.95 554.32 C 250.15 556.47 237.16 563.46 227.82 573.87 C 216.60 585.88 210.73 602.60 211.59 618.98 C 212.33 633.13 218.06 646.97 227.59 657.47 C 239.25 670.42 256.56 678.30 274.06 677.84 C 288.23 678.13 302.11 672.77 313.13 664.02 C 315.36 666.58 317.50 669.22 319.64 671.85 C 306.56 682.50 289.86 688.65 272.96 688.51 C 257.15 688.31 241.38 682.89 228.99 673.02 C 214.89 662.03 205.21 645.54 202.47 627.87 C 200.20 615.12 201.97 601.82 206.67 589.81 C 213.29 573.15 226.36 559.20 242.57 551.53 Z" />
<path fill="#ffffff" d=" M 228.76 575.78 C 239.78 563.21 256.27 555.70 272.97 555.52 C 288.89 555.29 304.82 561.66 316.06 572.96 C 323.52 580.15 328.77 589.43 331.75 599.32 C 330.14 599.54 328.55 599.76 326.96 599.98 C 322.49 584.17 310.64 570.69 295.48 564.36 C 285.59 560.02 274.45 559.22 263.87 560.92 C 247.07 564.00 232.05 575.37 224.62 590.77 C 219.17 601.54 217.94 614.10 220.06 625.90 C 223.36 642.56 234.80 657.34 250.17 664.60 C 268.68 673.64 292.14 671.06 308.22 658.16 C 309.44 659.54 310.65 660.92 311.86 662.32 C 301.32 671.05 287.66 676.06 273.95 675.84 C 257.51 676.20 241.18 669.06 230.00 657.06 C 219.77 646.41 213.84 631.81 213.53 617.06 C 213.18 602.05 218.71 586.95 228.76 575.78 Z" />
<path fill="#fffefe" d=" M 493.19 567.53 C 493.89 567.42 495.30 567.20 496.01 567.09 C 497.34 571.83 499.46 576.45 502.96 580.01 C 505.12 582.40 507.98 583.95 510.48 585.95 C 510.38 586.45 510.18 587.46 510.08 587.97 C 506.25 587.66 503.51 584.58 500.93 582.06 C 496.97 578.09 494.72 572.83 493.19 567.53 Z" />
<path fill="#ffffff" d=" M 487.87 568.76 C 489.33 568.37 490.79 567.99 492.26 567.60 C 494.55 576.64 500.34 584.98 508.86 589.10 C 508.53 590.78 508.16 592.45 507.75 594.12 C 497.20 590.11 489.86 579.66 487.87 568.76 Z" />
<path fill="#ffffff" d=" M 350.17 600.95 C 395.13 590.63 439.99 579.83 484.94 569.45 C 487.25 581.30 495.22 591.84 506.14 597.07 C 503.72 604.04 500.86 610.85 498.27 617.76 C 477.84 617.45 457.40 617.50 436.98 616.78 C 408.50 616.63 380.03 615.86 351.56 615.52 C 351.47 610.63 350.66 605.80 350.17 600.95 Z" />
<path fill="#fffefe" d=" M 533.91 585.09 C 539.34 581.80 543.61 576.84 546.07 570.99 C 546.73 571.15 548.05 571.47 548.72 571.63 C 545.86 578.35 541.10 584.21 534.78 587.94 C 534.56 587.23 534.13 585.80 533.91 585.09 Z" />
<path fill="#ffffff" d=" M 549.34 572.09 C 550.86 572.30 552.39 572.53 553.92 572.78 C 551.28 581.36 545.31 589.00 537.30 593.17 C 536.63 591.71 535.95 590.25 535.28 588.81 C 541.49 584.77 546.70 579.09 549.34 572.09 Z" />
<path fill="#ffffff" d=" M 556.77 573.93 C 607.51 588.10 658.09 602.89 708.81 617.13 C 708.67 618.50 708.53 619.89 708.39 621.29 C 685.28 620.65 662.15 620.47 639.03 620.21 C 616.71 619.39 594.37 619.59 572.04 619.12 C 564.55 618.65 557.05 618.77 549.55 618.62 C 546.16 611.05 542.00 603.80 539.05 596.06 C 541.22 594.19 543.71 592.74 545.84 590.82 C 550.93 586.30 554.38 580.24 556.77 573.93 Z" />
<path fill="#fffefe" d=" M 515.21 590.56 C 515.53 589.84 516.18 588.42 516.50 587.70 C 520.30 588.45 524.14 587.91 527.96 587.68 C 528.29 588.33 528.95 589.65 529.28 590.31 C 524.62 591.02 519.89 591.08 515.21 590.56 Z" />
<path fill="#ffffff" d=" M 727.96 594.79 C 736.30 589.58 746.99 588.28 756.27 591.68 C 770.07 596.40 779.66 610.53 779.70 625.02 C 780.18 638.09 773.11 651.29 761.59 657.65 C 751.04 663.71 737.15 663.21 727.08 656.37 C 728.21 655.05 729.37 653.76 730.53 652.47 C 738.73 657.33 749.29 658.10 757.88 653.78 C 770.25 647.99 777.28 633.22 774.67 619.94 C 773.09 610.29 766.79 601.39 757.88 597.21 C 749.30 592.93 738.60 593.53 730.50 598.63 C 724.75 602.00 720.65 607.54 717.99 613.55 C 716.45 613.10 714.92 612.65 713.39 612.21 C 716.50 605.19 721.34 598.82 727.96 594.79 Z" />
<path fill="#ffffff" d=" M 514.82 591.56 C 519.85 591.81 524.90 591.82 529.91 591.31 C 530.56 592.76 531.21 594.21 531.87 595.66 C 525.82 597.79 519.25 597.99 513.04 596.40 C 513.63 594.78 514.23 593.17 514.82 591.56 Z" />
<path fill="#fffefe" d=" M 718.94 614.55 C 723.19 599.93 740.82 591.43 754.96 596.95 C 768.84 601.79 777.04 617.99 773.59 632.10 C 771.69 641.14 765.61 649.36 757.08 653.14 C 748.91 657.09 739.13 656.12 731.23 652.00 C 731.62 651.34 732.40 650.03 732.79 649.37 C 741.20 653.89 752.10 653.84 759.98 648.19 C 770.77 641.02 774.75 625.90 769.69 614.13 C 766.49 606.27 759.42 599.98 751.08 598.17 C 740.96 595.65 729.79 600.57 724.22 609.25 C 722.63 611.17 722.13 614.71 718.94 614.55 Z" />
<path fill="#ffffff" d=" M 511.84 599.26 C 518.89 601.04 526.32 600.82 533.21 598.46 C 536.46 605.12 539.58 611.85 542.82 618.52 C 530.14 618.43 517.46 618.26 504.79 618.08 C 506.83 611.69 509.54 605.55 511.84 599.26 Z" />
<path fill="#ffffff" d=" M 335.15 604.59 C 338.15 603.86 341.16 603.16 344.17 602.45 C 344.75 606.76 345.45 611.07 345.57 615.44 C 342.34 615.41 339.12 615.37 335.89 615.31 C 335.76 611.73 335.52 608.15 335.15 604.59 Z" />
<path fill="#ffffff" d=" M 328.42 605.91 C 330.01 605.68 331.60 605.45 333.20 605.24 C 333.54 608.58 333.75 611.94 333.85 615.31 C 332.31 615.29 330.77 615.28 329.24 615.28 C 328.86 612.16 328.60 609.04 328.42 605.91 Z" />
<path fill="#fefafc" d=" M 711.65 618.09 C 714.19 618.82 716.73 619.56 719.32 620.13 C 719.41 620.45 719.57 621.07 719.66 621.38 C 716.91 621.28 714.16 621.31 711.42 621.34 C 711.49 620.25 711.57 619.16 711.65 618.09 Z" />
<path fill="#ffffff" d=" M 335.77 621.35 C 339.00 621.36 342.23 621.40 345.46 621.48 C 344.64 628.52 343.18 635.48 340.87 642.19 C 337.83 641.08 334.90 639.74 331.99 638.34 C 333.67 632.78 335.22 627.16 335.77 621.35 Z" />
<path fill="#ffffff" d=" M 328.74 621.26 C 330.41 621.27 332.09 621.29 333.77 621.33 C 333.18 626.75 331.86 632.05 330.10 637.21 C 328.49 636.54 326.89 635.87 325.29 635.21 C 326.88 630.68 328.07 626.01 328.74 621.26 Z" />
<path fill="#ffffff" d=" M 351.47 621.51 C 368.99 621.54 386.50 622.30 404.03 622.40 C 434.64 622.65 465.24 623.55 495.85 623.76 C 486.00 649.75 475.69 675.57 465.83 701.57 C 425.87 682.90 386.11 663.80 346.18 645.06 C 348.90 637.45 350.73 629.56 351.47 621.51 Z" />
<path fill="#ffffff" d=" M 471.19 704.18 C 481.69 677.38 491.80 650.43 502.55 623.73 C 516.96 624.67 531.41 624.16 545.84 624.65 C 558.82 652.48 572.49 679.99 585.37 707.87 C 568.83 716.74 552.34 725.72 535.88 734.74 C 514.26 724.69 492.74 714.39 471.19 704.18 Z" />
<path fill="#ffffff" d=" M 552.42 624.68 C 568.89 624.83 585.36 625.51 601.84 625.51 C 621.57 625.56 641.27 626.39 661.00 626.47 C 676.71 626.58 692.42 626.86 708.12 627.33 C 708.37 631.61 709.26 635.81 710.50 639.91 C 670.55 661.47 630.72 683.23 590.81 704.85 C 577.94 678.16 565.27 651.38 552.42 624.68 Z" />
<path fill="#ffffff" d=" M 711.00 627.38 C 712.16 627.36 714.48 627.33 715.64 627.31 C 716.21 630.27 716.73 633.26 717.47 636.20 C 715.94 636.87 714.43 637.56 712.92 638.25 C 712.01 634.68 711.30 631.05 711.00 627.38 Z" />
<path fill="#fffefe" d=" M 716.53 627.53 C 717.21 627.48 718.59 627.39 719.28 627.34 C 719.72 629.76 720.25 632.18 720.74 634.60 C 720.03 634.68 718.60 634.83 717.89 634.91 C 717.49 632.44 717.02 629.98 716.53 627.53 Z" />
<path fill="#fefafc" d=" M 720.85 640.62 C 721.52 640.51 722.85 640.29 723.52 640.18 C 724.95 642.04 726.47 643.84 727.99 645.64 C 727.36 646.48 726.72 647.31 726.08 648.13 C 724.03 645.85 722.19 643.38 720.85 640.62 Z" />
<path fill="#ffffff" d=" M 313.06 654.10 C 316.63 649.93 319.76 645.43 322.91 640.95 C 324.54 641.42 326.10 642.11 327.67 642.77 C 324.66 648.46 320.80 653.63 316.46 658.37 C 315.23 657.03 313.76 655.82 313.06 654.10 Z" />
<path fill="#ffffff" d=" M 715.82 643.65 C 717.19 642.98 718.58 642.33 719.97 641.68 C 721.74 644.17 723.63 646.58 725.66 648.88 C 724.63 650.13 723.60 651.38 722.60 652.65 C 719.74 650.14 717.23 647.20 715.82 643.65 Z" />
<path fill="#ffffff" d=" M 329.30 643.89 C 332.34 645.08 335.28 646.48 338.22 647.91 C 334.72 655.29 329.79 661.90 324.11 667.74 C 322.16 665.12 319.40 662.98 318.10 659.95 C 321.91 654.69 326.50 649.87 329.30 643.89 Z" />
<path fill="#ffffff" d=" M 612.76 699.71 C 646.22 681.68 679.56 663.42 713.00 645.35 C 715.11 648.89 717.70 652.11 720.59 655.05 C 703.96 675.50 687.24 695.87 670.73 716.42 C 657.34 706.23 640.92 699.87 624.03 699.52 C 620.27 699.45 616.51 699.66 612.76 699.71 Z" />
<path fill="#ffffff" d=" M 328.23 672.25 C 334.33 665.69 339.82 658.53 343.79 650.46 C 383.65 669.46 423.56 688.36 463.52 707.14 C 456.60 725.38 449.50 743.54 442.39 761.70 C 433.96 758.57 424.36 758.41 416.01 761.92 C 412.78 763.13 410.02 765.24 406.97 766.80 C 382.82 738.35 359.08 709.51 335.08 680.92 C 332.85 677.98 330.00 675.49 328.23 672.25 Z" />
<path fill="#ffffff" d=" M 593.93 711.13 C 606.85 706.00 621.18 703.95 634.90 706.73 C 646.24 708.90 657.50 713.42 666.24 721.09 C 665.08 723.77 662.95 725.84 661.11 728.05 C 643.56 714.01 618.42 710.50 597.78 719.51 C 596.42 716.74 595.11 713.97 593.93 711.13 Z" />
<path fill="#ffffff" d=" M 468.93 709.95 C 489.11 719.09 508.98 728.91 529.09 738.23 C 506.11 750.97 482.99 763.47 459.83 775.87 C 456.71 771.28 452.63 767.45 447.99 764.42 C 454.68 746.16 462.04 728.14 468.93 709.95 Z" />
<path fill="#ffffff" d=" M 557.79 745.22 C 564.30 731.89 575.28 720.78 588.42 713.93 C 589.71 716.58 591.19 719.18 592.02 722.04 C 581.34 728.67 572.05 737.72 566.43 749.09 C 563.50 747.92 560.63 746.59 557.79 745.22 Z" />
<path fill="#ffffff" d=" M 598.85 721.11 C 618.89 712.82 643.21 715.97 659.98 729.88 C 658.54 731.11 657.13 734.09 655.22 731.79 C 639.81 720.16 618.23 717.84 600.58 725.52 C 599.99 724.05 599.40 722.58 598.85 721.11 Z" />
<path fill="#ffffff" d=" M 568.17 750.18 C 573.70 739.18 582.51 729.79 593.39 723.95 C 593.91 725.28 594.49 726.61 594.90 728.00 C 593.25 729.73 591.07 730.81 589.19 732.27 C 582.29 737.50 576.71 744.39 572.91 752.16 C 571.32 751.50 569.74 750.83 568.17 750.18 Z" />
<path fill="#ffffff" d=" M 666.36 731.37 C 667.75 729.11 669.61 727.20 671.26 725.14 C 682.30 735.33 689.84 749.15 692.65 763.89 C 696.18 782.33 692.30 802.10 681.72 817.65 C 666.34 841.01 636.52 853.77 609.03 848.26 C 579.77 843.35 555.12 818.34 551.07 788.88 C 554.40 788.67 557.73 788.49 561.07 788.35 C 564.28 805.24 574.78 820.52 589.39 829.58 C 599.10 835.60 610.48 839.05 621.94 838.84 C 641.37 839.36 660.54 829.59 672.05 814.03 C 680.06 803.44 684.47 790.22 684.48 776.96 C 684.58 761.30 678.51 745.63 667.64 734.32 C 667.04 733.45 665.69 732.55 666.36 731.37 Z" />
<path fill="#ffffff" d=" M 562.17 727.33 C 558.46 732.16 555.04 737.21 552.17 742.58 C 549.02 741.03 545.84 739.53 542.69 738.00 C 549.04 734.20 555.62 730.78 562.17 727.33 Z" />
<path fill="#ffffff" d=" M 662.23 737.72 C 661.71 735.95 663.61 734.89 664.46 733.62 C 673.53 742.95 680.01 754.94 681.80 767.90 C 684.66 786.08 678.47 805.43 665.55 818.55 C 654.38 830.26 638.26 837.21 622.04 836.84 C 607.74 837.06 593.53 831.60 582.79 822.21 C 572.66 813.46 565.62 801.27 563.12 788.12 C 564.91 787.90 566.71 787.70 568.52 787.53 C 571.99 802.10 581.06 815.34 593.99 823.06 C 605.93 830.49 620.74 832.55 634.42 829.72 C 651.43 826.06 666.24 813.74 673.05 797.75 C 680.29 781.26 678.61 761.28 668.75 746.22 C 666.89 743.15 664.33 740.61 662.23 737.72 Z" />
<path fill="#ffffff" d=" M 463.02 781.04 C 487.37 767.92 511.63 754.65 535.95 741.48 C 540.51 743.71 545.11 745.88 549.73 747.99 C 545.28 759.23 543.41 771.37 544.26 783.43 C 518.10 785.61 491.91 787.36 465.75 789.54 C 464.89 786.69 463.94 783.86 463.02 781.04 Z" />
<path fill="#ffffff" d=" M 550.23 782.88 C 549.53 771.95 551.18 760.96 555.09 750.74 C 558.07 751.99 561.01 753.35 563.93 754.75 C 560.75 763.57 559.63 772.97 560.29 782.31 C 556.93 782.51 553.58 782.70 550.23 782.88 Z" />
<path fill="#ffffff" d=" M 562.29 781.92 C 561.71 773.06 562.63 764.09 565.78 755.76 C 567.36 756.44 568.94 757.13 570.53 757.83 C 567.93 765.48 567.03 773.62 567.65 781.67 C 565.86 781.75 564.07 781.83 562.29 781.92 Z" />
<path fill="#ffffff" d=" M 411.55 767.52 C 420.09 762.02 431.23 760.78 440.75 764.33 C 440.69 765.76 440.44 767.17 440.25 768.60 C 435.30 767.44 430.15 766.09 425.06 767.21 C 420.18 767.90 415.78 770.22 411.69 772.84 C 410.91 771.82 410.07 770.86 409.41 769.78 C 409.33 768.54 410.79 768.19 411.55 767.52 Z" />
<path fill="#fefafc" d=" M 412.97 772.98 C 420.03 768.47 428.84 766.19 437.04 768.74 C 438.72 768.64 438.72 770.45 439.10 771.59 C 430.54 768.84 420.92 770.00 413.69 775.50 C 413.51 774.87 413.15 773.61 412.97 772.98 Z" />
<path fill="#ffffff" d=" M 445.29 771.68 C 445.74 770.14 446.24 768.62 446.74 767.12 C 450.82 769.91 454.61 773.20 457.24 777.44 C 456.37 777.87 454.61 778.72 453.73 779.15 L 454.80 779.53 C 453.34 779.85 451.89 780.18 450.45 780.58 C 448.17 777.99 445.20 775.93 443.63 772.78 C 447.46 773.34 449.86 776.65 452.07 779.49 C 452.44 779.01 452.82 778.55 453.20 778.09 C 450.37 776.20 448.00 773.73 445.29 771.68 Z" />
<path fill="#ffffff" d=" M 395.43 792.93 C 396.40 785.71 399.63 778.79 404.62 773.47 C 405.58 774.62 406.55 775.79 407.53 776.96 C 401.38 784.35 398.36 794.51 400.39 804.01 C 402.17 814.35 409.66 823.54 419.47 827.31 C 424.36 829.32 429.79 828.79 434.94 828.55 C 445.11 826.77 453.61 818.79 457.19 809.26 C 458.92 805.04 458.64 800.39 459.62 796.01 C 460.63 795.88 462.66 795.63 463.67 795.50 C 464.46 806.70 460.19 818.27 451.70 825.74 C 441.85 834.95 426.22 837.18 414.29 830.75 C 400.63 823.97 393.10 807.83 395.43 792.93 Z" />
<path fill="#ffffff" d=" M 400.87 794.04 C 401.80 788.26 403.92 782.47 407.93 778.11 C 411.05 778.10 408.46 780.79 408.00 782.05 C 399.96 793.77 402.68 811.41 414.17 819.91 C 423.10 827.03 436.83 826.87 445.56 819.50 C 452.53 814.02 456.11 805.15 455.98 796.39 C 456.63 796.37 457.92 796.33 458.57 796.31 C 458.32 805.02 455.66 814.04 449.07 820.08 C 441.66 827.84 429.66 829.86 419.74 826.42 C 406.97 821.68 398.96 807.40 400.87 794.04 Z" />
<path fill="#ffffff" d=" M 456.44 784.41 C 457.78 783.91 459.11 783.22 460.57 783.18 C 461.53 785.26 462.13 787.47 462.82 789.67 C 461.20 789.72 459.58 789.76 457.96 789.81 C 457.49 787.99 456.97 786.20 456.44 784.41 Z" />
<path fill="#fefafc" d=" M 454.82 790.23 C 454.63 788.57 452.69 786.35 454.86 785.28 C 457.13 785.73 456.34 788.73 456.97 790.43 C 456.43 790.38 455.36 790.28 454.82 790.23 Z" />
</svg>
