<?xml version="1.0" encoding="UTF-8" standalone="no"?>
<!-- Created with Inkscape (http://www.inkscape.org/) -->

<svg
   xmlns:dc="http://purl.org/dc/elements/1.1/"
   xmlns:cc="http://creativecommons.org/ns#"
   xmlns:rdf="http://www.w3.org/1999/02/22-rdf-syntax-ns#"
   xmlns:svg="http://www.w3.org/2000/svg"
   xmlns="http://www.w3.org/2000/svg"
   xmlns:xlink="http://www.w3.org/1999/xlink"
   xmlns:sodipodi="http://sodipodi.sourceforge.net/DTD/sodipodi-0.dtd"
   xmlns:inkscape="http://www.inkscape.org/namespaces/inkscape"
   id="svg2"
   version="1.1"
   inkscape:version="0.48.4 r9939"
   width="526.17499"
   height="372.04999"
   xml:space="preserve"
   sodipodi:docname="Vorderseite_qr.svg"
   inkscape:export-filename="/home/tobias/Documents/freifunk/git/pr/Postkarte/vorderseite_qr.png"
   inkscape:export-xdpi="600"
   inkscape:export-ydpi="600"><metadata
     id="metadata8"><rdf:RDF><cc:Work
         rdf:about=""><dc:format>image/svg+xml</dc:format><dc:type
           rdf:resource="http://purl.org/dc/dcmitype/StillImage" /><dc:title></dc:title></cc:Work></rdf:RDF></metadata><defs
     id="defs6"><clipPath
       clipPathUnits="userSpaceOnUse"
       id="clipPath18"><path
         d="m 0,0 0,2976 4209,0 L 4209,0 0,0 z"
         id="path20"
         inkscape:connector-curvature="0" /></clipPath><clipPath
       clipPathUnits="userSpaceOnUse"
       id="clipPath24"><path
         d="m 4259.05,-27.5195 -4308.6555,0 0,3075.2695 4308.6555,0 0,-3075.2695 m -525.56,2106.1495 0,0 14.09,14.04 0,0.01 c -16.28,16.34 -37.75,24.57 -59.13,24.57 l -0.05,0 0,0 0,0 -0.05,0 c -21.29,0 -42.67,-8.15 -58.93,-24.37 l 14.04,-14.09 c 12.45,12.4 28.65,18.56 44.94,18.57 16.36,-0.01 32.63,-6.23 45.09,-18.73 m 23.18,23.1 0,0 14.09,14.04 c -22.68,22.76 -52.53,34.19 -82.31,34.19 l -0.04,0 0,0 0,0 -0.05,0 c -29.64,0 -59.38,-11.32 -82.03,-33.91 l 0,0 14.04,-14.09 c 18.84,18.77 43.39,28.1 68.04,28.11 24.75,-0.01 49.41,-9.43 68.26,-28.35 m -68.27,61.07 c 33.14,-0.02 66.19,-12.65 91.44,-37.97 l 14.09,14.04 0,0 c -29.07,29.18 -67.32,43.82 -105.48,43.82 -0.02,0 -0.04,0 -0.05,0 -0.02,0 -0.03,0 -0.05,0 -37.99,0 -76.07,-14.51 -105.11,-43.45 l 0,0 14.04,-14.09 c 25.22,25.12 58.12,37.63 91.12,37.65"
         id="path26"
         inkscape:connector-curvature="0" /></clipPath><linearGradient
       x1="0"
       y1="0"
       x2="1"
       y2="0"
       gradientUnits="userSpaceOnUse"
       gradientTransform="matrix(0,307.526,307.526,0,210.375,-2.75203)"
       spreadMethod="pad"
       id="linearGradient28"><stop
         style="stop-opacity:1;stop-color:#ffffff"
         offset="0"
         id="stop30" /><stop
         style="stop-opacity:1;stop-color:#fbc52c"
         offset="1"
         id="stop32" /></linearGradient><clipPath
       clipPathUnits="userSpaceOnUse"
       id="clipPath42"><path
         d="m 163.488,2893.7 655.016,0 0,-496.06 -655.016,0 0,496.06 z"
         id="path44"
         inkscape:connector-curvature="0" /></clipPath><clipPath
       clipPathUnits="userSpaceOnUse"
       id="clipPath64"><path
         d="m 3583.24,2182.68 210.69,0 0,-165.36 -210.69,0 0,165.36"
         id="path66"
         inkscape:connector-curvature="0" /></clipPath><clipPath
       clipPathUnits="userSpaceOnUse"
       id="clipPath76"><path
         d="m 3733.49,2078.63 0,0 c -12.46,12.5 -28.73,18.72 -45.09,18.73 -16.29,-0.01 -32.49,-6.17 -44.94,-18.57 l -14.04,14.09 c 16.26,16.22 37.64,24.37 58.93,24.37 l 0.05,0 0,0 0,0 0.05,0 c 21.38,0 42.85,-8.23 59.13,-24.57 l 0,-0.01 -14.09,-14.04"
         id="path78"
         inkscape:connector-curvature="0" /></clipPath><linearGradient
       x1="0"
       y1="0"
       x2="1"
       y2="0"
       gradientUnits="userSpaceOnUse"
       gradientTransform="matrix(0,307.526,307.526,0,210.375,-2.75203)"
       spreadMethod="pad"
       id="linearGradient80"><stop
         style="stop-opacity:1;stop-color:#e94a86"
         offset="0"
         id="stop82" /><stop
         style="stop-opacity:1;stop-color:#e9436c"
         offset="1"
         id="stop84" /></linearGradient><clipPath
       clipPathUnits="userSpaceOnUse"
       id="clipPath92"><path
         d="m 3756.67,2101.73 0,0 c -18.85,18.91 -43.51,28.33 -68.26,28.34 -24.65,-0.01 -49.2,-9.34 -68.04,-28.11 l -14.04,14.09 0,0 c 22.65,22.59 52.39,33.91 82.03,33.91 l 0.05,0 0,0 0,0 0.04,0 c 29.78,0 59.63,-11.43 82.31,-34.19 l 0,0 -14.09,-14.04"
         id="path94"
         inkscape:connector-curvature="0" /></clipPath><linearGradient
       x1="0"
       y1="0"
       x2="1"
       y2="0"
       gradientUnits="userSpaceOnUse"
       gradientTransform="matrix(0,307.526,307.526,0,210.375,-2.75203)"
       spreadMethod="pad"
       id="linearGradient96"><stop
         style="stop-opacity:1;stop-color:#ef759f"
         offset="0"
         id="stop98" /><stop
         style="stop-opacity:1;stop-color:#ee6562"
         offset="1"
         id="stop100" /></linearGradient><clipPath
       clipPathUnits="userSpaceOnUse"
       id="clipPath108"><path
         d="m 3779.84,2124.82 c -25.25,25.32 -58.3,37.95 -91.44,37.97 -33,-0.02 -65.9,-12.53 -91.12,-37.65 l -14.04,14.09 0,0 c 29.04,28.94 67.12,43.45 105.11,43.45 0.02,0 0.03,0 0.05,0 0.01,0 0.03,0 0.05,0 38.16,0 76.41,-14.64 105.48,-43.82 l 0,0 -14.09,-14.04"
         id="path110"
         inkscape:connector-curvature="0" /></clipPath><linearGradient
       x1="0"
       y1="0"
       x2="1"
       y2="0"
       gradientUnits="userSpaceOnUse"
       gradientTransform="matrix(0,307.526,307.526,0,210.375,-2.75203)"
       spreadMethod="pad"
       id="linearGradient112"><stop
         style="stop-opacity:1;stop-color:#f4a2bb"
         offset="0"
         id="stop114" /><stop
         style="stop-opacity:1;stop-color:#f28655"
         offset="1"
         id="stop116" /></linearGradient><clipPath
       clipPathUnits="userSpaceOnUse"
       id="clipPath134"><path
         d="m 3462.09,1353.86 545.109,0 0,713.07 -545.109,0 0,-713.07 z"
         id="path136"
         inkscape:connector-curvature="0" /></clipPath><linearGradient
       inkscape:collect="always"
       xlink:href="#linearGradient28"
       id="linearGradient3110"
       gradientUnits="userSpaceOnUse"
       gradientTransform="matrix(0,307.526,307.526,0,210.375,-2.75203)"
       spreadMethod="pad"
       x1="0"
       y1="0"
       x2="1"
       y2="0" /><linearGradient
       inkscape:collect="always"
       xlink:href="#linearGradient80"
       id="linearGradient3232"
       gradientUnits="userSpaceOnUse"
       gradientTransform="matrix(0,307.526,307.526,0,210.375,-2.75203)"
       spreadMethod="pad"
       x1="0"
       y1="0"
       x2="1"
       y2="0" /><linearGradient
       inkscape:collect="always"
       xlink:href="#linearGradient96"
       id="linearGradient3234"
       gradientUnits="userSpaceOnUse"
       gradientTransform="matrix(0,307.526,307.526,0,210.375,-2.75203)"
       spreadMethod="pad"
       x1="0"
       y1="0"
       x2="1"
       y2="0" /><linearGradient
       inkscape:collect="always"
       xlink:href="#linearGradient112"
       id="linearGradient3236"
       gradientUnits="userSpaceOnUse"
       gradientTransform="matrix(0,307.526,307.526,0,210.375,-2.75203)"
       spreadMethod="pad"
       x1="0"
       y1="0"
       x2="1"
       y2="0" /></defs><sodipodi:namedview
     pagecolor="#ffffff"
     bordercolor="#666666"
     borderopacity="1"
     objecttolerance="10"
     gridtolerance="10"
     guidetolerance="10"
     inkscape:pageopacity="0"
     inkscape:pageshadow="2"
     inkscape:window-width="2560"
     inkscape:window-height="1032"
     id="namedview4"
     showgrid="false"
     showguides="true"
     inkscape:guide-bbox="true"
     inkscape:zoom="1.88"
     inkscape:cx="314.27276"
     inkscape:cy="187.42892"
     inkscape:window-x="-4"
     inkscape:window-y="-1"
     inkscape:window-maximized="1"
     inkscape:current-layer="g10"
     inkscape:document-units="mm"
     units="mm"><sodipodi:guide
       orientation="1,0"
       position="44.589673,230.19419"
       id="guide3219" /><sodipodi:guide
       orientation="1,0"
       position="418.58555,239.11212"
       id="guide3221" /><sodipodi:guide
       orientation="1,0"
       position="-3.5433071,0"
       id="guide3092" /><sodipodi:guide
       orientation="0,1"
       position="-3.5433071,375.59055"
       id="guide3094" /><sodipodi:guide
       orientation="1,0"
       position="529.72441,375.59055"
       id="guide3096" /><sodipodi:guide
       orientation="0,1"
       position="529.72441,-3.5433071"
       id="guide3098" /><sodipodi:guide
       orientation="1,0"
       position="0,0"
       id="guide3112" /><sodipodi:guide
       orientation="0,1"
       position="0,372.04724"
       id="guide3114" /><sodipodi:guide
       orientation="0,1"
       position="526.1811,0"
       id="guide3116" /><sodipodi:guide
       orientation="1,0"
       position="526.1811,372.04724"
       id="guide3118" /><sodipodi:guide
       orientation="1,0"
       position="14.173228,357.87402"
       id="guide3139" /><sodipodi:guide
       orientation="0,1"
       position="512.00787,357.87402"
       id="guide3141" /><sodipodi:guide
       orientation="1,0"
       position="497.9421,211.51882"
       id="guide3143" /><sodipodi:guide
       orientation="0,1"
       position="14.173228,14.173228"
       id="guide3145" /><sodipodi:guide
       orientation="0,1"
       position="425.27056,192.43747"
       id="guide3099" /></sodipodi:namedview><g
     id="g10"
     inkscape:groupmode="layer"
     inkscape:label="ink_ext_XXXXXX"
     transform="matrix(1.25,0,0,-1.25,0,372.04993)"><g
       id="g12"
       transform="scale(0.1,0.1)"><path
         sodipodi:nodetypes="ccccc"
         inkscape:connector-curvature="0"
         id="path34"
         style="fill:url(#linearGradient3110);fill-opacity:1;fill-rule:nonzero;stroke:none"
         d="m -28.346457,-28.346919 0,3033.070819 4266.141757,0 0,-3033.070819 z" /><path
         d="m 234.742,1042.12 0,-50.28 -112.726,0 0,-195.551 -150.362457,-8.91793 0,-447.22272 0,-368.495269 4266.141757,0 0,875.766889 -1380.2553,41.93903 -23.67,22.082 -89.11,0 -57.09,-55.211 -94.68,4.129 -4.2,131.141 -38.97,6.898 -39,-9.648 0,-131.141 -93.3,4.129 -122.52,-8.258 -2003.902,26.61 0,167.61"
         style="fill:#e52071;fill-opacity:1;fill-rule:nonzero;stroke:none"
         id="path36"
         inkscape:connector-curvature="0"
         sodipodi:nodetypes="cccccccccccccccccccccc" /><g
         id="g38"
         transform="translate(0,-32)"><g
           id="g40"
           clip-path="url(#clipPath42)"><path
             d="m 163.488,2578.22 c 0,94.15 76.321,170.46 170.465,170.46 94.145,0 170.465,-76.31 170.465,-170.46 0,-94.15 -76.32,-170.46 -170.465,-170.46 -94.144,0 -170.465,76.31 -170.465,170.46"
             style="fill:#ffffff;fill-opacity:1;fill-rule:nonzero;stroke:none"
             id="path46"
             inkscape:connector-curvature="0" /><path
             d="m 324.52,2645.67 c 0,136.99 110.582,248.03 246.992,248.03 136.41,0 246.992,-111.04 246.992,-248.03 0,-136.98 -110.582,-248.03 -246.992,-248.03 -136.41,0 -246.992,111.05 -246.992,248.03"
             style="fill:#ffffff;fill-opacity:1;fill-rule:nonzero;stroke:none"
             id="path48"
             inkscape:connector-curvature="0" /><path
             d="m 200.492,2578.22 c 0,74.02 59.75,134.03 133.461,134.03 73.707,0 133.461,-60.01 133.461,-134.03 0,-74.02 -59.754,-134.02 -133.461,-134.02 -73.711,0 -133.461,60 -133.461,134.02 z"
             style="fill:none;stroke:#e31172;stroke-width:6.69438982;stroke-linecap:butt;stroke-linejoin:miter;stroke-miterlimit:3.86400008;stroke-opacity:1;stroke-dasharray:none"
             id="path50"
             inkscape:connector-curvature="0" /><path
             d="m 505,2608.64 56.504,56.76 53.211,0 -37.668,-37.84 75.402,0 0,-37.83 -75.402,-0.01 37.668,-37.84 -53.211,0"
             style="fill:#f9a71b;fill-opacity:1;fill-rule:nonzero;stroke:none"
             id="path52"
             inkscape:connector-curvature="0" /><path
             d="m 337.41,2608.64 -33.371,33.52 -31.43,0 22.246,-22.34 -44.527,0 0,-22.36 44.527,0.01 -22.246,-22.35 31.43,0"
             style="fill:#f9a71b;fill-opacity:1;fill-rule:nonzero;stroke:none"
             id="path54"
             inkscape:connector-curvature="0" /><path
             d="m 384.668,2645.67 c 0,103.63 83.652,187.63 186.844,187.63 103.191,0 186.843,-84 186.843,-187.63 0,-103.63 -83.652,-187.63 -186.843,-187.63 -103.192,0 -186.844,84 -186.844,187.63 z"
             style="fill:none;stroke:#e31172;stroke-width:40.21310043;stroke-linecap:butt;stroke-linejoin:miter;stroke-miterlimit:3.86400008;stroke-opacity:1;stroke-dasharray:none"
             id="path56"
             inkscape:connector-curvature="0" /><path
             d="m 428.32,2645.67 c 0,79.42 64.11,143.79 143.192,143.79 79.082,0 143.187,-64.37 143.187,-143.79 0,-79.41 -64.105,-143.79 -143.187,-143.79 -79.082,0 -143.192,64.38 -143.192,143.79 z"
             style="fill:none;stroke:#e31172;stroke-width:6.69438982;stroke-linecap:butt;stroke-linejoin:miter;stroke-miterlimit:3.86400008;stroke-opacity:1;stroke-dasharray:none"
             id="path58"
             inkscape:connector-curvature="0" /></g></g><g
         id="g120"
         transform="scale(10,10)"><text
           transform="matrix(1,0,0,-1,91.0641,248.032)"
           id="text122"><tspan
             style="font-size:34px;font-variant:normal;font-weight:bold;writing-mode:lr-tb;fill:#231f20;fill-opacity:1;fill-rule:nonzero;stroke:none;font-family:Oswald;-inkscape-font-specification:Oswald-Bold"
             x="0"
             y="0"
             sodipodi:role="line"
             id="tspan124">muenster.freifunk.net</tspan></text>
</g><g
         id="g140"
         transform="matrix(10,0,0,10,0,-48)"><text
           transform="matrix(1,0,0,-1,35.0785,220.573)"
           id="text142"><tspan
             style="font-size:14.30000019px;font-variant:normal;font-weight:bold;writing-mode:lr-tb;fill:#231f20;fill-opacity:1;fill-rule:nonzero;stroke:none;font-family:Oswald;-inkscape-font-specification:Oswald-Bold"
             x="0"
             y="0"
             sodipodi:role="line"
             id="tspan144">Münster sucht Mitwirkende für ein freies WLAN-Netz</tspan></text>
<text
           transform="scale(1,-1)"
           id="text146"
           x="35.322498"
           y="-203.69411"><tspan
             style="font-size:9px;font-variant:normal;font-weight:300;writing-mode:lr-tb;fill:#231f20;fill-opacity:1;fill-rule:nonzero;stroke:none;font-family:Roboto;-inkscape-font-specification:Roboto-Light"
             x="35.322498"
             y="-203.69411"
             sodipodi:role="line"
             id="tspan158">Beim Freifunk-Projekt schließen sich Menschen zusammen, um ein nicht-</tspan><tspan
             style="font-size:9px;font-variant:normal;font-weight:300;writing-mode:lr-tb;fill:#231f20;fill-opacity:1;fill-rule:nonzero;stroke:none;font-family:Roboto;-inkscape-font-specification:Roboto-Light"
             x="35.322498"
             y="-192.44411"
             sodipodi:role="line"
             id="tspan3236">kommerzielles Netz mit Hilfe von WLAN-Routern aufzubauen. Jeder Nutzer</tspan><tspan
             style="font-size:9px;font-variant:normal;font-weight:300;writing-mode:lr-tb;fill:#231f20;fill-opacity:1;fill-rule:nonzero;stroke:none;font-family:Roboto;-inkscape-font-specification:Roboto-Light"
             x="35.322498"
             y="-181.19411"
             sodipodi:role="line"
             id="tspan3238">stellt einen WLAN-Router für den freien Datentransfer anderer Teilnehmer</tspan><tspan
             style="font-size:9px;font-variant:normal;font-weight:300;writing-mode:lr-tb;fill:#231f20;fill-opacity:1;fill-rule:nonzero;stroke:none;font-family:Roboto;-inkscape-font-specification:Roboto-Light"
             x="35.322498"
             y="-169.94411"
             sodipodi:role="line"
             id="tspan3240">zur Verfügung und kann z.B. den eigenen Internetzugang teilen. So entsteht</tspan><tspan
             style="font-size:9px;font-variant:normal;font-weight:300;writing-mode:lr-tb;fill:#231f20;fill-opacity:1;fill-rule:nonzero;stroke:none;font-family:Roboto;-inkscape-font-specification:Roboto-Light"
             x="35.322498"
             y="-158.69411"
             sodipodi:role="line"
             id="tspan3242">ein Gemeinschaftsnetz, das von allen kostenfrei genutzt werden kann.</tspan></text>
</g><g
         id="g160"
         transform="matrix(10,0,0,10,-2.628489,64)"><text
           transform="scale(1,-1)"
           id="text162"
           x="30.989504"
           y="-19.299999"><tspan
             style="font-size:25px;font-variant:normal;font-weight:bold;writing-mode:lr-tb;fill:#ffffff;fill-opacity:1;fill-rule:nonzero;stroke:none;font-family:Oswald;-inkscape-font-specification:Oswald-Bold"
             x="30.989504 49.058804 61.052902 72.646004 85.164101 90.418983 108.52248 115.3675 123.77179"
             y="-19.299999"
             sodipodi:role="line"
             id="tspan164">Mach mit unter muenster.freifunk.net</tspan></text>
<text
           transform="scale(1,-1)"
           id="text166"
           x="42.337311"
           y="-5.7000003"><tspan
             style="font-size:9.60000038px;font-variant:normal;font-weight:normal;writing-mode:lr-tb;fill:#ffffff;fill-opacity:1;fill-rule:nonzero;stroke:none;font-family:Roboto;-inkscape-font-specification:Roboto"
             x="42.337311 47.272713 52.184105 56.80513 59.89595 62.073685"
             y="-5.7000003"
             sodipodi:role="line"
             id="tspan168">oder komme zu einem unserer Treffen (Mittwochs ab 19 Uhr in der Warpzone e.V.)</tspan></text>
</g><path
         sodipodi:type="arc"
         style="fill:#ffffff;stroke:#ea4f8d;stroke-opacity:1;stroke-width:1.87534302;stroke-miterlimit:4;stroke-dasharray:none"
         id="path3971"
         sodipodi:cx="111.18881"
         sodipodi:cy="249.49754"
         sodipodi:rx="56.993008"
         sodipodi:ry="50.174824"
         d="m 168.18182,249.49754 c 0,27.71079 -25.51664,50.17483 -56.99301,50.17483 -31.476367,0 -56.993005,-22.46404 -56.993005,-50.17483 0,-27.71079 25.516638,-50.17482 56.993005,-50.17482 31.47637,0 56.99301,22.46403 56.99301,50.17482 z"
         transform="matrix(9.7272491,0,0,-9.7110913,-199.04377,3422.8929)" /><g
         id="g174"
         transform="matrix(10,0,0,10,11.885329,74.404996)"><text
           xml:space="preserve"
           style="font-size:9px;font-style:normal;font-variant:normal;font-weight:normal;font-stretch:normal;text-align:center;line-height:125%;letter-spacing:0px;word-spacing:0px;text-anchor:middle;fill:#000000;fill-opacity:1;stroke:none;font-family:Roboto;-inkscape-font-specification:Roboto"
           x="88.337776"
           y="-114.84545"
           id="text4023"
           sodipodi:linespacing="125%"
           transform="scale(1,-1)"><tspan
             sodipodi:role="line"
             id="tspan4025"
             x="88.337776"
             y="-114.84545"
             style="font-size:10.39999962px;font-style:normal;font-variant:normal;font-weight:normal;font-stretch:normal;font-family:Roboto Cn;-inkscape-font-specification:Roboto Cn"><tspan
   style="font-size:10.39999962px;fill:#e52071;fill-opacity:1;font-family:Roboto Cn;-inkscape-font-specification:Roboto Cn"
   id="tspan4042">Privatpersonen</tspan>,</tspan><tspan
             sodipodi:role="line"
             x="88.337776"
             y="-101.84545"
             id="tspan4027"
             style="font-size:10.39999962px;font-style:normal;font-variant:normal;font-weight:normal;font-stretch:normal;font-family:Roboto Cn;-inkscape-font-specification:Roboto Cn">die einen Freifunk-</tspan><tspan
             sodipodi:role="line"
             x="88.337776"
             y="-88.845451"
             id="tspan4029"
             style="font-size:10.39999962px;font-style:normal;font-variant:normal;font-weight:normal;font-stretch:normal;font-family:Roboto Cn;-inkscape-font-specification:Roboto Cn">Router aufstellen</tspan><tspan
             sodipodi:role="line"
             x="88.337776"
             y="-75.845451"
             id="tspan4031"
             style="font-size:10.39999962px;font-style:normal;font-variant:normal;font-weight:normal;font-stretch:normal;font-family:Roboto Cn;-inkscape-font-specification:Roboto Cn">und Teil des Netzes</tspan><tspan
             sodipodi:role="line"
             x="88.337776"
             y="-62.845451"
             id="tspan4033"
             style="font-size:10.39999962px;font-style:normal;font-variant:normal;font-weight:normal;font-stretch:normal;font-family:Roboto Cn;-inkscape-font-specification:Roboto Cn">werden.</tspan></text>
</g><path
         sodipodi:type="arc"
         style="fill:#ffffff;stroke:#ea4f8d;stroke-opacity:1;stroke-width:1.87534918;stroke-miterlimit:4;stroke-dasharray:none"
         id="path3971-8"
         sodipodi:cx="111.18881"
         sodipodi:cy="249.49754"
         sodipodi:rx="56.993008"
         sodipodi:ry="50.174824"
         d="m 168.18182,249.49754 c 0,27.71079 -25.51664,50.17483 -56.99301,50.17483 -31.476367,0 -56.993005,-22.46404 -56.993005,-50.17483 0,-27.71079 25.516638,-50.17482 56.993005,-50.17482 31.47637,0 56.99301,22.46403 56.99301,50.17482 z"
         transform="matrix(9.7272491,0,0,-9.7110275,1086.2709,3422.8693)" /><text
         xml:space="preserve"
         style="font-size:104px;font-style:normal;font-variant:normal;font-weight:normal;font-stretch:normal;text-align:center;line-height:125%;letter-spacing:0px;word-spacing:0px;text-anchor:middle;fill:#000000;fill-opacity:1;stroke:none;font-family:Roboto Cn;-inkscape-font-specification:Roboto Cn"
         x="2168.1917"
         y="-1225.2323"
         id="text4035"
         sodipodi:linespacing="125%"
         transform="scale(1,-1)"><tspan
           sodipodi:role="line"
           id="tspan4037"
           x="2168.1917"
           y="-1225.2323"
           style="font-size:104px;font-style:normal;font-variant:normal;font-weight:normal;font-stretch:normal;text-align:center;text-anchor:middle;font-family:Roboto Cn;-inkscape-font-specification:Roboto Cn"><tspan
   style="font-size:104px;fill:#e52071;fill-opacity:1;font-family:Roboto Cn;-inkscape-font-specification:Roboto Cn"
   id="tspan4044">Unternehmer</tspan> und</tspan><tspan
           sodipodi:role="line"
           x="2168.1917"
           y="-1095.2323"
           style="font-size:104px;font-style:normal;font-variant:normal;font-weight:normal;font-stretch:normal;text-align:center;text-anchor:middle;font-family:Roboto Cn;-inkscape-font-specification:Roboto Cn"
           id="tspan4039"><tspan
   style="font-size:104px;fill:#e52071;fill-opacity:1;font-family:Roboto Cn;-inkscape-font-specification:Roboto Cn"
   id="tspan4046">Gastronomen</tspan>, die</tspan><tspan
           sodipodi:role="line"
           x="2168.1917"
           y="-965.2323"
           style="font-size:104px;font-style:normal;font-variant:normal;font-weight:normal;font-stretch:normal;text-align:center;text-anchor:middle;font-family:Roboto Cn;-inkscape-font-specification:Roboto Cn"
           id="tspan4041">Freifunk-Hotspots</tspan><tspan
           sodipodi:role="line"
           x="2168.1917"
           y="-835.2323"
           style="font-size:104px;font-style:normal;font-variant:normal;font-weight:normal;font-stretch:normal;text-align:center;text-anchor:middle;font-family:Roboto Cn;-inkscape-font-specification:Roboto Cn"
           id="tspan4043">zur Verfügung</tspan><tspan
           sodipodi:role="line"
           x="2168.1917"
           y="-705.2323"
           style="font-size:104px;font-style:normal;font-variant:normal;font-weight:normal;font-stretch:normal;text-align:center;text-anchor:middle;font-family:Roboto Cn;-inkscape-font-specification:Roboto Cn"
           id="tspan4045">stellen.</tspan></text>
<path
         sodipodi:type="arc"
         style="fill:#ffffff;stroke:#ea4f8d;stroke-opacity:1;stroke-width:1.87534306;stroke-miterlimit:4;stroke-dasharray:none"
         id="path3971-83"
         sodipodi:cx="111.18881"
         sodipodi:cy="249.49754"
         sodipodi:rx="56.993008"
         sodipodi:ry="50.174824"
         d="m 168.18182,249.49754 c 0,27.71079 -25.51664,50.17483 -56.99301,50.17483 -31.476367,0 -56.993005,-22.46404 -56.993005,-50.17483 0,-27.71079 25.516638,-50.17482 56.993005,-50.17482 31.47637,0 56.99301,22.46403 56.99301,50.17482 z"
         transform="matrix(9.7272488,0,0,-9.7110912,2372.9842,3422.8883)" /><text
         xml:space="preserve"
         style="font-size:104px;font-style:normal;font-variant:normal;font-weight:normal;font-stretch:normal;line-height:125%;letter-spacing:0px;word-spacing:0px;fill:#000000;fill-opacity:1;stroke:none;font-family:Roboto Cn;-inkscape-font-specification:Roboto Cn"
         x="3469.2461"
         y="-1282.7235"
         id="text4047"
         sodipodi:linespacing="125%"
         transform="scale(1,-1)"><tspan
           sodipodi:role="line"
           id="tspan4049"
           x="3469.2461"
           y="-1282.7235"
           style="font-size:104px;text-align:center;text-anchor:middle;fill:#e52071;fill-opacity:1;font-family:Roboto Cn;-inkscape-font-specification:Roboto Cn">Öffentliche Insti-</tspan><tspan
           sodipodi:role="line"
           x="3469.2461"
           y="-1152.7235"
           id="tspan4051"
           style="font-size:104px;text-align:center;text-anchor:middle;font-family:Roboto Cn;-inkscape-font-specification:Roboto Cn"><tspan
   style="font-size:104px;fill:#e52071;fill-opacity:1;font-family:Roboto Cn;-inkscape-font-specification:Roboto Cn"
   id="tspan4048">tutionen</tspan>, <tspan
   style="font-size:104px;fill:#e52071;fill-opacity:1;font-family:Roboto Cn;-inkscape-font-specification:Roboto Cn"
   id="tspan4050">Kirchen</tspan>,</tspan><tspan
           sodipodi:role="line"
           x="3469.2461"
           y="-1022.7235"
           id="tspan4053"
           style="font-size:104px;text-align:center;text-anchor:middle;font-family:Roboto Cn;-inkscape-font-specification:Roboto Cn"><tspan
   style="font-size:104px;fill:#e52071;fill-opacity:1;font-family:Roboto Cn;-inkscape-font-specification:Roboto Cn"
   id="tspan4052">Firmen</tspan> und <tspan
   style="font-size:104px;fill:#e52071;fill-opacity:1;font-family:Roboto Cn;-inkscape-font-specification:Roboto Cn"
   id="tspan4054">Vereine</tspan>,</tspan><tspan
           sodipodi:role="line"
           x="3469.2461"
           y="-892.72351"
           id="tspan4055"
           style="font-size:104px;text-align:center;text-anchor:middle;font-family:Roboto Cn;-inkscape-font-specification:Roboto Cn">die ihre Dächer</tspan><tspan
           sodipodi:role="line"
           x="3469.2461"
           y="-762.72351"
           id="tspan4057"
           style="font-size:104px;text-align:center;text-anchor:middle;font-family:Roboto Cn;-inkscape-font-specification:Roboto Cn">für Freifunk</tspan><tspan
           sodipodi:role="line"
           x="3469.2461"
           y="-632.72351"
           id="tspan4059"
           style="font-size:104px;text-align:center;text-anchor:middle;font-family:Roboto Cn;-inkscape-font-specification:Roboto Cn">bereitstellen.</tspan></text>
<path
         style="fill:none;stroke:#ea4f8d;stroke-width:18.22677168;stroke-linecap:butt;stroke-linejoin:miter;stroke-opacity:1;stroke-miterlimit:4;stroke-dasharray:none"
         d="m 1423.707,1124.4057 c 212.5861,8.5302 209.9287,8.5302 209.9287,8.5302"
         id="path4016"
         inkscape:connector-curvature="0" /><path
         style="fill:none;stroke:#ea4f8d;stroke-width:2.27834646;stroke-linecap:butt;stroke-linejoin:miter;stroke-opacity:1;stroke-miterlimit:4;stroke-dasharray:none"
         d="m 335.31469,223.09894 c 33.21678,-1.04895 33.21678,-1.04895 33.21678,-1.04895"
         id="path4018"
         inkscape:connector-curvature="0"
         transform="matrix(8,0,0,-8,0,2976.3994)" /></g><path
       style="opacity:0;fill:#ff00ff;fill-opacity:1"
       d="m 217.874,215.0881 0,-18.244 29.8273,0 29.8273,0 0,7.70276 c 0,7.32417 -0.002,7.7021 -0.0444,7.6893 -0.24892,-0.0754 -0.70798,-0.0886 -0.99354,-0.0285 -0.48301,0.10161 -0.93153,0.40977 -1.21143,0.83235 l -0.0794,0.11982 -0.014,-0.0825 c -0.008,-0.0454 -0.0211,-0.20814 -0.0297,-0.36165 -0.009,-0.15351 -0.0216,-0.31052 -0.0289,-0.34889 l -0.0132,-0.0698 -0.58159,0 -0.58159,0 0,3.31176 0,3.31176 0.6407,-0.007 0.6407,-0.007 0.0127,-2.48666 0.0127,-2.48667 0.0748,-0.13504 c 0.16912,-0.30528 0.46564,-0.52964 0.79796,-0.60376 0.56299,-0.12556 1.01764,0.11846 1.21509,0.65217 0.14157,0.38266 0.13784,0.30899 0.1584,3.13153 0.0105,1.43744 0.0203,4.81131 0.0219,7.49748 l 0.003,4.88394 -0.0951,-0.16392 c -0.30895,-0.53223 -0.87435,-0.8136 -1.56554,-0.77909 -0.33611,0.0168 -0.5174,0.0615 -0.78791,0.19429 -0.26553,0.13035 -0.50139,0.32837 -0.6913,0.58041 l -0.15354,0.20375 -0.0141,-0.10595 c -0.008,-0.0583 -0.0212,-0.23155 -0.0299,-0.38507 -0.009,-0.15351 -0.0214,-0.2991 -0.0282,-0.32352 -0.0114,-0.0406 -0.0618,-0.0444 -0.59433,-0.0444 l -0.5819,0 0,2.39785 0,2.39786 -0.67241,0 c -0.36983,0 -0.67242,-0.009 -0.67242,-0.0192 0,-0.0106 0.0281,-0.14473 0.0623,-0.29815 0.11238,-0.50293 0.14846,-1.22562 0.089,-1.78336 -0.13218,-1.24056 -0.69239,-2.18346 -1.53536,-2.58418 -0.30787,-0.14635 -0.58697,-0.21197 -0.97825,-0.22997 -0.37753,-0.0174 -0.64882,0.0163 -0.97445,0.12077 -0.85569,0.27463 -1.50726,1.11698 -1.73579,2.24399 -0.14235,0.70197 -0.11367,1.80439 0.0627,2.4088 0.0201,0.0688 0.0365,0.12877 0.0365,0.13322 0,0.004 -0.29687,0.008 -0.65972,0.008 l -0.65973,0 -5.1e-4,-1.36386 c -5.3e-4,-1.44338 -0.0139,-1.66824 -0.12565,-2.11296 -0.0297,-0.11831 -0.11209,-0.33501 -0.18301,-0.48155 -0.10979,-0.22686 -0.15954,-0.29699 -0.33491,-0.47224 -0.16442,-0.1643 -0.24947,-0.22666 -0.42165,-0.30915 -0.46978,-0.2251 -1.0597,-0.24438 -1.54006,-0.0504 -0.31959,0.12909 -0.66195,0.41995 -0.87408,0.74261 -0.0593,0.0901 -0.11243,0.15919 -0.11815,0.15347 -0.008,-0.008 -0.0772,-0.76712 -0.0807,-0.88264 -3.1e-4,-0.0105 -0.26891,-0.019 -0.59687,-0.019 l -0.59629,0 0,2.39785 0,2.39786 -0.66988,0 -0.66989,0 0.0478,-0.18396 c 0.10153,-0.39069 0.13489,-0.71771 0.13396,-1.31312 -0.001,-0.67629 -0.0532,-1.05313 -0.21128,-1.52582 -0.1798,-0.53777 -0.37398,-0.85637 -0.74802,-1.22727 -0.26292,-0.26072 -0.43142,-0.37789 -0.6987,-0.48585 -0.56627,-0.22873 -1.36219,-0.24678 -1.90359,-0.0432 -0.84421,0.31748 -1.45073,1.11336 -1.67281,2.19509 -0.15089,0.73497 -0.12431,1.86494 0.058,2.46358 l 0.0367,0.12053 -1.1013,0 -1.10129,0 0,-1.4627 0,-1.46269 0.0888,-0.18451 c 0.11342,-0.23582 0.29647,-0.43579 0.49987,-0.54607 l 0.15992,-0.0867 0.42613,0 c 0.40552,0 0.42667,-0.002 0.43722,-0.0507 0.0385,-0.17624 0.13751,-1.03897 0.12099,-1.05431 -0.0111,-0.0103 -0.0806,-0.0313 -0.15458,-0.0468 -0.61559,-0.12857 -1.17645,0.19112 -1.52836,0.87117 l -0.0943,0.18221 -0.0151,-0.16646 c -0.008,-0.0916 -0.0229,-0.30634 -0.0324,-0.4773 l -0.0172,-0.31083 -0.59248,0 -0.59249,0 0,2.39785 0,2.39786 -1.14183,0 -1.14184,0 0,-1.94112 0,-1.94112 0.63435,0 0.63436,0 0,-0.45674 0,-0.45673 -0.63436,0 -0.63435,0 0,-0.82466 0,-0.82466 -0.63435,0 -0.63436,0 0,0.82466 0,0.82466 -0.43136,0 -0.43136,0 0,0.45673 0,0.45674 0.43136,0 0.43136,0 0,1.94112 0,1.94112 -0.70592,0 -0.70593,0 -0.0298,-0.19183 c -0.0396,-0.25454 -0.15592,-0.52652 -0.30371,-0.70997 -0.31176,-0.38698 -0.8878,-0.74332 -1.6663,-1.03078 -0.30299,-0.11188 -0.84196,-0.38711 -1.03212,-0.52707 -0.22044,-0.16223 -0.30969,-0.33129 -0.32235,-0.61062 -0.0161,-0.35504 0.16584,-0.65396 0.49739,-0.81723 0.16452,-0.081 0.17937,-0.0836 0.48744,-0.0836 0.29569,0 0.32767,0.005 0.46052,0.0701 0.31659,0.15554 0.53343,0.49891 0.59264,0.93849 l 0.0162,0.12053 0.62011,0 0.62011,0 0,-0.16328 c 0,-0.42226 -0.18083,-0.86638 -0.48566,-1.1928 -0.46795,-0.50107 -1.02658,-0.72422 -1.81372,-0.7245 -0.96655,-3.6e-4 -1.73462,0.41166 -2.09378,1.12318 -0.11063,0.21914 -0.15693,0.42874 -0.15826,0.71634 -0.001,0.29969 0.0343,0.46627 0.15381,0.71905 0.20607,0.4357 0.79629,0.85185 1.73333,1.22214 0.80613,0.31856 1.27364,0.64234 1.38055,0.95613 0.0222,0.0652 0.0404,0.13365 0.0404,0.1521 0,0.0273 -0.20764,0.0335 -1.11531,0.0335 l -1.11531,0 -0.0167,-0.0888 -0.0167,-0.0888 -0.59346,0 -0.59347,0 -0.004,0.0571 c -0.002,0.0314 -0.003,0.0714 -0.003,0.0888 9.1e-4,0.0245 -0.13127,0.0317 -0.57961,0.0317 l -0.58077,0 0,-1.3802 c 0,-0.77344 -0.0116,-1.49321 -0.0264,-1.63727 -0.0541,-0.52767 -0.22179,-0.92886 -0.51915,-1.24237 -0.29349,-0.30944 -0.59645,-0.4853 -1.02236,-0.59342 -0.19069,-0.0484 -0.28535,-0.0558 -0.69041,-0.0541 -0.42193,0.002 -0.49449,0.009 -0.71728,0.0682 -0.90276,0.24106 -1.53905,0.95855 -1.54064,1.73722 l -3.8e-4,0.18396 0.618,0 0.618,0 0.015,-0.16026 c 0.0336,-0.35934 0.20622,-0.63613 0.48569,-0.77858 0.16945,-0.0864 0.18229,-0.0888 0.46847,-0.0888 0.26533,0 0.30833,0.007 0.43774,0.0673 0.18212,0.0854 0.3318,0.23934 0.4251,0.43725 0.11039,0.23416 0.13124,0.36346 0.14679,0.91008 l 0.0143,0.50114 -0.62591,0 c -0.97624,0 -1.37643,0.0664 -1.86724,0.30965 -0.22531,0.11168 -0.30014,0.16553 -0.48489,0.34891 -0.17677,0.17547 -0.23846,0.258 -0.32327,0.43253 -0.12625,0.25981 -0.17829,0.45069 -0.19888,0.7295 l -0.0155,0.20934 -0.60498,0 -0.60499,0 -0.007,-1.3258 -0.007,-1.3258 -1.47804,-0.007 -1.47805,-0.007 0,0.46962 0,0.46963 0.83735,0 0.83735,0 0,0.86272 0,0.86272 -1.5746,0 -1.5746,0 -0.063,-0.13761 c -0.082,-0.17912 -0.1756,-0.552 -0.21067,-0.8393 -0.0454,-0.37187 -0.0373,-3.03517 0.0104,-3.39855 0.1264,-0.9642 0.61981,-1.62083 1.35705,-1.80594 0.25096,-0.063 0.79113,-0.0387 1.01814,0.0458 0.22934,0.0854 0.3762,0.17538 0.51941,0.31837 0.26916,0.26875 0.42071,0.61686 0.47325,1.08703 l 0.0296,0.26439 0.60384,0 0.60384,0 0,-0.22504 c 0,-0.4552 -0.12789,-0.9369 -0.34648,-1.30496 -0.13183,-0.22198 -0.47111,-0.5876 -0.67001,-0.72203 -0.47284,-0.31957 -1.09772,-0.48838 -1.8078,-0.48838 -0.90194,0 -1.56662,0.24585 -2.13578,0.78997 -0.45396,0.43399 -0.72357,0.93573 -0.87271,1.62413 -0.0935,0.43172 -0.11007,0.83834 -0.0975,2.3981 0.0109,1.34698 0.0162,1.4909 0.0643,1.74702 0.0289,0.15351 0.0758,0.35333 0.10429,0.44405 0.0285,0.0907 0.052,0.17349 0.0522,0.18396 1.8e-4,0.0105 -2.27192,0.019 -5.04912,0.019 l -5.04946,0 0,-18.24401 z m 14.31629,3.89242 c 1.1935,-0.2264 2.01082,-1.01617 2.28197,-2.20504 l 0.0579,-0.25374 0.008,-3.25423 0.008,-3.25424 -0.63509,0 -0.63508,0 0,2.99146 c 0,1.87904 -0.01,3.08659 -0.0262,3.24726 -0.0366,0.35688 -0.10601,0.61063 -0.24373,0.89142 -0.0965,0.19662 -0.15613,0.27902 -0.32378,0.44704 -0.33704,0.33779 -0.65479,0.46568 -1.15706,0.46568 -0.49011,0 -0.81967,-0.12939 -1.12915,-0.4433 -0.27788,-0.28186 -0.41357,-0.54934 -0.52775,-1.04034 -0.0521,-0.22412 -0.0533,-0.28731 -0.0619,-3.39379 l -0.009,-3.16543 -0.63325,0 -0.63325,0 0,3.1368 c 0,3.40936 -6e-4,3.39305 0.14252,3.88691 0.25485,0.87944 0.89777,1.55065 1.76054,1.83801 0.17813,0.0593 0.5425,0.13288 0.77391,0.15624 0.18839,0.019 0.77406,-0.0112 0.98218,-0.0507 z m 12.41019,0.001 c 0.22165,-0.0461 0.49415,-0.13386 0.5137,-0.16549 0.008,-0.0127 -0.0285,-0.21238 -0.0809,-0.44371 -0.0889,-0.39294 -0.0986,-0.41957 -0.14722,-0.40483 -0.15802,0.0479 -0.50868,0.0929 -0.60807,0.078 -0.24245,-0.0364 -0.41669,-0.25779 -0.47052,-0.59795 -0.0163,-0.10291 -0.0262,-0.93065 -0.0263,-2.20121 l -1.9e-4,-2.03627 0.63435,0 0.63436,0 0,-0.45674 0,-0.45673 -0.63436,0 -0.63435,0 0,-0.82466 0,-0.82466 -0.64704,0 -0.64704,0 0,0.82466 0,0.82466 -0.41867,0 -0.41868,0 0,0.45673 0,0.45674 0.41664,0 0.41663,0 0.0114,2.08702 c 0.0124,2.26418 0.0126,2.26738 0.15926,2.71192 0.18671,0.56585 0.59302,0.92339 1.14956,1.01158 0.18129,0.0287 0.56076,0.0102 0.7974,-0.039 l 0,0 z m 4.30975,0.0384 c 0.58782,-0.0585 1.19056,-0.29037 1.5258,-0.58688 l 0.0958,-0.0847 -0.14026,-0.35524 c -0.0771,-0.19538 -0.15139,-0.38087 -0.165,-0.4122 -0.0246,-0.0567 -0.0256,-0.0565 -0.19662,0.0539 -0.47382,0.30558 -0.75155,0.39811 -1.24725,0.41553 -0.40131,0.0141 -0.56269,-0.009 -0.78341,-0.11264 -0.52743,-0.24742 -0.86184,-0.92798 -0.91101,-1.85396 l -0.0165,-0.31083 1.8348,0 1.8348,0 -0.0159,-0.60264 c -0.009,-0.3358 -0.0337,-0.71861 -0.056,-0.86455 -0.18434,-1.20139 -0.84325,-1.95764 -1.84064,-2.11257 -0.30955,-0.0481 -0.85398,-0.0177 -1.12267,0.0627 -0.39285,0.11749 -0.67987,0.29186 -0.98246,0.59687 -0.63929,0.64439 -0.93912,1.53639 -0.93773,2.7897 9.1e-4,0.83325 0.12096,1.43599 0.39161,1.96635 0.53591,1.05015 1.47719,1.53628 2.73262,1.41128 z m 15.86787,1.7e-4 c 0.57023,-0.0554 1.17705,-0.29005 1.51834,-0.58706 l 0.0974,-0.0848 -0.1597,-0.40599 c -0.0878,-0.22329 -0.16217,-0.40986 -0.16521,-0.4146 -0.003,-0.005 -0.0733,0.0374 -0.15622,0.0937 -0.20359,0.13826 -0.51298,0.29103 -0.72861,0.35977 -0.14003,0.0446 -0.25913,0.0592 -0.56272,0.069 -0.34677,0.0111 -0.4036,0.007 -0.57092,-0.0441 -0.24043,-0.073 -0.37814,-0.15535 -0.54721,-0.32715 -0.31998,-0.32512 -0.56477,-1.09038 -0.56477,-1.76559 l 0,-0.14056 1.82694,0 1.82694,0 -2.5e-4,-0.4377 c -5.4e-4,-1.09269 -0.13993,-1.70103 -0.52239,-2.27994 -0.13281,-0.20103 -0.42835,-0.48531 -0.62683,-0.60295 -0.18431,-0.10923 -0.51043,-0.2214 -0.75363,-0.25919 -0.2783,-0.0432 -0.85213,-0.0162 -1.08668,0.0513 -0.68009,0.19561 -1.20396,0.66245 -1.56652,1.39597 -0.24041,0.48639 -0.35939,1.03448 -0.38305,1.76458 -0.0389,1.1988 0.18665,2.04892 0.72304,2.72568 0.54081,0.68232 1.37098,0.98976 2.40202,0.88953 l 4e-5,-1e-5 z m -27.54363,-2.58542 0,-2.48454 0.12993,-0.19426 c 0.0715,-0.10684 0.1885,-0.24078 0.26008,-0.29763 0.47393,-0.37641 1.15939,-0.39647 1.51162,-0.0442 0.15167,0.15166 0.24476,0.34295 0.31355,0.64432 0.0506,0.22184 0.0529,0.31315 0.0619,2.54549 l 0.009,2.31539 0.64569,0 0.6457,0 -8e-5,-2.16315 c -1e-4,-2.56971 -0.0125,-2.77112 -0.20602,-3.35573 -0.15872,-0.47941 -0.4679,-0.85603 -0.86241,-1.0505 -0.26479,-0.13053 -0.49168,-0.17926 -0.83454,-0.17926 -0.34197,0 -0.56582,0.0485 -0.83176,0.18025 -0.25971,0.12866 -0.57989,0.41966 -0.76309,0.69357 l -0.12307,0.18401 -0.0293,-0.38345 c -0.0161,-0.21091 -0.0292,-0.42057 -0.0291,-0.46593 l 1.6e-4,-0.0825 -0.5963,0 -0.59629,0 0,3.31132 0,3.31133 0.64704,0 0.64704,0 0,-2.48454 z m 15.89017,0.10337 0.007,-2.38118 0.10119,-0.19935 c 0.11829,-0.23303 0.30453,-0.43523 0.48518,-0.52678 0.18367,-0.0931 0.38053,-0.1196 0.7204,-0.0971 0.16049,0.0106 0.2941,0.0182 0.29691,0.0168 0.0118,-0.006 0.15238,-1.09339 0.1434,-1.10921 -0.005,-0.01 -0.0753,-0.0309 -0.15529,-0.0475 -0.18732,-0.0389 -0.54338,-0.0178 -0.69101,0.0409 -0.34475,0.13716 -0.63673,0.42497 -0.85399,0.84178 l -0.0827,0.15857 -0.0128,-0.0822 c -0.007,-0.0452 -0.0195,-0.2078 -0.0276,-0.36132 -0.008,-0.15351 -0.0213,-0.32764 -0.0292,-0.38695 l -0.0144,-0.10784 -0.59341,0 -0.59341,0 0,3.29441 c 0,1.81192 0.008,3.30202 0.0169,3.31132 0.009,0.009 0.3003,0.0169 0.64666,0.0169 l 0.62974,0 0.007,-2.38117 z m 3.82554,-0.0958 0,-2.477 0.0874,-0.1438 c 0.12164,-0.20024 0.38311,-0.44378 0.57273,-0.53345 0.41404,-0.19581 0.93604,-0.15401 1.22219,0.0979 0.19415,0.1709 0.32388,0.4869 0.37547,0.91463 0.0158,0.13109 0.0259,1.07447 0.0259,2.41689 l 0,2.20187 0.64704,0 0.64704,0 0,-2.22124 c 0,-2.5165 -0.008,-2.66586 -0.16913,-3.20883 -0.15556,-0.52377 -0.48194,-0.93981 -0.89335,-1.13877 -0.30546,-0.14771 -0.51999,-0.18899 -0.91214,-0.17552 -0.27505,0.009 -0.35347,0.0222 -0.54041,0.0876 -0.38478,0.13465 -0.74829,0.42971 -0.98988,0.80351 -0.057,0.0882 -0.10191,0.13609 -0.10839,0.11561 -0.006,-0.0192 -0.0179,-0.14343 -0.0263,-0.27601 -0.008,-0.13258 -0.0223,-0.32384 -0.0309,-0.42502 l -0.0157,-0.18396 -0.59279,0 -0.59279,0 0,3.31132 0,3.31133 0.64704,0 0.64704,0 0,-2.47701 z m 12.02734,-0.0291 0,-2.50615 0.0668,-0.10104 c 0.0958,-0.145 0.30758,-0.35768 0.44276,-0.44469 0.27203,-0.17508 0.68275,-0.24425 0.9867,-0.16617 0.38041,0.0977 0.58494,0.33475 0.716,0.82972 0.056,0.21145 0.0564,0.22946 0.065,2.55371 l 0.009,2.34077 0.64593,0 0.64593,0 0,-2.21924 c 0,-1.44576 -0.01,-2.31024 -0.028,-2.48033 -0.0407,-0.37875 -0.15361,-0.79847 -0.29062,-1.08012 -0.0984,-0.2022 -0.15324,-0.27729 -0.33712,-0.46128 -0.38495,-0.38518 -0.75726,-0.52274 -1.36146,-0.503 -0.3678,0.012 -0.57548,0.068 -0.84406,0.22736 -0.18021,0.10695 -0.46421,0.37052 -0.60646,0.56282 l -0.10999,0.14869 0,-1.86779 0,-1.86779 -0.64704,0 -0.64704,0 0,4.77034 0,4.77034 0.64704,0 0.64704,0 0,-2.50615 0,0 z"
       id="path3499"
       inkscape:connector-curvature="0"
       transform="matrix(0.8,0,0,-0.8,0,297.63994)" /><path
       style="opacity:0;fill:#ff00ff;fill-opacity:1"
       id="path3501"
       d="m 210.23352,256.543 c 0.18697,2.19478 0.40508,4.3882 0.62632,6.58015 0.32618,3.0434 0.91317,6.04667 1.54309,9.03884 0.43411,2.02977 0.87381,4.05588 1.43776,6.05412 0.22293,0.72109 0.11468,0.37896 0.32348,1.02677 0,0 -1.81937,0.99532 -1.81937,0.99532 l 0,0 c -0.18735,-0.66313 -0.0892,-0.31297 -0.29391,-1.05065 -0.50841,-2.0268 -0.92281,-4.07281 -1.3393,-6.12008 -0.60429,-3.0038 -1.19783,-6.01192 -1.54555,-9.05885 -0.23634,-2.16807 -0.44868,-4.34058 -0.80897,-6.49261 0,0 1.87645,-0.97301 1.87645,-0.97301 z"
       inkscape:connector-curvature="0"
       transform="matrix(0.8,0,0,-0.8,0,297.63994)" /></g></svg>