<?xml version="1.0" encoding="utf-8"?>
<!-- Generator: Adobe Illustrator 17.0.0, SVG Export Plug-In . SVG Version: 6.00 Build 0)  -->
<!DOCTYPE svg PUBLIC "-//W3C//DTD SVG 1.1//EN" "http://www.w3.org/Graphics/SVG/1.1/DTD/svg11.dtd">
<svg version="1.1" id="Ebene_1" xmlns="http://www.w3.org/2000/svg" xmlns:xlink="http://www.w3.org/1999/xlink" x="0px" y="0px"
	 width="527.04px" height="745.4px" viewBox="0 0 527.04 745.4" enable-background="new 0 0 527.04 745.4" xml:space="preserve">
<g>
	<path fill="#DE2D69" d="M269.51,113.886c5.498,0.013,12.678,0.369,19.861,0.845c7.184,0.477,14.331,1.26,21.453,2.233
		c9.814,1.34,19.552,3.148,29.216,5.351c27.931,6.368,54.743,15.905,80.463,28.497c22.912,11.218,44.45,24.643,64.405,40.559
		c5.376,4.288,10.608,8.752,15.66,13.424c5.396,4.991,7.349,11.094,5.079,18.048c-2.352,7.205-7.771,11.114-15.235,12.132
		c-5.885,0.802-11.09-0.804-15.502-4.782c-10.528-9.493-21.614-18.266-33.385-26.174c-15.566-10.457-31.925-19.464-49.041-27.121
		c-19.017-8.508-38.649-15.187-58.924-19.958c-12.999-3.059-26.142-5.242-39.436-6.617c-15.081-1.56-30.165-1.714-45.269-0.711
		c-21.016,1.395-41.767,4.495-62.163,9.855c-20.401,5.361-40.01,12.79-58.812,22.344c-24.727,12.565-47.32,28.268-68.226,46.448
		c-1.689,1.469-3.348,2.987-5.141,4.32c-6.893,5.121-16.413,5.031-23.252-0.143c-8.41-6.363-9.293-18.245-1.734-25.631
		c3.368-3.291,7.037-6.282,10.652-9.309c12.705-10.639,26.002-20.479,39.974-29.397c30.828-19.677,63.886-34.206,99.384-43.142
		c13.964-3.515,28.084-6.174,42.359-7.977c10.547-1.332,21.135-2.253,31.768-2.671C258.379,114.122,263.092,113.956,269.51,113.886z
		"/>
	<path fill="#DE2F6A" d="M265.541,546.276c-24.856-0.256-47.018-8.089-66.427-23.659c-0.187-0.15-0.392-0.286-0.55-0.463
		c-0.785-0.878-1.376-0.7-2.117,0.163c-2.244,2.612-4.733,4.982-7.374,7.196c-11.494,9.633-24.744,15.092-39.638,16.513
		c-32.46,3.096-63.709-16.45-74.329-48.304c-11.871-35.607,5.142-73.848,39.572-88.638c10.905-4.684,22.356-6.546,34.204-5.587
		c5.025,0.407,9.944,1.503,14.793,2.888c2.142,0.612,2.132,0.594,2.882-1.4c10.293-27.349,28.61-47.34,55.042-59.813
		c10.416-4.916,21.408-7.848,32.875-9.065c54.069-5.735,103.435,30.154,114.504,83.43c11.762,56.606-24.227,111.85-80.82,124.354
		C280.716,545.533,273.173,546.288,265.541,546.276z M296.241,511.907c-3.372,1.125-6.745,2.249-10.117,3.374
		c-0.469,0.08-0.945,0.129-1.404,0.245c-10.436,2.636-20.956,3.049-31.555,1.161c-2.428-0.433-4.837-0.968-7.255-1.455
		c-3.359-1.151-6.718-2.302-10.077-3.453c-3.334-1.724-6.668-3.447-10.002-5.171c-3.382-2.47-6.763-4.94-10.145-7.411
		c-1.297-1.253-2.594-2.506-4.143-4.003c-1.118,3.452-2.183,6.514-3.56,9.449c-0.345,0.736-0.003,1.191,0.528,1.639
		c2.255,1.901,4.43,3.903,7.006,5.387c3.066,2.489,6.393,4.552,10.001,6.16c3.227,1.919,6.652,3.396,10.218,4.553
		c3.251,1.352,6.556,2.519,10.072,2.974c0.449,0.15,0.89,0.338,1.35,0.443c7.188,1.65,14.48,2.148,21.833,1.914
		c5.829-0.186,11.573-0.987,17.218-2.464c3.471-0.75,6.9-1.628,10.089-3.254c3.605-1.147,7.089-2.552,10.181-4.789
		c3.761-1.348,6.947-3.626,9.974-6.163c1.081-0.388,1.883-1.194,2.755-1.882c25.835-20.371,38.424-54.456,30.547-87.514
		c-10.992-46.132-55.603-73.075-98.929-65.379c-30.904,5.489-56.441,26.947-66.757,56.363c-1.009,2.878-0.998,2.862,1.517,4.779
		c1.526,1.163,3,2.393,4.516,3.57c0.398,0.309,0.647,0.931,1.391,0.741c0.145-0.449,0.314-0.896,0.434-1.356
		c7.796-29.751,35.054-55.752,73.338-56.75c9.198-0.24,18.137,1.537,26.799,4.558c25.294,8.821,47.972,32.12,51.016,66.332
		c1.328,14.917-1.743,29.121-8.74,42.403c-4.561,8.657-10.666,16.109-18.01,22.559c-3.369,2.449-6.739,4.899-10.108,7.348
		C302.894,508.514,299.568,510.21,296.241,511.907z M215.506,492.399c3.749,4.227,8.32,7.414,13.093,10.344
		c0.195,0.119,0.459,0.126,0.691,0.185c1.854,1.456,3.876,2.592,6.161,3.226c0.343,0.455,0.816,0.726,1.328,0.94
		c2.965,1.238,5.936,2.464,9.078,3.2c4.902,1.497,9.916,2.328,15.025,2.737c8.61,0.689,17.035-0.198,25.305-2.658
		c3.658-0.849,7.146-2.154,10.474-3.892c2.211-0.951,4.398-1.948,6.322-3.428c2.779-1.065,5.057-2.937,7.359-4.727
		c2.171-1.688,4.462-3.274,6.13-5.532c0.757-0.335,1.274-0.962,1.807-1.549c19.969-22.014,25.702-47.27,15.957-75.354
		c-11.653-33.58-47.44-53.345-82.281-46.169c-28.064,5.78-49.925,26.91-56.334,54.349c-0.342,1.466,0.038,2.339,0.932,3.396
		c14.883,17.578,20.638,37.692,16.628,60.466c-0.247,1.403-0.084,2.493,1.059,3.381
		C214.679,491.653,215.085,492.036,215.506,492.399z M193.806,518.45c-0.27-0.871-0.908-1.271-1.415-1.764
		c-2.124-2.062-4.161-4.207-6.097-6.445c-15.706-18.153-24.284-39.264-25.906-63.163c-0.769-11.327,0.5-22.51,3.44-33.482
		c0.746-2.785,0.46-2.354-1.795-3.024c-12.582-3.738-25.202-3.8-37.805-0.153c-33.757,9.769-54.106,43.8-47.023,78.056
		c5.661,27.375,28.424,49.979,58.922,53.051c17.14,1.726,32.803-2.627,46.746-12.848
		C186.942,525.695,190.647,522.311,193.806,518.45z M204.135,502.013c1.473-2.897,2.267-5.738,3.244-8.515
		c0.542-1.541,0.271-2.605-0.775-3.877c-7.106-8.643-12.093-18.375-14.93-29.232c-2.561-9.802-3.249-19.716-1.847-29.713
		c0.357-2.546,0.061-4.321-2.053-5.747c-0.593-0.4-1.094-0.934-1.654-1.386c-1.12-0.904-2.237-1.812-3.384-2.68
		c-0.562-0.425-1.043-0.352-1.229,0.429c-0.148,0.622-0.311,1.241-0.439,1.867c-1.675,8.191-2.337,16.437-1.661,24.8
		c1.462,18.08,7.931,34.127,19.329,48.204C200.337,498.141,201.95,500.122,204.135,502.013z M209.022,484.804
		c1.984-8.657,0.925-23.032-3.49-34.056c-2.696-6.734-6.15-12.984-11.053-18.708C190.763,446.436,199.19,476.553,209.022,484.804z"
		/>
	<path fill="#FFB401" d="M424.03,285.851c-5.654,0.095-10.124-1.736-13.918-5.269c-9.393-8.747-19.576-16.463-30.451-23.263
		c-21.242-13.281-44.049-22.835-68.429-28.629c-9.578-2.276-19.276-3.849-29.069-4.728c-9.328-0.838-18.677-0.791-28.037-0.173
		c-13.99,0.925-27.804,2.932-41.378,6.423c-26.171,6.731-49.98,18.427-71.727,34.412c-7.419,5.453-14.45,11.369-21.353,17.451
		c-3.835,3.379-8.411,4.868-13.485,4.67c-8.667-0.338-16.239-6.228-17.611-14.818c-0.985-6.168,1.036-11.397,5.61-15.534
		c12.776-11.556,26.378-22.036,41.039-31.115c24.626-15.25,51.086-25.879,79.485-31.668c20.221-4.122,40.64-5.917,61.261-5.206
		c13.126,0.453,26.099,2.258,38.942,4.979c22.469,4.761,43.925,12.411,64.413,22.769c19.214,9.713,36.999,21.563,53.145,35.832
		c1.378,1.218,2.715,2.483,4.058,3.74c9.311,8.704,6.715,23.512-5.009,28.54C428.992,285.348,426.376,286.022,424.03,285.851z"/>
	<path fill="#FFB401" d="M264.242,296.212c-18.569,0.22-37.949,5.061-55.775,15.634c-6.895,4.089-13.354,8.786-19.358,14.096
		c-6.802,6.016-15.771,6.344-22.347,2.918c-11.215-5.843-12.899-20.214-3.363-28.498c11.098-9.641,23.114-17.917,36.376-24.309
		c12.08-5.822,24.728-9.936,37.93-12.317c7.953-1.434,15.963-2.251,24.047-2.566c18.274-0.712,35.96,2.284,53.223,8.095
		c15.872,5.342,30.557,12.984,44.024,22.944c3.473,2.568,6.822,5.305,9.972,8.258c4.758,4.46,6.605,10.034,5.146,16.35
		c-1.574,6.814-6.155,11.176-12.801,12.997c-6.637,1.819-12.919,0.665-18.178-3.996c-12.829-11.372-27.562-19.27-43.825-24.477
		C289.201,298.101,276.908,296.146,264.242,296.212z"/>
	<path fill="#FFB401" d="M245.857,510.294c-3.143-0.736-6.113-1.962-9.078-3.2c-0.512-0.214-0.986-0.485-1.328-0.94
		c-1.377-2.897-2.767-3.625-6.161-3.226c-0.232-0.059-0.496-0.065-0.691-0.185c-4.773-2.929-9.344-6.117-13.093-10.344
		c0.031-0.958,0.089-1.916,0.09-2.874c0.006-23.358,0.016-46.716-0.018-70.075c-0.002-1.641,0.286-3.138,0.934-4.636
		c3.902-9.024,7.761-18.067,11.641-27.1c0.78-1.817,1.589-3.622,2.38-5.423c0.765,0.283,0.849,0.897,1.061,1.391
		c4.576,10.648,9.131,21.306,13.715,31.951c0.424,0.985,0.573,1.97,0.566,3.026c-0.023,3.92-0.024,7.839-0.002,11.759
		c0.01,1.721,0.044,1.769,1.704,1.77c12.319,0.014,24.638-0.007,36.957,0.029c1.233,0.004,1.678-0.362,1.658-1.623
		c-0.062-3.839,0-7.679-0.034-11.519c-0.011-1.222,0.201-2.344,0.691-3.479c4.561-10.568,9.079-21.154,13.618-31.731
		c0.23-0.536,0.377-1.155,1.08-1.685c0.5,1.142,0.915,2.075,1.318,3.014c4.189,9.771,8.357,19.55,12.585,29.304
		c0.652,1.503,0.969,2.986,0.966,4.627c-0.031,23.518-0.022,47.036-0.018,70.555c0,1.039,0.048,2.077,0.073,3.116
		c-1.668,2.258-3.96,3.844-6.13,5.532c-2.302,1.79-4.58,3.661-7.359,4.724c-3.423-0.63-5.306,0.393-6.322,3.43
		c-3.328,1.738-6.816,3.042-10.474,3.892c-0.011-4.634,0.093-9.271-0.058-13.901c-0.312-9.577-8.424-19.32-20.75-18.925
		c-11.208,0.359-19.478,9.276-19.511,20.522C245.856,502.144,245.86,506.219,245.857,510.294z"/>
	<path fill="#FFB401" d="M215.686,499.198c3.382,2.47,6.763,4.94,10.144,7.411c-0.264,1.02-0.17,2.062-0.187,3.096
		c-0.044,2.708-0.083,5.417-0.124,8.125c-3.608-1.608-6.936-3.672-10.001-6.16C215.574,507.512,215.63,503.355,215.686,499.198z"/>
	<path fill="#FFB401" d="M316.329,499.469c0.041,3.858,0.083,7.715,0.124,11.574c-3.026,2.538-6.212,4.816-9.973,6.164
		c-0.026-0.866-0.05-1.732-0.079-2.599c-0.086-2.596,0.195-5.201-0.18-7.791C309.59,504.368,312.959,501.918,316.329,499.469z"/>
	<path fill="#FFB401" d="M235.737,522.383c0.032-3.534,0.064-7.069,0.096-10.603c3.359,1.15,6.718,2.301,10.077,3.452
		c-0.033,3.375-0.067,6.75-0.101,10.126C242.293,524.902,238.988,523.735,235.737,522.383z"/>
	<path fill="#FFB401" d="M296.241,511.907c0.019,3.363,0.037,6.725,0.057,10.089c-3.188,1.627-6.617,2.505-10.088,3.254
		c-0.028-3.323-0.057-6.646-0.086-9.969C289.496,514.156,292.869,513.031,296.241,511.907z"/>
	<path fill="#FFB401" d="M115.031,475.677c3.256-3.31,6.479-6.587,9.682-9.844c-0.334-0.839-0.99-0.49-1.463-0.492
		c-5.833-0.028-11.666-0.012-17.499-0.024c-1.965-0.004-1.98-0.025-1.995-1.94c-0.017-2.237-0.014-4.475-0.001-6.712
		c0.012-2.157,0.023-2.174,2.301-2.181c4.475-0.013,8.949-0.004,13.424-0.004c1.672,0,3.343,0,5.611,0
		c-3.472-3.808-6.893-6.966-10.069-10.347c0.427-0.703,1.047-0.394,1.542-0.398c3.755-0.028,7.512,0.026,11.266-0.039
		c1.205-0.021,2.093,0.287,2.955,1.175c4.565,4.7,9.175,9.357,13.816,13.981c0.794,0.791,0.9,1.265,0.052,2.107
		c-4.762,4.73-9.47,9.514-14.19,14.286c-0.52,0.526-1.054,0.923-1.861,0.917c-4.314-0.037-8.627-0.038-12.941-0.067
		C115.535,476.095,115.409,475.934,115.031,475.677z"/>
</g>
<g>
	<path d="M14.155,84.753V13.452h14.164v26.442h4.447V13.452h14.26v71.301h-14.26V50.287h-4.447v34.466H14.155z"/>
	<path d="M51.376,24.28V13.452h12.568V24.28H51.376z M51.376,84.753V27.712h12.568v57.041H51.376z"/>
	<path d="M80.477,73.249c0,1.257,0.177,2.151,0.532,2.683c0.354,0.532,0.934,0.798,1.74,0.798c0.805,0,1.385-0.266,1.74-0.798
		c0.354-0.531,0.532-1.426,0.532-2.683V62.565h12.568v10.586c0,4.125-1.298,7.323-3.891,9.596
		c-2.595,2.271-6.245,3.408-10.949,3.408c-5.317,0-9.121-1.225-11.408-3.674c-2.289-2.449-3.432-6.638-3.432-12.568V42.601
		c0-5.994,1.127-10.2,3.384-12.617c2.255-2.417,6.042-3.625,11.36-3.625c4.672,0,8.33,1.088,10.973,3.263
		c2.642,2.176,3.964,5.181,3.964,9.016v19.384H80.477V73.249z M80.477,38.734v10.78h4.544v-10.78c0-1.257-0.178-2.151-0.532-2.683
		c-0.355-0.532-0.935-0.798-1.74-0.798c-0.806,0-1.386,0.266-1.74,0.798C80.654,36.583,80.477,37.477,80.477,38.734z"/>
	<path d="M101.553,84.753V27.712h12.375v4.786h0.193c1.063-1.998,2.336-3.472,3.819-4.423c1.482-0.95,3.206-1.426,5.172-1.426
		c2.739,0,4.793,0.814,6.164,2.441c1.369,1.627,2.054,4.053,2.054,7.275v22.043h-12.665V40.522c0-1.321-0.169-2.215-0.507-2.683
		c-0.339-0.466-0.927-0.701-1.765-0.701c-0.773,0-1.346,0.274-1.716,0.822c-0.371,0.548-0.556,1.402-0.556,2.562v44.231H101.553z"/>
	<path d="M155.114,84.753V36.752h-3.094v-9.04h3.094v-5.414c0-2.771,0.837-4.938,2.514-6.502c1.675-1.562,4.012-2.344,7.009-2.344
		h7.106v8.943c-1.483,0-2.53,0.169-3.142,0.508c-0.613,0.338-0.918,0.927-0.918,1.764v3.045h4.061v9.04h-4.061v48.001H155.114z"/>
	<path d="M174.015,84.753V27.712h12.375v4.786h0.193c1.063-1.998,2.336-3.472,3.819-4.423c1.482-0.95,3.206-1.426,5.172-1.426
		c2.739,0,4.793,0.814,6.164,2.441c1.369,1.627,2.054,4.053,2.054,7.275v22.043h-12.665V40.522c0-1.321-0.169-2.215-0.507-2.683
		c-0.339-0.466-0.927-0.701-1.765-0.701c-0.773,0-1.346,0.274-1.716,0.822c-0.371,0.548-0.556,1.402-0.556,2.562v44.231H174.015z"/>
	<path d="M221.001,73.249c0,1.257,0.177,2.151,0.532,2.683c0.354,0.532,0.934,0.798,1.74,0.798c0.805,0,1.385-0.266,1.74-0.798
		c0.354-0.531,0.532-1.426,0.532-2.683V62.565h12.568v10.586c0,4.125-1.298,7.323-3.891,9.596
		c-2.595,2.271-6.245,3.408-10.949,3.408c-5.317,0-9.121-1.225-11.408-3.674c-2.289-2.449-3.432-6.638-3.432-12.568V42.601
		c0-5.994,1.127-10.2,3.384-12.617c2.255-2.417,6.042-3.625,11.36-3.625c4.672,0,8.33,1.088,10.973,3.263
		c2.642,2.176,3.964,5.181,3.964,9.016v19.384h-17.112L221.001,73.249L221.001,73.249z M221.001,38.734v10.78h4.544v-10.78
		c0-1.257-0.178-2.151-0.532-2.683c-0.355-0.532-0.935-0.798-1.74-0.798c-0.806,0-1.386,0.266-1.74,0.798
		C221.178,36.583,221.001,37.477,221.001,38.734z"/>
	<path d="M242.077,24.28V13.452h12.568V24.28H242.077z M242.077,84.753V27.712h12.568v57.041H242.077z"/>
	<path d="M271.178,73.249c0,1.257,0.177,2.151,0.532,2.683c0.354,0.532,0.935,0.798,1.74,0.798s1.385-0.266,1.74-0.798
		c0.354-0.531,0.532-1.426,0.532-2.683V62.565h12.568v10.586c0,4.125-1.298,7.323-3.892,9.596
		c-2.595,2.271-6.244,3.408-10.949,3.408c-5.318,0-9.121-1.225-11.409-3.674c-2.289-2.449-3.432-6.638-3.432-12.568V42.601
		c0-5.994,1.127-10.2,3.384-12.617c2.255-2.417,6.042-3.625,11.36-3.625c4.672,0,8.33,1.088,10.973,3.263
		c2.643,2.176,3.965,5.181,3.965,9.016v19.384h-17.113v15.227H271.178z M271.178,38.734v10.78h4.545v-10.78
		c0-1.257-0.178-2.151-0.532-2.683c-0.355-0.532-0.936-0.798-1.74-0.798c-0.806,0-1.386,0.266-1.74,0.798
		C271.354,36.583,271.178,37.477,271.178,38.734z"/>
	<path d="M321.645,72.958c0,4.254-1.273,7.517-3.818,9.789c-2.546,2.271-6.22,3.408-11.021,3.408c-4.706,0-8.371-1.145-10.997-3.432
		c-2.627-2.288-3.94-5.478-3.94-9.571V62.565h12.666v10.683c0,1.257,0.176,2.151,0.531,2.683c0.354,0.532,0.935,0.798,1.74,0.798
		s1.385-0.266,1.74-0.798c0.354-0.531,0.531-1.426,0.531-2.683v-5.124c0-2.32-2.095-5.156-6.283-8.508
		c-0.903-0.708-1.612-1.272-2.127-1.692l-0.098-0.097c-5.801-4.801-8.701-9.62-8.701-14.454v-5.076c0-3.771,1.306-6.703,3.916-8.798
		c2.61-2.094,6.252-3.142,10.925-3.142c4.737,0,8.411,1.096,11.021,3.287c2.61,2.192,3.915,5.286,3.915,9.281v8.701h-12.568v-8.895
		c0-1.257-0.177-2.151-0.531-2.683c-0.355-0.532-0.936-0.798-1.74-0.798c-0.806,0-1.386,0.266-1.74,0.798
		c-0.355,0.531-0.531,1.426-0.531,2.683v3.045c0,2.579,2.013,5.414,6.042,8.508c0.935,0.709,1.659,1.273,2.175,1.692
		c3.965,3.19,6.438,5.68,7.421,7.469c0.982,1.788,1.474,4.117,1.474,6.985v6.528H321.645z"/>
	<path d="M350.166,84.753l-7.106-71.301h14.309l1.692,27.215c0.161,2.385,0.298,5.003,0.411,7.855
		c0.112,2.852,0.249,6.969,0.41,12.351h0.484c0.225-3.19,0.459-6.179,0.7-8.967c0.242-2.787,0.476-5.132,0.701-7.034l3.722-31.421
		h15.082l2.949,33.645c0.031,0.548,0.177,2.393,0.436,5.535c0.257,3.143,0.482,5.89,0.676,8.242h0.484
		c0.128-3.931,0.281-7.573,0.459-10.925c0.177-3.351,0.378-6.59,0.604-9.716l2.225-26.78h11.939l-7.686,71.301h-16.436
		l-3.578-38.237c-0.129-1.354-0.25-2.924-0.362-4.713c-0.113-1.788-0.218-4.1-0.313-6.937h-0.532l-5.027,49.887H350.166z"/>
	<path d="M404.112,84.753V13.452h14.261v60.521h12.278v10.78H404.112z"/>
	<path d="M434.567,84.753l11.408-71.301H464.2l8.41,71.301h-14.743l-1.401-18.998h-7.059l-1.836,18.998H434.567z M450.52,55.266
		h5.269l-1.595-21.753c-0.097-1.224-0.178-3.432-0.241-6.623c-0.033-1.385-0.049-2.465-0.049-3.239h-0.531
		c-0.13,2.74-0.242,4.923-0.339,6.55c-0.097,1.628-0.178,2.7-0.241,3.215L450.52,55.266z"/>
	<path d="M475.366,84.753V13.452h19.529l5.027,30.212c0.45,2.707,0.837,5.737,1.16,9.088c0.321,3.352,0.596,7.187,0.821,11.505h0.58
		c-0.226-5.027-0.396-9.418-0.508-13.173c-0.113-3.753-0.169-6.453-0.169-8.097l-0.097-29.536h11.167v71.301h-16.727l-7.299-38.72
		c-0.29-1.514-0.652-3.802-1.088-6.864c-0.435-3.061-0.878-6.413-1.329-10.055h-0.387c0.193,2.965,0.346,5.559,0.459,7.783
		c0.112,2.224,0.169,4.045,0.169,5.462v42.394L475.366,84.753L475.366,84.753z"/>
</g>
<g>
	<path d="M56.408,680.419V549.34h48.788v18.218H82.624v30.215h22.039v18.929H82.624v63.718H56.408V680.419z"/>
	<path d="M111.417,680.419V575.556h22.75v8.798h0.355c1.955-3.673,4.295-6.383,7.021-8.132c2.724-1.746,5.895-2.621,9.509-2.621
		c5.035,0,8.812,1.497,11.331,4.488c2.518,2.992,3.777,7.45,3.777,13.374v40.523h-23.283v-32.881c0-2.429-0.311-4.072-0.933-4.933
		c-0.622-0.857-1.704-1.288-3.244-1.288c-1.422,0-2.475,0.504-3.155,1.511c-0.682,1.008-1.022,2.577-1.022,4.71v81.313
		L111.417,680.419L111.417,680.419z"/>
	<path d="M197.796,659.269c0,2.311,0.325,3.955,0.978,4.932c0.651,0.979,1.718,1.467,3.199,1.467c1.48,0,2.546-0.488,3.199-1.467
		c0.651-0.977,0.978-2.621,0.978-4.932v-19.64h23.105v19.462c0,7.584-2.386,13.463-7.154,17.641
		c-4.77,4.176-11.479,6.265-20.128,6.265c-9.775,0-16.767-2.252-20.973-6.754c-4.208-4.502-6.31-12.204-6.31-23.105v-50.21
		c0-11.02,2.073-18.751,6.221-23.194c4.146-4.443,11.108-6.665,20.884-6.665c8.589,0,15.314,2,20.173,5.998
		c4.857,4,7.287,9.524,7.287,16.574v35.636h-31.459V659.269z M197.796,595.817v19.817h8.354v-19.817
		c0-2.311-0.326-3.955-0.978-4.932c-0.653-0.979-1.719-1.467-3.199-1.467c-1.481,0-2.548,0.488-3.199,1.467
		C198.121,591.862,197.796,593.507,197.796,595.817z"/>
	<path d="M236.542,569.246V549.34h23.105v19.906L236.542,569.246L236.542,569.246z M236.542,680.419V575.556h23.105v104.863H236.542
		z"/>
	<path d="M270.934,680.419v-88.245h-5.688v-16.618h5.688v-9.953c0-5.095,1.54-9.078,4.621-11.953c3.08-2.872,7.376-4.31,12.886-4.31
		h13.063v16.44c-2.726,0-4.651,0.311-5.776,0.934c-1.126,0.621-1.688,1.703-1.688,3.243v5.599h7.465v16.618h-7.465v88.245H270.934z"
		/>
	<path d="M360.423,575.556v104.863h-22.75v-8.709h-0.533c-1.955,3.614-4.252,6.266-6.888,7.953
		c-2.637,1.689-5.791,2.533-9.464,2.533c-5.036,0-8.813-1.467-11.331-4.398c-2.519-2.934-3.776-7.332-3.776-13.197v-89.045h23.105
		v81.402c0,2.311,0.34,3.91,1.022,4.799c0.68,0.889,1.791,1.333,3.332,1.333c1.422,0,2.443-0.474,3.066-1.422
		c0.621-0.947,0.933-2.518,0.933-4.71v-81.402H360.423z"/>
	<path d="M367.71,680.419V575.556h22.75v8.798h0.355c1.955-3.673,4.295-6.383,7.021-8.132c2.725-1.746,5.895-2.621,9.509-2.621
		c5.035,0,8.812,1.497,11.331,4.488c2.517,2.992,3.776,7.45,3.776,13.374v88.956h-23.283v-81.313c0-2.429-0.312-4.072-0.933-4.933
		c-0.623-0.857-1.704-1.288-3.244-1.288c-1.422,0-2.475,0.504-3.154,1.511c-0.683,1.008-1.022,2.577-1.022,4.71v81.313H367.71z"/>
	<path d="M429.739,680.419V549.34h23.105v71.894h0.355l9.864-45.678h23.639l-11.464,45.322l11.464,59.541h-24.35l-9.153-54.92
		h-0.355v54.92L429.739,680.419L429.739,680.419z"/>
</g>
<g>
	<path fill="#DE2F6A" d="M86.313,729.935l-3.989-28.809h6.541l1.214,14.917c0.065,0.944,0.115,1.986,0.148,3.125
		c0.033,1.14,0.049,2.344,0.049,3.613h0.248c0.066-2.393,0.239-4.761,0.52-7.104c0.017-0.179,0.033-0.309,0.05-0.391l1.61-14.16
		h6.764l1.313,14.917c0.016,0.146,0.053,0.961,0.111,2.441c0.058,1.481,0.12,2.914,0.186,4.297h0.272
		c0.099-2.132,0.256-4.329,0.471-6.592c0.049-0.455,0.074-0.74,0.074-0.854l1.313-14.209h6.244l-4.36,28.809h-7.458l-1.214-13.208
		c-0.033-0.406-0.074-1.221-0.124-2.441c-0.049-1.221-0.099-2.62-0.148-4.199H95.9c-0.083,2.133-0.248,4.167-0.496,6.104v0.098
		l-1.734,13.647h-7.357V729.935z"/>
	<path fill="#DE2F6A" d="M112.5,729.935l-3.989-28.809h6.541l1.214,14.917c0.065,0.944,0.115,1.986,0.148,3.125
		c0.033,1.14,0.049,2.344,0.049,3.613h0.248c0.066-2.393,0.239-4.761,0.52-7.104c0.017-0.179,0.033-0.309,0.05-0.391l1.61-14.16
		h6.764l1.313,14.917c0.016,0.146,0.053,0.961,0.111,2.441c0.058,1.481,0.12,2.914,0.186,4.297h0.272
		c0.099-2.132,0.256-4.329,0.471-6.592c0.049-0.455,0.074-0.74,0.074-0.854l1.313-14.209h6.244l-4.36,28.809h-7.458l-1.214-13.208
		c-0.033-0.406-0.074-1.221-0.124-2.441c-0.049-1.221-0.099-2.62-0.148-4.199h-0.248c-0.083,2.133-0.248,4.167-0.496,6.104v0.098
		l-1.734,13.647H112.5V729.935z"/>
	<path fill="#DE2F6A" d="M138.688,729.935l-3.989-28.809h6.541l1.214,14.917c0.065,0.944,0.115,1.986,0.148,3.125
		c0.033,1.14,0.049,2.344,0.049,3.613h0.248c0.066-2.393,0.239-4.761,0.52-7.104c0.017-0.179,0.033-0.309,0.05-0.391l1.61-14.16
		h6.764l1.313,14.917c0.016,0.146,0.053,0.961,0.111,2.441c0.058,1.481,0.12,2.914,0.186,4.297h0.272
		c0.099-2.132,0.256-4.329,0.471-6.592c0.049-0.455,0.074-0.74,0.074-0.854l1.313-14.209h6.244l-4.36,28.809h-7.458l-1.214-13.208
		c-0.033-0.406-0.074-1.221-0.124-2.441c-0.049-1.221-0.099-2.62-0.148-4.199h-0.248c-0.083,2.133-0.248,4.167-0.496,6.104v0.098
		l-1.734,13.647h-7.357V729.935z"/>
	<path fill="#DE2F6A" d="M161.852,729.935v-7.349h6.714v7.349H161.852z"/>
	<path fill="#DE2F6A" d="M172.109,729.935v-24.243h-1.585v-4.565h1.585v-2.734c0-1.399,0.429-2.494,1.289-3.283
		c0.858-0.79,2.056-1.185,3.592-1.185h3.642v4.517c-0.76,0-1.296,0.086-1.61,0.256c-0.314,0.172-0.471,0.469-0.471,0.892v1.538
		h2.081v4.565h-2.081v24.243h-6.442V729.935z"/>
	<path fill="#DE2F6A" d="M181.796,729.935v-28.809h6.342v2.417h0.099c0.545-1.009,1.197-1.754,1.957-2.233
		c0.76-0.48,1.644-0.721,2.651-0.721c1.404,0,2.457,0.411,3.159,1.232c0.702,0.822,1.053,2.048,1.053,3.675v11.133h-6.491v-9.033
		c0-0.667-0.086-1.119-0.26-1.354c-0.173-0.236-0.475-0.354-0.904-0.354c-0.396,0-0.69,0.139-0.88,0.415
		c-0.19,0.277-0.285,0.708-0.285,1.294v22.339L181.796,729.935L181.796,729.935z"/>
	<path fill="#DE2F6A" d="M205.877,724.124c0,0.635,0.091,1.086,0.272,1.355c0.182,0.268,0.479,0.402,0.892,0.402
		s0.71-0.135,0.892-0.402c0.182-0.27,0.273-0.721,0.273-1.355v-5.396h6.441v5.347c0,2.084-0.665,3.699-1.995,4.846
		c-1.33,1.148-3.2,1.722-5.611,1.722c-2.726,0-4.674-0.619-5.847-1.855s-1.759-3.353-1.759-6.348v-13.794
		c0-3.027,0.578-5.151,1.734-6.372c1.156-1.221,3.097-1.831,5.822-1.831c2.395,0,4.27,0.549,5.624,1.648
		c1.354,1.098,2.032,2.616,2.032,4.553v9.79h-8.771v7.69H205.877z M205.877,706.692v5.444h2.329v-5.444
		c0-0.635-0.091-1.086-0.273-1.355c-0.182-0.268-0.479-0.402-0.892-0.402s-0.71,0.135-0.892,0.402
		C205.968,705.606,205.877,706.058,205.877,706.692z"/>
	<path fill="#DE2F6A" d="M216.679,699.393v-5.469h6.441v5.469H216.679z M216.679,729.935v-28.809h6.441v28.809H216.679z"/>
	<path fill="#DE2F6A" d="M226.267,729.935v-24.243h-1.585v-4.565h1.585v-2.734c0-1.399,0.429-2.494,1.289-3.283
		c0.858-0.79,2.056-1.185,3.592-1.185h3.642v4.517c-0.76,0-1.296,0.086-1.61,0.256c-0.314,0.172-0.471,0.469-0.471,0.892v1.538
		h2.081v4.565h-2.081v24.243h-6.442V729.935z"/>
	<path fill="#DE2F6A" d="M251.216,701.126v28.809h-6.343v-2.393h-0.148c-0.545,0.993-1.186,1.721-1.92,2.186
		c-0.735,0.463-1.615,0.695-2.639,0.695c-1.404,0-2.457-0.402-3.159-1.209c-0.702-0.805-1.053-2.014-1.053-3.625v-24.463h6.441
		v22.363c0,0.635,0.095,1.074,0.285,1.318c0.189,0.244,0.499,0.366,0.929,0.366c0.396,0,0.682-0.13,0.854-0.391
		c0.174-0.26,0.261-0.691,0.261-1.294v-22.363L251.216,701.126L251.216,701.126z"/>
	<path fill="#DE2F6A" d="M253.247,729.935v-28.809h6.343v2.417h0.099c0.545-1.009,1.197-1.754,1.957-2.233
		c0.76-0.48,1.644-0.721,2.651-0.721c1.403,0,2.456,0.411,3.158,1.232c0.702,0.822,1.054,2.048,1.054,3.675v24.438h-6.491v-22.339
		c0-0.667-0.087-1.119-0.261-1.354c-0.173-0.236-0.475-0.354-0.904-0.354c-0.396,0-0.689,0.139-0.879,0.415
		c-0.19,0.277-0.285,0.708-0.285,1.294v22.339L253.247,729.935L253.247,729.935z"/>
	<path fill="#DE2F6A" d="M270.54,729.935v-36.011h6.441v19.751h0.099l2.75-12.549h6.591l-3.196,12.451l3.196,16.357h-6.788
		l-2.553-15.088h-0.099v15.088h-6.441V729.935z"/>
	<path fill="#DE2F6A" d="M287.685,717.996v-4.907h9.043v4.907H287.685z"/>
	<path fill="#DE2F6A" d="M299.353,729.935v-36.011h8.523c3.104,0,5.302,0.663,6.59,1.989c1.288,1.327,1.933,3.618,1.933,6.873
		v18.237c0,3.239-0.694,5.534-2.081,6.885c-1.388,1.352-3.7,2.026-6.938,2.026L299.353,729.935L299.353,729.935z M306.612,698.782
		v26.05h0.396c0.759,0,1.296-0.154,1.61-0.464c0.313-0.309,0.471-0.821,0.471-1.538v-21.948c0-0.83-0.161-1.388-0.483-1.672
		C308.284,698.925,307.619,698.782,306.612,698.782z"/>
	<path fill="#DE2F6A" d="M333.741,701.126v28.809h-6.343v-2.393h-0.148c-0.545,0.993-1.186,1.721-1.92,2.186
		c-0.735,0.463-1.615,0.695-2.639,0.695c-1.404,0-2.457-0.402-3.159-1.209c-0.702-0.805-1.053-2.014-1.053-3.625v-24.463h6.441
		v22.363c0,0.635,0.095,1.074,0.285,1.318c0.189,0.244,0.499,0.366,0.929,0.366c0.396,0,0.682-0.13,0.854-0.391
		c0.174-0.26,0.261-0.691,0.261-1.294v-22.363L333.741,701.126L333.741,701.126z M320.461,699.124v-4.907h4.51v4.907H320.461z
		 M327.15,699.124v-4.907h4.51v4.907H327.15z"/>
	<path fill="#DE2F6A" d="M335.772,729.935v-36.011h6.441v36.011H335.772z"/>
	<path fill="#DE2F6A" d="M344.345,729.935v-28.809h6.293v2.417h0.099c0.515-0.992,1.159-1.733,1.932-2.222s1.674-0.732,2.703-0.732
		c0.98,0,1.803,0.248,2.468,0.744c0.664,0.497,1.154,1.233,1.47,2.21h0.1c0.576-0.992,1.247-1.733,2.013-2.222
		s1.651-0.732,2.656-0.732c1.416,0,2.462,0.399,3.138,1.196c0.675,0.798,1.013,2.035,1.013,3.711v24.438h-6.466v-22.339
		c0-0.667-0.086-1.119-0.258-1.354c-0.172-0.236-0.47-0.354-0.895-0.354c-0.393,0-0.683,0.139-0.87,0.415
		c-0.188,0.277-0.282,0.708-0.282,1.294v22.339h-6.342v-22.339c0-0.667-0.089-1.119-0.267-1.354
		c-0.177-0.236-0.484-0.354-0.923-0.354c-0.405,0-0.704,0.139-0.898,0.415c-0.194,0.277-0.291,0.708-0.291,1.294v22.339
		L344.345,729.935L344.345,729.935z"/>
	<path fill="#DE2F6A" d="M376.553,724.124c0,0.635,0.09,1.086,0.272,1.355c0.181,0.268,0.479,0.402,0.892,0.402
		c0.412,0,0.71-0.135,0.892-0.402c0.182-0.27,0.272-0.721,0.272-1.355v-5.396h6.441v5.347c0,2.084-0.665,3.699-1.994,4.846
		c-1.33,1.148-3.2,1.722-5.611,1.722c-2.726,0-4.675-0.619-5.847-1.855c-1.173-1.236-1.76-3.353-1.76-6.348v-13.794
		c0-3.027,0.578-5.151,1.734-6.372s3.097-1.831,5.822-1.831c2.395,0,4.27,0.549,5.624,1.648c1.354,1.098,2.031,2.616,2.031,4.553
		v9.79h-8.77v7.69H376.553z M376.553,706.692v5.444h2.328v-5.444c0-0.635-0.091-1.086-0.272-1.355
		c-0.182-0.268-0.479-0.402-0.892-0.402s-0.711,0.135-0.892,0.402C376.643,705.606,376.553,706.058,376.553,706.692z"/>
	<path fill="#DE2F6A" d="M387.354,729.935v-28.809h6.343v2.417h0.099c0.545-1.009,1.197-1.754,1.957-2.233
		c0.76-0.48,1.644-0.721,2.651-0.721c1.403,0,2.456,0.411,3.158,1.232c0.702,0.822,1.054,2.048,1.054,3.675v24.438h-6.491v-22.339
		c0-0.667-0.087-1.119-0.261-1.354c-0.173-0.236-0.475-0.354-0.904-0.354c-0.396,0-0.689,0.139-0.879,0.415
		c-0.19,0.277-0.285,0.708-0.285,1.294v22.339L387.354,729.935L387.354,729.935z"/>
	<path fill="#DE2F6A" d="M405.044,729.935v-7.349h6.714v7.349H405.044z"/>
	<path fill="#DE2F6A" d="M429.396,729.935h-6.342v-2.49h-0.1c-0.43,1.059-1.028,1.855-1.796,2.393s-1.706,0.806-2.812,0.806
		c-1.404,0-2.449-0.403-3.135-1.208c-0.686-0.807-1.028-2.022-1.028-3.65v-20.288c0-1.644,0.348-2.872,1.041-3.687
		c0.693-0.813,1.734-1.221,3.122-1.221c1.023,0,1.907,0.244,2.65,0.732s1.362,1.229,1.858,2.222h0.099v-9.619h6.441v36.01H429.396z
		 M420.627,723.636c0,0.668,0.086,1.127,0.26,1.379c0.173,0.253,0.475,0.379,0.904,0.379c0.396,0,0.689-0.146,0.88-0.439
		c0.189-0.293,0.284-0.732,0.284-1.318v-16.04c0-0.586-0.095-1.017-0.284-1.294c-0.19-0.276-0.483-0.415-0.88-0.415
		c-0.43,0-0.731,0.118-0.904,0.354c-0.174,0.235-0.26,0.688-0.26,1.354V723.636z"/>
	<path fill="#DE2F6A" d="M437.871,724.124c0,0.635,0.09,1.086,0.272,1.355c0.181,0.268,0.479,0.402,0.892,0.402
		c0.412,0,0.71-0.135,0.892-0.402c0.182-0.27,0.272-0.721,0.272-1.355v-5.396h6.441v5.347c0,2.084-0.665,3.699-1.994,4.846
		c-1.33,1.148-3.2,1.722-5.611,1.722c-2.726,0-4.675-0.619-5.847-1.855c-1.173-1.236-1.76-3.353-1.76-6.348v-13.794
		c0-3.027,0.578-5.151,1.734-6.372s3.097-1.831,5.822-1.831c2.395,0,4.27,0.549,5.624,1.648c1.354,1.098,2.031,2.616,2.031,4.553
		v9.79h-8.77v7.69H437.871z M437.871,706.692v5.444h2.328v-5.444c0-0.635-0.091-1.086-0.272-1.355
		c-0.182-0.268-0.479-0.402-0.892-0.402s-0.711,0.135-0.892,0.402C437.961,705.606,437.871,706.058,437.871,706.692z"/>
</g>
</svg>
