<?xml version="1.0" encoding="UTF-8" standalone="no"?>
<!-- Created with Inkscape (http://www.inkscape.org/) -->

<svg
   xmlns:dc="http://purl.org/dc/elements/1.1/"
   xmlns:cc="http://creativecommons.org/ns#"
   xmlns:rdf="http://www.w3.org/1999/02/22-rdf-syntax-ns#"
   xmlns:svg="http://www.w3.org/2000/svg"
   xmlns="http://www.w3.org/2000/svg"
   xmlns:xlink="http://www.w3.org/1999/xlink"
   xmlns:sodipodi="http://sodipodi.sourceforge.net/DTD/sodipodi-0.dtd"
   xmlns:inkscape="http://www.inkscape.org/namespaces/inkscape"
   width="357.87375"
   height="357.87375"
   id="svg2"
   version="1.1"
   inkscape:version="0.48.4 r9939"
   sodipodi:docname="Runder_Aufkleber_Schriften_als_Pfade2.svg"
   inkscape:export-filename="Logo.png"
   inkscape:export-xdpi="900.06604"
   inkscape:export-ydpi="900.06604">
  <sodipodi:namedview
     id="base"
     pagecolor="#ffffff"
     bordercolor="#666666"
     borderopacity="1.0"
     inkscape:pageopacity="0.0"
     inkscape:pageshadow="2"
     inkscape:zoom="2.5402344"
     inkscape:cx="178.72406"
     inkscape:cy="178.89502"
     inkscape:document-units="px"
     inkscape:current-layer="layer1"
     showgrid="false"
     fit-margin-top="0"
     fit-margin-left="0"
     fit-margin-right="0"
     fit-margin-bottom="0"
     inkscape:window-width="1920"
     inkscape:window-height="1056"
     inkscape:window-x="0"
     inkscape:window-y="24"
     inkscape:window-maximized="1"
     showguides="true"
     inkscape:guide-bbox="true"
     units="cm" />
  <title
     id="title3028">Freifunk.net Sticker &quot;rund&quot;</title>
  <defs
     id="defs4">
    <linearGradient
       inkscape:collect="always"
       id="linearGradient3980">
      <stop
         style="stop-color:#6f784c;stop-opacity:1;"
         offset="0"
         id="stop3982" />
      <stop
         style="stop-color:#6f784c;stop-opacity:0;"
         offset="1"
         id="stop3984" />
    </linearGradient>
    <marker
       inkscape:stockid="Tail"
       orient="auto"
       refY="0"
       refX="0"
       id="Tail"
       style="overflow:visible">
      <g
         id="g4138"
         transform="scale(-1.2,-1.2)">
        <path
           id="path4140"
           d="M -3.8048674,-3.9585227 0.54352094,0"
           style="fill:none;stroke:#000000;stroke-width:0.80000001;stroke-linecap:round"
           inkscape:connector-curvature="0" />
        <path
           id="path4142"
           d="M -1.2866832,-3.9585227 3.0617053,0"
           style="fill:none;stroke:#000000;stroke-width:0.80000001;stroke-linecap:round"
           inkscape:connector-curvature="0" />
        <path
           id="path4144"
           d="M 1.3053582,-3.9585227 5.6537466,0"
           style="fill:none;stroke:#000000;stroke-width:0.80000001;stroke-linecap:round"
           inkscape:connector-curvature="0" />
        <path
           id="path4146"
           d="M -3.8048674,4.1775838 0.54352094,0.21974226"
           style="fill:none;stroke:#000000;stroke-width:0.80000001;stroke-linecap:round"
           inkscape:connector-curvature="0" />
        <path
           id="path4148"
           d="M -1.2866832,4.1775838 3.0617053,0.21974226"
           style="fill:none;stroke:#000000;stroke-width:0.80000001;stroke-linecap:round"
           inkscape:connector-curvature="0" />
        <path
           id="path4150"
           d="M 1.3053582,4.1775838 5.6537466,0.21974226"
           style="fill:none;stroke:#000000;stroke-width:0.80000001;stroke-linecap:round"
           inkscape:connector-curvature="0" />
      </g>
    </marker>
    <marker
       inkscape:stockid="Arrow1Lend"
       orient="auto"
       refY="0"
       refX="0"
       id="Arrow1Lend"
       style="overflow:visible">
      <path
         id="path4105"
         d="M 0,0 5,-5 -12.5,0 5,5 0,0 z"
         style="fill-rule:evenodd;stroke:#000000;stroke-width:1pt"
         transform="matrix(-0.8,0,0,-0.8,-10,0)"
         inkscape:connector-curvature="0" />
    </marker>
    <marker
       inkscape:stockid="Arrow1Lstart"
       orient="auto"
       refY="0"
       refX="0"
       id="Arrow1Lstart"
       style="overflow:visible">
      <path
         id="path4102"
         d="M 0,0 5,-5 -12.5,0 5,5 0,0 z"
         style="fill-rule:evenodd;stroke:#000000;stroke-width:1pt"
         transform="matrix(0.8,0,0,0.8,10,0)"
         inkscape:connector-curvature="0" />
    </marker>
    <linearGradient
       inkscape:collect="always"
       xlink:href="#linearGradient3980"
       id="linearGradient3986"
       x1="-737.14288"
       y1="239.71428"
       x2="-248.57144"
       y2="239.71428"
       gradientUnits="userSpaceOnUse" />
    <clipPath
       id="clipPath3223"
       clipPathUnits="userSpaceOnUse">
      <path
         id="path3225"
         d="m 0,0 286.299,0 0,286.299 L 0,286.299 0,0 z"
         inkscape:connector-curvature="0" />
    </clipPath>
    <clipPath
       id="clipPath3213"
       clipPathUnits="userSpaceOnUse">
      <path
         id="path3215"
         d="m 0,286.29901 286.29901,0 L 286.29901,0 0,0 0,286.29901 z"
         inkscape:connector-curvature="0" />
    </clipPath>
    <clipPath
       id="clipPath3145"
       clipPathUnits="userSpaceOnUse">
      <path
         id="path3147"
         d="m 0,286.29901 286.29901,0 L 286.29901,0 0,0 0,286.29901 z"
         inkscape:connector-curvature="0" />
    </clipPath>
    <clipPath
       id="clipPath3145-6"
       clipPathUnits="userSpaceOnUse">
      <path
         inkscape:connector-curvature="0"
         id="path3147-7"
         d="m 0,286.29901 286.29901,0 L 286.29901,0 0,0 0,286.29901 z" />
    </clipPath>
    <clipPath
       id="clipPath3213-4"
       clipPathUnits="userSpaceOnUse">
      <path
         inkscape:connector-curvature="0"
         id="path3215-2"
         d="m 0,286.29901 286.29901,0 L 286.29901,0 0,0 0,286.29901 z" />
    </clipPath>
    <clipPath
       id="clipPath3223-3"
       clipPathUnits="userSpaceOnUse">
      <path
         inkscape:connector-curvature="0"
         id="path3225-6"
         d="m 0,0 286.299,0 0,286.299 L 0,286.299 0,0 z" />
    </clipPath>
  </defs>
  <metadata
     id="metadata7">
    <rdf:RDF>
      <cc:Work
         rdf:about="">
        <dc:format>image/svg+xml</dc:format>
        <dc:type
           rdf:resource="http://purl.org/dc/dcmitype/StillImage" />
        <dc:title>Freifunk.net Sticker &quot;rund&quot;</dc:title>
        <dc:date>2014-11-08</dc:date>
        <dc:creator>
          <cc:Agent>
            <dc:title>freifunk - mik - adorfer</dc:title>
          </cc:Agent>
        </dc:creator>
        <dc:rights>
          <cc:Agent>
            <dc:title>freifunk.net</dc:title>
          </cc:Agent>
        </dc:rights>
        <dc:publisher>
          <cc:Agent>
            <dc:title>freifunk rheinland</dc:title>
          </cc:Agent>
        </dc:publisher>
        <dc:source>freifunk rheinland</dc:source>
        <dc:language>german</dc:language>
        <cc:license
           rdf:resource="http://creativecommons.org/licenses/by-sa/3.0/" />
      </cc:Work>
      <cc:License
         rdf:about="http://creativecommons.org/licenses/by-sa/3.0/">
        <cc:permits
           rdf:resource="http://creativecommons.org/ns#Reproduction" />
        <cc:permits
           rdf:resource="http://creativecommons.org/ns#Distribution" />
        <cc:requires
           rdf:resource="http://creativecommons.org/ns#Notice" />
        <cc:requires
           rdf:resource="http://creativecommons.org/ns#Attribution" />
        <cc:permits
           rdf:resource="http://creativecommons.org/ns#DerivativeWorks" />
        <cc:requires
           rdf:resource="http://creativecommons.org/ns#ShareAlike" />
      </cc:License>
    </rdf:RDF>
  </metadata>
  <g
     inkscape:label="Ebene 1"
     inkscape:groupmode="layer"
     id="layer1"
     transform="translate(-129.99571,-255.82785)">
    <text
       xml:space="preserve"
       style="font-size:40px;font-style:normal;font-weight:normal;line-height:125%;letter-spacing:0px;word-spacing:0px;fill:#000000;fill-opacity:1;stroke:none;font-family:Sans"
       x="666.42859"
       y="466.85715"
       id="text6014"
       sodipodi:linespacing="125%"
       transform="translate(129.14285,-409.35208)"><tspan
         sodipodi:role="line"
         id="tspan6016"
         x="666.42859"
         y="466.85715" /></text>
    <g
       id="g4032">
      <path
         transform="matrix(0.35800804,0,0,0.35525665,58.557753,253.33163)"
         d="m 633.36565,630.54559 c 0,50.48922 -41.15572,91.41881 -91.92388,91.41881 -50.76816,0 -91.92388,-40.92959 -91.92388,-91.41881 0,-50.48921 41.15572,-91.4188 91.92388,-91.4188 50.76816,0 91.92388,40.92959 91.92388,91.4188 z"
         sodipodi:ry="91.418808"
         sodipodi:rx="91.923882"
         sodipodi:cy="630.54559"
         sodipodi:cx="541.44177"
         id="path3769-1"
         style="fill:#de2c68;fill-opacity:0;stroke:#de2c68;stroke-width:6.2565279;stroke-linecap:round;stroke-linejoin:round;stroke-miterlimit:4;stroke-opacity:1;stroke-dasharray:none;stroke-dashoffset:0"
         sodipodi:type="arc" />
      <g
         id="g3526"
         transform="matrix(0.37282524,0,0,0.3709317,55.819736,397.90479)">
        <path
           sodipodi:type="arc"
           style="fill:#de2c68;fill-opacity:0;stroke:#de2c68;stroke-width:5.85236359;stroke-linecap:round;stroke-linejoin:round;stroke-miterlimit:4;stroke-opacity:1;stroke-dasharray:none;stroke-dashoffset:0"
           id="path3769"
           sodipodi:cx="541.44177"
           sodipodi:cy="630.54559"
           sodipodi:rx="91.923882"
           sodipodi:ry="91.418808"
           d="m 633.36565,630.54559 c 0,50.48922 -41.15572,91.41881 -91.92388,91.41881 -50.76816,0 -91.92388,-40.92959 -91.92388,-91.41881 0,-50.48921 41.15572,-91.4188 91.92388,-91.4188 50.76816,0 91.92388,40.92959 91.92388,91.4188 z"
           transform="matrix(1.0224064,0,0,1.028055,127.44008,-483.10461)" />
        <path
           sodipodi:type="arc"
           style="fill:#de2c68;fill-opacity:0;stroke:#de2c68;stroke-width:20.30459595;stroke-linecap:round;stroke-linejoin:round;stroke-miterlimit:4;stroke-opacity:1;stroke-dasharray:none;stroke-dashoffset:0"
           id="path3769-7"
           sodipodi:cx="541.44177"
           sodipodi:cy="630.54559"
           sodipodi:rx="91.923882"
           sodipodi:ry="91.418808"
           d="m 633.36565,630.54559 c 0,50.48922 -41.15572,91.41881 -91.92388,91.41881 -50.76816,0 -91.92388,-40.92959 -91.92388,-91.41881 0,-50.48921 41.15572,-91.4188 91.92388,-91.4188 50.76816,0 91.92388,40.92959 91.92388,91.4188 z"
           transform="matrix(1.3179562,0,0,1.3416457,-31.453693,-680.82086)" />
        <path
           style="fill:#ffb400;fill-opacity:1;stroke:#ffffff;stroke-width:7.70672464;stroke-linecap:butt;stroke-linejoin:miter;stroke-miterlimit:4;stroke-opacity:1;stroke-dasharray:none"
           d="m 697.15395,172.93619 43.51307,-0.186 0.14021,31.55035 -43.60483,-0.0137 23.90675,24.79675 -46.35404,-0.16503 -41.11305,-41.41116 40.89711,-40.21526 48.47114,0.22069 z"
           id="path5435"
           inkscape:connector-curvature="0"
           sodipodi:nodetypes="cccccccccc" />
        <path
           style="fill:#ffb400;fill-opacity:1;stroke:#ffffff;stroke-width:5.60681152;stroke-linecap:butt;stroke-linejoin:miter;stroke-miterlimit:4;stroke-opacity:1;stroke-dasharray:none"
           d="m 470.12264,180.88155 25.49972,-0.0421 -15.62534,-15.06507 30.93209,0.15208 24.87689,24.87921 -25.93655,25.13265 -29.21645,0.25333 14.96937,-15.09835 -25.45793,-0.0333 z"
           id="path5554"
           inkscape:connector-curvature="0"
           sodipodi:nodetypes="cccccccccc" />
        <path
           style="fill:none;stroke:#de2c68;stroke-width:43;stroke-linecap:round;stroke-linejoin:miter;stroke-miterlimit:4;stroke-opacity:1;stroke-dasharray:none;marker-start:none"
           d="m 421.42857,-181.49494 c 81.98455,-77.55236 168.10009,-106.66541 261.42856,-107.85714 98.19029,0.84563 193.67448,46.97789 254.28573,106.42857"
           id="path5698"
           inkscape:connector-curvature="0"
           sodipodi:nodetypes="ccc" />
        <path
           style="fill:none;stroke:#de2c68;stroke-width:43;stroke-linecap:round;stroke-linejoin:miter;stroke-miterlimit:4;stroke-opacity:1;stroke-dasharray:none;marker-start:none"
           d="m 495.58853,-90.893933 c 58.33319,-56.303967 119.60566,-77.440407 186.01022,-78.305607 69.86383,0.61392 137.80221,34.10652 180.92799,77.268447"
           id="path5698-0"
           inkscape:connector-curvature="0"
           sodipodi:nodetypes="ccc" />
        <path
           style="fill:none;stroke:#de2c68;stroke-width:43;stroke-linecap:round;stroke-linejoin:miter;stroke-miterlimit:4;stroke-opacity:1;stroke-dasharray:none;marker-start:none"
           d="m 575.38608,-7.922519 c 33.1889,-30.993088 68.05011,-42.627852 105.83125,-43.104112 39.74929,0.33794 78.4031,18.774279 102.93968,42.533202"
           id="path5698-0-9"
           inkscape:connector-curvature="0"
           sodipodi:nodetypes="ccc" />
      </g>
    </g>
    <g
       id="g3831"
       transform="matrix(0.24638744,0,0,0.16664799,175.30764,452.3082)">
      <g
         id="g4095"
         transform="matrix(1.0757994,0,0,1.590559,-74.249429,-506.03662)">
        <rect
           id="rect4084"
           height="248"
           width="248"
           y="0"
           x="0"
           style="fill:#ffffff;fill-opacity:1" />
        <g
           id="elements">
          <path
             id="path4087"
             d="m 8,8 8,0 0,8 -8,0 z m 8,0 8,0 0,8 -8,0 z m 8,0 8,0 0,8 -8,0 z m 8,0 8,0 0,8 -8,0 z m 8,0 8,0 0,8 -8,0 z m 8,0 8,0 0,8 -8,0 z m 8,0 8,0 0,8 -8,0 z m 32,0 8,0 0,8 -8,0 z m 16,0 8,0 0,8 -8,0 z m 8,0 8,0 0,8 -8,0 z m 48,0 8,0 0,8 -8,0 z m 8,0 8,0 0,8 -8,0 z m 16,0 8,0 0,8 -8,0 z m 8,0 8,0 0,8 -8,0 z m 8,0 8,0 0,8 -8,0 z m 8,0 8,0 0,8 -8,0 z m 8,0 8,0 0,8 -8,0 z m 8,0 8,0 0,8 -8,0 z m 8,0 8,0 0,8 -8,0 z m -224,8 8,0 0,8 -8,0 z m 48,0 8,0 0,8 -8,0 z m 16,0 8,0 0,8 -8,0 z m 16,0 8,0 0,8 -8,0 z m 32,0 8,0 0,8 -8,0 z m 8,0 8,0 0,8 -8,0 z m 40,0 8,0 0,8 -8,0 z m 16,0 8,0 0,8 -8,0 z m 48,0 8,0 0,8 -8,0 z m -224,8 8,0 0,8 -8,0 z m 16,0 8,0 0,8 -8,0 z m 8,0 8,0 0,8 -8,0 z m 8,0 8,0 0,8 -8,0 z m 16,0 8,0 0,8 -8,0 z m 48,0 8,0 0,8 -8,0 z m 16,0 8,0 0,8 -8,0 z m 8,0 8,0 0,8 -8,0 z m 8,0 8,0 0,8 -8,0 z m 16,0 8,0 0,8 -8,0 z m 8,0 8,0 0,8 -8,0 z m 24,0 8,0 0,8 -8,0 z m 16,0 8,0 0,8 -8,0 z m 8,0 8,0 0,8 -8,0 z m 8,0 8,0 0,8 -8,0 z m 16,0 8,0 0,8 -8,0 z m -224,8 8,0 0,8 -8,0 z m 16,0 8,0 0,8 -8,0 z m 8,0 8,0 0,8 -8,0 z m 8,0 8,0 0,8 -8,0 z m 16,0 8,0 0,8 -8,0 z m 16,0 8,0 0,8 -8,0 z m 8,0 8,0 0,8 -8,0 z m 8,0 8,0 0,8 -8,0 z m 16,0 8,0 0,8 -8,0 z m 8,0 8,0 0,8 -8,0 z m 8,0 8,0 0,8 -8,0 z m 8,0 8,0 0,8 -8,0 z m 8,0 8,0 0,8 -8,0 z m 8,0 8,0 0,8 -8,0 z m 24,0 8,0 0,8 -8,0 z m 16,0 8,0 0,8 -8,0 z m 16,0 8,0 0,8 -8,0 z m 8,0 8,0 0,8 -8,0 z m 8,0 8,0 0,8 -8,0 z m 16,0 8,0 0,8 -8,0 z m -224,8 8,0 0,8 -8,0 z m 16,0 8,0 0,8 -8,0 z m 8,0 8,0 0,8 -8,0 z m 8,0 8,0 0,8 -8,0 z m 16,0 8,0 0,8 -8,0 z m 24,0 8,0 0,8 -8,0 z m 56,0 8,0 0,8 -8,0 z m 16,0 8,0 0,8 -8,0 z m 8,0 8,0 0,8 -8,0 z m 8,0 8,0 0,8 -8,0 z m 16,0 8,0 0,8 -8,0 z m 16,0 8,0 0,8 -8,0 z m 8,0 8,0 0,8 -8,0 z m 8,0 8,0 0,8 -8,0 z m 16,0 8,0 0,8 -8,0 z m -224,8 8,0 0,8 -8,0 z m 48,0 8,0 0,8 -8,0 z m 16,0 8,0 0,8 -8,0 z m 8,0 8,0 0,8 -8,0 z m 16,0 8,0 0,8 -8,0 z m 8,0 8,0 0,8 -8,0 z m 8,0 8,0 0,8 -8,0 z m 8,0 8,0 0,8 -8,0 z m 8,0 8,0 0,8 -8,0 z m 8,0 8,0 0,8 -8,0 z m 48,0 8,0 0,8 -8,0 z m 48,0 8,0 0,8 -8,0 z m -224,8 8,0 0,8 -8,0 z m 8,0 8,0 0,8 -8,0 z m 8,0 8,0 0,8 -8,0 z m 8,0 8,0 0,8 -8,0 z m 8,0 8,0 0,8 -8,0 z m 8,0 8,0 0,8 -8,0 z m 8,0 8,0 0,8 -8,0 z m 16,0 8,0 0,8 -8,0 z m 16,0 8,0 0,8 -8,0 z m 16,0 8,0 0,8 -8,0 z m 16,0 8,0 0,8 -8,0 z m 16,0 8,0 0,8 -8,0 z m 16,0 8,0 0,8 -8,0 z m 16,0 8,0 0,8 -8,0 z m 16,0 8,0 0,8 -8,0 z m 8,0 8,0 0,8 -8,0 z m 8,0 8,0 0,8 -8,0 z m 8,0 8,0 0,8 -8,0 z m 8,0 8,0 0,8 -8,0 z m 8,0 8,0 0,8 -8,0 z m 8,0 8,0 0,8 -8,0 z m -152,8 8,0 0,8 -8,0 z m 8,0 8,0 0,8 -8,0 z m 8,0 8,0 0,8 -8,0 z m 64,0 8,0 0,8 -8,0 z m 8,0 8,0 0,8 -8,0 z m -160,8 8,0 0,8 -8,0 z m 8,0 8,0 0,8 -8,0 z m 8,0 8,0 0,8 -8,0 z m 8,0 8,0 0,8 -8,0 z m 8,0 8,0 0,8 -8,0 z m 16,0 8,0 0,8 -8,0 z m 8,0 8,0 0,8 -8,0 z m 8,0 8,0 0,8 -8,0 z m 8,0 8,0 0,8 -8,0 z m 16,0 8,0 0,8 -8,0 z m 16,0 8,0 0,8 -8,0 z m 8,0 8,0 0,8 -8,0 z m 8,0 8,0 0,8 -8,0 z m 8,0 8,0 0,8 -8,0 z m 8,0 8,0 0,8 -8,0 z m 16,0 8,0 0,8 -8,0 z m 16,0 8,0 0,8 -8,0 z m 16,0 8,0 0,8 -8,0 z m 16,0 8,0 0,8 -8,0 z m 16,0 8,0 0,8 -8,0 z m -184,8 8,0 0,8 -8,0 z m 32,0 8,0 0,8 -8,0 z m 16,0 8,0 0,8 -8,0 z m 16,0 8,0 0,8 -8,0 z m 16,0 8,0 0,8 -8,0 z m 16,0 8,0 0,8 -8,0 z m 24,0 8,0 0,8 -8,0 z m 8,0 8,0 0,8 -8,0 z m 8,0 8,0 0,8 -8,0 z m 8,0 8,0 0,8 -8,0 z m 8,0 8,0 0,8 -8,0 z m 8,0 8,0 0,8 -8,0 z m 32,0 8,0 0,8 -8,0 z m -224,8 8,0 0,8 -8,0 z m 8,0 8,0 0,8 -8,0 z m 24,0 8,0 0,8 -8,0 z m 16,0 8,0 0,8 -8,0 z m 8,0 8,0 0,8 -8,0 z m 8,0 8,0 0,8 -8,0 z m 16,0 8,0 0,8 -8,0 z m 24,0 8,0 0,8 -8,0 z m 16,0 8,0 0,8 -8,0 z m 8,0 8,0 0,8 -8,0 z m 8,0 8,0 0,8 -8,0 z m 8,0 8,0 0,8 -8,0 z m 16,0 8,0 0,8 -8,0 z m 24,0 8,0 0,8 -8,0 z m 8,0 8,0 0,8 -8,0 z m -168,8 8,0 0,8 -8,0 z m 32,0 8,0 0,8 -8,0 z m 8,0 8,0 0,8 -8,0 z m 32,0 8,0 0,8 -8,0 z m 24,0 8,0 0,8 -8,0 z m 24,0 8,0 0,8 -8,0 z m 16,0 8,0 0,8 -8,0 z m 8,0 8,0 0,8 -8,0 z m 8,0 8,0 0,8 -8,0 z m 24,0 8,0 0,8 -8,0 z m 16,0 8,0 0,8 -8,0 z m -208,8 8,0 0,8 -8,0 z m 8,0 8,0 0,8 -8,0 z m 16,0 8,0 0,8 -8,0 z m 8,0 8,0 0,8 -8,0 z m 8,0 8,0 0,8 -8,0 z m 24,0 8,0 0,8 -8,0 z m 8,0 8,0 0,8 -8,0 z m 16,0 8,0 0,8 -8,0 z m 8,0 8,0 0,8 -8,0 z m 8,0 8,0 0,8 -8,0 z m 24,0 8,0 0,8 -8,0 z m 8,0 8,0 0,8 -8,0 z m 56,0 8,0 0,8 -8,0 z m 8,0 8,0 0,8 -8,0 z m -208,8 8,0 0,8 -8,0 z m 16,0 8,0 0,8 -8,0 z m 24,0 8,0 0,8 -8,0 z m 16,0 8,0 0,8 -8,0 z m 8,0 8,0 0,8 -8,0 z m 8,0 8,0 0,8 -8,0 z m 56,0 8,0 0,8 -8,0 z m 8,0 8,0 0,8 -8,0 z m 8,0 8,0 0,8 -8,0 z m 8,0 8,0 0,8 -8,0 z m 8,0 8,0 0,8 -8,0 z m 16,0 8,0 0,8 -8,0 z m 8,0 8,0 0,8 -8,0 z m 8,0 8,0 0,8 -8,0 z m 32,0 8,0 0,8 -8,0 z m -200,8 8,0 0,8 -8,0 z m 24,0 8,0 0,8 -8,0 z m 16,0 8,0 0,8 -8,0 z m 8,0 8,0 0,8 -8,0 z m 16,0 8,0 0,8 -8,0 z m 8,0 8,0 0,8 -8,0 z m 16,0 8,0 0,8 -8,0 z m 8,0 8,0 0,8 -8,0 z m 8,0 8,0 0,8 -8,0 z m 8,0 8,0 0,8 -8,0 z m 24,0 8,0 0,8 -8,0 z m 24,0 8,0 0,8 -8,0 z m 8,0 8,0 0,8 -8,0 z m 8,0 8,0 0,8 -8,0 z m 8,0 8,0 0,8 -8,0 z m -200,8 8,0 0,8 -8,0 z m 8,0 8,0 0,8 -8,0 z m 8,0 8,0 0,8 -8,0 z m 56,0 8,0 0,8 -8,0 z m 8,0 8,0 0,8 -8,0 z m 24,0 8,0 0,8 -8,0 z m 8,0 8,0 0,8 -8,0 z m 8,0 8,0 0,8 -8,0 z m 16,0 8,0 0,8 -8,0 z m 16,0 8,0 0,8 -8,0 z m 24,0 8,0 0,8 -8,0 z m 8,0 8,0 0,8 -8,0 z m 24,0 8,0 0,8 -8,0 z m -208,8 8,0 0,8 -8,0 z m 8,0 8,0 0,8 -8,0 z m 32,0 8,0 0,8 -8,0 z m 40,0 8,0 0,8 -8,0 z m 8,0 8,0 0,8 -8,0 z m 8,0 8,0 0,8 -8,0 z m 8,0 8,0 0,8 -8,0 z m 24,0 8,0 0,8 -8,0 z m 24,0 8,0 0,8 -8,0 z m 40,0 8,0 0,8 -8,0 z m 8,0 8,0 0,8 -8,0 z m -208,8 8,0 0,8 -8,0 z m 8,0 8,0 0,8 -8,0 z m 24,0 8,0 0,8 -8,0 z m 8,0 8,0 0,8 -8,0 z m 32,0 8,0 0,8 -8,0 z m 24,0 8,0 0,8 -8,0 z m 8,0 8,0 0,8 -8,0 z m 40,0 8,0 0,8 -8,0 z m 8,0 8,0 0,8 -8,0 z m 8,0 8,0 0,8 -8,0 z m 8,0 8,0 0,8 -8,0 z m 8,0 8,0 0,8 -8,0 z m 8,0 8,0 0,8 -8,0 z m 8,0 8,0 0,8 -8,0 z m 16,0 8,0 0,8 -8,0 z m 16,0 8,0 0,8 -8,0 z m -224,8 8,0 0,8 -8,0 z m 16,0 8,0 0,8 -8,0 z m 16,0 8,0 0,8 -8,0 z m 8,0 8,0 0,8 -8,0 z m 8,0 8,0 0,8 -8,0 z m 8,0 8,0 0,8 -8,0 z m 8,0 8,0 0,8 -8,0 z m 8,0 8,0 0,8 -8,0 z m 48,0 8,0 0,8 -8,0 z m 8,0 8,0 0,8 -8,0 z m 32,0 8,0 0,8 -8,0 z m 16,0 8,0 0,8 -8,0 z m 32,0 8,0 0,8 -8,0 z m -208,8 8,0 0,8 -8,0 z m 16,0 8,0 0,8 -8,0 z m 8,0 8,0 0,8 -8,0 z m 8,0 8,0 0,8 -8,0 z m 8,0 8,0 0,8 -8,0 z m 24,0 8,0 0,8 -8,0 z m 24,0 8,0 0,8 -8,0 z m 24,0 8,0 0,8 -8,0 z m 32,0 8,0 0,8 -8,0 z m 16,0 8,0 0,8 -8,0 z m 8,0 8,0 0,8 -8,0 z m 8,0 8,0 0,8 -8,0 z m 16,0 8,0 0,8 -8,0 z m 24,0 8,0 0,8 -8,0 z m -216,8 8,0 0,8 -8,0 z m 16,0 8,0 0,8 -8,0 z m 8,0 8,0 0,8 -8,0 z m 24,0 8,0 0,8 -8,0 z m 8,0 8,0 0,8 -8,0 z m 8,0 8,0 0,8 -8,0 z m 8,0 8,0 0,8 -8,0 z m 8,0 8,0 0,8 -8,0 z m 8,0 8,0 0,8 -8,0 z m 8,0 8,0 0,8 -8,0 z m 8,0 8,0 0,8 -8,0 z m 8,0 8,0 0,8 -8,0 z m 8,0 8,0 0,8 -8,0 z m 8,0 8,0 0,8 -8,0 z m 8,0 8,0 0,8 -8,0 z m 16,0 8,0 0,8 -8,0 z m 8,0 8,0 0,8 -8,0 z m 8,0 8,0 0,8 -8,0 z m 8,0 8,0 0,8 -8,0 z m 8,0 8,0 0,8 -8,0 z m 8,0 8,0 0,8 -8,0 z m 16,0 8,0 0,8 -8,0 z m 8,0 8,0 0,8 -8,0 z m 8,0 8,0 0,8 -8,0 z m -160,8 8,0 0,8 -8,0 z m 8,0 8,0 0,8 -8,0 z m 8,0 8,0 0,8 -8,0 z m 8,0 8,0 0,8 -8,0 z m 8,0 8,0 0,8 -8,0 z m 32,0 8,0 0,8 -8,0 z m 16,0 8,0 0,8 -8,0 z m 16,0 8,0 0,8 -8,0 z m 32,0 8,0 0,8 -8,0 z m 8,0 8,0 0,8 -8,0 z m 8,0 8,0 0,8 -8,0 z m 8,0 8,0 0,8 -8,0 z m 8,0 8,0 0,8 -8,0 z m -224,8 8,0 0,8 -8,0 z m 8,0 8,0 0,8 -8,0 z m 8,0 8,0 0,8 -8,0 z m 8,0 8,0 0,8 -8,0 z m 8,0 8,0 0,8 -8,0 z m 8,0 8,0 0,8 -8,0 z m 8,0 8,0 0,8 -8,0 z m 16,0 8,0 0,8 -8,0 z m 16,0 8,0 0,8 -8,0 z m 24,0 8,0 0,8 -8,0 z m 8,0 8,0 0,8 -8,0 z m 8,0 8,0 0,8 -8,0 z m 8,0 8,0 0,8 -8,0 z m 24,0 8,0 0,8 -8,0 z m 8,0 8,0 0,8 -8,0 z m 16,0 8,0 0,8 -8,0 z m 16,0 8,0 0,8 -8,0 z m 8,0 8,0 0,8 -8,0 z m 8,0 8,0 0,8 -8,0 z m -208,8 8,0 0,8 -8,0 z m 48,0 8,0 0,8 -8,0 z m 32,0 8,0 0,8 -8,0 z m 8,0 8,0 0,8 -8,0 z m 8,0 8,0 0,8 -8,0 z m 24,0 8,0 0,8 -8,0 z m 32,0 8,0 0,8 -8,0 z m 8,0 8,0 0,8 -8,0 z m 32,0 8,0 0,8 -8,0 z m 24,0 8,0 0,8 -8,0 z m 8,0 8,0 0,8 -8,0 z m -224,8 8,0 0,8 -8,0 z m 16,0 8,0 0,8 -8,0 z m 8,0 8,0 0,8 -8,0 z m 8,0 8,0 0,8 -8,0 z m 16,0 8,0 0,8 -8,0 z m 16,0 8,0 0,8 -8,0 z m 8,0 8,0 0,8 -8,0 z m 8,0 8,0 0,8 -8,0 z m 8,0 8,0 0,8 -8,0 z m 8,0 8,0 0,8 -8,0 z m 8,0 8,0 0,8 -8,0 z m 8,0 8,0 0,8 -8,0 z m 8,0 8,0 0,8 -8,0 z m 16,0 8,0 0,8 -8,0 z m 8,0 8,0 0,8 -8,0 z m 16,0 8,0 0,8 -8,0 z m 8,0 8,0 0,8 -8,0 z m 8,0 8,0 0,8 -8,0 z m 8,0 8,0 0,8 -8,0 z m 8,0 8,0 0,8 -8,0 z m 16,0 8,0 0,8 -8,0 z m 16,0 8,0 0,8 -8,0 z m -224,8 8,0 0,8 -8,0 z m 16,0 8,0 0,8 -8,0 z m 8,0 8,0 0,8 -8,0 z m 8,0 8,0 0,8 -8,0 z m 16,0 8,0 0,8 -8,0 z m 16,0 8,0 0,8 -8,0 z m 16,0 8,0 0,8 -8,0 z m 8,0 8,0 0,8 -8,0 z m 24,0 8,0 0,8 -8,0 z m 16,0 8,0 0,8 -8,0 z m 8,0 8,0 0,8 -8,0 z m 8,0 8,0 0,8 -8,0 z m 8,0 8,0 0,8 -8,0 z m 32,0 8,0 0,8 -8,0 z m 16,0 8,0 0,8 -8,0 z m 8,0 8,0 0,8 -8,0 z m 8,0 8,0 0,8 -8,0 z m 8,0 8,0 0,8 -8,0 z m -224,8 8,0 0,8 -8,0 z m 16,0 8,0 0,8 -8,0 z m 8,0 8,0 0,8 -8,0 z m 8,0 8,0 0,8 -8,0 z m 16,0 8,0 0,8 -8,0 z m 16,0 8,0 0,8 -8,0 z m 16,0 8,0 0,8 -8,0 z m 16,0 8,0 0,8 -8,0 z m 16,0 8,0 0,8 -8,0 z m 8,0 8,0 0,8 -8,0 z m 8,0 8,0 0,8 -8,0 z m 8,0 8,0 0,8 -8,0 z m 16,0 8,0 0,8 -8,0 z m 8,0 8,0 0,8 -8,0 z m 8,0 8,0 0,8 -8,0 z m 8,0 8,0 0,8 -8,0 z m 8,0 8,0 0,8 -8,0 z m 8,0 8,0 0,8 -8,0 z m 8,0 8,0 0,8 -8,0 z m 8,0 8,0 0,8 -8,0 z m 8,0 8,0 0,8 -8,0 z m -216,8 8,0 0,8 -8,0 z m 48,0 8,0 0,8 -8,0 z m 16,0 8,0 0,8 -8,0 z m 16,0 8,0 0,8 -8,0 z m 8,0 8,0 0,8 -8,0 z m 24,0 8,0 0,8 -8,0 z m 16,0 8,0 0,8 -8,0 z m 32,0 8,0 0,8 -8,0 z m 8,0 8,0 0,8 -8,0 z m 8,0 8,0 0,8 -8,0 z m 24,0 8,0 0,8 -8,0 z m 16,0 8,0 0,8 -8,0 z m -216,8 8,0 0,8 -8,0 z m 8,0 8,0 0,8 -8,0 z m 8,0 8,0 0,8 -8,0 z m 8,0 8,0 0,8 -8,0 z m 8,0 8,0 0,8 -8,0 z m 8,0 8,0 0,8 -8,0 z m 8,0 8,0 0,8 -8,0 z m 16,0 8,0 0,8 -8,0 z m 16,0 8,0 0,8 -8,0 z m 8,0 8,0 0,8 -8,0 z m 8,0 8,0 0,8 -8,0 z m 8,0 8,0 0,8 -8,0 z m 8,0 8,0 0,8 -8,0 z m 8,0 8,0 0,8 -8,0 z m 8,0 8,0 0,8 -8,0 z m 8,0 8,0 0,8 -8,0 z m 40,0 8,0 0,8 -8,0 z m 8,0 8,0 0,8 -8,0 z m 8,0 8,0 0,8 -8,0 z m 16,0 8,0 0,8 -8,0 z"
             style="fill:#000000"
             inkscape:connector-curvature="0" />
        </g>
      </g>
    </g>
    <path
       sodipodi:type="arc"
       style="fill:none;stroke:#656263;stroke-width:0.54330915;stroke-linecap:round;stroke-linejoin:round;stroke-miterlimit:4;stroke-opacity:1;stroke-dasharray:none;stroke-dashoffset:0"
       id="path3769-1-3"
       sodipodi:cx="541.44177"
       sodipodi:cy="630.54559"
       sodipodi:rx="91.923882"
       sodipodi:ry="91.418808"
       d="m 633.36565,630.54559 c 0,50.48922 -41.15572,91.41881 -91.92388,91.41881 -50.76816,0 -91.92388,-40.92959 -91.92388,-91.41881 0,-50.48921 41.15572,-91.4188 91.92388,-91.4188 50.76816,0 91.92388,40.92959 91.92388,91.4188 z"
       transform="matrix(1.6416889,0.81349825,-0.80206315,1.6395996,-74.166553,-1039.5143)" />
    <text
       xml:space="preserve"
       style="font-size:40px;font-style:normal;font-weight:normal;line-height:125%;letter-spacing:0px;word-spacing:0px;fill:#000000;fill-opacity:1;stroke:none;font-family:Sans"
       x="28.789347"
       y="187.66306"
       id="text4100"
       sodipodi:linespacing="125%"
       transform="translate(129.99571,255.82785)"><tspan
         sodipodi:role="line"
         id="tspan4102"
         x="28.789347"
         y="187.66306" /></text>
    <g
       style="font-size:28px;font-style:normal;font-variant:normal;font-weight:normal;font-stretch:normal;line-height:125%;letter-spacing:0px;word-spacing:0px;fill:#ffb400;fill-opacity:1;stroke:none;font-family:Cabin;-inkscape-font-specification:Cabin"
       id="text4104">
      <path
         d="m 178.80374,519.61169 0.19141,1.94141 c 0.48307,-0.70181 1.09374,-1.24413 1.83203,-1.62695 0.74739,-0.39191 1.61327,-0.58788 2.59766,-0.58789 0.98436,10e-6 1.82746,0.22788 2.52929,0.68359 0.71093,0.45574 1.24413,1.13934 1.59961,2.05078 0.46483,-0.83853 1.08007,-1.50389 1.8457,-1.99609 0.76561,-0.49217 1.65884,-0.73827 2.67969,-0.73828 1.50389,10e-6 2.69334,0.51954 3.56836,1.55859 0.87498,1.02996 1.31248,2.584 1.3125,4.66211 l 0,8.8457 -2.69336,0 0,-8.87304 c -2e-5,-1.45833 -0.25067,-2.48827 -0.75195,-3.08985 -0.50132,-0.61066 -1.24872,-0.916 -2.24219,-0.91601 -0.92059,10e-6 -1.66798,0.31902 -2.24219,0.95703 -0.56511,0.63803 -0.8978,1.44467 -0.99804,2.41992 l 0,0.10937 0,9.39258 -2.70703,0 0,-8.87304 c -2e-5,-1.38541 -0.25978,-2.39713 -0.7793,-3.03516 -0.51043,-0.64712 -1.24871,-0.97069 -2.21484,-0.9707 -0.82032,10e-6 -1.4948,0.16863 -2.02344,0.50586 -0.52865,0.33725 -0.93425,0.81121 -1.2168,1.42187 l 0,10.95117 -2.69336,0 0,-14.79297 2.40625,0"
         style="fill:#000000"
         id="path5189" />
      <path
         d="m 210.29007,532.21716 c -0.46486,0.79297 -1.06186,1.40365 -1.79102,1.83203 -0.72917,0.42839 -1.57227,0.64258 -2.52929,0.64258 -1.61329,0 -2.8711,-0.51497 -3.77344,-1.54492 -0.90235,-1.02995 -1.35352,-2.63411 -1.35352,-4.8125 l 0,-8.72266 2.69336,0 0,8.75 c 0,1.57683 0.23242,2.66147 0.69727,3.25391 0.46484,0.59245 1.18945,0.88867 2.17383,0.88867 0.95702,0 1.74543,-0.1914 2.36523,-0.57422 0.6289,-0.39192 1.10286,-0.94335 1.42188,-1.65429 l 0,-10.66407 2.69336,0 0,14.79297 -2.41993,0 -0.17773,-2.1875"
         style="fill:#000000"
         id="path5191" />
      <path
         d="m 222.95023,534.69177 c -2.05991,0 -3.70053,-0.68359 -4.92188,-2.05078 -1.21224,-1.3763 -1.81836,-3.1582 -1.81836,-5.3457 l 0,-0.60156 c 0,-2.10546 0.62435,-3.85546 1.87305,-5.25 1.25781,-1.40364 2.74348,-2.10546 4.45703,-2.10547 1.99608,10e-6 3.50455,0.60157 4.52539,1.80468 1.02082,1.20314 1.53124,2.80731 1.53125,4.8125 l 0,1.68164 -9.59766,0 -0.041,0.0684 c 0.0273,1.42188 0.38736,2.59311 1.08008,3.51368 0.6927,0.91146 1.6634,1.36719 2.91211,1.36718 0.91145,10e-6 1.70897,-0.1276 2.39257,-0.38281 0.6927,-0.26432 1.28971,-0.62434 1.79102,-1.08008 l 1.05273,1.75 c -0.52865,0.51954 -1.22592,0.95248 -2.09179,1.29883 -0.8659,0.34636 -1.91407,0.51953 -3.14453,0.51953 m -0.41016,-13.23437 c -0.90235,10e-6 -1.67253,0.38282 -2.31055,1.14843 -0.63802,0.75653 -1.02995,1.709 -1.17578,2.85743 l 0.0273,0.0684 6.82226,0 0,-0.35547 c -1e-5,-1.05728 -0.28256,-1.9414 -0.84766,-2.65235 -0.56511,-0.71092 -1.40365,-1.06639 -2.51562,-1.0664"
         style="fill:#000000"
         id="path5193" />
      <path
         d="m 234.03812,519.61169 0.1914,2.20118 c 0.49219,-0.78384 1.10742,-1.38996 1.84571,-1.81836 0.74738,-0.43749 1.59504,-0.65624 2.54296,-0.65625 1.59505,10e-6 2.83007,0.46941 3.70508,1.4082 0.87499,0.9297 1.31249,2.3698 1.3125,4.32031 l 0,9.33789 -2.69336,0 0,-9.2832 c -1e-5,-1.30337 -0.25977,-2.2285 -0.77929,-2.77539 -0.51043,-0.54686 -1.29428,-0.8203 -2.35157,-0.82031 -0.77474,10e-6 -1.46289,0.18686 -2.06445,0.56054 -0.59245,0.37371 -1.06641,0.88413 -1.42187,1.53125 l 0,10.78711 -2.69336,0 0,-14.79297 2.40625,0"
         style="fill:#000000"
         id="path5195" />
      <path
         d="m 256.14554,530.48083 c -10e-6,-0.59244 -0.22788,-1.08007 -0.6836,-1.46289 -0.44662,-0.3828 -1.29883,-0.71548 -2.55664,-0.99804 -1.79557,-0.39192 -3.14909,-0.92057 -4.06054,-1.58594 -0.90235,-0.67447 -1.35352,-1.59049 -1.35352,-2.74805 0,-1.20311 0.51042,-2.2285 1.53125,-3.07617 1.02083,-0.84764 2.35156,-1.27147 3.99219,-1.27148 1.72265,10e-6 3.08983,0.44207 4.10156,1.32617 1.02082,0.88413 1.50845,1.95965 1.46289,3.22656 l -0.0273,0.082 -2.57031,0 c -1e-5,-0.64712 -0.27345,-1.2259 -0.82032,-1.73633 -0.53777,-0.51951 -1.25326,-0.77928 -2.14648,-0.77929 -0.95704,10e-6 -1.66798,0.20965 -2.13281,0.6289 -0.46485,0.41929 -0.69727,0.92515 -0.69727,1.51758 0,0.58335 0.20507,1.04363 0.61524,1.38086 0.41015,0.33725 1.24413,0.63803 2.50195,0.90234 1.86848,0.40105 3.25845,0.94793 4.16992,1.64063 0.91145,0.6836 1.36717,1.60417 1.36719,2.76172 -2e-5,1.3125 -0.53322,2.37435 -1.59961,3.18555 -1.0573,0.81119 -2.44272,1.21679 -4.15625,1.21679 -1.88673,0 -3.3724,-0.47851 -4.45703,-1.43554 -1.08464,-0.95703 -1.59961,-2.07357 -1.54492,-3.34961 l 0.0273,-0.082 2.57031,0 c 0.0456,0.95704 0.40104,1.65886 1.06641,2.10547 0.66536,0.43751 1.44465,0.65626 2.33789,0.65625 0.95702,10e-6 1.70442,-0.1914 2.24219,-0.57422 0.54686,-0.39192 0.8203,-0.90234 0.82031,-1.53125"
         style="fill:#000000"
         id="path5197" />
      <path
         d="m 265.75687,516.04333 0,3.56836 2.80273,0 0,1.9961 -2.80273,0 0,8.98242 c -10e-6,0.69271 0.14127,1.18034 0.42382,1.46289 0.29167,0.28255 0.67448,0.42383 1.14844,0.42383 0.15494,0 0.32356,-0.0182 0.50586,-0.0547 0.1914,-0.0365 0.36002,-0.082 0.50586,-0.13672 l 0.35547,1.84571 c -0.20053,0.16406 -0.49675,0.29622 -0.88867,0.39648 -0.38282,0.10937 -0.77019,0.16406 -1.16211,0.16406 -1.09376,0 -1.9642,-0.32812 -2.61133,-0.98437 -0.64714,-0.66537 -0.97071,-1.70443 -0.9707,-3.11719 l 0,-8.98242 -2.35157,0 0,-1.9961 2.35157,0 0,-3.56836 2.69336,0"
         style="fill:#000000"
         id="path5199" />
      <path
         d="m 278.02054,534.69177 c -2.0599,0 -3.70053,-0.68359 -4.92188,-2.05078 -1.21224,-1.3763 -1.81836,-3.1582 -1.81836,-5.3457 l 0,-0.60156 c 0,-2.10546 0.62435,-3.85546 1.87305,-5.25 1.25781,-1.40364 2.74348,-2.10546 4.45703,-2.10547 1.99609,10e-6 3.50455,0.60157 4.52539,1.80468 1.02082,1.20314 1.53124,2.80731 1.53125,4.8125 l 0,1.68164 -9.59765,0 -0.041,0.0684 c 0.0273,1.42188 0.38737,2.59311 1.08008,3.51368 0.6927,0.91146 1.6634,1.36719 2.91211,1.36718 0.91145,10e-6 1.70897,-0.1276 2.39258,-0.38281 0.69269,-0.26432 1.2897,-0.62434 1.79101,-1.08008 l 1.05274,1.75 c -0.52866,0.51954 -1.22593,0.95248 -2.0918,1.29883 -0.8659,0.34636 -1.91407,0.51953 -3.14453,0.51953 m -0.41016,-13.23437 c -0.90235,10e-6 -1.67253,0.38282 -2.31054,1.14843 -0.63803,0.75653 -1.02996,1.709 -1.17579,2.85743 l 0.0274,0.0684 6.82226,0 0,-0.35547 c -10e-6,-1.05728 -0.28256,-1.9414 -0.84765,-2.65235 -0.56512,-0.71092 -1.40366,-1.06639 -2.51563,-1.0664"
         style="fill:#000000"
         id="path5201" />
      <path
         d="m 293.70218,521.9906 -1.38086,-0.082 c -0.71094,10e-6 -1.31251,0.16863 -1.80469,0.50586 -0.48308,0.33725 -0.85677,0.81121 -1.12109,1.42187 l 0,10.56836 -2.69336,0 0,-14.79297 2.40625,0 0.25976,2.16016 c 0.41927,-0.76561 0.93424,-1.36262 1.54493,-1.79102 0.61978,-0.42837 1.33072,-0.64256 2.13281,-0.64257 0.20051,10e-6 0.39192,0.0182 0.57422,0.0547 0.18228,0.0274 0.33267,0.0593 0.45117,0.0957 l -0.36914,2.50195"
         style="fill:#000000"
         id="path5203" />
      <path
         d="m 296.91507,534.40466 -2.69336,0 0,-2.76172 2.69336,0 0,2.76172"
         style="fill:#000000"
         id="path5205" />
      <path
         d="m 302.5889,534.40466 0,-12.79687 -2.31055,0 0,-1.9961 2.31055,0 0,-1.87304 c -1e-5,-1.57681 0.41015,-2.7936 1.23047,-3.65039 0.82942,-0.86587 1.98241,-1.29881 3.45898,-1.29883 0.30989,2e-5 0.61978,0.0274 0.92969,0.082 0.319,0.0456 0.66991,0.11395 1.05273,0.20508 l -0.32812,2.05078 c -0.16407,-0.0364 -0.36459,-0.0683 -0.60156,-0.0957 -0.22788,-0.0273 -0.46941,-0.041 -0.72461,-0.041 -0.78387,2e-5 -1.3672,0.237 -1.75,0.71094 -0.38282,0.46486 -0.57423,1.1439 -0.57422,2.03711 l 0,1.87304 3.07617,0 0,1.9961 -3.07617,0 0,12.79687 -2.69336,0"
         style="fill:#000000"
         id="path5207" />
      <path
         d="m 318.14749,521.9906 -1.38086,-0.082 c -0.71094,10e-6 -1.3125,0.16863 -1.80469,0.50586 -0.48307,0.33725 -0.85677,0.81121 -1.12109,1.42187 l 0,10.56836 -2.69336,0 0,-14.79297 2.40625,0 0.25977,2.16016 c 0.41926,-0.76561 0.93424,-1.36262 1.54492,-1.79102 0.61978,-0.42837 1.33072,-0.64256 2.13281,-0.64257 0.20051,10e-6 0.39192,0.0182 0.57422,0.0547 0.18228,0.0274 0.33267,0.0593 0.45117,0.0957 l -0.36914,2.50195"
         style="fill:#000000"
         id="path5209" />
      <path
         d="m 326.63773,534.69177 c -2.05991,0 -3.70053,-0.68359 -4.92188,-2.05078 -1.21224,-1.3763 -1.81836,-3.1582 -1.81836,-5.3457 l 0,-0.60156 c 0,-2.10546 0.62435,-3.85546 1.87305,-5.25 1.25781,-1.40364 2.74348,-2.10546 4.45703,-2.10547 1.99608,10e-6 3.50455,0.60157 4.52539,1.80468 1.02082,1.20314 1.53124,2.80731 1.53125,4.8125 l 0,1.68164 -9.59766,0 -0.041,0.0684 c 0.0273,1.42188 0.38736,2.59311 1.08008,3.51368 0.6927,0.91146 1.6634,1.36719 2.91211,1.36718 0.91145,10e-6 1.70897,-0.1276 2.39257,-0.38281 0.6927,-0.26432 1.28971,-0.62434 1.79102,-1.08008 l 1.05273,1.75 c -0.52865,0.51954 -1.22592,0.95248 -2.09179,1.29883 -0.8659,0.34636 -1.91407,0.51953 -3.14453,0.51953 m -0.41016,-13.23437 c -0.90235,10e-6 -1.67253,0.38282 -2.31055,1.14843 -0.63802,0.75653 -1.02995,1.709 -1.17578,2.85743 l 0.0274,0.0684 6.82226,0 0,-0.35547 c -10e-6,-1.05728 -0.28256,-1.9414 -0.84766,-2.65235 -0.56511,-0.71092 -1.40365,-1.06639 -2.51562,-1.0664"
         style="fill:#000000"
         id="path5211" />
      <path
         d="m 338.23148,534.40466 -2.69336,0 0,-14.79297 2.69336,0 0,14.79297 m 0,-18.58008 -2.69336,0 0,-2.74804 2.69336,0 0,2.74804"
         style="fill:#000000"
         id="path5213" />
      <path
         d="m 343.49515,534.40466 0,-12.79687 -2.31055,0 0,-1.9961 2.31055,0 0,-1.87304 c -1e-5,-1.57681 0.41015,-2.7936 1.23047,-3.65039 0.82942,-0.86587 1.98241,-1.29881 3.45898,-1.29883 0.30989,2e-5 0.61978,0.0274 0.92969,0.082 0.319,0.0456 0.66991,0.11395 1.05273,0.20508 l -0.32812,2.05078 c -0.16407,-0.0364 -0.36459,-0.0683 -0.60156,-0.0957 -0.22788,-0.0273 -0.46941,-0.041 -0.72461,-0.041 -0.78387,2e-5 -1.3672,0.237 -1.75,0.71094 -0.38282,0.46486 -0.57423,1.1439 -0.57422,2.03711 l 0,1.87304 3.07617,0 0,1.9961 -3.07617,0 0,12.79687 -2.69336,0"
         style="fill:#000000"
         id="path5215" />
      <path
         d="m 361.44632,532.21716 c -0.46486,0.79297 -1.06186,1.40365 -1.79102,1.83203 -0.72917,0.42839 -1.57227,0.64258 -2.52929,0.64258 -1.61329,0 -2.8711,-0.51497 -3.77344,-1.54492 -0.90235,-1.02995 -1.35352,-2.63411 -1.35352,-4.8125 l 0,-8.72266 2.69336,0 0,8.75 c 0,1.57683 0.23242,2.66147 0.69727,3.25391 0.46484,0.59245 1.18945,0.88867 2.17383,0.88867 0.95702,0 1.74543,-0.1914 2.36523,-0.57422 0.6289,-0.39192 1.10286,-0.94335 1.42188,-1.65429 l 0,-10.66407 2.69336,0 0,14.79297 -2.41993,0 -0.17773,-2.1875"
         style="fill:#000000"
         id="path5217" />
      <path
         d="m 370.37405,519.61169 0.19141,2.20118 c 0.49218,-0.78384 1.10742,-1.38996 1.8457,-1.81836 0.74739,-0.43749 1.59505,-0.65624 2.54297,-0.65625 1.59504,10e-6 2.83007,0.46941 3.70508,1.4082 0.87499,0.9297 1.31249,2.3698 1.3125,4.32031 l 0,9.33789 -2.69336,0 0,-9.2832 c -10e-6,-1.30337 -0.25978,-2.2285 -0.7793,-2.77539 -0.51042,-0.54686 -1.29428,-0.8203 -2.35156,-0.82031 -0.77475,10e-6 -1.4629,0.18686 -2.06445,0.56054 -0.59246,0.37371 -1.06641,0.88413 -1.42188,1.53125 l 0,10.78711 -2.69336,0 0,-14.79297 2.40625,0"
         style="fill:#000000"
         id="path5219" />
      <path
         d="m 388.3389,527.5824 -1.75,0 0,6.82226 -2.69336,0 0,-21.32812 2.69336,0 0,12.35937 1.72265,0 4.04688,-5.82422 3.22656,0 -5.05859,6.72657 5.7832,8.0664 -3.17187,0 -4.79883,-6.82226"
         style="fill:#000000"
         id="path5221" />
      <path
         d="m 401.20413,534.40466 -2.69336,0 0,-2.76172 2.69336,0 0,2.76172"
         style="fill:#ffb400;font-family:Roboto;-inkscape-font-specification:Roboto"
         id="path5223" />
      <path
         d="m 408.16312,519.61169 0.1914,2.20118 c 0.49219,-0.78384 1.10742,-1.38996 1.84571,-1.81836 0.74738,-0.43749 1.59504,-0.65624 2.54296,-0.65625 1.59505,10e-6 2.83007,0.46941 3.70508,1.4082 0.87499,0.9297 1.31249,2.3698 1.3125,4.32031 l 0,9.33789 -2.69336,0 0,-9.2832 c -10e-6,-1.30337 -0.25977,-2.2285 -0.77929,-2.77539 -0.51043,-0.54686 -1.29428,-0.8203 -2.35157,-0.82031 -0.77474,10e-6 -1.46289,0.18686 -2.06445,0.56054 -0.59245,0.37371 -1.06641,0.88413 -1.42187,1.53125 l 0,10.78711 -2.69336,0 0,-14.79297 2.40625,0"
         style="fill:#ffb400;font-family:Roboto;-inkscape-font-specification:Roboto"
         id="path5225" />
      <path
         d="m 427.8096,534.69177 c -2.0599,0 -3.70052,-0.68359 -4.92187,-2.05078 -1.21225,-1.3763 -1.81836,-3.1582 -1.81836,-5.3457 l 0,-0.60156 c 0,-2.10546 0.62434,-3.85546 1.87304,-5.25 1.25781,-1.40364 2.74349,-2.10546 4.45703,-2.10547 1.99609,10e-6 3.50455,0.60157 4.5254,1.80468 1.02082,1.20314 1.53123,2.80731 1.53125,4.8125 l 0,1.68164 -9.59766,0 -0.041,0.0684 c 0.0273,1.42188 0.38737,2.59311 1.08008,3.51368 0.6927,0.91146 1.66341,1.36719 2.91211,1.36718 0.91145,10e-6 1.70898,-0.1276 2.39258,-0.38281 0.6927,-0.26432 1.2897,-0.62434 1.79101,-1.08008 l 1.05274,1.75 c -0.52866,0.51954 -1.22592,0.95248 -2.0918,1.29883 -0.86589,0.34636 -1.91407,0.51953 -3.14453,0.51953 m -0.41016,-13.23437 c -0.90235,10e-6 -1.67253,0.38282 -2.31054,1.14843 -0.63803,0.75653 -1.02995,1.709 -1.17578,2.85743 l 0.0273,0.0684 6.82227,0 0,-0.35547 c -2e-5,-1.05728 -0.28257,-1.9414 -0.84766,-2.65235 -0.56511,-0.71092 -1.40366,-1.06639 -2.51563,-1.0664"
         style="fill:#ffb400;font-family:Roboto;-inkscape-font-specification:Roboto"
         id="path5227" />
      <path
         d="m 440.04593,516.04333 0,3.56836 2.80273,0 0,1.9961 -2.80273,0 0,8.98242 c -10e-6,0.69271 0.14127,1.18034 0.42383,1.46289 0.29166,0.28255 0.67447,0.42383 1.14843,0.42383 0.15495,0 0.32356,-0.0182 0.50586,-0.0547 0.1914,-0.0365 0.36002,-0.082 0.50586,-0.13672 l 0.35547,1.84571 c -0.20053,0.16406 -0.49675,0.29622 -0.88867,0.39648 -0.38282,0.10937 -0.77019,0.16406 -1.16211,0.16406 -1.09375,0 -1.9642,-0.32812 -2.61133,-0.98437 -0.64714,-0.66537 -0.9707,-1.70443 -0.9707,-3.11719 l 0,-8.98242 -2.35156,0 0,-1.9961 2.35156,0 0,-3.56836 2.69336,0"
         style="fill:#ffb400;font-family:Roboto;-inkscape-font-specification:Roboto"
         id="path5229" />
    </g>
    <g
       style="font-size:12px;font-style:normal;font-variant:normal;font-weight:bold;font-stretch:normal;line-height:125%;letter-spacing:0px;word-spacing:0px;fill:#000000;fill-opacity:1;stroke:none;font-family:Oswald;-inkscape-font-specification:Oswald Bold"
       id="text4108">
      <path
         d="m 160.10754,440.35306 -0.96679,0 0,-7.10938 0.96679,0 0,7.10938"
         style="font-size:10px;font-weight:normal;font-family:Roboto;-inkscape-font-specification:Roboto"
         id="path5232" />
      <path
         d="m 162.60266,435.06985 0.0684,0.78614 c 0.17578,-0.27995 0.39551,-0.49642 0.65918,-0.64942 0.26692,-0.15624 0.56966,-0.23437 0.9082,-0.23437 0.56966,0 1.01074,0.16765 1.32325,0.50293 0.31249,0.33203 0.46874,0.84636 0.46875,1.54297 l 0,3.33496 -0.96192,0 0,-3.31543 c 0,-0.46549 -0.0928,-0.7959 -0.27832,-0.99121 -0.18229,-0.19531 -0.46224,-0.29297 -0.83984,-0.29297 -0.2767,0 -0.52247,0.0667 -0.73731,0.20019 -0.21159,0.13347 -0.38086,0.31576 -0.50781,0.54688 l 0,3.85254 -0.96191,0 0,-5.28321 0.85937,0"
         style="font-size:10px;font-weight:normal;font-family:Roboto;-inkscape-font-specification:Roboto"
         id="path5234" />
      <path
         d="m 167.82727,440.35306 0,-4.57031 -0.82519,0 0,-0.7129 0.82519,0 0,-0.66894 c 0,-0.56315 0.14648,-0.99771 0.43945,-1.30371 0.29623,-0.30924 0.70801,-0.46386 1.23536,-0.46387 0.11067,10e-6 0.22135,0.01 0.33203,0.0293 0.11393,0.0163 0.23925,0.0407 0.37597,0.0732 l -0.11718,0.73242 c -0.0586,-0.013 -0.13022,-0.0244 -0.21485,-0.0342 -0.0814,-0.01 -0.16764,-0.0146 -0.25879,-0.0146 -0.27995,10e-6 -0.48828,0.0847 -0.625,0.25391 -0.13672,0.16602 -0.20508,0.40854 -0.20508,0.72754 l 0,0.66894 1.09864,0 0,0.7129 -1.09864,0 0,4.57031 -0.96191,0"
         style="font-size:10px;font-weight:normal;font-family:Roboto;-inkscape-font-specification:Roboto"
         id="path5236" />
      <path
         d="m 170.6593,437.66263 c 0,-0.78125 0.21159,-1.42415 0.63477,-1.92871 0.42317,-0.50781 0.99772,-0.76172 1.72363,-0.76172 0.73242,0 1.31022,0.25228 1.7334,0.75683 0.42643,0.50457 0.63964,1.1491 0.63965,1.9336 l 0,0.10742 c -1e-5,0.78776 -0.2116,1.43229 -0.63477,1.93359 -0.42318,0.50131 -0.99935,0.75196 -1.72851,0.75196 -0.72917,0 -1.30697,-0.25065 -1.7334,-0.75196 -0.42318,-0.50455 -0.63477,-1.14908 -0.63477,-1.93359 l 0,-0.10742 m 0.96192,0.10742 c -1e-5,0.5599 0.11718,1.02214 0.35156,1.38672 0.23763,0.36458 0.58919,0.54687 1.05469,0.54687 0.45898,0 0.80728,-0.18229 1.04492,-0.54687 0.23762,-0.36458 0.35644,-0.82682 0.35644,-1.38672 l 0,-0.10742 c 0,-0.55338 -0.12044,-1.014 -0.36133,-1.38184 -0.23763,-0.36783 -0.58756,-0.55175 -1.0498,-0.55176 -0.45899,10e-6 -0.80729,0.18393 -1.04492,0.55176 -0.23438,0.36784 -0.35157,0.82846 -0.35156,1.38184 l 0,0.10742"
         style="font-size:10px;font-weight:normal;font-family:Roboto;-inkscape-font-specification:Roboto"
         id="path5238" />
      <path
         d="m 179.63879,438.95169 c 0,-0.21159 -0.0814,-0.38574 -0.24414,-0.52246 -0.15951,-0.13672 -0.46387,-0.25553 -0.91308,-0.35645 -0.64128,-0.13997 -1.12468,-0.32877 -1.4502,-0.5664 -0.32226,-0.24088 -0.4834,-0.56803 -0.4834,-0.98145 0,-0.42968 0.18229,-0.79589 0.54688,-1.09863 0.36458,-0.30273 0.83984,-0.4541 1.42578,-0.4541 0.61523,0 1.10351,0.15788 1.46484,0.47363 0.36458,0.31576 0.53874,0.69988 0.52246,1.15235 l -0.01,0.0293 -0.91797,0 c 0,-0.23111 -0.0977,-0.43782 -0.29297,-0.62012 -0.19206,-0.18554 -0.44759,-0.27831 -0.7666,-0.27832 -0.3418,10e-6 -0.59571,0.0749 -0.76172,0.22461 -0.16602,0.14975 -0.24902,0.33041 -0.24902,0.542 0,0.20833 0.0732,0.37272 0.21972,0.49316 0.14649,0.12045 0.44434,0.22787 0.89356,0.32227 0.66731,0.14323 1.16373,0.33854 1.48926,0.58593 0.32551,0.24415 0.48827,0.57292 0.48828,0.98633 -1e-5,0.46875 -0.19044,0.84798 -0.57129,1.1377 -0.37761,0.28971 -0.8724,0.43457 -1.48438,0.43457 -0.67383,0 -1.20442,-0.1709 -1.59179,-0.5127 -0.38737,-0.34179 -0.57129,-0.74056 -0.55176,-1.19629 l 0.01,-0.0293 0.91797,0 c 0.0163,0.34179 0.14323,0.59244 0.38086,0.75195 0.23763,0.15625 0.51595,0.23437 0.83496,0.23437 0.3418,0 0.60872,-0.0684 0.80079,-0.20507 0.1953,-0.13998 0.29296,-0.32227 0.29296,-0.54688"
         style="font-size:10px;font-weight:normal;font-family:Roboto;-inkscape-font-specification:Roboto"
         id="path5240" />
    </g>
    <g
       transform="translate(128.48047,281.58675)"
       style="font-size:16px;font-style:normal;font-variant:normal;font-weight:normal;font-stretch:normal;line-height:125%;letter-spacing:0px;word-spacing:0px;fill:#000000;fill-opacity:1;stroke:none;font-family:Cabin;-inkscape-font-specification:Cabin"
       id="flowRoot3182">
      <path
         d="m 245.03271,155.614 -6.16015,0 0,5.97461 -1.82764,0 0,-13.50781 8.93408,0 0,1.43799 -7.10644,0 0,4.65723 6.16015,0 0,1.43798"
         style="font-size:19px;font-family:Roboto;-inkscape-font-specification:Roboto"
         id="path5129" />
      <path
         d="m 252.2876,153.16478 -0.93701,-0.0557 c -0.48243,1e-5 -0.89063,0.11443 -1.22461,0.34326 -0.32781,0.22885 -0.58139,0.55047 -0.76075,0.96485 l 0,7.17138 -1.82763,0 0,-10.03808 1.63281,0 0.17627,1.46582 c 0.2845,-0.51952 0.63395,-0.92464 1.04834,-1.21533 0.42057,-0.29068 0.90299,-0.43603 1.44727,-0.43604 0.13606,1e-5 0.26594,0.0124 0.38964,0.0371 0.1237,0.0186 0.22575,0.0402 0.30616,0.0649 l -0.25049,1.69775"
         style="font-size:19px;font-family:Roboto;-inkscape-font-specification:Roboto"
         id="path5131" />
      <path
         d="m 258.04883,161.78344 c -1.39779,0 -2.51107,-0.46387 -3.33985,-1.3916 -0.82259,-0.93392 -1.23388,-2.14307 -1.23388,-3.62745 l 0,-0.4082 c 0,-1.4287 0.42366,-2.6162 1.27099,-3.5625 0.85352,-0.95246 1.86165,-1.4287 3.02442,-1.42871 1.35448,1e-5 2.37808,0.40821 3.0708,1.22461 0.6927,0.81641 1.03905,1.90495 1.03906,3.26562 l 0,1.14112 -6.51269,0 -0.0278,0.0464 c 0.0186,0.96485 0.26286,1.75961 0.73291,2.38428 0.47005,0.61849 1.12874,0.92774 1.97608,0.92774 0.61848,0 1.15966,-0.0866 1.62353,-0.25977 0.47005,-0.17936 0.87516,-0.42366 1.21534,-0.73291 l 0.71435,1.1875 c -0.35873,0.35254 -0.83188,0.64632 -1.41943,0.88135 -0.58757,0.23502 -1.29884,0.35254 -2.13379,0.35254 m -0.27832,-8.98047 c -0.61231,1e-5 -1.13493,0.25977 -1.56787,0.7793 -0.43295,0.51335 -0.6989,1.15967 -0.79785,1.93896 l 0.0186,0.0464 4.62939,0 0,-0.24121 c 0,-0.71744 -0.19173,-1.31738 -0.57519,-1.79981 -0.38347,-0.48241 -0.95248,-0.72362 -1.70703,-0.72363"
         style="font-size:19px;font-family:Roboto;-inkscape-font-specification:Roboto"
         id="path5133" />
      <path
         d="m 265.91602,161.58861 -1.82764,0 0,-10.03808 1.82764,0 0,10.03808 m 0,-12.60791 -1.82764,0 0,-1.86474 1.82764,0 0,1.86474"
         style="font-size:19px;font-family:Roboto;-inkscape-font-specification:Roboto"
         id="path5135" />
      <path
         d="m 272.89258,161.78344 c -1.39779,0 -2.51107,-0.46387 -3.33985,-1.3916 -0.82259,-0.93392 -1.23388,-2.14307 -1.23388,-3.62745 l 0,-0.4082 c 0,-1.4287 0.42366,-2.6162 1.27099,-3.5625 0.85352,-0.95246 1.86165,-1.4287 3.02442,-1.42871 1.35448,1e-5 2.37808,0.40821 3.0708,1.22461 0.6927,0.81641 1.03905,1.90495 1.03906,3.26562 l 0,1.14112 -6.51269,0 -0.0278,0.0464 c 0.0186,0.96485 0.26286,1.75961 0.73291,2.38428 0.47005,0.61849 1.12874,0.92774 1.97608,0.92774 0.61848,0 1.15966,-0.0866 1.62353,-0.25977 0.47005,-0.17936 0.87516,-0.42366 1.21534,-0.73291 l 0.71435,1.1875 c -0.35873,0.35254 -0.83188,0.64632 -1.41943,0.88135 -0.58757,0.23502 -1.29884,0.35254 -2.13379,0.35254 m -0.27832,-8.98047 c -0.61231,1e-5 -1.13493,0.25977 -1.56787,0.7793 -0.43295,0.51335 -0.6989,1.15967 -0.79785,1.93896 l 0.0186,0.0464 4.62939,0 0,-0.24121 c 0,-0.71744 -0.19173,-1.31738 -0.57519,-1.79981 -0.38347,-0.48241 -0.95248,-0.72362 -1.70703,-0.72363"
         style="font-size:19px;font-family:Roboto;-inkscape-font-specification:Roboto"
         id="path5137" />
      <path
         d="m 284.61914,158.92602 c -1e-5,-0.40202 -0.15463,-0.73291 -0.46387,-0.99268 -0.30306,-0.25976 -0.88135,-0.48551 -1.73486,-0.67725 -1.21843,-0.26594 -2.13688,-0.62467 -2.75537,-1.07617 -0.61231,-0.45767 -0.91846,-1.07926 -0.91846,-1.86474 0,-0.8164 0.34635,-1.5122 1.03906,-2.08741 0.69271,-0.57518 1.5957,-0.86278 2.70899,-0.86279 1.16894,1e-5 2.09667,0.29998 2.7832,0.8999 0.6927,0.59995 1.02359,1.32976 0.99268,2.18946 l -0.0186,0.0557 -1.74414,0 c 0,-0.43912 -0.18555,-0.83186 -0.55664,-1.17822 -0.36491,-0.35253 -0.85043,-0.5288 -1.45654,-0.52881 -0.64942,1e-5 -1.13184,0.14226 -1.44727,0.42676 -0.31543,0.28451 -0.47314,0.62777 -0.47314,1.02978 0,0.39584 0.13916,0.70818 0.41748,0.93701 0.27832,0.22885 0.84423,0.43295 1.69775,0.61231 1.2679,0.27214 2.2111,0.64323 2.82959,1.11328 0.61848,0.46387 0.92773,1.08854 0.92774,1.87402 -10e-6,0.89063 -0.36183,1.61117 -1.08545,2.16162 -0.71746,0.55046 -1.65756,0.82569 -2.82031,0.82569 -1.28028,0 -2.28842,-0.32471 -3.02442,-0.97412 -0.736,-0.64942 -1.08545,-1.40707 -1.04834,-2.27295 l 0.0186,-0.0557 1.74414,0 c 0.0309,0.64942 0.27213,1.12566 0.72363,1.42871 0.45149,0.29688 0.9803,0.44532 1.58643,0.44532 0.6494,0 1.15656,-0.12989 1.52148,-0.38965 0.37109,-0.26595 0.55663,-0.6123 0.55664,-1.03906"
         style="font-size:19px;font-family:Roboto;-inkscape-font-specification:Roboto"
         id="path5139" />
      <path
         d="m 296.49414,156.91283 0.25049,1.68848 0.0557,0.009 0.36182,-1.69776 2.47705,-8.83203 1.61426,0 2.4956,8.83203 0.3711,1.73487 0.0557,0 0.26904,-1.73487 2.01319,-8.83203 1.82763,0 -3.25634,13.50781 -1.63282,0 -2.66259,-9.37011 -0.24121,-1.21534 -0.0557,0 -0.23193,1.21534 -2.70899,9.37011 -1.63281,0 -3.24707,-13.50781 1.81836,0 2.05957,8.83203"
         style="font-size:19px;font-family:Roboto;-inkscape-font-specification:Roboto"
         id="path5141" />
      <path
         d="m 312.38623,160.1599 6.39209,0 0,1.42871 -8.21973,0 0,-13.50781 1.82764,0 0,12.0791"
         style="font-size:19px;font-family:Roboto;-inkscape-font-specification:Roboto"
         id="path5143" />
      <path
         d="m 328.34326,158.10961 -5.65918,0 -1.28027,3.479 -1.86475,0 5.22315,-13.50781 1.56787,0 5.13965,13.50781 -1.86475,0 -1.26172,-3.479 m -5.09326,-1.53076 4.5459,0 -2.22656,-6.15088 -0.0557,0 -2.26367,6.15088"
         style="font-size:19px;font-family:Roboto;-inkscape-font-specification:Roboto"
         id="path5145" />
      <path
         d="m 343.55811,161.58861 -1.82764,0 -6.50342,-10.44629 -0.0557,0.0186 0,10.42773 -1.82764,0 0,-13.50781 1.82764,0 6.50341,10.42773 0.0557,-0.0186 0,-10.40918 1.82764,0 0,13.50781"
         style="font-size:19px;font-family:Roboto;-inkscape-font-specification:Roboto"
         id="path5147" />
      <path
         d="m 247.25928,185.33861 -1.82764,0 0,-5.96533 -6.55908,0 0,5.96533 -1.82764,0 0,-13.50781 1.82764,0 0,6.10449 6.55908,0 0,-6.10449 1.82764,0 0,13.50781"
         style="font-size:19px;font-family:Roboto;-inkscape-font-specification:Roboto"
         id="path5149" />
      <path
         d="m 249.81982,180.2268 c 0,-1.48437 0.40202,-2.70589 1.20606,-3.66455 0.80403,-0.96484 1.89567,-1.44726 3.2749,-1.44727 1.3916,1e-5 2.48941,0.47934 3.29346,1.43799 0.81021,0.95867 1.21532,2.18327 1.21533,3.67383 l 0,0.2041 c -1e-5,1.49675 -0.40203,2.72135 -1.20605,3.67383 -0.80405,0.95247 -1.89877,1.42871 -3.28418,1.42871 -1.38542,0 -2.48324,-0.47624 -3.29346,-1.42871 -0.80404,-0.95866 -1.20606,-2.18327 -1.20606,-3.67383 l 0,-0.2041 m 1.82764,0.2041 c 0,1.0638 0.22265,1.94206 0.66797,2.63476 0.45149,0.69271 1.11946,1.03907 2.00391,1.03907 0.87206,0 1.53384,-0.34636 1.98535,-1.03907 0.45149,-0.6927 0.67724,-1.57096 0.67724,-2.63476 l 0,-0.2041 c 0,-1.05143 -0.22885,-1.92659 -0.68652,-2.62549 -0.4515,-0.69889 -1.11638,-1.04833 -1.99463,-1.04834 -0.87207,1e-5 -1.53386,0.34945 -1.98535,1.04834 -0.44532,0.6989 -0.66797,1.57406 -0.66797,2.62549 l 0,0.2041"
         style="font-size:19px;font-family:Roboto;-inkscape-font-specification:Roboto"
         id="path5151" />
      <path
         d="m 263.45752,172.87914 0,2.42139 1.90185,0 0,1.35449 -1.90185,0 0,6.09521 c 0,0.47006 0.0959,0.80095 0.2876,0.99268 0.19791,0.19173 0.45767,0.2876 0.77929,0.2876 0.10514,0 0.21956,-0.0124 0.34327,-0.0371 0.12987,-0.0247 0.24429,-0.0557 0.34326,-0.0928 l 0.24121,1.25245 c -0.13607,0.11132 -0.33708,0.20101 -0.60303,0.26904 -0.25977,0.0742 -0.52263,0.11133 -0.78857,0.11133 -0.74219,0 -1.33285,-0.22266 -1.77198,-0.66797 -0.43913,-0.4515 -0.65869,-1.15658 -0.65869,-2.11524 l 0,-6.09521 -1.5957,0 0,-1.35449 1.5957,0 0,-2.42139 1.82764,0"
         style="font-size:19px;font-family:Roboto;-inkscape-font-specification:Roboto"
         id="path5153" />
      <path
         d="m 280.02686,181.93383 c -10e-6,-0.61849 -0.23195,-1.13493 -0.69581,-1.54932 -0.46387,-0.42057 -1.28646,-0.7731 -2.46777,-1.05762 -1.42871,-0.34016 -2.54509,-0.84113 -3.34912,-1.50293 -0.79785,-0.66177 -1.19678,-1.49364 -1.19678,-2.4956 0,-1.05142 0.42985,-1.92968 1.28955,-2.63477 0.86589,-0.70506 1.98535,-1.0576 3.3584,-1.05761 1.47818,1e-5 2.65331,0.40512 3.52539,1.21533 0.87825,0.81023 1.30191,1.75033 1.271,2.82031 l -0.0186,0.0557 -1.74414,0 c -10e-6,-0.79165 -0.26286,-1.43179 -0.78857,-1.92041 -0.51954,-0.48859 -1.26791,-0.73289 -2.24512,-0.73291 -0.90918,2e-5 -1.60808,0.20721 -2.09668,0.62159 -0.48242,0.40821 -0.72363,0.9432 -0.72363,1.60498 0,0.58757 0.26285,1.07927 0.78857,1.47509 0.52572,0.38966 1.37923,0.73292 2.56055,1.02979 1.42252,0.35255 2.50487,0.87208 3.24707,1.55859 0.74218,0.68653 1.11327,1.53695 1.11328,2.55127 -10e-6,1.08855 -0.44532,1.96371 -1.33594,2.62549 -0.89063,0.66179 -2.05339,0.99268 -3.48828,0.99268 -1.34831,0 -2.54199,-0.36491 -3.58105,-1.09473 -1.03288,-0.72982 -1.53386,-1.70703 -1.50293,-2.93164 l 0.0186,-0.0557 1.74414,0 c 0,0.86588 0.31852,1.52458 0.95557,1.97607 0.63704,0.4515 1.42561,0.67725 2.36572,0.67725 0.92155,0 1.65136,-0.19483 2.18946,-0.58448 0.53807,-0.38964 0.80712,-0.91845 0.80713,-1.58642"
         style="font-size:19px;font-family:Roboto;-inkscape-font-specification:Roboto"
         id="path5155" />
      <path
         d="m 292.71826,180.69994 c -10e-6,1.44727 -0.34636,2.61621 -1.03906,3.50684 -0.69272,0.88444 -1.64828,1.32666 -2.8667,1.32666 -0.61849,0 -1.16277,-0.10205 -1.63281,-0.30616 -0.46387,-0.21028 -0.85971,-0.52262 -1.1875,-0.93701 l 0,4.90772 -1.82764,0 0,-13.89746 1.40088,0 0.2876,1.29883 c 0.32779,-0.48242 0.736,-0.85042 1.22461,-1.10401 0.4886,-0.25357 1.05761,-0.38036 1.70703,-0.38037 1.24315,1e-5 2.208,0.4948 2.89453,1.48438 0.6927,0.9834 1.03905,2.28532 1.03906,3.90576 l 0,0.19482 m -1.82764,-0.19482 c 0,-1.13802 -0.22575,-2.07194 -0.67724,-2.80176 -0.44532,-0.736 -1.10401,-1.104 -1.97608,-1.104 -0.52572,0 -0.97412,0.12061 -1.34521,0.36181 -0.3711,0.23504 -0.67106,0.55974 -0.8999,0.97412 l 0,4.85205 c 0.22884,0.41439 0.5288,0.7391 0.8999,0.97412 0.37109,0.22885 0.82568,0.34327 1.36377,0.34327 0.86588,0 1.52148,-0.31543 1.9668,-0.94629 0.4453,-0.63704 0.66796,-1.45654 0.66796,-2.4585 l 0,-0.19482"
         style="font-size:19px;font-family:Roboto;-inkscape-font-specification:Roboto"
         id="path5157" />
      <path
         d="m 294.53662,180.2268 c 0,-1.48437 0.40202,-2.70589 1.20606,-3.66455 0.80403,-0.96484 1.89566,-1.44726 3.2749,-1.44727 1.39159,1e-5 2.48941,0.47934 3.29346,1.43799 0.81021,0.95867 1.21532,2.18327 1.21533,3.67383 l 0,0.2041 c -10e-6,1.49675 -0.40203,2.72135 -1.20606,3.67383 -0.80404,0.95247 -1.89877,1.42871 -3.28418,1.42871 -1.38542,0 -2.48324,-0.47624 -3.29345,-1.42871 -0.80404,-0.95866 -1.20606,-2.18327 -1.20606,-3.67383 l 0,-0.2041 m 1.82764,0.2041 c 0,1.0638 0.22265,1.94206 0.66797,2.63476 0.45149,0.69271 1.11946,1.03907 2.0039,1.03907 0.87207,0 1.53385,-0.34636 1.98535,-1.03907 0.45149,-0.6927 0.67724,-1.57096 0.67725,-2.63476 l 0,-0.2041 c -1e-5,-1.05143 -0.22885,-1.92659 -0.68652,-2.62549 -0.45151,-0.69889 -1.11638,-1.04833 -1.99463,-1.04834 -0.87208,1e-5 -1.53386,0.34945 -1.98535,1.04834 -0.44532,0.6989 -0.66797,1.57406 -0.66797,2.62549 l 0,0.2041"
         style="font-size:19px;font-family:Roboto;-inkscape-font-specification:Roboto"
         id="path5159" />
      <path
         d="m 308.17432,172.87914 0,2.42139 1.90185,0 0,1.35449 -1.90185,0 0,6.09521 c -1e-5,0.47006 0.0959,0.80095 0.28759,0.99268 0.19792,0.19173 0.45768,0.2876 0.7793,0.2876 0.10514,0 0.21956,-0.0124 0.34326,-0.0371 0.12988,-0.0247 0.2443,-0.0557 0.34326,-0.0928 l 0.24122,1.25245 c -0.13608,0.11132 -0.33709,0.20101 -0.60303,0.26904 -0.25977,0.0742 -0.52263,0.11133 -0.78858,0.11133 -0.74219,0 -1.33284,-0.22266 -1.77197,-0.66797 -0.43913,-0.4515 -0.65869,-1.15658 -0.65869,-2.11524 l 0,-6.09521 -1.5957,0 0,-1.35449 1.5957,0 0,-2.42139 1.82764,0"
         style="font-size:19px;font-family:Roboto;-inkscape-font-specification:Roboto"
         id="path5161" />
      <path
         d="m 245.03271,203.114 -6.16015,0 0,5.97461 -1.82764,0 0,-13.50781 8.93408,0 0,1.43799 -7.10644,0 0,4.65723 6.16015,0 0,1.43798"
         style="font-size:19px;font-family:Roboto;-inkscape-font-specification:Roboto"
         id="path5163" />
      <path
         d="m 252.2876,200.66478 -0.93701,-0.0557 c -0.48243,1e-5 -0.89063,0.11443 -1.22461,0.34326 -0.32781,0.22885 -0.58139,0.55047 -0.76075,0.96485 l 0,7.17138 -1.82763,0 0,-10.03808 1.63281,0 0.17627,1.46582 c 0.2845,-0.51952 0.63395,-0.92464 1.04834,-1.21533 0.42057,-0.29068 0.90299,-0.43603 1.44727,-0.43604 0.13606,1e-5 0.26594,0.0124 0.38964,0.0371 0.1237,0.0186 0.22575,0.0402 0.30616,0.0649 l -0.25049,1.69775"
         style="font-size:19px;font-family:Roboto;-inkscape-font-specification:Roboto"
         id="path5165" />
      <path
         d="m 258.04883,209.28344 c -1.39779,0 -2.51107,-0.46387 -3.33985,-1.3916 -0.82259,-0.93392 -1.23388,-2.14307 -1.23388,-3.62745 l 0,-0.4082 c 0,-1.4287 0.42366,-2.6162 1.27099,-3.5625 0.85352,-0.95246 1.86165,-1.4287 3.02442,-1.42871 1.35448,1e-5 2.37808,0.40821 3.0708,1.22461 0.6927,0.81641 1.03905,1.90495 1.03906,3.26562 l 0,1.14112 -6.51269,0 -0.0278,0.0464 c 0.0186,0.96485 0.26286,1.75961 0.73291,2.38428 0.47005,0.61849 1.12874,0.92774 1.97608,0.92774 0.61848,0 1.15966,-0.0866 1.62353,-0.25977 0.47005,-0.17936 0.87516,-0.42366 1.21534,-0.73291 l 0.71435,1.1875 c -0.35873,0.35254 -0.83188,0.64632 -1.41943,0.88135 -0.58757,0.23502 -1.29884,0.35254 -2.13379,0.35254 m -0.27832,-8.98047 c -0.61231,1e-5 -1.13493,0.25977 -1.56787,0.7793 -0.43295,0.51335 -0.6989,1.15967 -0.79785,1.93896 l 0.0186,0.0464 4.62939,0 0,-0.24121 c 0,-0.71744 -0.19173,-1.31738 -0.57519,-1.79981 -0.38347,-0.48241 -0.95248,-0.72362 -1.70703,-0.72363"
         style="font-size:19px;font-family:Roboto;-inkscape-font-specification:Roboto"
         id="path5167" />
      <path
         d="m 268.10547,209.28344 c -1.39779,0 -2.51107,-0.46387 -3.33985,-1.3916 -0.82259,-0.93392 -1.23388,-2.14307 -1.23388,-3.62745 l 0,-0.4082 c 0,-1.4287 0.42366,-2.6162 1.27099,-3.5625 0.85352,-0.95246 1.86165,-1.4287 3.02442,-1.42871 1.35448,1e-5 2.37808,0.40821 3.0708,1.22461 0.6927,0.81641 1.03905,1.90495 1.03906,3.26562 l 0,1.14112 -6.51269,0 -0.0278,0.0464 c 0.0186,0.96485 0.26286,1.75961 0.73291,2.38428 0.47005,0.61849 1.12874,0.92774 1.97608,0.92774 0.61848,0 1.15966,-0.0866 1.62353,-0.25977 0.47005,-0.17936 0.87516,-0.42366 1.21534,-0.73291 l 0.71435,1.1875 c -0.35873,0.35254 -0.83188,0.64632 -1.41943,0.88135 -0.58757,0.23502 -1.29884,0.35254 -2.13379,0.35254 m -0.27832,-8.98047 c -0.61231,1e-5 -1.13493,0.25977 -1.56787,0.7793 -0.43295,0.51335 -0.6989,1.15967 -0.79785,1.93896 l 0.0186,0.0464 4.62939,0 0,-0.24121 c 0,-0.71744 -0.19173,-1.31738 -0.57519,-1.79981 -0.38347,-0.48241 -0.95248,-0.72362 -1.70703,-0.72363"
         style="font-size:19px;font-family:Roboto;-inkscape-font-specification:Roboto"
         id="path5169" />
      <path
         d="m 281.76172,204.41283 0.25049,1.68848 0.0557,0.009 0.36182,-1.69776 2.47705,-8.83203 1.61426,0 2.4956,8.83203 0.3711,1.73487 0.0557,0 0.26904,-1.73487 2.01319,-8.83203 1.82763,0 -3.25635,13.50781 -1.63281,0 -2.6626,-9.37011 -0.24121,-1.21534 -0.0557,0 -0.23193,1.21534 -2.70899,9.37011 -1.63281,0 -3.24707,-13.50781 1.81836,0 2.05957,8.83203"
         style="font-size:19px;font-family:Roboto;-inkscape-font-specification:Roboto"
         id="path5171" />
      <path
         d="m 297.45898,209.08861 -1.82763,0 0,-10.03808 1.82763,0 0,10.03808 m 0,-12.60791 -1.82763,0 0,-1.86474 1.82763,0 0,1.86474"
         style="font-size:19px;font-family:Roboto;-inkscape-font-specification:Roboto"
         id="path5173" />
      <path
         d="m 301.03076,209.08861 0,-8.68359 -1.56787,0 0,-1.35449 1.56787,0 0,-1.271 c 0,-1.06997 0.27832,-1.89566 0.83496,-2.47705 0.56282,-0.58755 1.34521,-0.88133 2.34717,-0.88135 0.21028,2e-5 0.42057,0.0186 0.63086,0.0557 0.21647,0.0309 0.45458,0.0773 0.71436,0.13916 l -0.22266,1.3916 c -0.11134,-0.0247 -0.2474,-0.0464 -0.4082,-0.0649 -0.15463,-0.0185 -0.31853,-0.0278 -0.4917,-0.0278 -0.53191,2e-5 -0.92774,0.16083 -1.1875,0.48243 -0.25977,0.31544 -0.38966,0.77621 -0.38965,1.38232 l 0,1.271 2.0874,0 0,1.35449 -2.0874,0 0,8.68359 -1.82764,0"
         style="font-size:19px;font-family:Roboto;-inkscape-font-specification:Roboto"
         id="path5175" />
      <path
         d="m 308.81445,209.08861 -1.82763,0 0,-10.03808 1.82763,0 0,10.03808 m 0,-12.60791 -1.82763,0 0,-1.86474 1.82763,0 0,1.86474"
         style="font-size:19px;font-family:Roboto;-inkscape-font-specification:Roboto"
         id="path5177" />
    </g>
    <g
       style="font-size:12px;font-style:normal;font-variant:normal;font-weight:bold;font-stretch:normal;line-height:125%;letter-spacing:0px;word-spacing:0px;fill:#000000;fill-opacity:1;stroke:none;font-family:Oswald;-inkscape-font-specification:Oswald Bold"
       id="text4108-1">
      <path
         d="m 180.67505,516.13208 c -1e-5,-0.32552 -0.12208,-0.59733 -0.36621,-0.81543 -0.24415,-0.22135 -0.67709,-0.4069 -1.29883,-0.55664 -0.75196,-0.17903 -1.33952,-0.4427 -1.7627,-0.79102 -0.41992,-0.3483 -0.62988,-0.78612 -0.62988,-1.31347 0,-0.55338 0.22624,-1.01562 0.67871,-1.38672 0.45573,-0.37109 1.04492,-0.55663 1.76758,-0.55664 0.77799,1e-5 1.39648,0.21322 1.85547,0.63965 0.46223,0.42644 0.68522,0.92123 0.66894,1.48437 l -0.01,0.0293 -0.91797,0 c 0,-0.41666 -0.13835,-0.75358 -0.41504,-1.01074 -0.27344,-0.25716 -0.66732,-0.38574 -1.18164,-0.38575 -0.47852,10e-6 -0.84636,0.10906 -1.10351,0.32715 -0.25391,0.21485 -0.38087,0.49643 -0.38086,0.84473 -1e-5,0.30925 0.13834,0.56804 0.41503,0.77637 0.2767,0.20508 0.72591,0.38574 1.34766,0.54199 0.74869,0.18555 1.31836,0.45899 1.70899,0.82031 0.39061,0.36133 0.58593,0.80892 0.58593,1.34277 0,0.57292 -0.23438,1.03353 -0.70312,1.38184 -0.46876,0.34831 -1.08074,0.52246 -1.83594,0.52246 -0.70964,0 -1.33789,-0.19206 -1.88477,-0.57617 -0.54362,-0.38411 -0.80729,-0.89844 -0.79101,-1.54297 l 0.01,-0.0293 0.91797,0 c 0,0.45573 0.16765,0.80241 0.50293,1.04004 0.33529,0.23763 0.75033,0.35645 1.24512,0.35645 0.48502,0 0.86914,-0.10254 1.15234,-0.30762 0.2832,-0.20508 0.4248,-0.4834 0.42481,-0.83496"
         style="font-size:10px;font-weight:normal;font-family:Roboto;-inkscape-font-specification:Roboto"
         id="path5180" />
      <path
         d="m 186.90552,516.13208 c -1e-5,-0.32552 -0.12208,-0.59733 -0.36621,-0.81543 -0.24415,-0.22135 -0.67709,-0.4069 -1.29883,-0.55664 -0.75196,-0.17903 -1.33952,-0.4427 -1.7627,-0.79102 -0.41992,-0.3483 -0.62988,-0.78612 -0.62988,-1.31347 0,-0.55338 0.22624,-1.01562 0.67871,-1.38672 0.45573,-0.37109 1.04492,-0.55663 1.76758,-0.55664 0.77799,1e-5 1.39648,0.21322 1.85547,0.63965 0.46223,0.42644 0.68521,0.92123 0.66894,1.48437 l -0.01,0.0293 -0.91797,0 c -1e-5,-0.41666 -0.13835,-0.75358 -0.41504,-1.01074 -0.27344,-0.25716 -0.66732,-0.38574 -1.18164,-0.38575 -0.47852,10e-6 -0.84636,0.10906 -1.10352,0.32715 -0.2539,0.21485 -0.38086,0.49643 -0.38086,0.84473 0,0.30925 0.13835,0.56804 0.41504,0.77637 0.27669,0.20508 0.72591,0.38574 1.34766,0.54199 0.74869,0.18555 1.31835,0.45899 1.70898,0.82031 0.39062,0.36133 0.58594,0.80892 0.58594,1.34277 0,0.57292 -0.23438,1.03353 -0.70312,1.38184 -0.46876,0.34831 -1.08074,0.52246 -1.83594,0.52246 -0.70964,0 -1.33789,-0.19206 -1.88477,-0.57617 -0.54362,-0.38411 -0.80729,-0.89844 -0.79101,-1.54297 l 0.01,-0.0293 0.91797,0 c 0,0.45573 0.16764,0.80241 0.50293,1.04004 0.33529,0.23763 0.75032,0.35645 1.24512,0.35645 0.48502,0 0.86914,-0.10254 1.15234,-0.30762 0.2832,-0.20508 0.4248,-0.4834 0.42481,-0.83496"
         style="font-size:10px;font-weight:normal;font-family:Roboto;-inkscape-font-specification:Roboto"
         id="path5182" />
      <path
         d="m 190.27954,517.92407 -0.9668,0 0,-7.10937 0.9668,0 0,7.10937"
         style="font-size:10px;font-weight:normal;font-family:Roboto;-inkscape-font-specification:Roboto"
         id="path5184" />
      <path
         d="m 192.09595,517.92407 0,-7.10937 2.18261,0 c 0.93099,0 1.67806,0.28646 2.24122,0.85937 0.56314,0.56967 0.84472,1.30697 0.84472,2.21192 l 0,0.97168 c 0,0.9082 -0.28158,1.64713 -0.84472,2.21679 -0.56316,0.56641 -1.31023,0.84961 -2.24122,0.84961 l -2.18261,0 m 0.96191,-6.35254 0,5.60059 1.2207,0 c 0.65755,0 1.17513,-0.21647 1.55274,-0.64941 0.38085,-0.43295 0.57128,-0.98796 0.57129,-1.66504 l 0,-0.98145 c -1e-5,-0.67057 -0.19044,-1.22232 -0.57129,-1.65527 -0.37761,-0.43294 -0.89519,-0.64941 -1.55274,-0.64942 l -1.2207,0"
         style="font-size:10px;font-weight:normal;font-family:Roboto;-inkscape-font-specification:Roboto"
         id="path5186" />
    </g>
  </g>
</svg>
