<?xml version="1.0" encoding="UTF-8" standalone="no"?>
<!-- Created with Inkscape (http://www.inkscape.org/) -->

<svg
   xmlns:dc="http://purl.org/dc/elements/1.1/"
   xmlns:cc="http://creativecommons.org/ns#"
   xmlns:rdf="http://www.w3.org/1999/02/22-rdf-syntax-ns#"
   xmlns:svg="http://www.w3.org/2000/svg"
   xmlns="http://www.w3.org/2000/svg"
   xmlns:xlink="http://www.w3.org/1999/xlink"
   xmlns:sodipodi="http://sodipodi.sourceforge.net/DTD/sodipodi-0.dtd"
   xmlns:inkscape="http://www.inkscape.org/namespaces/inkscape"
   id="svg3300"
   version="1.1"
   inkscape:version="0.48.4 r9939"
   width="526.17499"
   height="372.04999"
   xml:space="preserve"
   sodipodi:docname="Rueckseite.svg"
   inkscape:export-filename="/home/hej/c3pb/freifunk/PR/Postkarte/Rueckseite_600dpi.png"
   inkscape:export-xdpi="600"
   inkscape:export-ydpi="600"><metadata
     id="metadata3306"><rdf:RDF><cc:Work
         rdf:about=""><dc:format>image/svg+xml</dc:format><dc:type
           rdf:resource="http://purl.org/dc/dcmitype/StillImage" /><dc:title></dc:title></cc:Work></rdf:RDF></metadata><defs
     id="defs3304"><clipPath
       clipPathUnits="userSpaceOnUse"
       id="clipPath3316"><path
         d="m 0,0 0,2976 4209,0 L 4209,0 0,0 z"
         id="path3318"
         inkscape:connector-curvature="0" /></clipPath><clipPath
       clipPathUnits="userSpaceOnUse"
       id="clipPath3322"><path
         d="m 4209.45,-28.082 -4209.45,0 0,3004.462 4209.45,0 0,-3004.462 m -1676.42,304.461 0,0 c 653.38,0 1183.03,531.883 1183.03,1188.001 l 0,0 c 0,656.12 -529.65,1188 -1183.03,1188 -478.94,0 -891.38,-285.76 -1077.47,-696.79 -19.94,1.46 -40.05,2.2 -60.36,2.2 -450.938,0 -816.477,-365.55 -816.477,-816.48 0,-450.919 365.539,-816.47 816.477,-816.47 178.15,0 342.97,57.051 477.19,153.89 188.65,-127.75 415.99,-202.351 660.64,-202.351"
         id="path3324"
         inkscape:connector-curvature="0" /></clipPath><linearGradient
       x1="0"
       y1="0"
       x2="1"
       y2="0"
       gradientUnits="userSpaceOnUse"
       gradientTransform="matrix(0,311.574,311.574,0,218.17,-13.937)"
       spreadMethod="pad"
       id="linearGradient3326"><stop
         style="stop-color:#fecd43;stop-opacity:1;"
         offset="0"
         id="stop3328" /><stop
         style="stop-color:#ffedbb;stop-opacity:1;"
         offset="1"
         id="stop3330" /></linearGradient><clipPath
       clipPathUnits="userSpaceOnUse"
       id="clipPath3338"><path
         d="m 1395.2,324.84 c -450.938,0 -816.477,365.551 -816.477,816.47 0,450.93 365.539,816.48 816.477,816.48 20.31,0 40.42,-0.74 60.36,-2.2 -22.78,-50.31 -42.19,-102.55 -57.89,-156.32 -0.81,0.01 -1.66,0.01 -2.48,0.01 -361.96,-0.02 -655.268,-294.62 -655.272,-657.97 l 16.031,0 16.031,0 -16.031,0 -16.031,0 c 0.004,-363.341 293.312,-657.951 655.272,-657.958 126.83,0 245.23,36.168 345.54,98.796 41.35,-37.476 85.32,-72.039 131.66,-103.418 C 1738.17,381.891 1573.35,324.84 1395.2,324.84 m -0.01,190.57 C 1223.06,515.422 1067.37,585.422 954.535,698.711 841.727,812.02 771.988,968.398 771.98,1141.31 c 0.008,172.92 69.747,329.3 182.555,442.61 111.435,111.88 264.665,181.54 434.255,183.26 -25.3,-96.67 -38.77,-198.16 -38.77,-302.8 0,-41.01 2.07,-81.55 6.11,-121.48 l -104.22,104.69 -150.52,0 106.55,-107.04 -213.28,-0.01 0,-107.07 213.28,0.03 -106.55,-107.05 150.52,0 118.2,118.74 c 46.38,-249.71 170.53,-471.928 346.28,-640.362 -93.8,-56.777 -203.66,-89.406 -321.2,-89.418"
         id="path3340"
         inkscape:connector-curvature="0" /></clipPath><linearGradient
       x1="0"
       y1="0"
       x2="1"
       y2="0"
       gradientUnits="userSpaceOnUse"
       gradientTransform="matrix(0,311.574,311.574,0,218.17,-13.937)"
       spreadMethod="pad"
       id="linearGradient3342"><stop
         style="stop-opacity:1;stop-color:#ffffff"
         offset="0"
         id="stop3344" /><stop
         style="stop-opacity:1;stop-color:#fcd053"
         offset="1"
         id="stop3346" /></linearGradient><clipPath
       clipPathUnits="userSpaceOnUse"
       id="clipPath3354"><path
         d="m 2533.03,276.379 0,0 c -244.65,0 -471.99,74.601 -660.64,202.351 -46.34,31.379 -90.31,65.942 -131.66,103.418 55.33,34.551 105.17,77.161 147.87,126.184 76.8,-66.023 163.82,-120.461 258.43,-160.66 118.64,-50.41 249.28,-78.293 385.89,-78.293 0.04,0 0.08,0 0.11,0 0.07,0 0.12,0 0.2,0 204.96,0.012 396.21,62.812 554.24,170.09 158.15,107.32 283.66,259.07 358.92,437.721 50.17,119.06 77.89,250.13 77.88,387.2 0.03,205.65 -62.42,397.54 -169.24,556.23 -106.81,158.74 -257.94,284.84 -436,360.49 -118.67,50.41 -249.35,78.3 -386,78.28 -0.08,0 -0.12,0 -0.2,0 -204.96,0 -396.21,-62.81 -554.23,-170.09 -158.16,-107.32 -283.66,-259.07 -358.92,-437.72 -11.23,-26.64 -21.34,-53.9 -30.26,-81.69 -60.63,18.87 -125,29.13 -191.75,29.38 15.7,53.77 35.11,106.01 57.89,156.32 186.09,411.03 598.53,696.79 1077.47,696.79 653.38,0 1183.03,-531.88 1183.03,-1188 l 0,0 c 0,-656.118 -529.65,-1188.001 -1183.03,-1188.001 m -816.64,328.449 c -175.75,168.434 -299.9,390.652 -346.28,640.362 l 41.64,41.83 -55.62,55.88 c -4.04,39.93 -6.11,80.47 -6.11,121.48 0,104.64 13.47,206.13 38.77,302.8 2.13,0.02 4.27,0.03 6.4,0.03 64.4,0 126.51,-9.8 184.92,-28 -24.96,-87.38 -38.32,-179.66 -38.31,-274.82 l 96.3,0 96.31,0 -96.31,0 -96.3,0 c -0.04,-205.66 62.42,-397.55 169.24,-556.242 44.06,-65.488 95.65,-125.41 153.58,-178.527 -9.24,-10.621 -18.85,-20.941 -28.77,-30.91 -35.79,-35.93 -75.9,-67.512 -119.46,-93.883 m 816.64,57.16 c -165.65,0.043 -318.72,50.391 -446.3,136.871 -32.87,22.301 -64.02,47.012 -93.17,73.86 14.45,32.41 26.37,66.222 35.5,101.152 127.56,-132.121 306.19,-214.23 503.97,-214.242 387.69,0.012 701.86,315.581 701.86,704.761 0,389.18 -314.17,704.74 -701.86,704.76 -335.42,-0.02 -615.81,-236.22 -685.33,-551.95 -25.71,24.66 -53.42,47.24 -82.86,67.47 23.33,82.3 59.41,159.13 106,228.43 86.18,128.13 208.34,229.94 351.49,290.72 95.47,40.54 200.22,62.95 310.7,62.96 165.65,-0.04 318.73,-50.39 446.3,-136.87 127.51,-86.49 228.96,-209.17 289.55,-353.09 40.41,-95.97 62.77,-201.32 62.78,-312.43 -0.04,-166.61 -50.27,-320.54 -136.44,-448.72 C 3109.05,887.551 2986.89,785.73 2843.73,724.949 2748.27,684.422 2643.51,662 2533.03,661.988 m 0,129.703 c -185,0.008 -352.33,75.25 -473.6,197.008 -7.41,7.442 -14.65,15.061 -21.71,22.841 8.36,41.95 12.75,85.35 12.75,129.77 0,173.23 -66.67,330.83 -175.66,448.33 25.41,135.57 91.3,256.71 184.62,350.44 121.27,121.75 288.61,196.99 473.6,197 184.99,-0.01 352.33,-75.25 473.6,-197 121.24,-121.78 196.19,-289.86 196.2,-475.69 -0.01,-185.83 -74.96,-353.92 -196.2,-475.691 -121.27,-121.758 -288.61,-197 -473.6,-197.008 m 206.94,223.469 0,0 -180.43,181.24 361.16,0.03 0,181.21 -361.16,0 180.43,181.25 -254.87,0 -270.64,-271.87 270.64,-271.86 254.87,0 M 1968.9,896.422 c -72.53,72.726 -131.24,159.388 -171.72,255.528 -40.4,95.97 -62.76,201.32 -62.77,312.44 0.01,64.54 7.56,127.19 21.81,187.16 28.39,-20.3 55.03,-42.94 79.63,-67.63 1.53,-1.54 3.07,-3.1 4.59,-4.66 -6.11,-37.39 -9.28,-75.75 -9.28,-114.87 l 16.03,0 16.03,0 -16.03,0 -16.03,0 c 0,-176.73 64.8,-338.3 171.84,-462.01 -8.27,-36.65 -19.74,-72.071 -34.1,-105.958 m 41.88,146.718 c -92.33,115.3 -147.55,261.73 -147.56,421.25 0,28.52 1.77,56.63 5.2,84.21 93.51,-109.48 149.98,-251.69 149.98,-407.29 0,-33.4 -2.6,-66.19 -7.62,-98.17"
         id="path3356"
         inkscape:connector-curvature="0" /></clipPath><linearGradient
       x1="0"
       y1="0"
       x2="1"
       y2="0"
       gradientUnits="userSpaceOnUse"
       gradientTransform="matrix(0,311.574,311.574,0,218.17,-13.937)"
       spreadMethod="pad"
       id="linearGradient3358"><stop
         style="stop-opacity:1;stop-color:#ffffff"
         offset="0"
         id="stop3360" /><stop
         style="stop-opacity:1;stop-color:#fcd053"
         offset="1"
         id="stop3362" /></linearGradient><clipPath
       clipPathUnits="userSpaceOnUse"
       id="clipPath3370"><path
         d="m 1395.19,483.352 c -361.96,0.007 -655.268,294.617 -655.272,657.958 l 16.031,0 16.031,0 -16.031,0 -16.031,0 c 0.004,363.35 293.312,657.95 655.272,657.97 0.82,0 1.67,0 2.48,-0.01 66.75,-0.25 131.12,-10.51 191.75,-29.38 -3.26,-10.16 -6.36,-20.38 -9.31,-30.68 -58.41,18.2 -120.52,28 -184.92,28 -2.13,0 -4.27,-0.01 -6.4,-0.03 C 1219.2,1765.46 1065.97,1695.8 954.535,1583.92 841.727,1470.61 771.988,1314.23 771.98,1141.31 771.988,968.398 841.727,812.02 954.535,698.711 1067.37,585.422 1223.06,515.422 1395.19,515.41 c 117.54,0.012 227.4,32.641 321.2,89.418 43.56,26.371 83.67,57.953 119.46,93.883 9.92,9.969 19.53,20.289 28.77,30.91 7.88,-7.223 15.87,-14.32 23.98,-21.289 -42.7,-49.023 -92.54,-91.633 -147.87,-126.184 -100.31,-62.628 -218.71,-98.796 -345.54,-98.796 m 598.37,389.367 c -8.39,7.722 -16.61,15.621 -24.66,23.703 14.36,33.887 25.83,69.308 34.1,105.958 8.43,-9.739 17.12,-19.239 26.06,-28.509 -9.13,-34.93 -21.05,-68.742 -35.5,-101.152 m 44.16,138.821 c -9.29,10.25 -18.28,20.79 -26.94,31.6 5.02,31.98 7.62,64.77 7.62,98.17 0,155.6 -56.47,297.81 -149.98,407.29 1.72,13.81 3.85,27.5 6.39,41.04 108.99,-117.5 175.66,-275.1 175.66,-448.33 0,-44.42 -4.39,-87.82 -12.75,-129.77 m -197.28,567.72 c -1.52,1.56 -3.06,3.12 -4.59,4.66 -24.6,24.69 -51.24,47.33 -79.63,67.63 2.65,11.14 5.52,22.17 8.62,33.12 29.44,-20.23 57.15,-42.81 82.86,-67.47 -2.75,-12.52 -5.18,-25.18 -7.26,-37.94"
         id="path3372"
         inkscape:connector-curvature="0" /></clipPath><linearGradient
       x1="0"
       y1="0"
       x2="1"
       y2="0"
       gradientUnits="userSpaceOnUse"
       gradientTransform="matrix(0,311.574,311.574,0,218.17,-13.937)"
       spreadMethod="pad"
       id="linearGradient3374"><stop
         style="stop-opacity:1;stop-color:#f8ccdc"
         offset="0"
         id="stop3376" /><stop
         style="stop-opacity:1;stop-color:#f6a344"
         offset="1"
         id="stop3378" /></linearGradient><clipPath
       clipPathUnits="userSpaceOnUse"
       id="clipPath3386"><path
         d="m 2739.97,1015.16 -254.87,0 -270.64,271.86 270.64,271.87 254.87,0 -180.43,-181.25 361.16,0 0,-181.21 -361.16,-0.03 180.43,-181.24"
         id="path3388"
         inkscape:connector-curvature="0" /></clipPath><linearGradient
       x1="0"
       y1="0"
       x2="1"
       y2="0"
       gradientUnits="userSpaceOnUse"
       gradientTransform="matrix(0,311.574,311.574,0,218.17,-13.937)"
       spreadMethod="pad"
       id="linearGradient3390"><stop
         style="stop-opacity:1;stop-color:#feebca"
         offset="0"
         id="stop3392" /><stop
         style="stop-opacity:1;stop-color:#fbbf28"
         offset="1"
         id="stop3394" /></linearGradient><clipPath
       clipPathUnits="userSpaceOnUse"
       id="clipPath3402"><path
         d="m 1251.91,1126.45 -150.52,0 106.55,107.05 -213.28,-0.03 0,107.07 213.28,0.01 -106.55,107.04 150.52,0 104.22,-104.69 55.62,-55.88 -41.64,-41.83 -118.2,-118.74"
         id="path3404"
         inkscape:connector-curvature="0" /></clipPath><linearGradient
       x1="0"
       y1="0"
       x2="1"
       y2="0"
       gradientUnits="userSpaceOnUse"
       gradientTransform="matrix(0,311.574,311.574,0,218.17,-13.937)"
       spreadMethod="pad"
       id="linearGradient3406"><stop
         style="stop-opacity:1;stop-color:#feebca"
         offset="0"
         id="stop3408" /><stop
         style="stop-opacity:1;stop-color:#fbbf28"
         offset="1"
         id="stop3410" /></linearGradient><clipPath
       clipPathUnits="userSpaceOnUse"
       id="clipPath3418"><path
         d="m 2533.23,469.379 c -0.08,0 -0.13,0 -0.2,0 -0.03,0 -0.07,0 -0.11,0 -136.61,0 -267.25,27.883 -385.89,78.293 -94.61,40.199 -181.63,94.637 -258.43,160.66 -8.11,6.969 -16.1,14.066 -23.98,21.289 -57.93,53.117 -109.52,113.039 -153.58,178.527 -106.82,158.692 -169.28,350.582 -169.24,556.242 l 96.3,0 96.31,0 -96.31,0 -96.3,0 c -0.01,95.16 13.35,187.44 38.31,274.82 2.95,10.3 6.05,20.52 9.31,30.68 8.92,27.79 19.03,55.05 30.26,81.69 75.26,178.65 200.76,330.4 358.92,437.72 158.02,107.28 349.27,170.09 554.23,170.09 0.08,0 0.12,0 0.2,0 136.65,0.02 267.33,-27.87 386,-78.28 178.06,-75.65 329.19,-201.75 436,-360.49 106.82,-158.69 169.27,-350.58 169.24,-556.23 0.01,-137.07 -27.71,-268.14 -77.88,-387.2 C 3371.13,898.539 3245.62,746.789 3087.47,639.469 2929.44,532.191 2738.19,469.391 2533.23,469.379 m -539.67,403.34 c 29.15,-26.848 60.3,-51.559 93.17,-73.86 127.58,-86.48 280.65,-136.828 446.3,-136.871 110.48,0.012 215.24,22.434 310.7,62.961 143.16,60.781 265.32,162.602 351.49,290.721 86.17,128.18 136.4,282.11 136.44,448.72 -0.01,111.11 -22.37,216.46 -62.78,312.43 -60.59,143.92 -162.04,266.6 -289.55,353.09 -127.57,86.48 -280.65,136.83 -446.3,136.87 -110.48,-0.01 -215.23,-22.42 -310.7,-62.96 -143.15,-60.78 -265.31,-162.59 -351.49,-290.72 -46.59,-69.3 -82.67,-146.13 -106,-228.43 -3.1,-10.95 -5.97,-21.98 -8.62,-33.12 -14.25,-59.97 -21.8,-122.62 -21.81,-187.16 0.01,-111.12 22.37,-216.47 62.77,-312.44 40.48,-96.14 99.19,-182.802 171.72,-255.528 8.05,-8.082 16.27,-15.981 24.66,-23.703"
         id="path3420"
         inkscape:connector-curvature="0" /></clipPath><linearGradient
       x1="0"
       y1="0"
       x2="1"
       y2="0"
       gradientUnits="userSpaceOnUse"
       gradientTransform="matrix(0,311.574,311.574,0,218.17,-13.937)"
       spreadMethod="pad"
       id="linearGradient3422"><stop
         style="stop-opacity:1;stop-color:#f8ccdc"
         offset="0"
         id="stop3424" /><stop
         style="stop-opacity:1;stop-color:#f6a344"
         offset="1"
         id="stop3426" /></linearGradient><clipPath
       clipPathUnits="userSpaceOnUse"
       id="clipPath3434"><path
         d="m 2533.03,759.629 c -197.78,0.012 -376.41,82.121 -503.97,214.242 -8.94,9.27 -17.63,18.77 -26.06,28.509 -107.04,123.71 -171.84,285.28 -171.84,462.01 l 16.03,0 16.03,0 -16.03,0 -16.03,0 c 0,39.12 3.17,77.48 9.28,114.87 2.08,12.76 4.51,25.42 7.26,37.94 69.52,315.73 349.91,551.93 685.33,551.95 387.69,-0.02 701.86,-315.58 701.86,-704.76 0,-389.18 -314.17,-704.749 -701.86,-704.761 m -495.31,251.911 c 7.06,-7.78 14.3,-15.399 21.71,-22.841 121.27,-121.758 288.6,-197 473.6,-197.008 184.99,0.008 352.33,75.25 473.6,197.008 121.24,121.771 196.19,289.861 196.2,475.691 -0.01,185.83 -74.96,353.91 -196.2,475.69 -121.27,121.75 -288.61,196.99 -473.6,197 -184.99,-0.01 -352.33,-75.25 -473.6,-197 -93.32,-93.73 -159.21,-214.87 -184.62,-350.44 -2.54,-13.54 -4.67,-27.23 -6.39,-41.04 -3.43,-27.58 -5.2,-55.69 -5.2,-84.21 0.01,-159.52 55.23,-305.95 147.56,-421.25 8.66,-10.81 17.65,-21.35 26.94,-31.6"
         id="path3436"
         inkscape:connector-curvature="0" /></clipPath><linearGradient
       x1="0"
       y1="0"
       x2="1"
       y2="0"
       gradientUnits="userSpaceOnUse"
       gradientTransform="matrix(0,311.574,311.574,0,218.17,-13.937)"
       spreadMethod="pad"
       id="linearGradient3438"><stop
         style="stop-opacity:1;stop-color:#f8ccdc"
         offset="0"
         id="stop3440" /><stop
         style="stop-opacity:1;stop-color:#f6a344"
         offset="1"
         id="stop3442" /></linearGradient><linearGradient
       inkscape:collect="always"
       xlink:href="#linearGradient3326"
       id="linearGradient5866"
       x1="14.173228"
       y1="14.175962"
       x2="14.173228"
       y2="357.87677"
       gradientUnits="userSpaceOnUse"
       gradientTransform="matrix(0.81063127,0,0,0.8149533,-2.7969759,-300.42165)" /></defs><sodipodi:namedview
     pagecolor="#ffffff"
     bordercolor="#666666"
     borderopacity="1"
     objecttolerance="10"
     gridtolerance="10"
     guidetolerance="10"
     inkscape:pageopacity="0"
     inkscape:pageshadow="2"
     inkscape:window-width="2560"
     inkscape:window-height="1032"
     id="namedview3302"
     showgrid="false"
     inkscape:zoom="1.7417014"
     inkscape:cx="147.39603"
     inkscape:cy="208.99105"
     inkscape:window-x="-4"
     inkscape:window-y="-1"
     inkscape:window-maximized="1"
     inkscape:current-layer="g3308"
     showguides="true"
     inkscape:guide-bbox="true"
     inkscape:document-units="mm"
     units="mm"><sodipodi:guide
       orientation="1,0"
       position="0,0"
       id="guide4333" /><sodipodi:guide
       orientation="0,1"
       position="0,372.04724"
       id="guide4335" /><sodipodi:guide
       orientation="0,1"
       position="526.1811,0"
       id="guide4337" /><sodipodi:guide
       orientation="1,0"
       position="526.1811,372.04724"
       id="guide4339" /><sodipodi:guide
       orientation="1,0"
       position="-7.0866142,-7.0866142"
       id="guide4353" /><sodipodi:guide
       orientation="1,0"
       position="533.26772,379.13386"
       id="guide4355" /><sodipodi:guide
       orientation="0,1"
       position="-7.0866142,379.13386"
       id="guide4359" /><sodipodi:guide
       orientation="0,1"
       position="533.26772,-7.0866142"
       id="guide4361" /><sodipodi:guide
       orientation="0,1"
       position="14.173228,357.87402"
       id="guide4363" /><sodipodi:guide
       orientation="1,0"
       position="14.173228,14.173228"
       id="guide4365" /><sodipodi:guide
       orientation="1,0"
       position="512.00787,357.87402"
       id="guide4367" /><sodipodi:guide
       orientation="0,1"
       position="512.00787,14.173228"
       id="guide4369" /></sodipodi:namedview><g
     id="g3308"
     inkscape:groupmode="layer"
     inkscape:label="ink_ext_XXXXXX"
     transform="matrix(1.25,0,0,-1.25,0,372.04993)"><rect
       style="fill:url(#linearGradient5866);fill-opacity:1;stroke:none"
       id="rect5858"
       width="432.28345"
       height="308.97638"
       x="-5.6692915"
       y="-303.30704"
       transform="scale(1,-1)" /><g
       transform="matrix(0.72040267,0,0,0.72040267,42.563814,24.929206)"
       inkscape:label="ink_ext_XXXXXX"
       id="g10"
       style="opacity:0.1"><path
         d="m 0.546875,119.921 c 0,62.512 50.673825,113.186 113.185125,113.186 62.511,0 113.186,-50.674 113.186,-113.186 C 226.918,57.4102 176.243,6.73633 113.732,6.73633 51.2207,6.73633 0.546875,57.4102 0.546875,119.921"
         style="fill:#ffffff;fill-opacity:1;fill-rule:nonzero;stroke:none"
         id="path14"
         inkscape:connector-curvature="0" /><path
         d="m 107.47,164.708 c 0,90.957 73.423,164.69 163.999,164.69 90.576,0 164,-73.733 164,-164.69 0,-90.9572 -73.424,-164.6904219 -164,-164.6904219 C 180.893,0.0175781 107.47,73.7508 107.47,164.708"
         style="fill:#ffffff;fill-opacity:1;fill-rule:nonzero;stroke:none"
         id="path16"
         inkscape:connector-curvature="0" /><path
         d="m 25.1148,119.922 c 0,49.148 39.6747,88.99 88.6172,88.99 48.942,0 88.617,-39.842 88.617,-88.99 0,-49.149 -39.675,-88.9904 -88.617,-88.9904 -48.9425,0 -88.6172,39.8414 -88.6172,88.9904 z"
         style="fill:none;stroke:#dc0067;stroke-width:4.44519997000000000;stroke-linecap:butt;stroke-linejoin:miter;stroke-miterlimit:3.86368989999999979;stroke-opacity:1;stroke-dasharray:none"
         id="path18"
         inkscape:connector-curvature="0" /><path
         d="m 227.306,140.121 37.517,37.687 35.332,0 -25.01,-25.125 50.065,0.001 0,-25.122 -50.065,-0.004 25.01,-25.125 -35.332,0 -37.517,37.688"
         style="fill:#ffb400;fill-opacity:1;fill-rule:nonzero;stroke:none"
         id="path20"
         inkscape:connector-curvature="0" /><path
         d="m 116.027,140.121 -22.1575,22.258 -20.8675,0 14.7714,-14.839 -29.566,-0.001 0,-14.842 29.566,0.004 -14.7714,-14.839 20.8675,0 22.1575,22.259"
         style="fill:#ffb400;fill-opacity:1;fill-rule:nonzero;stroke:none"
         id="path22"
         inkscape:connector-curvature="0" /><path
         d="m 147.406,164.709 c 0,68.807 55.544,124.585 124.063,124.585 68.519,0 124.063,-55.778 124.063,-124.585 0,-68.8078 -55.544,-124.5856 -124.063,-124.5856 -68.519,0 -124.063,55.7778 -124.063,124.5856 z"
         style="fill:none;stroke:#dc0067;stroke-width:26.70060158000000072;stroke-linecap:butt;stroke-linejoin:miter;stroke-miterlimit:3.86368989999999979;stroke-opacity:1;stroke-dasharray:none"
         id="path24"
         inkscape:connector-curvature="0" /><path
         d="m 176.392,164.709 c 0,52.731 42.567,95.477 95.077,95.477 52.51,0 95.076,-42.746 95.076,-95.477 0,-52.731 -42.566,-95.477 -95.076,-95.477 -52.51,0 -95.077,42.746 -95.077,95.477 z"
         style="fill:none;stroke:#dc0067;stroke-width:4.44519997000000000;stroke-linecap:butt;stroke-linejoin:miter;stroke-miterlimit:3.86368989999999979;stroke-opacity:1;stroke-dasharray:none"
         id="path26"
         inkscape:connector-curvature="0" /></g><g
       id="g4458"
       transform="translate(-11.2,11.2)"><path
         d="m 35.6102,246.355 75.0988,0 0,2 -75.0988,0 0,-2 z"
         style="fill:#a41557;fill-opacity:1;fill-rule:nonzero;stroke:none"
         id="path3446"
         inkscape:connector-curvature="0" /><text
         y="-252.355"
         x="35.610199"
         id="text3456"
         transform="scale(1,-1)"><tspan
           y="-252.355"
           x="35.610199"
           id="tspan3458"
           sodipodi:role="line"
           style="font-size:11px;font-variant:normal;font-weight:normal;writing-mode:lr-tb;fill:#231f20;fill-opacity:1;fill-rule:nonzero;stroke:none;font-family:Oswald;-inkscape-font-specification:Oswald-Regular">Wen suchen wir?</tspan></text>
<text
         y="-235.55499"
         x="35.610199"
         id="text3460"
         transform="scale(1,-1)"><tspan
           y="-235.55499"
           x="35.610199"
           id="tspan3464"
           sodipodi:role="line"
           style="font-size:9px;font-variant:normal;font-weight:300;writing-mode:lr-tb;fill:#231f20;fill-opacity:1;fill-rule:nonzero;stroke:none;font-family:Roboto;-inkscape-font-specification:Roboto">Wir suchen Menschen, die sich am Netzausbau beteiligen wollen</tspan><tspan
           id="tspan3506"
           y="-224.30499"
           x="35.610199"
           sodipodi:role="line"
           style="font-size:9px;font-variant:normal;font-weight:300;writing-mode:lr-tb;fill:#231f20;fill-opacity:1;fill-rule:nonzero;stroke:none;font-family:Roboto;-inkscape-font-specification:Roboto">oder die Idee weitertragen und -entwickeln wollen (z.B. bei der Technik).</tspan></text>
</g><g
       id="g4466"
       transform="translate(-11.2,9.6)"><path
         d="m 35.6102,196.556 126.057,0 0,1.99961 -126.057,0 0,-1.99961 z"
         style="fill:#a41557;fill-opacity:1;fill-rule:nonzero;stroke:none"
         id="path3448"
         inkscape:connector-curvature="0" /><text
         y="-202.55499"
         x="35.610199"
         id="text3466"
         transform="scale(1,-1)"><tspan
           id="tspan3468"
           sodipodi:role="line"
           y="-202.55499"
           x="35.610199 44.00256 49.28706 53.359024 58.797791 66.985916 69.330292 74.684654 79.855392 83.986763 89.243752 94.961502 100.08274"
           style="font-size:11px;font-variant:normal;font-weight:normal;writing-mode:lr-tb;fill:#231f20;fill-opacity:1;fill-rule:nonzero;stroke:none;font-family:Oswald;-inkscape-font-specification:Oswald-Regular">Warum gerade Freifunk?</tspan></text>
<text
         y="-185.755"
         x="35.610199"
         id="text3470"
         transform="scale(1,-1)"><tspan
           id="tspan3513"
           y="-185.755"
           x="35.610199"
           sodipodi:role="line"
           style="font-size:9px;font-variant:normal;font-weight:300;writing-mode:lr-tb;fill:#231f20;fill-opacity:1;fill-rule:nonzero;stroke:none;font-family:Roboto;-inkscape-font-specification:Roboto">Mit Freifunk entsteht ein freies, unabhängiges und dezentral organisiertes Netzwerk. Das hilft </tspan><tspan
           id="tspan3517"
           y="-174.505"
           x="35.610199"
           sodipodi:role="line"
           style="font-size:9px;font-variant:normal;font-weight:300;writing-mode:lr-tb;fill:#231f20;fill-opacity:1;fill-rule:nonzero;stroke:none;font-family:Roboto;-inkscape-font-specification:Roboto">uns, eigene Interessen zu wahren und sie denen der anderer, kommerzieller Anbieter (die meist</tspan><tspan
           y="-163.255"
           x="35.610199"
           sodipodi:role="line"
           style="font-size:9px;font-variant:normal;font-weight:300;writing-mode:lr-tb;fill:#231f20;fill-opacity:1;fill-rule:nonzero;stroke:none;font-family:Roboto;-inkscape-font-specification:Roboto"
           id="tspan4508">gewinnorientiert arbeiten) entgegen zu stellen.</tspan><tspan
           id="tspan3515"
           y="-152.005"
           x="35.610199"
           sodipodi:role="line"
           style="font-size:9px;font-variant:normal;font-weight:300;writing-mode:lr-tb;fill:#231f20;fill-opacity:1;fill-rule:nonzero;stroke:none;font-family:Roboto;-inkscape-font-specification:Roboto" /></text>
</g><g
       id="g4476"
       transform="translate(-11.2,8)"><path
         d="m 35.6102,135.956 327.55133,0 0,2 -327.55133,0 0,-2 z"
         style="fill:#a41557;fill-opacity:1;fill-rule:nonzero;stroke:none"
         id="path3450"
         inkscape:connector-curvature="0" /><text
         y="-141.955"
         x="35.610199"
         id="text3478"
         transform="scale(1,-1)"><tspan
           y="-141.955"
           x="35.610199"
           id="tspan3480"
           sodipodi:role="line"
           style="font-size:11px;font-variant:normal;font-weight:normal;writing-mode:lr-tb;fill:#231f20;fill-opacity:1;fill-rule:nonzero;stroke:none;font-family:Oswald;-inkscape-font-specification:Oswald-Regular">Muss ich Angst vor Abmahnungen und Urheberrechtsverletzungen haben?</tspan></text>
<text
         y="-125.155"
         x="35.610199"
         id="text3482"
         transform="scale(1,-1)"><tspan
           id="tspan3524"
           y="-125.155"
           x="35.610199"
           sodipodi:role="line"
           style="font-size:9px;font-variant:normal;font-weight:300;writing-mode:lr-tb;fill:#231f20;fill-opacity:1;fill-rule:nonzero;stroke:none;font-family:Roboto;-inkscape-font-specification:Roboto">Nein. Router mit der Freifunk Paderborn Software leiten den Internetverkehr durch von uns be-</tspan><tspan
           y="-113.905"
           x="35.610199"
           sodipodi:role="line"
           style="font-size:9px;font-variant:normal;font-weight:300;writing-mode:lr-tb;fill:#231f20;fill-opacity:1;fill-rule:nonzero;stroke:none;font-family:Roboto;-inkscape-font-specification:Roboto"
           id="tspan4516">treute Server. Nur diese erscheinen nach außen, so dass der Internetanschluss des Freifunk-</tspan><tspan
           y="-102.655"
           x="35.610199"
           sodipodi:role="line"
           style="font-size:9px;font-variant:normal;font-weight:300;writing-mode:lr-tb;fill:#231f20;fill-opacity:1;fill-rule:nonzero;stroke:none;font-family:Roboto;-inkscape-font-specification:Roboto"
           id="tspan4354">Knotens für Externe gar nicht sichtbar wird.</tspan></text>
<text
         xml:space="preserve"
         style="font-size:12px;font-style:normal;font-variant:normal;font-weight:normal;font-stretch:normal;line-height:125%;letter-spacing:0px;word-spacing:0px;fill:#000000;fill-opacity:1;stroke:none;font-family:Roboto;-inkscape-font-specification:Roboto"
         x="43.635494"
         y="190.04405"
         id="text4344"
         sodipodi:linespacing="125%"
         transform="matrix(0.8,0,0,-0.8,11.2,289.63994)"><tspan
           sodipodi:role="line"
           id="tspan4346"
           x="43.635494"
           y="190.04405" /></text>
</g><g
       id="g4485"
       transform="translate(-11.2,6.4)"><path
         d="m 35.6102,75.3559 237.294,0 0,2 -237.294,0 0,-2 z"
         style="fill:#a41557;fill-opacity:1;fill-rule:nonzero;stroke:none"
         id="path3452"
         inkscape:connector-curvature="0" /><text
         y="-81.355003"
         x="35.610199"
         id="text3490"
         transform="scale(1,-1)"><tspan
           y="-81.355003"
           x="35.610199"
           id="tspan3492"
           sodipodi:role="line"
           style="font-size:11px;font-variant:normal;font-weight:normal;writing-mode:lr-tb;fill:#231f20;fill-opacity:1;fill-rule:nonzero;stroke:none;font-family:Oswald;-inkscape-font-specification:Oswald-Regular">Sind offene Netzwerke sicher für den Internetnutzer?</tspan></text>
<text
         y="-64.555"
         x="35.610199"
         id="text3494"
         transform="scale(1,-1)"><tspan
           id="tspan3537"
           y="-64.555"
           x="35.610199"
           sodipodi:role="line"
           style="font-size:9px;font-variant:normal;font-weight:300;writing-mode:lr-tb;fill:#231f20;fill-opacity:1;fill-rule:nonzero;stroke:none;font-family:Roboto;-inkscape-font-specification:Roboto">Die Sicherheit von (offenen) Netzen ist immer sehr eingeschränkt. Allerdings ist der Zugriff </tspan><tspan
           y="-53.305"
           x="35.610199"
           sodipodi:role="line"
           style="font-size:9px;font-variant:normal;font-weight:300;writing-mode:lr-tb;fill:#231f20;fill-opacity:1;fill-rule:nonzero;stroke:none;font-family:Roboto;-inkscape-font-specification:Roboto"
           id="tspan4520">über Freifunk Paderborn nicht unsicherer als über andere (kommerzielle) Anbieter.</tspan><tspan
           id="tspan3541"
           y="-42.055"
           x="35.610199"
           sodipodi:role="line"
           style="font-size:9px;font-variant:normal;font-weight:300;writing-mode:lr-tb;fill:#231f20;fill-opacity:1;fill-rule:nonzero;stroke:none;font-family:Roboto;-inkscape-font-specification:Roboto">Datenpakete können grundsätzlich an vielen Durchgangsstellen im Internet mitgelesen werden.</tspan><tspan
           y="-30.805"
           x="35.610199"
           sodipodi:role="line"
           style="font-size:9px;font-variant:normal;font-weight:300;writing-mode:lr-tb;fill:#231f20;fill-opacity:1;fill-rule:nonzero;stroke:none;font-family:Roboto;-inkscape-font-specification:Roboto"
           id="tspan4524">Wir empfehlen daher die Nutzung von Ende-zu-Ende-Verschlüsselung (z.B. HTTPS).</tspan></text>
</g><g
       id="g4497"
       transform="translate(0,-1.6)"><text
         y="-266.94424"
         x="312.99802"
         transform="scale(1,-1)"
         id="text236"><tspan
           style="font-size:8.69999981px;font-variant:normal;font-weight:normal;writing-mode:lr-tb;fill:#231f20;fill-opacity:1;fill-rule:nonzero;stroke:none;font-family:Oswald;-inkscape-font-specification:Oswald-Regular"
           x="312.99802 317.07626 319.31912 323.6315 327.59491 329.36212 331.54941 335.70819 339.97153 344.1554 346.30881 350.27222 352.0394 354.36621 358.66901 360.98056 364.05945 366.3093 370.49753 373.57642 375.95847 379.76715 383.73056 385.49777 389.33951 393.49829"
           y="-266.94424"
           sodipodi:role="line"
           id="tspan238">eine lokale Initiative von</tspan></text>
<path
         inkscape:connector-curvature="0"
         id="path240"
         style="fill:#231f20;fill-opacity:1;fill-rule:nonzero;stroke:none"
         d="m 316.70003,246.60624 0,11.636 0.984,0 0,2.192 -0.984,0 0,0.738 c 0,0.203 0.074,0.346 0.222,0.428 0.149,0.082 0.403,0.123 0.762,0.123 l 0,2.168 -1.723,0 c -0.726,0 -1.293,-0.19 -1.699,-0.569 -0.406,-0.378 -0.609,-0.904 -0.609,-1.576 l 0,-1.312 -0.75,0 0,-2.192 0.75,0 0,-11.636 3.047,0 z m 5.184,0 0,10.722 c 0,0.282 0.045,0.489 0.135,0.621 0.09,0.133 0.228,0.2 0.416,0.2 0.203,0 0.345,-0.057 0.428,-0.17 0.082,-0.114 0.123,-0.33 0.123,-0.651 l 0,-4.336 3.07,0 0,5.344 c 0,0.781 -0.166,1.369 -0.498,1.764 -0.332,0.394 -0.83,0.592 -1.494,0.592 -0.477,0 -0.895,-0.116 -1.254,-0.346 -0.36,-0.231 -0.668,-0.588 -0.926,-1.072 l -0.047,0 0,1.16 -3,0 0,-13.828 3.047,0 z m 8.555,11.806 c 0.086,0.129 0.227,0.194 0.422,0.194 0.195,0 0.336,-0.065 0.422,-0.194 0.086,-0.129 0.129,-0.345 0.129,-0.65 l 0,-2.613 -1.102,0 0,2.613 c 0,0.305 0.043,0.521 0.129,0.65 z m -0.129,-5.326 4.149,0 0,4.699 c 0,0.93 -0.321,1.659 -0.961,2.186 -0.641,0.527 -1.528,0.791 -2.66,0.791 -1.289,0 -2.207,-0.293 -2.754,-0.879 -0.547,-0.586 -0.82,-1.605 -0.82,-3.059 l 0,-6.621 c 0,-1.437 0.277,-2.453 0.832,-3.047 0.554,-0.593 1.476,-0.89 2.765,-0.89 1.141,0 2.026,0.275 2.655,0.826 0.628,0.551 0.943,1.326 0.943,2.326 l 0,2.567 -3.047,0 0,-2.59 c 0,-0.305 -0.043,-0.522 -0.129,-0.651 -0.086,-0.129 -0.227,-0.193 -0.422,-0.193 -0.195,0 -0.336,0.064 -0.422,0.193 -0.086,0.129 -0.129,0.346 -0.129,0.651 l 0,3.691 z m 8.579,-6.48 0,13.828 -3.047,0 0,-13.828 3.047,0 z m 0,14.66 0,2.625 -3.047,0 0,-2.625 3.047,0 z m 5.042,-14.66 0,11.636 0.984,0 0,2.192 -0.984,0 0,0.738 c 0,0.203 0.074,0.346 0.222,0.428 0.149,0.082 0.403,0.123 0.762,0.123 l 0,2.168 -1.723,0 c -0.726,0 -1.293,-0.19 -1.699,-0.569 -0.406,-0.378 -0.609,-0.904 -0.609,-1.576 l 0,-1.312 -0.75,0 0,-2.192 0.75,0 0,-11.636 3.047,0 z m 6.286,13.828 0,-10.735 c 0,-0.289 -0.041,-0.496 -0.123,-0.621 -0.082,-0.125 -0.217,-0.187 -0.405,-0.187 -0.203,0 -0.349,0.058 -0.439,0.176 -0.09,0.117 -0.135,0.328 -0.135,0.632 l 0,10.735 -3.047,0 0,-11.742 c 0,-0.774 0.166,-1.354 0.498,-1.741 0.332,-0.386 0.83,-0.58 1.494,-0.58 0.485,0 0.901,0.112 1.248,0.334 0.348,0.223 0.651,0.573 0.909,1.049 l 0.07,0 0,-1.148 3,0 0,13.828 -3.07,0 z m 7.517,-13.828 0,10.722 c 0,0.282 0.045,0.489 0.135,0.621 0.089,0.133 0.228,0.2 0.416,0.2 0.203,0 0.345,-0.057 0.428,-0.17 0.082,-0.114 0.123,-0.33 0.123,-0.651 l 0,-10.722 3.07,0 0,11.73 c 0,0.781 -0.166,1.369 -0.498,1.764 -0.332,0.394 -0.83,0.592 -1.494,0.592 -0.477,0 -0.895,-0.116 -1.254,-0.346 -0.36,-0.231 -0.668,-0.588 -0.926,-1.072 l -0.047,0 0,1.16 -3,0 0,-13.828 3.047,0 z m 8.619,0 0,7.242 0.047,0 1.207,-7.242 3.211,0 -1.512,7.851 1.512,5.977 -3.117,0 -1.301,-6.024 -0.047,0 0,9.481 -3.047,0 0,-17.285 3.047,0 z m 8.824,0 0,3.527 -3.176,0 0,-3.527 3.176,0 z m 4.566,0 0,10.722 c 0,0.282 0.045,0.489 0.135,0.621 0.089,0.133 0.228,0.2 0.416,0.2 0.203,0 0.345,-0.057 0.427,-0.17 0.082,-0.114 0.123,-0.33 0.123,-0.651 l 0,-10.722 3.071,0 0,11.73 c 0,0.781 -0.166,1.369 -0.498,1.764 -0.332,0.394 -0.83,0.592 -1.494,0.592 -0.477,0 -0.895,-0.116 -1.254,-0.346 -0.36,-0.231 -0.668,-0.588 -0.926,-1.072 l -0.047,0 0,1.16 -3,0 0,-13.828 3.047,0 z m 8.694,11.806 c 0.086,0.129 0.226,0.194 0.422,0.194 0.195,0 0.335,-0.065 0.421,-0.194 0.086,-0.129 0.129,-0.345 0.129,-0.65 l 0,-2.613 -1.101,0 0,2.613 c 0,0.305 0.043,0.521 0.129,0.65 z m -0.129,-5.326 4.148,0 0,4.699 c 0,0.93 -0.32,1.659 -0.961,2.186 -0.64,0.527 -1.527,0.791 -2.66,0.791 -1.289,0 -2.207,-0.293 -2.754,-0.879 -0.547,-0.586 -0.82,-1.605 -0.82,-3.059 l 0,-6.621 c 0,-1.437 0.277,-2.453 0.832,-3.047 0.555,-0.593 1.476,-0.89 2.766,-0.89 1.14,0 2.025,0.275 2.654,0.826 0.629,0.551 0.943,1.326 0.943,2.326 l 0,2.567 -3.047,0 0,-2.59 c 0,-0.305 -0.043,-0.522 -0.129,-0.651 -0.086,-0.129 -0.226,-0.193 -0.421,-0.193 -0.196,0 -0.336,0.064 -0.422,0.193 -0.086,0.129 -0.129,0.346 -0.129,0.651 l 0,3.691 z m 6.043,5.133 0,-9.188 c 0,-0.937 0.154,-1.576 0.463,-1.916 0.308,-0.339 0.834,-0.509 1.576,-0.509 l 1.922,0 0,2.226 -0.106,0 c -0.312,0 -0.521,0.057 -0.627,0.17 -0.105,0.113 -0.158,0.385 -0.158,0.815 l 0,8.402 0.891,0 0,2.215 -0.891,0 0,2.566 -3.07,0 0,-2.566 -0.774,0 0,-2.215 0.774,0" /></g><flowRoot
       xml:space="preserve"
       id="flowRoot4526"
       style="font-size:12px;font-style:normal;font-variant:normal;font-weight:normal;font-stretch:normal;text-align:center;line-height:125%;letter-spacing:0px;word-spacing:0px;text-anchor:middle;fill:#000000;fill-opacity:1;stroke:none;font-family:Roboto;-inkscape-font-specification:Roboto"
       transform="matrix(0.8,0,0,-0.8,0,286.43994)"><flowRegion
         id="flowRegion4528"><rect
           id="rect4530"
           width="466.78494"
           height="20.669443"
           x="30.430014"
           y="326.69205"
           style="font-weight:normal;text-align:center;text-anchor:middle;-inkscape-font-specification:Roboto" /></flowRegion><flowPara
         id="flowPara4532"
         style="font-size:12px;font-style:normal;font-variant:normal;font-weight:normal;font-stretch:normal;font-family:Oswald;-inkscape-font-specification:Oswald">Weitere Informationen und Kontaktmöglichkeiten auf http://muenster.freifunk.net/</flowPara></flowRoot></g></svg>