<?xml version="1.0" encoding="UTF-8" standalone="no"?>
<svg
   xmlns:dc="http://purl.org/dc/elements/1.1/"
   xmlns:cc="http://creativecommons.org/ns#"
   xmlns:rdf="http://www.w3.org/1999/02/22-rdf-syntax-ns#"
   xmlns:svg="http://www.w3.org/2000/svg"
   xmlns="http://www.w3.org/2000/svg"
   xmlns:sodipodi="http://sodipodi.sourceforge.net/DTD/sodipodi-0.dtd"
   xmlns:inkscape="http://www.inkscape.org/namespaces/inkscape"
   version="1.2"
   width="262.20471"
   height="184.25197"
   viewBox="0 0 262.20472 184.25197"
   preserveAspectRatio="none"
   id="svg3040"
   inkscape:version="0.48.4 r9939"
   sodipodi:docname="Freifunk-logo.svg">
  <metadata
     id="metadata3088">
    <rdf:RDF>
      <cc:Work
         rdf:about="">
        <dc:format>image/svg+xml</dc:format>
        <dc:type
           rdf:resource="http://purl.org/dc/dcmitype/StillImage" />
        <dc:title></dc:title>
      </cc:Work>
    </rdf:RDF>
  </metadata>
  <defs
     id="defs3086" />
  <sodipodi:namedview
     pagecolor="#ffffff"
     bordercolor="#666666"
     borderopacity="1"
     objecttolerance="10"
     gridtolerance="10"
     guidetolerance="10"
     inkscape:pageopacity="0"
     inkscape:pageshadow="2"
     inkscape:window-width="1151"
     inkscape:window-height="703"
     id="namedview3084"
     showgrid="false"
     inkscape:zoom="1.430303"
     inkscape:cx="85"
     inkscape:cy="82.5"
     inkscape:window-x="202"
     inkscape:window-y="30"
     inkscape:window-maximized="0"
     inkscape:current-layer="svg3040" />
  <!-- Designed by Monic Meisel and hand-coded as SVG by Alina Friedrichsen -->
  <g
     id="g3046"
     transform="translate(39.851695,9.4640437)">
    <circle
       cx="36"
       cy="54"
       r="22"
       transform="matrix(1.477616,0,0,1.5065066,-3.122124,-2.4350016)"
       stroke-miterlimit="4"
       id="circle3048"
       sodipodi:cx="36"
       sodipodi:cy="54"
       sodipodi:rx="22"
       sodipodi:ry="22"
       style="fill:none;stroke:#de2c68;stroke-width:1.14544892;stroke-miterlimit:4;stroke-opacity:1;stroke-dasharray:none"
       d="M 58,54 C 58,66.150264 48.150264,76 36,76 23.849736,76 14,66.150264 14,54 14,41.849736 23.849736,32 36,32 c 12.150264,0 22,9.849736 22,22 z" />
    <circle
       cx="74"
       cy="44"
       r="22"
       transform="matrix(1.5950476,0,0,1.6223254,-10.072136,-9.1778182)"
       stroke-miterlimit="4"
       id="circle3050"
       sodipodi:cx="74"
       sodipodi:cy="44"
       sodipodi:rx="22"
       sodipodi:ry="22"
       style="fill:none;stroke:#de2c68;stroke-width:1.06239557;stroke-miterlimit:4;stroke-opacity:1;stroke-dasharray:none"
       d="M 96,44 C 96,56.150264 86.150264,66 74,66 61.849736,66 52,56.150264 52,44 52,31.849736 61.849736,22 74,22 c 12.150264,0 22,9.849736 22,22 z" />
    <circle
       cx="74"
       cy="44"
       r="29"
       transform="matrix(1.5831269,0,0,1.5986441,-9.3397104,-8.1360194)"
       stroke-miterlimit="4"
       id="circle3052"
       sodipodi:cx="74"
       sodipodi:cy="44"
       sodipodi:rx="29"
       sodipodi:ry="29"
       style="fill:none;stroke:#de2c68;stroke-width:5.81192684;stroke-miterlimit:4;stroke-opacity:1;stroke-dasharray:none"
       d="M 103,44 C 103,60.016258 90.016258,73 74,73 57.983742,73 45,60.016258 45,44 45,27.983742 57.983742,15 74,15 c 16.016258,0 29,12.983742 29,29 z" />
    <polygon
       points="26,56 31,56 37,50 31,44 26,44 30,48 22,48 22,52 30,52 "
       transform="matrix(1.4493674,0,0,1.3737988,-2.70016,2.5042672)"
       id="polygon3054"
       style="fill:#ffcc33;fill-opacity:1" />
    <polygon
       points="73,41 64,50 73,59 81,59 75,53 88,53 88,47 75,47 81,41 "
       transform="matrix(1.5159598,0,0,1.568926,-5.2784314,-7.233634)"
       id="polygon3056"
       style="fill:#ffcc33;fill-opacity:1" />
  </g>
  <text
     xml:space="preserve"
     style="font-size:20px;font-style:normal;font-variant:normal;font-weight:bold;font-stretch:normal;line-height:125%;letter-spacing:0px;word-spacing:0px;fill:#000000;fill-opacity:1;stroke:none;font-family:Arial;-inkscape-font-specification:Arial Bold"
     x="29.364408"
     y="147.19704"
     id="text3090"
     sodipodi:linespacing="125%"><tspan
       sodipodi:role="line"
       id="tspan3092"
       x="29.364408"
       y="147.19704">muenster.freifunk.net</tspan></text>
</svg>
